<svg width="649" height="108" viewBox="0 0 649 108" fill="none" xmlns="http://www.w3.org/2000/svg">
<path d="M30.6234 79.7876C30.9816 79.7876 31.3398 79.6079 31.5189 79.6079C35.4587 79.2485 38.145 81.5846 38.145 87.6944C38.145 92.726 36.5332 95.7809 31.3398 95.7809H23.6392V98.8358H19.3412V97.3982C19.3412 95.2418 18.4457 94.8824 13.7896 93.2651V88.9523L19.1621 88.5929V81.944H23.4601V88.5929H30.6234C32.5934 88.5929 33.4888 87.8741 33.4888 86.2568C33.4888 84.9989 32.4143 83.9207 30.0862 84.2801C29.728 84.2801 29.1908 84.4598 28.8326 84.4598L30.6234 79.7876Z" fill="#B5B1B1"/>
<path d="M37.7867 62.1773H26.6835C25.0717 62.1773 23.9972 63.0758 23.9972 64.6931C23.9972 66.1307 24.8927 67.748 27.5789 67.748H37.7867V74.7563H12.894V67.748H21.8482C19.6992 66.3104 18.8038 63.9743 18.8038 61.8179C18.8038 57.6848 21.1319 54.9893 25.4299 54.9893H37.7867V62.1773Z" fill="#B5B1B1"/>
<path d="M28.4742 51.3951C22.7436 51.3951 18.8037 47.4416 18.8037 40.9724C18.8037 35.7611 20.7736 30.7295 27.2207 30.7295C27.7579 30.7295 28.4742 30.7295 29.1906 30.9092V44.207C32.0559 44.3867 33.6677 42.7694 33.6677 40.4333C33.6677 38.6363 33.1304 37.019 31.3396 37.019C31.1605 37.019 30.8023 37.019 30.6232 37.1987L31.1605 31.2686C31.3396 31.2686 31.6978 31.2686 32.0559 31.2686C36.7121 31.2686 38.3239 36.3002 38.3239 41.1521C38.1448 47.4416 34.9213 51.3951 28.4742 51.3951ZM26.6834 37.7378C26.5043 37.7378 26.3252 37.7378 25.9671 37.7378C23.9971 37.7378 23.1017 38.9957 23.1017 40.9724C23.1017 43.1288 24.7135 44.207 26.6834 44.3867V37.7378Z" fill="#B5B1B1"/>
<path d="M114.434 41.6909L111.032 48.3398L118.912 46.3631C119.449 46.1834 119.986 46.3631 120.344 46.9022C120.702 47.2616 128.403 57.6842 125.359 65.591C125.359 65.7707 124.105 68.8256 119.807 79.2483C118.553 82.3032 117.658 84.6393 117.658 84.6393C114.613 92.9055 101.899 99.7341 89.5418 99.7341C63.0373 99.7341 40.6519 74.9355 40.6519 59.4812C40.6519 57.3248 41.01 55.1684 41.9054 53.3714L49.2479 35.4014L49.427 35.042C49.9642 33.4246 50.8596 32.1667 51.9341 30.9088C52.1132 30.7291 52.2923 30.3697 52.6505 30.19C52.8296 30.0103 52.8296 30.0103 53.0086 29.8306C53.1877 29.6509 53.3668 29.4712 53.5459 29.2915C53.725 29.1118 53.9041 29.1118 53.9041 28.9321C54.0831 28.7524 54.2622 28.5727 54.4413 28.393C54.6204 28.2133 54.7995 28.2133 54.9786 28.0336C55.1577 27.8539 55.3367 27.8539 55.5158 27.6742C55.6949 27.4945 56.0531 27.3148 56.4112 27.1351C56.5903 26.9554 56.7694 26.9554 56.9485 26.7757C57.3067 26.596 57.6648 26.4163 58.023 26.2366C58.2021 26.2366 58.3812 26.0569 58.3812 26.0569C58.7393 25.8772 59.0975 25.6975 59.4557 25.5178C59.6347 25.5178 59.6347 25.3381 59.8138 25.3381C60.3511 25.1584 60.8883 24.9787 61.4256 24.799H61.6047C62.1419 24.6193 62.5001 24.4396 63.0373 24.2599C63.2164 24.2599 63.2164 24.2599 63.3955 24.0802C68.9471 22.4629 74.1405 22.1035 76.2895 22.1035C76.4686 22.1035 76.4686 22.1035 76.6477 22.1035H77.0059H77.185H77.3641C92.0489 22.1035 102.615 28.7524 108.525 33.784C109.062 34.3231 109.599 34.8623 110.136 35.2217C110.674 35.7608 111.032 36.1202 111.569 36.4796C113.181 38.0969 114.076 39.3548 114.255 39.5345C114.255 39.7142 114.434 39.7142 114.434 39.8939V40.0736V40.2533V40.433V40.6127V40.7924C114.434 41.3315 114.434 41.3315 114.434 41.6909C114.434 41.5112 114.434 41.5112 114.434 41.6909C114.434 41.5112 114.434 41.5112 114.434 41.6909ZM123.389 62.1767C123.389 61.997 123.389 61.6376 123.389 61.4579C123.389 61.2782 123.389 61.0985 123.389 60.9188C123.389 60.7391 123.389 60.5594 123.389 60.2C123.389 60.0203 123.389 59.8406 123.21 59.6609C123.21 59.4812 123.21 59.3015 123.21 59.1218C123.21 58.9421 123.03 58.7624 123.03 58.403C123.03 58.2233 123.03 58.0436 122.851 57.8639C122.851 57.5045 122.672 57.3248 122.493 56.9654V56.7857C122.314 56.4263 122.314 56.0669 122.135 55.7075C121.061 52.8323 119.449 50.4962 118.732 49.2383L109.42 51.5744L99.7495 53.9105C100.287 54.9887 100.824 56.4263 100.466 58.0436C100.287 59.1218 99.3914 60.7391 97.0633 61.8173C89.5418 65.2316 79.334 56.4263 75.9314 49.2383C73.9615 45.1052 74.4987 41.6909 77.185 40.2533C83.8111 36.6593 90.079 42.4097 92.0489 44.3864L110.495 39.8939C110.495 39.8939 110.315 39.7142 110.315 39.5345C110.136 39.3548 110.136 39.3548 109.957 39.1751C109.778 38.9954 109.599 38.8157 109.42 38.636C109.241 38.4563 109.062 38.2766 108.883 38.0969C108.704 37.9172 108.346 37.7375 108.166 37.3781C107.987 37.1984 107.808 37.0187 107.629 36.839C107.271 36.6593 107.092 36.2999 106.734 36.1202C106.555 35.9405 106.376 35.7608 106.197 35.5811C105.659 35.2216 105.122 34.6826 104.585 34.3231C104.406 34.1434 104.227 34.1434 104.227 33.9637C103.868 33.6043 103.331 33.2449 102.794 33.0652C102.615 32.8855 102.257 32.7058 102.078 32.5261C101.719 32.3464 101.361 31.987 100.824 31.8073C100.466 31.6276 100.287 31.4479 99.9286 31.2682C99.5705 31.0885 99.0332 30.7291 98.675 30.5494C98.3169 30.3697 97.9587 30.19 97.6005 30.0103C97.2424 29.8306 96.7051 29.6509 96.3469 29.2915C95.9888 29.1118 95.6306 28.9321 95.2724 28.7524C94.7352 28.5727 94.377 28.393 93.8398 28.2133C93.4816 28.0336 93.1234 27.8539 92.5862 27.6742C92.0489 27.4945 91.5117 27.3148 91.1535 27.1351C90.7953 26.9554 90.2581 26.7757 89.8999 26.7757C89.3627 26.596 88.8254 26.4163 88.2882 26.2366C87.93 26.0569 87.3927 26.0569 87.0346 25.8772C86.4973 25.6975 85.781 25.6975 85.2437 25.5178C84.8856 25.5178 84.3483 25.3381 83.9902 25.3381C83.2738 25.1584 82.5575 25.1584 81.8412 25.1584C81.483 25.1584 81.1248 24.9787 80.7666 24.9787C79.6921 24.799 78.4386 24.799 77.3641 24.799H77.185H77.0059H76.8268H76.6477H76.4686H76.2895H76.1105C75.9314 24.799 75.9314 24.799 75.7523 24.799C75.7523 24.799 75.5732 24.799 75.3941 24.799C75.215 24.799 75.036 24.799 75.036 24.799H74.8569C74.6778 24.799 74.4987 24.799 74.3196 24.799H74.1405C73.066 24.9787 71.6334 24.9787 70.2007 25.3381C69.8425 25.3381 69.4844 25.5178 69.1262 25.5178C63.0373 26.596 55.5158 29.1118 52.6505 34.8622C52.6505 35.042 52.4714 35.042 52.4714 35.2217C51.7551 36.6593 51.3969 38.0969 51.3969 39.8939C51.3969 53.9105 72.887 77.2716 97.4215 77.2716C109.599 77.2716 120.344 70.4429 122.851 63.9737C122.851 63.794 122.851 63.794 122.851 63.6143C122.851 63.4346 123.03 63.0752 123.03 62.8955C123.03 62.7158 123.03 62.7158 123.03 62.5361C123.03 62.3564 123.21 61.997 123.21 61.8173C123.389 62.3564 123.21 62.1767 123.389 62.1767Z" fill="#B5B1B1"/>
<path d="M110.495 40.0733L92.0491 44.5658C90.0792 42.5891 83.8113 36.8387 77.1852 40.4327C74.4989 41.8703 73.9617 45.2846 75.9316 49.4177C79.3342 56.6058 89.542 65.2314 97.0635 61.9968C99.5707 60.9186 100.287 59.3013 100.466 58.2231C100.824 56.7855 100.287 55.1681 99.7497 54.0899L109.42 51.7538L118.733 49.4177C119.628 50.6756 121.061 53.0117 122.135 55.8869C122.314 56.2463 122.314 56.6058 122.493 56.9652V57.1449C122.672 57.5043 122.672 57.684 122.852 58.0434C122.852 58.2231 122.852 58.4028 123.031 58.5825C123.031 58.7622 123.21 58.9419 123.21 59.3013C123.21 59.481 123.21 59.6607 123.21 59.8404C123.21 60.0201 123.21 60.1998 123.389 60.3795C123.389 60.5592 123.389 60.7389 123.389 61.0983C123.389 61.278 123.389 61.4577 123.389 61.6374C123.389 61.8171 123.389 62.1765 123.389 62.3562C123.389 62.5359 123.389 62.5359 123.389 62.7156C123.389 62.8953 123.389 63.2547 123.21 63.4344C123.21 63.6141 123.21 63.6141 123.21 63.7938C123.21 63.9735 123.031 64.3329 123.031 64.5126C123.031 64.6923 123.031 64.6923 123.031 64.872C120.703 71.3412 109.778 78.1698 97.6007 78.1698C73.0662 78.1698 51.5762 54.8087 51.5762 40.7921C51.5762 38.9951 51.9343 37.3778 52.6507 36.1199C52.6507 35.9402 52.6507 35.9402 52.8298 35.7605C55.6951 30.0101 63.2166 27.4943 69.3055 26.4161C69.6636 26.4161 70.0218 26.2364 70.38 26.2364C71.8127 26.0567 73.0662 25.877 74.3198 25.6973H74.4989C74.678 25.6973 74.8571 25.6973 75.0362 25.6973C75.2153 25.6973 75.2152 25.6973 75.2152 25.6973C75.3943 25.6973 75.5734 25.6973 75.5734 25.6973C75.7525 25.6973 75.7525 25.6973 75.9316 25.6973C76.1107 25.6973 76.1107 25.6973 76.2897 25.6973H76.4688C76.6479 25.6973 76.6479 25.6973 76.6479 25.6973H76.827H77.0061V25.6973H77.1852H77.3643C78.6178 25.6973 79.6923 25.6973 80.7668 25.877C81.125 25.877 81.4832 25.877 81.8414 26.0567C82.5577 26.0567 83.274 26.2364 83.9904 26.2364C84.3485 26.2364 84.8858 26.4161 85.2439 26.4161C85.7812 26.5958 86.4975 26.5958 87.0348 26.7755C87.3929 26.9552 87.9302 26.9552 88.2884 27.1349C88.8256 27.3146 89.3629 27.4943 89.9001 27.674C90.2583 27.8537 90.7955 27.8537 91.1537 28.0334C91.691 28.2131 92.2282 28.3928 92.5864 28.5725C92.9446 28.7522 93.4818 28.9319 93.84 29.1116C94.3772 29.2913 94.7354 29.471 95.2726 29.6507C95.6308 29.8304 95.989 30.0101 96.3471 30.1898C96.8844 30.3695 97.2426 30.5492 97.6007 30.9086C97.9589 31.0883 98.3171 31.268 98.6752 31.4477C99.0334 31.6274 99.5707 31.9868 99.9288 32.1665C100.287 32.3462 100.466 32.5259 100.824 32.7056C101.182 32.8853 101.541 33.2447 102.078 33.4244C102.257 33.6041 102.615 33.7838 102.794 33.9635C103.331 34.3229 103.69 34.6823 104.227 34.862C104.406 35.0417 104.585 35.0417 104.585 35.2214C105.122 35.5808 105.66 36.1199 106.197 36.4793C106.376 36.659 106.555 36.8387 106.734 37.0184C107.092 37.1981 107.271 37.5575 107.629 37.7372C107.809 37.9169 107.988 38.0966 108.167 38.2763C108.346 38.456 108.704 38.6357 108.883 38.9951C109.062 39.1748 109.241 39.3545 109.42 39.5342C109.599 39.7139 109.778 39.8936 109.958 40.0733C110.137 40.253 110.137 40.4327 110.316 40.4327C110.316 39.8936 110.316 40.0733 110.495 40.0733Z" fill="white"/>
<path d="M173.174 97.5777V57.6842C173.174 51.9338 170.309 48.3398 164.399 48.3398C159.564 48.3398 153.475 51.5744 153.475 60.9188V97.5777H128.761V8.2666H153.475V40.7924C158.847 32.8856 166.906 30.0104 174.249 30.0104C188.575 30.0104 197.888 38.636 197.888 53.5511V97.7575H173.174V97.5777Z" fill="#B5B1B1"/>
<path d="M201.111 81.0457C201.111 65.0523 216.513 63.7944 230.302 61.638C237.465 60.5598 243.733 59.6613 243.733 53.0124C243.733 47.6214 240.689 44.7462 235.495 44.7462C231.377 44.7462 226.899 47.262 226.899 53.3718C226.899 54.2703 227.078 55.5282 227.437 56.4267L205.23 57.5049C205.051 56.0673 204.872 54.6297 204.872 53.3718C204.872 38.0973 218.303 29.8311 236.749 29.8311C252.329 29.8311 267.731 35.4018 267.731 56.9658V77.0923C267.731 81.0457 269.88 83.0224 272.745 83.0224C274.536 83.0224 276.147 82.4833 277.938 81.4051V96.1405C272.924 98.2969 267.731 99.0157 262.537 99.0157C254.657 99.0157 247.494 94.3435 246.599 86.0773C241.047 96.4999 230.123 98.836 221.527 98.836C211.319 98.836 201.111 93.2653 201.111 81.0457ZM243.196 67.5682C241.047 69.3652 238.182 70.084 235.495 70.6231C231.018 71.5216 226.541 72.5998 226.541 77.6314C226.541 81.7645 229.765 83.7412 233.167 83.7412C237.644 83.7412 243.196 81.2254 243.196 74.7562V67.5682V67.5682Z" fill="#B5B1B1"/>
<path d="M282.953 23.7208V9.16504H308.383V23.7208H282.953ZM283.311 97.5777V31.4479H308.024V97.5777H283.311Z" fill="#B5B1B1"/>
<path d="M357.809 97.5781V57.6846C357.809 51.9342 354.944 48.3402 349.034 48.3402C344.199 48.3402 338.11 51.5748 338.11 60.9192V97.5781H313.396V31.4484H331.663L335.066 46.0041C339.901 34.3236 349.93 29.8311 358.884 29.8311C373.21 29.8311 382.523 38.4567 382.523 53.3718V97.5781H357.809Z" fill="#B5B1B1"/>
<path d="M432.487 53.7312C432.487 53.7312 432.666 52.653 432.666 51.9342C432.666 45.8244 426.398 42.9492 420.668 42.9492C413.684 42.9492 410.281 45.8244 410.281 49.4184C410.281 53.5515 414.579 54.9891 420.131 55.7079L422.1 55.8876C434.457 57.5049 453.082 57.8644 453.082 76.1938C453.082 91.1089 440.188 99.0158 419.235 99.0158C400.431 99.0158 386.284 94.8827 386.284 82.3036C386.284 80.6863 386.463 78.5299 387.358 76.3735L406.52 75.475C406.341 76.0141 406.341 76.7329 406.341 77.4517C406.341 83.0224 411.355 85.1788 418.34 85.1788C425.324 85.1788 428.906 82.3036 428.906 78.3502C428.906 73.8577 423.175 72.7795 416.191 72.0607L413.863 71.881C401.864 70.8028 386.463 69.0058 386.463 52.653C386.463 39.5349 398.461 29.6514 419.056 29.6514C433.383 29.6514 451.112 33.4251 451.112 49.5981C451.112 50.6763 450.933 51.9342 450.933 53.0124L432.487 53.7312Z" fill="#B5B1B1"/>
<path d="M456.126 81.0457C456.126 65.0523 471.528 63.7944 485.317 61.638C492.481 60.5598 498.748 59.6613 498.748 53.0124C498.748 47.6214 495.704 44.7462 490.511 44.7462C486.392 44.7462 481.915 47.262 481.915 53.3718C481.915 54.2703 482.094 55.5282 482.452 56.4267L460.245 57.6846C460.066 56.247 459.887 54.8094 459.887 53.5515C459.887 38.277 473.319 30.0107 491.764 30.0107C507.344 30.0107 522.746 35.5815 522.746 57.1455V77.272C522.746 81.2254 524.895 83.2021 527.76 83.2021C529.551 83.2021 531.163 82.663 532.953 81.5848V96.3202C527.939 98.4766 522.746 99.1954 517.552 99.1954C509.673 99.1954 502.509 94.5232 501.614 86.257C496.062 96.6796 485.138 99.0157 476.542 99.0157C466.155 98.836 456.126 93.2653 456.126 81.0457ZM498.032 67.5681C495.883 69.3651 493.018 70.0839 490.331 70.6231C485.854 71.5216 481.377 72.5998 481.377 77.6314C481.377 81.7645 484.601 83.7412 488.003 83.7412C492.481 83.7412 498.032 81.2254 498.032 74.7562V67.5681Z" fill="#B5B1B1"/>
<path d="M590.439 97.578L580.769 65.5913L578.978 58.2236L577.187 65.5913L567.696 97.578H545.668L522.029 31.4482H547.817L558.562 70.9824L568.591 31.4482H589.186L599.214 70.9824L609.959 31.4482H635.748L612.108 97.578H590.439Z" fill="#B5B1B1"/>
</svg>
