<svg width="71" height="53" viewBox="0 0 71 53" fill="none" xmlns="http://www.w3.org/2000/svg">
<path d="M9.37833 52.8748C5.85186 52.7613 3.05604 51.3948 1.30847 48.5678C-0.393523 45.8153 -0.454766 42.9504 1.2401 40.1287C1.74002 39.2973 2.4607 38.6395 3.30101 38.0888C11.1444 32.9504 18.8568 27.6488 26.6361 22.4308C33.1165 18.0834 39.5841 13.7203 46.0559 9.36235C49.6251 6.95825 53.237 4.60376 56.7464 2.12919C59.1534 0.431188 61.6174 0.343742 64.258 1.46356C68.1063 3.09631 70.8438 7.11618 70.6729 10.9455C70.5959 12.6735 69.8767 14.147 68.3086 15.1977C61.8837 19.5034 55.4575 23.8078 49.0298 28.1096C37.6656 35.7134 26.2772 43.2885 14.9572 50.9471C13.2395 52.11 11.5218 52.9035 9.37833 52.8748Z" fill="#020202"/>
<path d="M48.6112 12.5435C48.6682 12.5057 48.7536 12.4796 48.7779 12.43C49.5769 10.792 51.1265 9.84317 52.6476 8.86169C54.1032 7.92329 55.5402 6.96139 56.9859 6.00863C57.2166 5.92249 57.3818 5.75151 57.5769 5.61969L57.5741 5.61839C58.1609 5.72802 58.2221 5.15506 58.5796 4.96712C59.7375 3.83555 60.6462 3.63325 62.3867 4.19708C62.9749 4.38763 63.5645 4.63822 63.9904 5.10155C64.1328 5.38085 64.365 5.56096 64.694 5.63144C66.0954 6.87917 67.0198 8.36835 67.2277 10.159C67.3431 11.1418 67.0768 12.0737 66.1396 12.7054C62.3696 15.2491 58.5924 17.785 54.8153 20.3209C54.7612 20.3575 54.6828 20.3614 54.6159 20.381C53.8511 20.8378 53.0022 21.1928 52.4524 21.9054C49.6082 23.807 46.7639 25.7073 43.9225 27.6115C43.7887 27.7016 43.6733 27.8151 43.4924 27.819C43.4824 27.8021 43.4953 27.8203 43.4953 27.8177C42.927 28.4103 42.1835 28.8044 41.5042 29.2651C38.4292 31.3521 35.33 33.4103 32.2365 35.4764C32.2009 35.4999 32.1468 35.4986 32.1012 35.509C32.0115 35.5743 31.9146 35.5886 31.8078 35.5481C31.53 34.8956 31.5941 34.7572 32.3262 34.5053C31.6739 34.3278 31.6297 33.9741 31.9417 33.5199C31.9701 33.4651 32.0058 33.4155 32.0471 33.3685C32.5783 32.8987 33.0569 32.3897 33.3887 31.7776C33.967 30.7739 34.8343 29.9621 35.5721 29.0655C37.7925 26.3716 40.0486 23.7013 42.1949 20.9565C42.3786 20.7203 42.5068 20.4097 42.8885 20.3588C43.1762 20.5911 43.3941 20.5141 43.5537 20.2257C43.6462 20.056 43.6662 19.8511 43.8798 19.7114C43.6505 19.8263 43.6462 20.0351 43.5394 20.1865C43.3899 20.3992 43.2175 20.5689 42.917 20.3757C42.8159 20.2844 42.8202 20.1748 42.8942 20.0821C44.0564 18.6047 45.0648 17.0267 46.3352 15.6185C46.5304 15.5141 46.6813 15.3718 46.7839 15.1865C46.8181 15.1382 46.8565 15.0925 46.8993 15.0507C47.1043 14.8132 47.365 14.6031 47.3707 14.2637C47.5744 13.5629 48.1526 13.0904 48.6112 12.5435Z" fill="#774D25"/>
<path d="M24.1214 28.0717C26.7649 26.1753 29.5208 24.4172 32.2241 22.5939C34.8903 20.7954 37.5522 18.9943 40.2184 17.1971C40.2911 17.1475 40.3908 17.1319 40.4791 17.1006C40.875 17.0092 41.13 16.7573 41.3521 16.4662C42.07 15.9873 42.7878 15.5096 43.5056 15.0306C43.5598 14.9836 43.6281 14.9523 43.6951 14.9758C44.0696 15.1154 44.2235 15.3712 44.1551 15.738C44.4229 15.6466 44.7191 15.4012 44.8872 15.8515C44.9413 16.1648 44.7376 16.3879 44.5653 16.6203C41.882 20.229 39.1388 23.7986 36.2163 27.2494C34.5029 29.2737 32.7909 31.3019 30.9607 33.2401C30.7742 33.4371 30.5933 33.6407 30.3099 33.7256C30.1945 33.7295 30.1048 33.6695 30.0122 33.6186C30.0022 33.7595 30.1802 33.8339 30.1632 33.9788C29.7074 34.8167 28.9169 35.4144 28.2959 36.1336C27.9669 36.5147 27.7035 36.9715 27.1751 37.179C26.8176 37.2338 26.7307 37.4883 26.6666 37.7598C26.5242 38.1644 26.0769 38.3249 25.8249 38.6408C25.013 39.2138 24.4732 40.0099 23.7953 40.6938C23.5902 40.9 23.3595 41.0853 23.1401 41.2811C23.0347 41.2589 22.9934 41.2968 23.0176 41.3934C22.344 42.32 21.2786 42.8251 20.34 43.4633C20.0765 43.6421 20.0438 43.3942 19.9783 43.2375C19.6507 42.4492 19.3217 41.6622 18.9927 40.8752C18.7819 40.4641 18.5298 40.0621 18.8161 39.587C18.8688 39.4996 18.7676 39.4448 18.6537 39.4617C18.3845 39.2999 18.1438 39.0963 17.8205 39.0271C17.7336 38.988 17.6396 38.9606 17.5584 38.9083C16.5472 37.9882 15.5474 37.0576 14.3012 36.3933C14.2342 36.2798 14.1445 36.1936 13.9964 36.1741C13.8838 36.1714 13.7784 36.1532 13.7144 36.054C13.7884 35.6455 14.1516 35.2957 14.0006 34.8428C16.6953 33.0208 19.3886 31.1975 22.0847 29.3768C22.1759 29.3155 22.2941 29.2868 22.3995 29.2424C22.9493 28.8195 23.7155 28.6694 24.1214 28.0717Z" fill="#774D25"/>
<path d="M13.153 38.6399C14.3266 39.4596 15.4077 40.3523 15.9916 41.6405C15.9161 41.7136 15.8321 41.7149 15.7395 41.6705C15.7395 41.7162 15.7837 41.7318 15.8121 41.7527C16.322 42.1195 16.1397 42.4967 15.8378 42.8778C15.748 43.0031 15.5928 42.99 15.4618 43.0292C15.3635 43.067 15.2809 43.1192 15.241 43.2158C15.2168 43.4455 15.4361 43.5551 15.5316 43.7235C15.6825 44.0132 15.9004 44.2769 15.9389 44.611C15.7765 44.906 15.4831 44.9516 15.1641 44.9464C15.1143 44.9099 15.0815 44.8642 15.0616 44.8094C15.0772 44.4975 14.8864 44.2991 14.6215 44.1412C13.9805 43.2876 13.5347 42.3165 12.683 41.4878C13.2727 42.6363 13.9606 43.6622 14.1586 44.8642C14.15 44.9856 14.1116 45.0965 14.0318 45.1944C13.9563 45.2819 13.8751 45.3667 13.8125 45.4633C13.7498 45.5572 13.69 45.6538 13.5832 45.7126C13.3781 45.7661 13.398 45.4698 13.2015 45.5089C13.1117 45.5155 13.0291 45.4998 12.948 45.4646C12.8483 45.4124 12.7628 45.3432 12.6688 45.2871C12.6189 45.2571 12.5577 45.1918 12.5064 45.2388C12.4609 45.2805 12.5178 45.3536 12.5249 45.415C12.5249 45.4724 12.5079 45.5246 12.4808 45.5755C12.421 45.6382 12.3469 45.6864 12.2743 45.7347C12.2315 45.7713 12.1874 45.8078 12.1475 45.8483C11.9339 46.1707 12.27 46.3769 12.3498 46.6366C12.5805 47.237 12.505 47.8543 12.4865 48.469C12.4794 48.7157 12.3669 48.9193 12.1432 49.0668L12.1504 49.0616C11.4112 49.457 11.1149 49.3644 10.9711 48.6465C10.8002 47.7917 10.4754 46.9903 10.0368 46.2268C9.97267 46.091 10.0168 45.8966 9.79464 45.8483C9.91143 46.5713 10.2889 47.22 10.4213 47.9378C10.7005 49.4505 10.4897 49.6946 8.81332 49.6411C7.62406 49.6032 6.6456 49.1164 5.76398 48.4299C5.1017 47.7864 4.31835 47.2187 4.13747 46.2712C4.15314 46.2137 4.18732 46.1667 4.23717 46.1302C4.29414 46.0845 4.41093 46.0976 4.42233 46.0167C4.42945 45.9631 4.3212 45.9801 4.28702 45.9396C4.19159 45.7713 4.18162 46.0845 4.09047 45.9736C3.8512 45.8313 3.81986 45.6108 3.81417 45.3797C3.88111 44.8355 4.01071 44.2899 3.79707 43.7483C3.6931 43.3855 3.78426 43.0644 4.03777 42.776C4.24002 42.6689 4.3326 42.4197 4.60321 42.3988C4.88094 42.7042 5.21137 42.9208 5.66998 42.9143C6.54875 43.0148 7.40188 43.1858 8.12398 43.6948C8.18237 43.7157 8.21941 43.8201 8.27353 43.7848C8.34474 43.7365 8.29347 43.824 8.2308 43.7522C7.56709 43.2027 6.88772 42.6859 6.03886 42.3988C5.81525 42.3126 5.57598 42.3126 5.35237 42.3453C4.83251 42.4236 4.55763 42.2356 4.49354 41.7658C4.5676 40.8926 4.90515 40.7099 5.70701 41.108C5.9648 41.2293 6.21405 41.3912 6.53023 41.2763C6.99169 41.262 7.39618 41.3886 7.73801 41.6757C7.85052 41.9903 8.14962 41.9485 8.41453 41.9707C9.07111 42.1873 9.67215 42.4797 10.1009 43.0083C10.1293 43.2197 10.1066 43.4494 10.3572 43.5773C10.5039 43.6883 10.6891 43.64 10.8529 43.6765C11.1804 43.7966 11.246 44.1503 11.5792 44.3539C10.7375 42.5371 9.44569 41.1954 7.52152 40.398C7.41327 40.3536 7.30361 40.3131 7.20248 40.257C6.98742 40.1369 6.65984 40.0717 6.69687 39.7806C6.72678 39.5418 6.92333 39.3591 7.21388 39.3121C7.33636 39.252 7.48733 39.2155 7.57706 39.1267C8.18095 38.5277 8.79766 38.5303 9.44142 39.0641C9.4343 39.4021 8.99278 39.0745 8.94008 39.3395C8.96857 39.3656 8.95005 39.4309 9.02269 39.4165C8.98139 39.3591 8.98993 39.3056 9.03693 39.2547C9.42575 39.1189 9.76188 39.3956 10.135 39.3708C10.6179 39.4439 10.7703 40.0325 11.3129 40.0051C11.5208 39.8146 11.273 39.7637 11.1876 39.6658C10.776 39.47 10.625 39.0563 10.3045 38.7835L10.3216 38.7378C10.1607 38.5747 10.0766 38.3345 9.79179 38.2967C9.50836 38.1113 9.12239 37.9325 9.74337 37.6885C10.2789 37.7655 10.6763 38.0069 10.8799 38.4807C11.1221 38.4977 11.3015 38.5799 11.3129 38.8331C11.5365 39.115 11.9325 39.3082 11.8684 39.5914C11.8954 39.3852 11.6661 39.1072 11.5536 38.7939C11.6832 38.5929 11.9054 38.5264 12.129 38.4611C12.2572 38.4298 12.3982 38.5956 12.5192 38.4389C12.7599 38.4324 12.9579 38.5316 13.153 38.6399Z" fill="#EC2127"/>
<path d="M27.1306 37.0812C28.1945 36.0958 29.1202 35.0008 30.0816 33.9345C30.0403 33.7935 30.113 33.7243 30.2554 33.6982C32.7464 31.178 34.9782 28.4646 37.2286 25.7655C39.7823 22.7023 42.1864 19.5399 44.5507 16.3515C44.6418 16.2288 44.7031 16.0878 44.7772 15.956C44.9053 15.6871 45.0634 15.4313 45.2215 15.1768C45.2685 15.1024 45.3255 15.0319 45.381 14.9615C45.4508 14.8662 45.5135 14.767 45.579 14.6691C45.8126 14.288 46.1402 13.9643 46.3723 13.5819C46.5504 13.364 46.6956 13.1225 46.9078 12.9333C46.9791 12.8863 46.9506 12.9933 46.9435 12.9085C46.9392 12.8628 46.895 12.8654 46.8651 12.915C46.6842 13.0207 46.5361 13.1551 46.3823 13.2843C46.1601 13.4357 45.9678 13.6263 45.7129 13.7385C45.4622 13.8547 45.2614 14.0348 45.0264 14.1705C44.9295 14.2384 44.837 14.3115 44.743 14.3833C44.6945 14.4198 44.6433 14.4498 44.5891 14.4773C44.4197 14.5412 44.2544 14.643 44.065 14.5268C44.0721 14.4016 44.1134 14.2671 44.0793 14.151C43.9625 13.7542 44.1163 13.5924 44.5564 13.6198C44.9979 13.6472 45.2529 13.4527 45.3241 13.0494C45.3639 12.8197 45.5064 12.6422 45.7513 12.5756C46.1188 12.4751 45.9522 12.9006 46.2342 12.9842C46.2769 12.4725 46.4991 12.094 47.093 11.9962C47.2639 11.9674 47.4291 11.8761 47.459 12.1162C47.5602 12.9072 48.1299 12.6174 48.6084 12.5443C48.3848 13.2361 47.6727 13.6681 47.4533 14.3624C47.2924 14.6404 47.1428 14.9249 46.8893 15.1468L46.8936 15.1455C46.7426 15.3165 46.7042 15.5657 46.4592 15.6715C45.2771 17.2377 44.0949 18.8051 42.9114 20.3713V20.37C41.2606 22.3995 39.6213 24.4356 37.9578 26.4559C36.6204 28.0796 35.2545 29.6823 33.9043 31.2968C33.7605 31.4677 33.638 31.6531 33.5055 31.8319C33.0612 32.3813 32.6424 32.9504 32.0884 33.4176L32.0898 33.4163C31.9346 33.8327 31.57 34.1211 31.3222 34.4813C31.194 34.6458 31.0302 34.7828 30.8977 34.9447C30.4875 35.4276 30.0603 35.8961 29.6202 36.3568C29.2356 36.7379 28.8881 37.1478 28.5334 37.551C28.5007 37.6006 28.4622 37.6463 28.4224 37.6907C28.2173 37.9021 27.988 38.0927 27.7643 38.2872C27.639 38.4046 27.5165 38.5247 27.3898 38.6409C27.2673 38.7374 27.1576 38.8653 26.9653 38.7701C26.5979 38.6213 26.2276 38.4777 25.8174 38.6369C25.8914 38.2219 26.3657 38.0731 26.5366 37.7233C26.7261 37.5001 26.8087 37.1987 27.1306 37.0812Z" fill="#070607"/>
<path d="M15.8662 44.6374C15.7935 44.3098 15.4674 44.0788 15.4517 43.7304C15.3435 43.515 14.9803 43.3988 15.1441 43.0765C15.2352 43.0465 15.3264 43.0177 15.4175 42.9877C15.7565 43.16 15.9759 43.4511 16.2507 43.6886C16.49 43.9679 16.6225 44.302 16.8147 44.6061C16.8888 44.7366 16.9572 44.8684 17.0298 45.0003C17.0768 45.0707 17.111 45.1712 17.2064 45.1817C17.3403 45.1947 17.3346 45.0838 17.3317 45.0029C17.3218 44.7549 17.195 44.4991 17.4058 44.2707C17.9072 44.6701 17.8573 45.213 17.8331 45.7351C17.8217 45.9687 17.5682 45.9687 17.3901 45.9413C16.8418 45.8538 16.6666 46.1201 16.6794 46.5521C16.6994 47.2608 16.1325 47.0102 15.916 46.8458C15.6739 46.663 15.4289 46.6722 15.184 46.5847C15.5087 47.4827 15.5058 47.4879 14.59 47.9512C14.244 48.1261 13.7554 48.194 14.0545 48.7682C14.1471 48.947 13.8822 49.0828 13.6329 49.0789C13.1373 49.071 12.6417 49.071 12.1474 49.0671C12.4693 48.1992 12.3255 47.3326 12.1389 46.466C12.0349 46.2062 11.9238 45.9465 12.1973 45.7103L12.183 45.7233C12.5448 45.5954 12.6858 45.8369 12.8425 46.0535C13.0433 46.4699 13.2584 46.8836 13.3424 47.3378C13.4207 47.7633 13.623 47.7594 13.9719 47.5427C14.3978 47.2778 14.573 46.9776 14.4191 46.4973C14.2468 45.9609 14.0574 45.4205 14.036 44.8515C13.6799 43.5476 12.9692 42.3795 12.3824 41.1475C13.5176 41.9084 14.073 43.0504 14.7382 44.118C15.0102 44.2798 15.0871 44.5343 15.1341 44.8045C15.1213 44.845 15.1341 44.8763 15.1726 44.8998C15.3777 45.0903 15.503 45.32 15.5856 45.5732C15.6226 45.6763 15.6582 45.7794 15.6938 45.8826C15.7295 45.9752 15.7565 46.0705 15.8235 46.1475C15.8918 46.1906 15.9602 46.1814 16.0271 46.1397C16.3348 45.7494 15.983 45.4166 15.9189 45.0616C15.8363 44.9259 15.9702 44.7706 15.8662 44.6374Z" fill="#110A09"/>
<path d="M5.75844 41.2616C4.97937 40.8362 4.81985 40.9014 4.57061 41.7511C4.59055 41.8359 4.56918 41.9155 4.53215 41.9925C4.46664 42.1165 4.43103 42.2601 4.26866 42.3175C4.24018 42.3071 4.21169 42.2979 4.18321 42.2875C4.0123 41.8594 4.21312 41.4365 4.21169 41.0097C4.21027 40.7317 5.01355 40.5999 5.50065 40.7787C6.19854 41.0345 6.55033 40.861 6.43497 40.1692C6.34239 39.6171 6.93488 39.3052 6.8067 38.7845C6.77964 38.6761 7.04455 38.6879 7.16561 38.6879C7.31943 38.6879 7.30376 38.8236 7.29095 38.9359C7.2767 39.0625 6.97761 39.1434 7.21831 39.3104C6.63721 39.8247 6.63009 39.8377 7.39207 40.147C9.41594 40.968 10.8217 42.3358 11.6948 44.1813C11.7631 44.3261 11.9639 44.5258 11.7546 44.6472C11.4683 44.8143 11.4441 44.4867 11.3145 44.3653C11.1037 44.1669 11.004 43.8798 10.7206 43.7362C10.5867 43.6683 10.4514 43.6044 10.3446 43.5C10.2036 43.3851 10.0925 43.2481 10.0156 43.0902C9.49998 42.6686 8.98012 42.2536 8.2979 42.0656C8.13838 41.9312 7.88201 41.9508 7.74671 41.7759C7.33795 41.5918 6.95197 41.3465 6.46203 41.3895C6.19427 41.5096 5.99772 41.2864 5.75844 41.2616Z" fill="#110A09"/>
<path d="M5.75922 48.2799C6.92427 49.0773 8.18474 49.5929 9.69018 49.4976C10.136 49.4689 10.3112 49.3658 10.3112 48.9364C10.314 47.8727 9.97931 46.8925 9.53352 45.9319C9.468 45.7923 9.36118 45.633 9.53209 45.5273C9.69873 45.4242 9.74003 45.6539 9.86109 45.6983C10.032 45.7871 10.0719 45.9567 10.1516 46.1003C10.6501 46.9656 11.0731 47.8492 11.2099 48.8372C11.3096 49.5563 11.8608 48.8907 12.1513 49.0591C12.1755 49.9675 12.1769 50.0157 11.2441 50.0432C10.9492 50.0523 10.3553 50.4021 10.2656 49.7247C9.88673 49.9818 9.41245 49.7834 9.01081 49.9505C8.2588 50.2624 7.47403 50.0157 6.70493 50.051C6.45996 50.0627 6.44287 49.9035 6.46993 49.7469C6.56251 49.1974 6.29902 48.9977 5.72077 49.0708C5.61822 49.0839 5.50713 49.0382 5.39746 49.0199C5.42737 48.7667 5.8048 48.8072 5.75495 48.5553C5.66807 48.4626 5.67804 48.3713 5.75922 48.2799Z" fill="#140A09"/>
<path d="M29.5318 36.2864C29.9619 35.81 30.3906 35.3323 30.8207 34.856C30.9532 34.7737 31.0728 34.6693 31.2423 34.6484C31.3078 34.6563 31.3662 34.6811 31.4161 34.7215C31.5143 34.9969 31.5827 35.2854 31.8106 35.5072C31.9089 35.5085 32.0057 35.5098 32.104 35.5111C31.2024 36.2238 30.2268 36.845 29.2469 37.4597C29.1173 37.3149 29.17 37.1674 29.2954 37.0721C29.4406 36.9612 29.4136 36.8763 29.3196 36.7667C29.2669 36.5605 29.4449 36.4404 29.5318 36.2864Z" fill="#764E26"/>
<path d="M5.75909 48.2798C5.75766 48.3712 5.75624 48.4625 5.75482 48.5539C5.3546 48.2315 4.99283 47.8439 4.36331 47.9535C4.20379 47.9809 4.18385 47.8491 4.19098 47.7356C4.22801 47.1012 4.07988 46.5896 3.34781 46.3038C2.99032 46.1642 3.10284 45.2114 3.49309 44.9321C3.62697 44.8355 3.76512 44.7755 3.78221 44.6045C4.1454 44.8146 3.90755 45.137 3.96167 45.4046C4.00867 45.6055 3.98161 45.8274 4.16107 45.9906C4.27501 46.0415 4.27216 46.1159 4.21519 46.2033C4.49007 47.0451 5.13526 47.6559 5.75909 48.2798Z" fill="#120908"/>
<path d="M45.3579 15.1637C45.2653 15.49 45.0844 15.7614 44.7782 15.9559C44.5674 15.3242 44.3638 15.9115 44.1174 15.9951C43.9821 15.6244 44.1003 15.1167 43.5063 15.028C43.6929 14.8609 43.8795 14.6938 44.0675 14.5268C44.2498 14.4693 44.4321 14.4119 44.6144 14.3545C45.0075 14.5111 45.4505 14.6299 45.3579 15.1637Z" fill="#754C27"/>
<path d="M16.7109 44.6512C16.5158 44.3563 16.3221 44.06 16.127 43.765C16.08 43.4544 15.6883 43.2847 15.7239 42.9402C15.8322 42.5264 16.2409 42.0983 15.6427 41.7159C15.5815 41.6768 15.6128 41.635 15.9931 41.6389C16.0928 41.7707 16.3406 41.8008 16.3079 42.0239C16.2395 42.2745 16.503 42.4246 16.5329 42.6452C16.5301 42.8932 16.5258 43.1333 16.5941 43.3852C16.6953 43.7624 16.8206 43.6645 17.0058 43.4609C17.1667 43.5536 17.1311 43.7089 17.1496 43.8459C17.2237 43.9243 17.2493 44.0156 17.2365 44.1161C17.161 44.3758 17.077 44.6303 16.7109 44.6512Z" fill="#E42327"/>
<path d="M4.13488 42.7939C3.99672 43.0928 3.8899 43.3969 3.91981 43.7284C3.97108 43.8967 4.06366 44.0755 3.78166 44.1512C3.76884 44.1095 3.77026 44.0429 3.7432 44.0312C3.23474 43.8289 3.08235 43.5626 3.56802 43.222C3.44981 42.9596 2.98122 43.5195 3.05956 42.987C3.10798 42.6581 3.20341 42.2979 3.6606 42.2653C3.82439 42.2535 3.99957 42.4075 4.1833 42.2836L4.21179 42.3044C4.34424 42.4911 4.36418 42.6581 4.13488 42.7939Z" fill="#120908"/>
<path d="M12.1618 38.5083C12.0179 38.6793 11.8185 38.7484 11.5921 38.7693C11.4625 38.8463 11.3884 39.076 11.1662 38.8985C11.2232 38.6701 11.1092 38.6009 10.8799 38.6388C10.6962 38.3543 10.6763 37.9732 10.2433 37.8348C10.0724 37.78 10.0467 37.6038 10.1607 37.4485C10.3772 37.1065 10.6748 37.1836 10.9398 37.3611C11.3314 37.6247 11.7644 37.8061 12.2031 37.9849C12.2344 38.041 12.2387 38.0998 12.223 38.1611C11.7573 38.4143 11.4952 38.0554 11.2089 37.8857C11.2987 38.1455 11.4739 38.3321 11.8541 38.2864C11.9809 38.2707 12.213 38.259 12.1618 38.5083Z" fill="#E8242C"/>
<path d="M13.9988 34.8379C14.1426 34.9645 14.6539 34.9501 14.1412 35.313C13.9561 35.4448 14.1611 35.9355 13.7125 36.0491C13.4291 35.9642 13.026 35.9107 12.9591 35.6654C12.875 35.36 13.3507 35.3182 13.5402 35.1172C13.6555 34.9945 13.8435 34.9293 13.9988 34.8379Z" fill="#744C22"/>
<path d="M11.4781 40.2052C10.7859 40.2965 10.5979 39.6492 10.1207 39.4247C10.0865 39.3881 10.0865 39.3516 10.1179 39.3137C10.3458 39.1858 10.4512 39.0201 10.3073 38.7812C10.756 38.9105 10.887 39.3581 11.2502 39.5709C11.5037 39.7288 11.5877 39.9376 11.4781 40.2052Z" fill="#1D0B08"/>
<path d="M17.5566 38.9046C17.6563 38.9033 17.756 38.9007 17.8572 38.8994C18.1548 39.0547 18.2688 39.4645 18.7117 39.4215C18.7317 39.304 18.6676 39.1265 18.8541 39.1108C19.0051 39.0978 18.988 39.257 18.9937 39.3588C19.0236 39.8626 18.7146 40.3664 18.9909 40.8728C18.5123 40.215 18.0352 39.5598 17.5566 38.9046Z" fill="#744D28"/>
<path d="M52.4551 21.9067C52.5989 21.4682 52.8567 21.1771 53.368 20.9996C53.7982 20.8495 54.0631 20.3653 54.6171 20.3823C53.9691 20.9761 53.1843 21.4081 52.4551 21.9067Z" fill="#704D2C"/>
<path d="M17.0052 43.4609C17.1533 43.765 16.783 43.7689 16.6776 43.8133C16.4939 43.8903 16.6235 43.6501 16.5466 43.577C16.2147 43.2625 16.303 42.9088 16.4326 42.5499C16.35 42.4416 16.3386 42.3371 16.4568 42.2432C16.5451 42.3463 16.6349 42.4494 16.7232 42.5525C16.9055 42.7039 16.9112 42.9245 16.9838 43.1189C16.9924 43.2325 16.998 43.3473 17.0052 43.4609Z" fill="#E3242A"/>
<path d="M17.145 44.1181C17.1464 44.0281 17.1478 43.9367 17.1507 43.8467C17.1905 43.8545 17.2304 43.861 17.2703 43.8663C17.4654 43.955 17.333 44.1403 17.4084 44.2643L17.4056 44.2682C17.4312 44.4601 17.4441 44.6533 17.4868 44.8425C17.5452 45.1035 17.6335 45.4155 17.2803 45.4977C16.91 45.5851 16.9968 45.2053 16.8857 45.0278C17.0666 44.7459 17.1065 44.4327 17.145 44.1181Z" fill="#E3242A"/>
<path d="M24.1213 28.0723C24.1384 28.426 23.9731 28.6713 23.58 28.7144C23.1129 28.7653 22.8992 29.2717 22.3965 29.2378C22.8936 28.7522 23.5131 28.4181 24.1213 28.0723Z" fill="#724D2B"/>
<path d="M29.3892 36.8115C29.57 36.8259 29.6498 36.8872 29.5002 37.0334C29.3749 37.1561 29.2425 37.2722 29.2467 37.4589C29.1584 37.6155 28.9775 37.6494 28.8294 37.7277C28.6286 37.8165 28.4363 37.8831 28.3779 37.5881L28.3822 37.5894C28.6927 37.3023 28.9049 36.9094 29.3892 36.8115Z" fill="#75491F"/>
<path d="M58.5807 4.96875C58.491 5.14364 58.3927 5.31722 58.3115 5.49603C58.1335 5.89018 57.8814 5.88236 57.5752 5.62002C57.833 5.30287 58.1648 5.08099 58.5807 4.96875Z" fill="#6F4B29"/>
<path d="M10.1615 37.4482C10.1686 37.6349 10.2612 37.7706 10.445 37.8515C10.811 38.0108 10.9221 38.2888 10.8794 38.6372C10.5674 38.26 10.1957 37.9468 9.73709 37.7236C9.70291 37.6936 9.69152 37.6649 9.70434 37.6362C9.71715 37.6075 9.72855 37.5944 9.74137 37.5944C9.91655 37.631 10.0234 37.5004 10.1615 37.4482Z" fill="#E32428"/>
<path d="M28.3786 37.5879C28.4883 37.7432 28.6635 37.7223 28.8301 37.7275C28.5709 38.0369 28.1863 38.1896 27.8417 38.3945C27.6964 38.4258 27.648 38.3697 27.6779 38.2431C27.8744 37.9912 28.098 37.7628 28.3786 37.5879Z" fill="#6F4927"/>
<path d="M17.4072 44.2638C17.2662 44.1594 17.3018 44.0027 17.269 43.8657C17.5653 43.6843 17.4143 43.3606 17.534 43.1152C17.8914 43.4219 17.8715 43.5825 17.4072 44.2638Z" fill="#1B0C0A"/>
<path d="M3.78125 44.1514C3.82683 44.0104 3.87383 43.8695 3.9194 43.7285C4.14016 44.2832 4.08177 44.8444 3.96071 45.4056C3.90089 45.1394 3.84107 44.8731 3.78125 44.6056C3.78125 44.4555 3.78125 44.3041 3.78125 44.1514Z" fill="#EC202F"/>
<path d="M9.74144 37.5947C9.74002 37.6378 9.73859 37.6809 9.73717 37.7239C9.24295 38.0019 9.66453 38.1077 9.85681 38.2564C9.90523 38.2825 9.9209 38.31 9.90523 38.3374C9.88957 38.3648 9.8739 38.3778 9.85823 38.3778C9.81266 38.37 9.76281 38.3726 9.72293 38.3543C9.50501 38.2499 9.12474 38.216 9.13043 37.9993C9.13613 37.7683 9.45089 37.6274 9.74144 37.5947Z" fill="#1D0B08"/>
<path d="M10.1176 39.3137C10.1247 39.3503 10.1262 39.3881 10.1205 39.4247C9.71455 39.6714 9.41546 39.1676 9.02806 39.2916C8.93263 39.3712 8.83863 39.362 8.74463 39.2902C8.85287 38.8935 9.29297 39.3464 9.44394 39.0605C9.66897 39.1454 9.89401 39.2302 10.1176 39.3137Z" fill="#E22327"/>
<path d="M64.6958 5.63145C64.1047 5.85333 64.0249 5.50355 63.9922 5.10156C64.2742 5.22555 64.5533 5.35346 64.6958 5.63145Z" fill="#6B4A2B"/>
<path d="M41.3516 16.4639C41.1593 16.7889 41.1223 17.2952 40.4785 17.0995C40.6893 16.7954 41.0439 16.657 41.3516 16.4639Z" fill="#6D492B"/>
<path d="M13.1526 38.64C12.9162 38.5956 12.6812 38.5526 12.4448 38.5082C12.2653 38.422 12.1813 38.3007 12.2738 38.1153C12.4761 38.0448 12.5986 38.1597 12.7211 38.2772C12.8649 38.3972 13.0786 38.4481 13.1526 38.64Z" fill="#E1252F"/>
<path d="M9.85836 38.3789C9.87403 38.3384 9.87402 38.298 9.85693 38.2575C10.2244 38.2432 10.317 38.4546 10.3241 38.7365C10.1688 38.6164 10.0136 38.4977 9.85836 38.3789Z" fill="#DF2427"/>
<path d="M23.0145 41.3897C22.8892 41.361 22.7168 41.3675 22.7695 41.1782C22.7838 41.1273 22.8507 41.066 22.9062 41.0529C23.1128 41.0046 23.1056 41.1613 23.137 41.2761C23.0957 41.314 23.0558 41.3518 23.0145 41.3897Z" fill="#7A4C20"/>
<path d="M26.9707 38.7708C27.1117 38.7277 27.2527 38.6847 27.3951 38.6416C27.3894 38.7995 27.341 38.9444 27.1559 38.977C26.9949 39.0057 26.9906 38.8713 26.9707 38.7708Z" fill="#302518"/>
<path d="M57.5769 5.61914C57.4544 5.84363 57.2949 6.02243 56.9858 6.00808C57.1425 5.82666 57.2978 5.64394 57.5769 5.61914Z" fill="#6F4B29"/>
<path d="M27.6776 38.2432C27.7317 38.2941 27.7858 38.3437 27.8414 38.3946C27.7403 38.5499 27.6078 38.6569 27.3942 38.6412C27.3899 38.4494 27.4981 38.3241 27.6776 38.2432Z" fill="#583E24"/>
<path d="M16.9854 43.1192C16.8615 42.9443 16.7191 42.7772 16.7248 42.5527C17.1264 42.6193 16.9712 42.9012 16.9854 43.1192Z" fill="#1B0C0A"/>
<path d="M12.7215 38.2753C12.5833 38.2231 12.4466 38.1708 12.3084 38.1173C12.2315 38.193 12.1888 38.1787 12.1831 38.0756C12.186 38.0442 12.1931 38.0129 12.2045 37.9829C12.5164 37.8746 12.6631 38.009 12.7215 38.2753Z" fill="#1F0D09"/>
<path d="M16.4588 42.2437C16.4502 42.3455 16.4417 42.4486 16.4346 42.5504C16.295 42.3938 16.0358 42.262 16.3092 42.0244C16.3576 42.0975 16.4075 42.1706 16.4588 42.2437Z" fill="#E02634"/>
<path d="M13.9946 36.1701C14.1029 36.1414 14.2097 36.1127 14.3179 36.084C14.3122 36.1858 14.3065 36.2889 14.2994 36.3907C14.1527 36.3685 14.0701 36.2719 13.9946 36.1701Z" fill="#744C22"/>
<path d="M12.8256 37.6502C12.9153 37.632 12.9452 37.6829 12.931 37.7468C12.9167 37.816 12.9951 37.9243 12.8512 37.9439C12.8242 37.9478 12.7729 37.8995 12.7601 37.8656C12.7302 37.7847 12.7373 37.7051 12.8256 37.6502Z" fill="#1F0D09"/>
<path d="M11.5476 5.74219C11.6601 5.8466 11.7598 6.0241 11.8866 6.03976C12.0732 6.06456 12.3253 5.99016 12.0504 6.24206C11.7484 6.51875 11.6687 6.76282 12.0048 7.10999C11.6701 6.74324 11.0933 7.32925 10.8711 6.77979C11.0961 6.43392 11.3226 6.08805 11.5476 5.74219Z" fill="#CCCCCC"/>
<path d="M10.5965 7.58492C10.4954 7.60319 10.3843 7.72849 10.3003 7.56143C10.3544 7.48312 10.4071 7.4035 10.4612 7.3252C10.5723 7.38262 10.5937 7.4792 10.5965 7.58492Z" fill="#CECECD"/>
<path d="M31.8108 35.5056C31.4462 35.3463 31.1542 35.1545 31.3835 34.7238C31.3849 34.6533 31.3465 34.6011 31.2909 34.558C31.2553 34.5267 31.2325 34.4888 31.2197 34.4458C31.3849 34.0125 31.8193 33.771 32.0942 33.416C31.6741 34.0751 32.1811 34.3231 32.8989 34.6011C32.1768 34.7003 31.5929 34.7838 31.8108 35.5056Z" fill="#734D29"/>
<path d="M42.9141 20.3707C43.6347 20.3328 43.5379 19.5928 44.025 19.3057C44.1133 19.799 43.7928 20.1527 43.535 20.4868C43.3755 20.6904 43.038 20.7818 42.9141 20.3707C42.9141 20.3694 42.9141 20.3707 42.9141 20.3707Z" fill="#774B20"/>
<path d="M32.0928 33.4178C32.5314 32.8631 32.9459 32.2914 33.5099 31.832C33.1738 32.4624 32.7878 33.0563 32.0928 33.4178Z" fill="#734D29"/>
<path d="M66.8647 11.0739C66.8647 10.6576 66.8647 10.2425 66.8647 9.82617C66.8888 9.82617 66.9115 9.82617 66.9356 9.82617C66.9356 10.2464 66.9356 10.6667 66.9356 11.0869C66.9129 11.0817 66.8888 11.0778 66.8647 11.0739Z" fill="#7F4D21"/>
<path d="M46.8921 15.1457C46.9818 14.8247 47.1898 14.5754 47.4561 14.3613C47.4433 14.7281 47.3023 15.0178 46.8921 15.1457Z" fill="#715232"/>
<path d="M43.4979 27.8177C43.3185 27.789 43.1646 27.7342 43.2515 27.5266C43.27 27.4836 43.374 27.4314 43.4196 27.4444C43.6874 27.5201 43.421 27.7002 43.4951 27.8203L43.4979 27.8177Z" fill="#784C20"/>
<path d="M46.4604 15.6692C46.5929 15.4852 46.647 15.2476 46.8949 15.1445C46.8578 15.3938 46.8179 15.6418 46.4604 15.6692Z" fill="#715232"/>
<path d="M18.7115 39.4215C18.7813 39.5872 18.7542 39.7869 18.5392 39.6342C18.2714 39.4424 17.9082 39.2779 17.8569 38.8994C18.2472 38.9281 18.5349 39.0978 18.7115 39.4215Z" fill="#794D20"/>
<path d="M30.8154 23.9934C30.9066 23.7062 31.0832 23.4974 31.3965 23.4348C31.4193 23.4295 31.5076 23.5379 31.4948 23.5653C31.3709 23.8315 31.0732 23.8798 30.8154 23.9934Z" fill="#7B4B1F"/>
<path d="M27.1307 37.0815C26.974 37.3255 26.8416 37.5892 26.5425 37.7236C26.5653 37.3764 26.6037 37.041 27.1307 37.0815Z" fill="#6B4A2C"/>
<path d="M30.2554 33.6985C30.197 33.7768 30.1401 33.8564 30.0817 33.9347C29.9435 33.8055 29.8324 33.6476 29.5205 33.6267C29.9022 33.337 30.0988 33.4283 30.2554 33.6985Z" fill="#79502C"/>
<path d="M6.46452 44.7789C6.94593 45.1143 7.35754 45.5111 7.7193 45.9549C7.93436 46.182 8.18076 46.4051 7.87739 46.7223C7.77057 46.6401 7.66375 46.5565 7.55693 46.4743C7.37605 46.3908 7.24787 46.2642 7.17666 46.0906C6.89892 45.7826 6.51722 45.6299 6.04437 45.4511C6.23807 46.1298 6.65253 46.614 7.04277 47.1073C7.21369 47.3227 7.59966 47.5458 7.3846 47.7912C7.1325 48.081 6.8562 47.7142 6.59841 47.6046C6.51437 47.568 6.42892 47.5341 6.34346 47.4989C6.13125 47.4284 5.9874 47.2953 5.90906 47.1021C5.85067 47.0225 5.79085 46.9442 5.73245 46.8646C5.17414 46.4391 5.04881 45.7996 4.78532 45.2305C4.66853 44.9773 4.71553 44.7202 4.88217 44.4853C5.49175 44.2073 5.976 44.4996 6.46452 44.7789Z" fill="#330F07"/>
<path d="M14.0327 44.8496C14.393 45.4865 14.4941 46.1939 14.6764 46.8778C14.7519 47.1623 13.7606 48.0681 13.453 48.0316C13.292 48.0133 13.3077 47.8932 13.2764 47.7953C13.0926 47.2237 12.9061 46.652 12.7209 46.0804C12.7879 45.835 12.3948 45.7906 12.446 45.5531L12.4475 45.5518C12.597 45.3586 12.8534 45.5635 13.0157 45.4226C13.1112 45.4226 13.2052 45.4226 13.3006 45.4226C13.4359 45.4722 13.275 45.7932 13.5854 45.6836C13.5883 45.5766 13.6125 45.4787 13.7279 45.4226C13.9045 45.3952 13.8034 45.2399 13.8717 45.1615C14.0028 45.0924 14.0141 44.9697 14.0327 44.8496Z" fill="#E82128"/>
<path d="M8.17106 43.8617C7.39626 43.4218 6.55595 43.1517 5.64869 43.0616C5.48063 42.9872 5.28265 42.9898 5.12599 42.8867C4.94368 42.7679 4.94083 42.5944 4.97074 42.426C5.00492 42.2354 5.18153 42.2198 5.35102 42.2302C5.62733 42.2485 5.91218 42.1715 6.17994 42.2863C7.07722 42.5839 7.77796 43.1412 8.45306 43.7325C8.45733 43.9582 8.332 43.9413 8.17106 43.8617Z" fill="#250C06"/>
<path d="M4.94608 44.5282C4.65411 45.2108 5.1939 45.7185 5.399 46.2954C5.47021 46.4964 5.61833 46.6752 5.73085 46.8644C5.3819 47.0432 5.3876 46.6569 5.23805 46.559C4.72247 46.2223 4.49601 45.0346 4.75808 44.5073C4.82929 44.4525 4.89196 44.459 4.94608 44.5282Z" fill="#E1242B"/>
<path d="M6.80481 43.7184C6.39035 44.3018 5.93031 43.8294 5.49733 43.8255C5.39621 43.8241 5.34921 43.725 5.36773 43.6323C5.39479 43.5031 5.51158 43.4809 5.63264 43.4705C6.06134 43.4352 6.45159 43.524 6.80481 43.7184Z" fill="#E5252D"/>
<path d="M12.1831 38.0769C12.2287 38.0808 12.27 38.0952 12.3084 38.1187C12.354 38.2479 12.401 38.3784 12.4466 38.5076C12.3526 38.6525 12.2572 38.5181 12.1631 38.5076C12.0848 38.4685 11.988 38.381 11.931 38.3993C11.4482 38.5468 11.1007 38.5363 11.0935 37.9412C11.0921 37.8577 10.9141 37.7767 10.7773 37.6606C11.3641 37.6032 11.6048 38.304 12.1831 38.0769Z" fill="#E32328"/>
<path d="M6.17939 42.2861C6.08539 42.2809 5.99139 42.2639 5.89881 42.273C5.5983 42.3004 5.17387 42.0812 5.04426 42.4792C4.91038 42.8943 5.42311 42.8812 5.64815 43.0613C5.08556 43.1436 4.80926 42.8382 4.61556 42.4218C4.45319 42.273 4.42755 42.0916 4.46458 41.8945C4.50019 41.8462 4.53437 41.798 4.56855 41.751C4.74374 42.1008 5.00295 42.2548 5.4516 42.1712C5.68233 42.1282 5.97145 42.076 6.17939 42.2861Z" fill="#E42426"/>
<path d="M15.8659 44.6367C15.994 44.728 16.0268 44.856 16.0254 44.9956C16.0823 45.1835 15.9926 45.3323 15.8716 45.4733C15.7548 45.5633 15.665 45.6978 15.4785 45.6743C15.3745 45.4159 15.2719 45.1574 15.168 44.899C15.4229 44.8586 15.5824 44.6106 15.8659 44.6367Z" fill="#E1242A"/>
<path d="M11.166 38.8981C11.3483 38.9686 11.401 38.6775 11.5919 38.7689C12.1046 39.0861 11.8098 39.6825 12.1075 40.091C11.7784 39.6982 11.599 39.2114 11.166 38.8981Z" fill="#E32428"/>
<path d="M13.016 45.4229C13.0416 45.5182 13.1242 45.6513 13.0829 45.7035C12.9889 45.8236 12.9134 45.6813 12.8237 45.6421C12.7098 45.5912 12.573 45.5808 12.4463 45.5534C12.3523 45.3916 12.2568 45.2297 12.1372 45.0248C12.5787 44.9635 12.8365 45.1214 13.016 45.4229Z" fill="#E72426"/>
<path d="M4.94581 44.5283C4.88315 44.5218 4.82048 44.5153 4.75781 44.5074C5.25773 44.125 6.00119 44.2425 6.46265 44.7776C5.96416 44.6602 5.51125 44.313 4.94581 44.5283Z" fill="#E5252D"/>
<path d="M10.2229 39.6973C10.3368 40.094 10.5832 40.3146 11.1387 40.453C10.2556 40.4999 10.0149 40.2715 10.2229 39.6973Z" fill="#E22327"/>
<path d="M5.75485 41.8984C5.56399 41.8122 5.37457 41.7248 5.18372 41.6386C5.10111 41.5512 5.09968 41.465 5.18656 41.3789C5.48993 41.5225 5.78618 41.6765 6.14937 41.6439C6.33737 41.6269 6.44561 41.7222 6.46413 41.8971C6.22912 41.9989 5.99127 41.9976 5.75485 41.8984Z" fill="#EB262E"/>
<path d="M15.7237 42.9405C15.9416 43.1807 16.2136 43.3999 16.1267 43.7654C15.849 43.537 15.5983 43.2877 15.416 42.9862C15.4901 42.8087 15.614 42.9183 15.7237 42.9405Z" fill="#DA242E"/>
<path d="M9.1723 45.8213C9.01991 46.1659 9.54688 46.607 8.87891 46.9803C9.13527 46.5196 8.89315 46.1763 8.88745 45.8148C8.98573 45.7378 9.07973 45.7378 9.1723 45.8213Z" fill="#ED252E"/>
<path d="M7.87635 46.7215C7.97036 46.4409 7.77381 46.2099 7.71826 45.9541C7.96608 46.0429 8.16548 46.1864 8.24239 46.424C8.34779 46.7424 8.21106 46.8416 7.87635 46.7215Z" fill="#E92632"/>
<path d="M4.46617 41.8945C4.57157 42.0577 4.63851 42.2286 4.61714 42.4218C4.43199 42.5184 4.48326 42.8721 4.13574 42.7938C4.16138 42.6319 4.18702 42.4701 4.21123 42.307C4.29526 42.1699 4.38072 42.0316 4.46617 41.8945Z" fill="#DE262E"/>
<path d="M10.0167 43.0889C10.2104 43.1685 10.3585 43.2925 10.4639 43.4621C10.4596 43.5705 10.4098 43.6566 10.3101 43.7193C10.0338 43.5796 9.78878 43.4269 10.0167 43.0889Z" fill="#D2252A"/>
<path d="M12.1945 45.708C12.1745 45.9599 12.156 46.2118 12.1361 46.4637C11.8655 46.1935 11.5906 45.9221 12.1945 45.708Z" fill="#DA252C"/>
<path d="M7.74889 41.7754C7.96965 41.8132 8.18756 41.8537 8.30008 42.0651C8.2189 41.8041 7.49395 42.5728 7.74889 41.7754Z" fill="#DE2426"/>
<path d="M9.17202 45.821C9.07802 45.8184 8.98259 45.8171 8.88859 45.8145C8.88717 45.727 8.88574 45.6396 8.88432 45.5521C8.88147 45.2872 9.0239 45.1553 9.31445 45.1593C9.26602 45.3798 9.21902 45.6004 9.17202 45.821Z" fill="#DA2827"/>
<path d="M15.1308 44.8037C14.9984 44.5753 14.8673 44.3456 14.7349 44.1172C15.1579 44.2046 15.3131 44.4226 15.1308 44.8037Z" fill="#E1242A"/>
<path d="M9.3147 45.1592C9.12385 45.2467 8.98284 45.3798 8.88457 45.5521C8.62251 45.2467 8.98854 45.1618 9.13097 45.03C9.26485 44.906 9.29761 45.0574 9.3147 45.1592Z" fill="#ED282E"/>
<path d="M12.4465 45.5547C12.5362 45.7309 12.9308 45.774 12.7214 46.082C12.579 45.9136 12.4308 45.7531 12.1802 45.7218C12.2044 45.5808 12.3198 45.5599 12.4465 45.5547Z" fill="#DA252C"/>
<path d="M7.17485 46.0908C7.34719 46.1809 7.50813 46.2814 7.55513 46.4745C7.14779 46.5803 7.04525 46.4328 7.17485 46.0908Z" fill="#E12832"/>
<path d="M5.909 47.1025C6.05428 47.2344 6.19813 47.3675 6.3434 47.4993C5.89049 47.6507 5.74379 47.5202 5.909 47.1025Z" fill="#DE242E"/>
<path d="M7.82603 42.5729C7.77476 42.6681 7.68218 42.6799 7.58961 42.6564C7.49988 42.6329 7.4073 42.5794 7.44861 42.4802C7.46285 42.4463 7.57252 42.4293 7.63661 42.4319C7.72919 42.4358 7.83458 42.4476 7.82603 42.5729Z" fill="#DE2527"/>
<path d="M11.4779 40.2043C11.5292 39.955 11.3241 39.7827 11.2515 39.5713C11.5434 39.7162 11.8838 39.848 11.4779 40.2043Z" fill="#D4252F"/>
<path d="M8.17041 43.8613C8.28008 43.8482 8.39829 43.8496 8.45241 43.7334C8.5749 43.8065 8.80136 43.8704 8.58202 44.0323C8.37693 44.1837 8.26726 44.0023 8.17041 43.8613Z" fill="#7D181B"/>
<path d="M15.1441 43.0752C15.0971 43.3519 15.5144 43.4459 15.4517 43.7291C15.2082 43.5672 14.8393 43.4537 15.1441 43.0752Z" fill="#E1242A"/>
<path d="M13.8709 45.1631C13.9222 45.3132 14.1216 45.4802 13.9122 45.6108C13.7854 45.6904 13.7498 45.5233 13.7271 45.4228C13.7313 45.3158 13.7555 45.2179 13.8709 45.1631Z" fill="#DE2527"/>
<path d="M13.3973 45.0454C13.2726 44.7387 13.2825 44.5546 13.3618 44.3066C13.4454 44.5494 13.5503 44.7269 13.3973 45.0454Z" fill="#ED2532"/>
<path d="M8.74463 39.291C8.83863 39.291 8.93263 39.2923 9.02806 39.2923C9.12918 39.3641 9.2303 39.4359 9.34282 39.5155C9.05939 39.5938 8.86569 39.5207 8.74463 39.291Z" fill="#EC242F"/>
<path d="M10.3115 43.72C10.3158 43.6117 10.3457 43.5151 10.4653 43.4629C10.5508 43.5543 10.6377 43.6456 10.7231 43.7357C10.5807 43.8192 10.444 43.797 10.3115 43.72Z" fill="#D1242D"/>
<path d="M13.5856 45.6839C13.5272 45.7401 13.4403 45.8523 13.4147 45.8419C13.1968 45.7518 13.3478 45.5626 13.3008 45.4229C13.5586 45.3616 13.4019 45.6787 13.5856 45.6839Z" fill="#E72426"/>
<path d="M4.33201 45.9452C4.43171 45.9243 4.52713 45.7338 4.57698 45.8238C4.67953 46.0092 4.60404 46.1854 4.32489 46.2063C4.24656 46.1175 4.25083 46.0314 4.33201 45.9452Z" fill="#D82827"/>
<path d="M5.75781 41.2619C6.03127 41.1275 6.22212 41.3807 6.46425 41.3885C6.16658 41.6378 5.97145 41.4042 5.75781 41.2619Z" fill="#EB262E"/>
<path d="M11.2686 46.0867C11.3298 46.0579 11.3853 46.0136 11.4409 46.011C11.5648 46.0057 11.5833 46.0971 11.5563 46.178C11.542 46.2198 11.4694 46.2446 11.4238 46.2772C11.3882 46.2328 11.3512 46.1885 11.2686 46.0867Z" fill="#DE2327"/>
<path d="M10.1519 46.1014C10.0009 46.0009 9.86703 45.8886 9.86133 45.6994C10.1889 45.6928 10.1718 45.8964 10.1519 46.1014Z" fill="#CA2229"/>
<path d="M5.1888 41.3791C5.18738 41.4653 5.18596 41.5527 5.18596 41.6389C5.06917 41.6258 4.92959 41.6154 4.95523 41.4692C4.97089 41.3674 5.03783 41.2499 5.1888 41.3791Z" fill="#E42426"/>
<path d="M5.75537 41.8988C5.9918 41.8988 6.22965 41.8988 6.46608 41.8975C6.22965 42.0971 5.99322 42.0945 5.75537 41.8988Z" fill="#E42426"/>
<path d="M11.519 48.1074C11.6097 48.3084 11.6238 48.4415 11.5232 48.5773C11.4155 48.4415 11.4339 48.3084 11.519 48.1074Z" fill="#DF2727"/>
<path d="M4.33161 45.9443C4.33019 46.0318 4.32736 46.1192 4.32594 46.2066C4.2891 46.2053 4.25084 46.2054 4.214 46.2054C4.19558 46.1349 4.17858 46.0631 4.16016 45.9926C4.18283 45.8869 4.2055 45.7825 4.22817 45.6768C4.38262 45.7264 4.30752 45.8517 4.33161 45.9443Z" fill="#ED2530"/>
<path d="M45.3585 15.1642C45.1648 14.9136 45.0979 14.522 44.6094 14.6004C44.6108 14.5181 44.6122 14.4372 44.6136 14.355L44.6165 14.3615C44.8444 14.1958 45.1591 14.1631 45.3543 13.9504C45.4411 13.8329 45.5309 13.7168 45.6249 13.6032C45.8542 13.461 46.0821 13.3187 46.3114 13.1777C46.6803 13.2143 46.5578 13.4244 46.4937 13.6137C46.3256 14.0744 45.9553 14.4111 45.6391 14.7818C45.5081 14.8209 45.4867 14.9175 45.4867 15.0258C45.4411 15.0715 45.3998 15.1172 45.3585 15.1642Z" fill="#754C22"/>
<path d="M29.3893 36.8115C29.0532 37.0712 28.7184 37.3296 28.3823 37.5893C28.6501 37.0699 29.103 36.6888 29.5317 36.2881C29.4833 36.4617 29.4363 36.6366 29.3893 36.8115Z" fill="#6F4927"/>
<path d="M46.4905 13.612C46.4705 13.4528 46.499 13.2766 46.3096 13.1761C46.4591 12.9947 46.6243 12.8328 46.8835 12.7845C47.0217 12.7598 47.0915 12.7963 47.0488 12.9359C46.8622 13.1617 46.6756 13.3862 46.4905 13.612Z" fill="#6A4B25"/>
<path d="M45.6217 13.6016C45.5733 13.7269 45.5263 13.8522 45.4779 13.9774C45.3297 14.1797 45.1432 14.2372 44.9067 14.1067C45.1446 13.9396 45.3839 13.7699 45.6217 13.6016Z" fill="#6B4C2E"/>
<path d="M44.9067 14.1077C45.1147 14.1299 45.2998 14.0686 45.4778 13.9785C45.3468 14.4027 44.8967 14.2239 44.6147 14.3609C44.6689 14.2343 44.7714 14.156 44.9067 14.1077Z" fill="#754C27"/>
<path d="M31.2423 34.723C31.1013 34.7674 30.9603 34.8117 30.8193 34.8561C30.9532 34.7191 31.0857 34.5833 31.2181 34.4463L31.2452 34.4672C31.3249 34.5533 31.3249 34.6381 31.2423 34.723Z" fill="#734D29"/>
<path d="M47.0475 12.9371C46.992 12.8862 46.9379 12.8366 46.8823 12.7857C46.9621 12.6839 47.0903 12.5129 47.1857 12.5912C47.3481 12.7204 47.1572 12.8379 47.0475 12.9371Z" fill="#573F27"/>
<path d="M45.4836 15.0239C45.3612 14.9599 45.3369 14.8699 45.4238 14.7694C45.4936 14.6872 45.5705 14.6845 45.6375 14.7798C45.5848 14.8607 45.5335 14.943 45.4836 15.0239Z" fill="#754C27"/>
<path d="M15.7221 45.4261C15.8233 45.2826 15.9244 45.139 16.0255 44.9941C16.1309 45.4483 16.8145 45.9078 16.0084 46.3515C15.9101 46.2823 15.7848 46.2732 15.6766 46.2288C15.6452 46.1335 15.6153 46.0383 15.584 45.943C15.6723 45.7798 15.5868 45.5788 15.7221 45.4261Z" fill="#DF2428"/>
<path d="M17.145 44.1191C17.2248 44.4624 17.4883 44.8487 16.8844 45.0275C16.7932 44.9153 16.695 44.8057 16.7106 44.6516C16.8559 44.4741 16.9998 44.2966 17.145 44.1191Z" fill="#E82428"/>
<path d="M15.6777 46.2288C15.8373 46.1609 16.0067 46.0682 16.0096 46.3514C15.7831 46.5694 15.7233 46.4154 15.6777 46.2288Z" fill="#DC2634"/>
</svg>
