<svg width="93" height="37" viewBox="0 0 93 37" fill="none" xmlns="http://www.w3.org/2000/svg">
<path d="M13.4026 8.98732C12.8351 9.00951 12.3926 9.02573 11.9459 9.04384C12.0261 9.13381 12.1237 9.24158 12.2943 9.43088C11.2976 9.87696 10.3327 10.292 9.3852 10.7341C8.1717 11.2992 6.96435 11.8661 5.77245 12.4658C5.35196 12.6764 4.99974 12.745 4.5882 12.4671C4.08429 12.1237 3.54974 11.8179 3.04379 11.4802C2.93604 11.41 2.81068 11.2657 2.8145 11.1604C2.85341 10.3806 2.65564 9.58547 3.08696 8.82433C3.33067 8.39437 3.44717 7.90086 3.58422 7.42609C3.63398 7.25968 3.55457 7.06356 3.5828 6.89063C3.63618 6.54385 3.70389 6.19515 3.80442 5.85951C3.92021 5.48156 4.06162 5.10823 4.23277 4.74704C4.40697 4.37738 4.63245 4.02638 4.83331 3.66792C4.92814 3.49951 5.07114 3.33942 5.11881 3.15987C5.33694 2.35608 5.57621 2.18447 6.49099 2.16417C6.64567 2.16093 6.83084 2.06368 6.93812 1.95536C7.24361 1.64735 7.57327 1.56567 8.01004 1.69789C8.31454 1.79007 8.65593 1.88404 8.9642 1.85221C9.53057 1.79526 9.79747 2.00122 10.0251 2.4581C11.1033 4.58672 12.2132 6.69366 13.4026 8.98732Z" fill="black"/>
<path d="M41.7186 23.0328C42.2591 23.1964 42.7957 23.3707 43.338 23.5201C44.0143 23.7041 44.705 23.8482 45.3765 24.0456C46.9777 24.5185 48.5607 25.0421 50.1686 25.4874C51.8424 25.9528 53.5458 25.9393 55.2674 25.7363C56.8995 25.5417 58.5512 25.4683 60.195 25.3334C60.7337 25.2895 61.2763 25.2439 61.8052 25.144C62.1592 25.0767 62.2982 25.1809 62.3884 25.5865C59.8906 25.8915 57.4007 26.193 54.9099 26.4971C54.9064 26.5345 54.902 26.5745 54.9015 26.6128C55.0367 26.6626 55.1672 26.7258 55.3042 26.7613C57.7435 27.3668 60.1838 27.9696 62.627 28.5644C62.948 28.6438 63.2856 28.6958 63.6197 28.7112C64.2102 28.7362 64.5139 29.0115 64.625 29.5624C64.2387 29.5163 63.8678 29.5105 63.5218 29.4264C61.5955 28.9497 59.6615 28.4854 57.7524 27.9518C56.5538 27.6185 55.4049 27.1288 54.2072 26.7928C53.6719 26.6426 53.0619 26.6441 52.494 26.6673C51.4012 26.7148 50.4022 26.4006 49.4031 26.0863C47.0287 25.3379 44.6619 24.5682 42.2912 23.8003C41.262 23.468 41.1042 23.2961 40.803 22.33C42.4093 21.8467 44.0381 21.4117 45.6086 20.8614C46.6106 20.5115 47.624 20.2685 48.6877 20.2743C49.4453 20.279 50.2058 20.4235 50.9675 20.5092C50.9804 20.5841 50.9895 20.6607 51.0024 20.7356C50.8297 20.7897 50.6567 20.891 50.4823 20.8944C49.7646 20.8988 49.0419 20.816 48.3349 20.8739C47.6579 20.932 46.972 21.0702 46.3319 21.2755C45.2748 21.6117 44.2508 22.0318 43.2093 22.4082C42.7312 22.5797 42.2408 22.7298 41.7566 22.8906C41.7432 22.9368 41.7289 22.9857 41.7186 23.0328Z" fill="black"/>
<path d="M17.5482 15.3871C24.4993 17.7841 31.6458 19.3916 38.4448 22C38.0214 22.3312 37.6296 22.4554 37.0295 22.2591C35.3286 21.6974 33.6 21.2033 31.8782 20.6996C29.9081 20.1237 27.9255 19.5733 25.9574 18.9921C25.306 18.8007 24.6793 18.5408 24.0364 18.3257C21.8595 17.5994 19.6778 16.8862 17.5057 16.1467C17.2881 16.0721 17.068 15.8943 16.9418 15.7127C16.7106 15.3823 16.5501 15.0118 16.3317 14.6092C16.7614 14.5813 17.1446 14.5452 17.532 14.5337C19.0354 14.4885 20.4168 14.0114 21.8438 13.6738C23.602 13.261 25.3662 13.4089 27.0663 14.0552C27.2174 14.1127 27.3111 14.302 27.4336 14.4297C27.2275 14.4698 26.9957 14.581 26.8171 14.5357C25.2419 14.1203 23.6752 14.2312 22.1219 14.5158C21.2481 14.6756 20.4069 14.9739 19.5363 15.1522C18.9212 15.282 18.2739 15.3084 17.5482 15.3871Z" fill="black"/>
<path d="M84.8883 30.4839C82.9898 29.8551 81.0518 29.4907 79.0143 29.7569C79.0141 29.6757 79.0168 29.5954 79.0165 29.5143C80.0847 29.4352 81.1489 29.3579 82.3007 29.2741C80.4016 28.4469 78.7162 27.336 76.7225 26.7895C75.7438 26.5203 74.7339 26.3196 73.7865 25.9728C72.9229 25.6573 72.1395 25.1558 71.2915 24.797C69.5275 24.0497 67.744 23.3386 65.9673 22.6175C64.8689 22.1709 63.7765 21.717 62.6722 21.2867C61.8727 20.9755 61.0682 20.6689 60.2452 20.4137C59.6617 20.2311 59.5175 19.803 59.2627 19.2363C60.076 19.5366 60.767 19.7758 61.4434 20.0467C64.0226 21.0798 66.6155 22.093 69.1693 23.1784C70.8978 23.915 72.5627 24.7734 74.2687 25.5541C74.7647 25.7793 75.2941 25.9757 75.833 26.0818C77.5041 26.4134 79.0196 27.0404 80.4775 27.8542C81.7885 28.5844 83.0789 29.3715 84.5368 29.867C84.7271 29.9306 84.8313 30.2054 84.9776 30.3818C84.9482 30.418 84.9168 30.4505 84.8883 30.4839Z" fill="black"/>
<path d="M64.9523 28.889C66.6138 29.1375 68.2715 29.3963 69.9338 29.6244C70.4168 29.6903 70.9126 29.6937 71.3837 29.6666C73.1102 29.5633 74.7879 29.9199 76.4547 30.5231C74.5141 29.9677 72.6183 29.9005 70.6801 30.0864C70.7677 30.1497 70.8064 30.1958 70.8562 30.2108C72.8646 30.8303 74.8634 31.4767 76.8839 32.054C78.6217 32.5502 80.3834 32.9804 82.1866 33.0517C82.7982 33.0763 83.4165 33.0915 84.0263 33.1844C84.7005 33.2876 85.3032 33.5801 85.8439 33.9639C84.8796 33.5207 83.8894 33.3929 82.8635 33.4721C83.2414 33.5682 83.623 33.6631 84.0002 33.7612C84.3804 33.8602 84.7574 33.9858 85.1421 34.0633C85.7575 34.1854 86.3836 34.2511 86.9931 34.3898C87.1879 34.435 87.3481 34.6394 87.5241 34.773C87.5011 34.8187 87.4745 34.8657 87.4515 34.9115C86.6153 34.7707 85.765 34.6784 84.9453 34.4738C84.018 34.2435 83.1223 33.8806 82.1958 33.6391C81.5424 33.4688 80.8531 33.4344 80.1894 33.2839C78.7749 32.9635 77.3477 32.6598 75.9586 32.2508C73.8078 31.6203 71.6943 30.8956 69.5511 30.2445C68.8891 30.0441 68.1914 29.9429 67.507 29.8137C66.838 29.6869 66.1577 29.6185 65.5007 29.4494C65.2539 29.3861 65.064 29.12 64.8464 28.9486C64.8832 28.9277 64.9163 28.9079 64.9523 28.889Z" fill="black"/>
<path d="M17.5056 15.934C15.4435 15.3097 13.4961 14.7028 11.5378 14.136C10.6044 13.865 9.70007 13.5131 8.67634 13.5213C7.98907 13.5273 7.2779 13.4364 6.64393 13.0449C6.3296 12.8514 5.90083 12.8026 5.52022 12.6874C5.52031 12.6295 5.52133 12.5691 5.52453 12.5122C5.89243 12.346 6.25285 12.1717 6.62323 12.0177C8.48014 11.2437 10.3361 10.4723 12.2017 9.71252C12.3519 9.65098 12.5645 9.66616 12.7414 9.69369C12.7941 9.70098 12.884 9.92196 12.8424 9.97011C12.7377 10.0975 12.5843 10.2159 12.4207 10.2762C12.0903 10.396 11.5744 10.1473 11.4002 10.6209C11.3804 10.6757 11.1027 10.6494 10.9251 10.6622C11.1594 10.924 11.4094 11.1616 11.5997 11.4304C11.9112 11.8717 11.696 12.2288 11.1164 12.2529C10.6035 12.2741 10.0857 12.2706 9.39034 12.2799C10.0044 12.6017 10.4762 12.9152 11.0006 13.1115C12.1567 13.5425 13.3262 13.9457 14.5136 14.2994C15.1322 14.4838 15.7976 14.529 16.4388 14.6508C16.5817 14.6767 16.7848 14.718 16.8434 14.8051C17.0742 15.144 17.2594 15.5037 17.5056 15.934Z" fill="black"/>
<path d="M51.587 15.3278C51.1249 15.7738 50.7999 15.9919 50.2331 15.7305C48.893 15.1152 47.4559 14.7059 46.036 14.276C44.4671 13.801 42.8536 13.4495 41.2959 12.9522C39.2823 12.3084 37.2896 11.6068 35.322 10.8444C34.987 10.713 34.8252 10.1551 34.5852 9.79587C34.632 9.7202 34.6787 9.64454 34.7283 9.56976C34.8961 9.60772 35.0681 9.63411 35.2289 9.69135C37.0971 10.3339 38.946 11.039 40.8393 11.6122C43.1445 12.3101 45.4857 12.8991 47.8173 13.5237C49.1664 13.8893 50.4692 14.3564 51.587 15.3278Z" fill="black"/>
<path d="M14.2722 4.01216C14.2658 4.5339 14.2658 4.5339 13.1891 4.65597C13.3995 5.18281 13.0428 6.34018 12.5279 6.60206C11.7446 5.1359 10.9633 3.67339 10.1113 2.08049C10.6416 2.18652 11.0545 2.24492 11.4496 2.35244C12.1692 2.54909 12.8663 2.82673 13.5966 2.97515C14.4551 3.15029 15.3365 3.28998 16.2129 3.32221C17.2366 3.35662 18.0983 3.7749 18.8748 4.25215C19.549 4.66814 20.267 4.80378 20.9995 4.98316C21.1359 5.01537 21.2732 5.03575 21.4247 5.06345C20.8835 5.65034 19.9639 5.75641 19.0649 5.32984C18.591 5.10466 18.1638 4.79674 17.6792 4.60158C17.1642 4.39724 16.6173 4.2347 16.066 4.14046C15.4914 4.04524 14.8967 4.05286 14.2722 4.01216Z" fill="black"/>
<path d="M51.3731 15.9197C51.8353 15.5078 52.1884 15.5086 52.7178 15.781C54.6364 16.762 56.5965 17.6829 58.5605 18.5837C59.0818 18.8233 59.4416 19.1081 59.5879 19.7557C58.0569 19.0921 56.6172 18.4683 55.1318 17.8246C56.8396 19.3997 58.6184 20.8326 60.8285 21.7654C60.787 21.8256 60.7465 21.8831 60.7049 21.9432C60.3068 21.7742 59.9017 21.6152 59.5085 21.4325C58.2912 20.8699 57.1638 20.2043 56.1313 19.3672C54.7917 18.2825 53.3561 17.2992 51.9572 16.2784C51.7823 16.1497 51.5906 16.0492 51.3731 15.9197Z" fill="black"/>
<path d="M34.3727 10.187C34.2294 10.1317 34.0781 10.0889 33.9437 10.0183C33.034 9.56049 32.1629 9.03364 31.2179 8.65487C29.803 8.089 28.3485 7.58587 26.8856 7.13406C25.0037 6.55238 23.0936 6.04888 21.193 5.5094C20.9927 5.45175 20.7944 5.38872 20.5123 5.30331C21.0654 4.92956 21.5192 4.76496 22.1819 4.98351C24.7098 5.82054 27.2659 6.57941 29.7947 7.41376C31.2724 7.89995 32.6764 8.54325 33.9544 9.37565C34.2 9.53375 34.3012 9.86637 34.4691 10.1175C34.436 10.1434 34.4039 10.1665 34.3727 10.187Z" fill="black"/>
<path d="M74.661 29.216C73.7528 29.1714 72.8427 29.1136 71.9357 29.0846C71.4734 29.0712 71.0072 29.0871 70.5534 29.1243C68.8107 29.2752 67.0763 29.0236 65.347 28.6191C64.5129 28.4248 64.5165 28.4056 64.3297 28.0908C64.491 28.0967 64.6399 28.0911 64.7835 28.1092C65.9916 28.275 67.2005 28.4941 68.4081 28.5964C69.4046 28.6829 70.3987 28.6092 71.3988 28.6487C72.5012 28.6912 73.6046 28.805 74.661 29.216Z" fill="black"/>
<path d="M87.6095 34.2059C88.0886 34.155 88.5821 34.1402 88.6982 33.6854C88.7782 33.3783 88.7539 33.0482 88.7776 32.7268C88.8091 32.2984 88.603 31.9709 88.1348 31.783C87.4289 31.4973 86.7255 31.195 85.9977 30.9603C85.5235 30.8081 85.2139 30.5876 85.0847 30.0845C85.2878 30.146 85.4445 30.1848 85.5986 30.2401C86.6213 30.6131 87.6613 30.9567 88.659 31.3798C89.2419 31.6283 89.7044 32.0306 89.6114 32.6767C89.5521 33.0968 89.5175 33.5243 89.4582 33.9443C89.3989 34.3644 89.0224 34.5472 88.6282 34.6843C88.047 34.8859 87.8767 34.7997 87.6095 34.2059Z" fill="black"/>
<path d="M56.7638 21.5064C56.0484 21.0857 55.2781 20.722 54.625 20.2323C53.6985 19.5406 52.8696 18.7425 51.97 18.0193C51.4314 17.584 50.8388 17.2033 50.2744 16.6752C50.4503 16.6717 50.6671 16.6069 50.7947 16.6767C51.4256 17.0293 52.0806 17.3666 52.6296 17.8078C53.4144 18.4339 54.1044 19.1588 54.8595 19.8155C55.3221 20.2193 55.8303 20.5745 56.3209 20.9527C56.4967 21.0881 56.6696 21.2227 56.8453 21.3581C56.8185 21.4067 56.7907 21.4578 56.7638 21.5064Z" fill="black"/>
<path d="M54.0702 24.4756C54.6547 24.343 55.1041 24.2037 55.5709 24.1463C57.2072 23.9432 58.8471 23.7582 60.4924 23.5862C61.2414 23.5091 61.3576 23.5869 61.6266 24.134C60.6837 24.3767 55.3491 24.7151 54.0702 24.4756Z" fill="black"/>
<path d="M35.6866 13.6127C33.7896 11.7121 31.7331 9.99458 29.2106 8.66649C31.4794 9.01713 35.1621 11.8932 35.6866 13.6127Z" fill="black"/>
<path d="M84.2553 32.3854C82.9694 32.2561 81.7037 32.2704 80.3971 32.5025C79.2518 32.7055 78.0844 32.6752 76.9402 32.0577C77.2678 32.0231 77.4821 31.9989 77.6909 31.9804C78.9761 31.8643 80.2595 31.744 81.5436 31.6314C82.5634 31.539 83.4941 31.713 84.2553 32.3854Z" fill="black"/>
<path d="M41.411 20.6436C43.2608 19.7745 45.0848 18.8181 47.6076 19.4921C45.3693 19.4713 43.5209 20.3458 41.411 20.6436Z" fill="black"/>
<path d="M80.8707 30.3181C83.1337 30.0188 85.6314 30.7258 86.0832 31.8961C84.2834 31.3513 82.5428 30.8243 80.8707 30.3181Z" fill="black"/>
<path d="M38.193 22.697C38.8334 22.038 39.7295 22.5433 40.472 22.6336C40.7368 22.6653 40.9937 23.2086 41.1716 23.5987C40.1787 23.2982 39.1858 22.9976 38.193 22.697Z" fill="black"/>
<path d="M21.8044 15.4644C23.1622 14.909 25.283 14.925 26.7617 15.4594C26.0097 15.4348 25.1406 15.3831 24.2886 15.3832C23.4527 15.3839 22.631 15.4354 21.8044 15.4644Z" fill="black"/>
<path d="M64.9802 23.9954C64.2652 24.1459 63.5514 24.3015 62.8364 24.452C62.7025 24.4782 62.5696 24.4523 62.4378 24.522C61.9248 24.7861 61.7277 24.5357 61.7646 23.7511C62.9284 23.4981 63.9671 23.6744 64.9802 23.9954Z" fill="black"/>
<path d="M66.1908 25.2184C65.9952 25.2292 65.7993 25.2312 65.6039 25.2508C64.6193 25.3509 63.6307 25.4716 62.6499 25.5423C62.4803 25.5566 62.3359 25.3685 62.0651 25.2077C63.3464 24.6549 65.4568 24.633 66.1908 25.2184Z" fill="black"/>
<path d="M61.0935 27.9046C61.9914 27.9877 62.895 28.055 63.7834 28.1748C63.9336 28.1939 64.0267 28.4547 64.1462 28.6006C64.1051 28.6627 64.064 28.7248 64.0229 28.787C63.0387 28.5593 62.0545 28.3315 61.0655 28.1067C61.0734 28.0433 61.0827 27.9759 61.0935 27.9046Z" fill="black"/>
<path d="M88.0715 33.2549C86.4122 32.158 86.42 32.3117 86.312 31.2628C86.8252 31.1695 87.6122 32.0348 88.0715 33.2549Z" fill="black"/>
<path d="M12.6025 6.62402C13.0021 6.81574 13.3244 6.86465 13.4795 7.07961C13.6481 7.31638 13.684 7.70308 13.734 8.04096C13.745 8.11948 13.5695 8.35817 13.4856 8.37257C13.3605 8.39216 13.1791 8.31957 13.1348 8.20444C12.9512 7.75094 12.8143 7.26734 12.6025 6.62402Z" fill="black"/>
<path d="M50.4365 16.2273C49.8415 16.6195 49.0273 16.207 48.3389 15.1729C49.0163 15.5134 49.6938 15.8539 50.4365 16.2273Z" fill="black"/>
<path d="M40.4465 21.0282C40.7487 20.8948 41.0517 20.7595 41.3539 20.6261C41.366 20.6492 41.3794 20.6749 41.3915 20.698C41.0912 20.8385 40.793 20.9796 40.4921 21.122C40.4787 21.0899 40.4626 21.059 40.4465 21.0282Z" fill="black"/>
</svg>
