<svg width="92" height="32" viewBox="0 0 92 32" fill="none" xmlns="http://www.w3.org/2000/svg">
<path d="M0.00362149 21.037C0.130377 20.787 0.280673 20.5452 0.378455 20.2852C1.01948 18.6027 2.23633 17.7863 4.17387 17.8062C5.63699 17.8211 7.10373 17.9602 8.56323 17.9089C11.1092 17.8194 13.5809 17.364 15.9531 16.4532C18.8196 15.3536 21.8055 14.6002 24.8241 13.9179C26.5951 13.5171 28.2846 12.8166 30.0139 12.2553C40.9474 8.70645 52.1055 5.91608 63.528 4.05142C68.064 3.31119 72.6453 2.80114 77.2049 2.1702C77.6938 2.10231 78.1737 1.95327 78.6427 1.80092C80.0189 1.35214 81.3896 0.886803 82.7586 0.41981C82.9741 0.346946 83.1751 0.235994 83.3815 0.141602C84.2127 0.141602 85.0438 0.141602 85.8768 0.141602C86.047 0.250898 86.2027 0.388345 86.3892 0.462865C88.5694 1.33061 89.3553 2.65873 88.8917 4.81153C88.7469 5.48552 88.497 6.1413 88.2978 6.79542C90.0434 7.93144 90.7134 8.71142 91.0484 10.0197C91.1371 10.3658 91.1896 10.7185 91.2603 11.0679C91.2603 11.7883 91.2603 12.5086 91.2603 13.229C91.2204 13.4012 91.1788 13.5734 91.1407 13.7457C90.8583 15.0572 90.7043 16.4052 90.2625 17.6704C89.6722 19.3645 89.5563 21.047 89.9456 22.7543C90.2462 24.0791 89.7917 25.1555 88.7541 25.9918C87.9936 26.6045 87.1027 27.1096 86.2009 27.5418C84.9678 28.133 83.673 28.6166 82.3928 29.1266C82.0361 29.269 81.6486 29.3502 81.2683 29.4379C80.0859 29.7079 78.9903 29.375 77.8876 28.956C77.8025 29.1597 77.73 29.3237 77.663 29.4876C77.0184 31.0592 75.6458 31.7133 73.9002 31.1801C73.0799 30.93 72.3248 30.4994 71.5335 30.1649C71.2836 30.0589 71.0138 29.9496 70.744 29.9314C68.7829 29.8006 66.8182 29.683 64.8535 29.5936C64.6199 29.5837 64.3121 29.7128 64.1455 29.8718C63.5262 30.4647 62.8091 30.7495 61.911 30.6452C60.7176 30.5077 59.5207 30.3984 58.3292 30.2494C49.8837 29.1912 41.44 28.1214 32.9926 27.0665C32.1108 26.9573 31.1927 26.7618 30.3344 26.8794C27.8029 27.2272 25.2895 27.2471 22.7544 26.9589C21.2786 26.7917 19.8608 26.3909 18.2944 26.641C13.4578 27.411 8.65739 26.9192 3.91674 25.9123C2.2997 25.5695 0.876423 24.8773 0.200998 23.3372C0.173836 23.276 0.0688101 23.2428 0 23.1965C0.00362158 22.4778 0.00362149 21.7574 0.00362149 21.037ZM86.4653 23.0408C86.6464 22.8702 87.0176 22.6367 86.9796 22.5407C86.7441 21.9495 87.3562 21.7789 87.5735 21.4163C87.53 22.0803 87.4848 22.7444 87.4395 23.4316C87.4341 23.4316 87.2982 23.4416 87.1624 23.4532C87.3526 23.6635 87.6025 23.7363 87.789 23.8771C87.9212 23.9764 88.0008 24.1636 88.0407 24.3242C88.0552 24.3838 87.9067 24.5163 87.8053 24.5527C87.4992 24.667 87.1787 24.7498 86.8293 24.8558C86.8256 24.8458 86.8184 24.7216 86.7604 24.6239C86.688 24.4997 86.5957 24.3375 86.4725 24.2994C86.3747 24.2696 86.1104 24.3954 86.1068 24.46C86.1013 24.5941 86.1991 24.7448 86.2878 24.869C86.4055 25.033 86.554 25.1771 86.6446 25.2797C87.0719 25.1092 87.5029 24.9783 87.8813 24.7647C88.0715 24.6571 88.2725 24.4037 88.2761 24.2133C88.2851 23.7214 88.2018 23.2263 88.1258 22.7344C87.8433 20.9095 87.8922 19.1078 88.526 17.3408C89.3028 15.1781 89.5056 12.9607 89.2322 10.7086C89.1453 9.99482 88.9062 9.31254 88.2127 8.83727C87.7926 9.6189 87.8198 9.59903 88.3449 10.2399C88.4843 10.4088 88.3938 10.7351 88.4083 10.9801C87.5409 10.4966 86.8075 10.0859 86.0723 9.67521C86.0271 9.71661 85.9836 9.75967 85.9383 9.80107C86.0542 9.92692 86.2154 10.0379 86.2751 10.1836C86.3331 10.326 86.3403 10.6274 86.2824 10.6473C85.6794 10.8493 85.5038 11.3113 85.4042 11.8081C85.3589 12.03 85.3426 12.4374 85.4313 12.4672C85.6939 12.5567 86.0162 12.4987 86.2136 12.4987C86.3313 11.9506 86.3947 11.5167 86.5323 11.106C86.5685 10.9984 86.8311 10.952 86.9904 10.8791C87.0321 11.0298 87.1534 11.2136 87.0991 11.3279C86.851 11.8529 86.9433 12.088 87.5355 12.2602C88.5586 12.56 88.573 12.5865 88.1747 13.4973C88.3576 13.5552 88.66 13.5768 88.6962 13.6778C88.7922 13.946 88.7867 14.2491 88.7759 14.5372C88.7759 14.5621 88.3558 14.6565 88.2688 14.5836C87.5735 13.9924 87.2512 13.9858 86.6174 14.6532C86.3548 14.0454 85.9963 14.206 85.721 14.5985C85.4802 14.9413 85.3227 15.3354 85.1669 15.7213C85.1181 15.8405 85.1416 16.0657 85.2303 16.1287C85.3408 16.2065 85.578 16.2214 85.7102 16.1651C85.8985 16.0856 86.047 15.9216 86.2027 15.7842C86.6301 15.4083 87.0737 15.4745 87.5083 15.7561C87.9827 16.0641 88.1222 16.753 87.8071 17.2763C87.5499 17.7035 87.1824 17.4833 86.8365 17.3822C86.7514 17.3574 86.6427 17.3972 86.4055 17.4236C86.5902 17.6075 86.6971 17.7101 86.8003 17.8161C86.9053 17.9254 87.0085 18.038 87.1117 18.149C86.9759 18.2268 86.8401 18.3046 86.7061 18.3825C86.4852 18.5083 86.2661 18.6358 86.0144 18.7799C86.5757 18.972 87.0755 19.0714 87.4848 19.3032C87.9375 19.5599 87.8288 20.0832 87.3182 20.1892C86.9035 20.2753 86.4617 20.2587 86.0687 20.2852C86.143 20.6578 86.3657 21.1364 86.2969 21.5769C86.1882 22.2509 85.4531 22.1019 84.8464 22.1698C85.0022 22.3635 85.1126 22.4976 85.2086 22.6169C85.5001 22.4579 85.7482 22.3221 86.018 22.1731C86.2063 22.4662 86.3621 22.7013 86.5069 22.9398C86.5214 22.9646 86.4888 23.0143 86.4816 23.0541C86.2824 23.0093 86.0814 22.9663 85.8623 22.9166C85.817 23.0011 85.7446 23.1302 85.6341 23.3339C85.5327 23.1451 85.4712 23.0292 85.4295 22.9547C84.8754 22.8851 84.4662 23.0822 84.2271 23.5889C84.7342 23.887 84.9895 24.2795 84.6273 24.816C85.2376 25.0959 85.3698 25.0429 85.4295 24.5296C85.5345 23.6088 85.8206 23.3819 86.8383 23.4979C86.6898 23.3124 86.5776 23.1766 86.4653 23.0408ZM74.342 4.0713C72.0785 4.40084 69.8169 4.74198 67.5516 5.05496C60.7176 5.99723 54.4179 8.31563 48.3789 11.2865C45.9869 12.4639 44.0258 14.0371 42.7781 16.3373C41.0923 19.4456 38.6006 21.9363 35.3955 23.8191C34.8233 24.1553 34.2855 24.5428 33.7314 24.9071C38.3888 24.099 41.6862 21.4063 44.8062 18.1887C43.1095 22.2873 39.6853 24.359 35.5766 25.7351C35.9352 25.8444 36.2339 25.8991 36.5363 25.9355C44.9873 26.9688 53.4383 27.9972 61.8892 29.0372C62.4162 29.1018 62.6099 28.9345 62.7385 28.4708C63.423 26.015 63.9734 23.5128 64.8951 21.1298C68.0532 12.9723 73.6757 6.77555 82.5286 3.31616C83.425 2.96674 84.4625 2.88229 85.4476 2.78458C85.7319 2.75643 86.2407 3.05617 86.3367 3.30622C86.6029 3.99512 86.1937 4.6095 85.8786 5.20897C85.4132 3.98187 84.5694 3.69869 83.4141 4.42568C84.5187 4.93076 85.6015 5.42591 86.8347 5.98895C86.9777 5.16591 87.1443 4.44721 87.2186 3.72188C87.2874 3.03795 86.9089 2.49147 86.248 2.21492C85.7265 1.99632 85.1162 1.78601 84.5694 1.82907C83.6242 1.90359 82.6681 2.09734 81.7663 2.37886C77.6884 3.65398 74.0867 5.73392 70.6317 8.04073C67.0681 10.4188 63.6964 12.9872 61.1939 16.3737C61.183 16.3886 61.1377 16.382 61.0436 16.392C63.9481 10.8841 68.8626 7.28228 74.342 4.0713ZM52.417 7.86851C52.3174 7.87845 52.2558 7.87679 52.1961 7.89004C46.3128 9.19497 40.4929 10.7086 34.7527 12.4705C33.9487 12.7173 33.1013 12.9293 32.386 13.325C30.9482 14.1199 29.5467 14.9827 28.2031 15.9051C25.0125 18.0927 22.3289 20.6909 20.6539 24.0592C20.5235 24.3192 20.4293 24.5941 20.2972 24.9121C21.1211 25.0512 21.8454 25.2052 22.5769 25.293C25.2515 25.6109 27.9133 25.8494 30.5517 24.9999C35.1692 23.5111 38.7564 20.9162 41.219 17.0163C43.1005 14.0355 45.6971 11.6558 48.8642 9.80603C50.0122 9.13204 51.2074 8.52429 52.417 7.86851ZM26.9047 15.3934C22.9355 16.4714 19.5783 18.4719 16.317 20.6413C18.2256 18.6259 20.6394 17.2465 23.1365 15.925C20.6992 16.589 18.3198 17.3723 15.9386 18.149C15.2831 18.3626 14.633 18.6226 13.9558 18.7518C12.288 19.0714 10.604 19.3148 8.93444 19.6212C8.5922 19.6841 8.24272 19.8414 7.96024 20.0319C6.87195 20.7688 5.83618 21.5686 4.7316 22.2807C3.9439 22.7891 3.07472 23.1915 2.15303 23.69C2.45724 23.7926 2.64919 23.8787 2.85381 23.9251C4.18836 24.2265 5.51386 24.5776 6.86471 24.8028C10.5678 25.4188 14.2908 25.5745 18.0319 25.081C18.4483 25.0264 18.796 24.9485 19.0224 24.5345C20.3442 22.1184 22.146 20.007 24.127 18.0215C25.0052 17.1405 25.9414 16.3025 26.9047 15.3934ZM70.045 28.3483C68.9423 26.5267 68.7268 24.6952 68.9079 22.7841C69.0871 20.8863 69.5797 19.078 70.4488 17.3508C70.3909 17.8873 70.2678 18.4123 70.1826 18.9405C69.8223 21.1861 69.5869 23.4366 70.2678 25.6689C70.8599 27.6081 72.1202 28.9991 74.2895 29.5953C75.1134 29.8205 75.5227 29.6979 75.8758 29.1531C76.3629 28.3996 76.343 27.772 75.8432 27.2603C75.4647 26.8728 75.0935 26.4754 74.7549 26.0597C73.5942 24.6372 72.7413 23.0491 72.6508 21.2821C72.4516 17.4104 73.0183 13.6198 74.5593 9.98157C74.6336 9.80769 74.6861 9.62718 74.7495 9.44999C68.7612 14.4197 65.8494 20.8284 64.1509 27.9376C66.1446 28.0751 68.0278 28.2059 70.045 28.3483ZM1.8959 23.1104C3.72842 22.0538 5.50118 21.042 6.82306 19.4373C2.94435 18.6292 1.31645 20.0915 1.8959 23.1104ZM84.9732 9.19497C84.3575 9.48808 84.4281 9.93851 84.6491 10.3012C84.7885 10.5314 85.1724 10.6357 85.5454 10.8526C85.5454 10.2796 85.5454 9.90208 85.5454 9.47318C85.3897 9.39866 85.1814 9.29598 84.9732 9.19497ZM79.5462 17.8923C79.5951 17.932 79.644 17.9701 79.6947 18.0099C80.1927 17.7184 80.6925 17.427 81.29 17.0775C81.1995 16.844 81.08 16.5344 80.9062 16.0873C80.3756 16.7894 79.9609 17.3408 79.5462 17.8923ZM85.0456 11.6409C84.6454 11.6856 84.2525 11.6558 83.9501 11.7932C83.7708 11.876 83.702 12.2188 83.6567 12.4556C83.6386 12.5467 83.8125 12.7504 83.9211 12.7653C84.2362 12.8067 84.9641 12.136 85.0456 11.6409ZM83.6513 22.8736C83.9718 22.4811 84.2525 22.1383 84.5766 21.7425C84.4499 21.6001 84.2815 21.4113 84.1131 21.2225C84.0551 21.2258 83.9954 21.2275 83.9374 21.2308C84.1565 21.8236 82.8039 22.0422 83.6513 22.8736ZM82.9523 9.10554C82.5992 8.93498 82.3439 8.71307 82.19 8.7611C81.9854 8.82402 81.7645 9.08733 81.7355 9.2877C81.7174 9.41356 82.1031 9.72986 82.1954 9.69839C82.4399 9.61063 82.6228 9.38044 82.9523 9.10554ZM82.9795 11.3743C83.5535 11.621 84.0352 11.6392 84.4082 11.2501C84.5295 11.1242 84.4499 10.8361 84.468 10.5463C83.8867 10.8692 83.4702 11.1027 82.9795 11.3743ZM84.4481 16.435C84.343 16.8722 84.2597 17.2249 84.1583 17.6505C84.3774 17.5545 84.4897 17.5064 84.5386 17.4849C84.7885 17.7598 85.0112 18.0066 85.2339 18.2516C85.3064 18.2136 85.3806 18.1738 85.453 18.1357C85.3209 17.8989 85.1941 17.6621 85.0583 17.4286C84.9026 17.162 84.7378 16.9037 84.4481 16.435ZM81.3136 11.616C81.6938 11.7436 82.0415 11.8793 82.4037 11.9671C82.4797 11.9853 82.6047 11.8264 82.7079 11.7485C82.6246 11.7005 82.5341 11.6591 82.4562 11.6028C82.1701 11.3991 81.8876 11.1905 81.5816 10.9685C81.491 11.1905 81.415 11.3726 81.3136 11.616ZM87.1805 7.94965C86.9343 7.44457 86.5232 7.33197 85.7899 7.66482C86.0452 7.75259 86.2661 7.85361 86.4997 7.89997C86.7333 7.94634 86.9795 7.93806 87.1805 7.94965ZM84.8827 26.0862C84.8953 26.1359 84.9098 26.1856 84.9225 26.2352C85.2738 26.1259 85.6251 26.015 85.8297 25.9521C85.8478 25.6424 85.8605 25.4619 85.8659 25.3658C85.5707 25.5828 85.2267 25.8345 84.8827 26.0862ZM81.0854 8.11029C81.0293 8.0722 80.9732 8.03411 80.917 7.99602C80.7903 8.15334 80.5694 8.31066 80.5675 8.46798C80.5657 8.6104 80.8066 8.75447 80.9406 8.89854C80.9894 8.86377 81.0365 8.83065 81.0854 8.79587C81.0854 8.56734 81.0854 8.33881 81.0854 8.11029ZM85.5345 13.5536C85.2448 13.383 85.1108 13.2406 85.0004 13.2538C84.8175 13.2754 84.6491 13.3996 84.4752 13.4807C84.6128 13.5801 84.7396 13.7357 84.8935 13.7639C85.0329 13.7887 85.1995 13.6728 85.5345 13.5536ZM83.8161 17.889C83.7093 17.884 83.6024 17.879 83.4938 17.8757C83.4938 18.1953 83.4684 18.5183 83.5119 18.8329C83.5227 18.9091 83.7618 18.9604 83.8161 18.9853C83.8161 18.5862 83.8161 18.2367 83.8161 17.889ZM80.3593 21.87C80.3738 21.7789 80.3865 21.6879 80.4009 21.5968C80.1764 21.5537 79.9501 21.509 79.7255 21.4659C79.702 21.5885 79.6803 21.7094 79.6567 21.8319C79.8903 21.8452 80.1257 21.8584 80.3593 21.87Z" fill="black"/>
<path d="M73.494 3.55995C68.0101 6.84741 63.0915 10.535 60.1882 16.1724C60.2825 16.1605 60.3278 16.1673 60.3387 16.1537C62.8451 12.6865 66.2177 10.0569 69.7843 7.62223C73.2421 5.26217 76.8468 3.13269 80.928 1.82551C81.8288 1.53728 82.7856 1.33722 83.7335 1.26262C84.2808 1.21854 84.8915 1.43386 85.4135 1.65766C86.0749 1.9408 86.4537 2.50029 86.3848 3.20051C86.3105 3.94481 86.1438 4.67894 86.0006 5.52158C84.7665 4.94512 83.6827 4.43819 82.5772 3.92108C83.7335 3.17678 84.5762 3.4667 85.0438 4.72302C85.3591 4.10927 85.7687 3.48026 85.5023 2.77496C85.4062 2.51894 84.897 2.21376 84.6124 2.24089C83.6265 2.34092 82.5881 2.42569 81.691 2.78513C72.8308 6.32861 67.2054 12.6713 64.043 21.023C63.1205 23.4611 62.5696 26.0246 61.8845 28.5389C61.7559 29.0137 61.562 29.1866 61.0346 29.1188C52.5784 28.054 44.1187 26.9995 35.6607 25.9432C35.3581 25.9059 35.0573 25.85 34.7002 25.7381C38.8105 24.3291 42.2393 22.2098 43.9375 18.0119C40.8149 21.3062 37.5147 24.063 32.8535 24.8903C33.4081 24.5173 33.9463 24.1206 34.519 23.7764C37.7268 21.8487 40.2205 19.2988 41.9077 16.1164C43.1564 13.7631 45.1191 12.1508 47.5131 10.9453C53.5571 7.90198 59.8638 5.53005 66.7016 4.56534C68.9651 4.2483 71.2287 3.89734 73.494 3.55995Z" fill="white"/>
<path d="M52.3224 7.94727C51.131 8.60772 49.9539 9.21981 48.8231 9.89695C45.7036 11.7599 43.146 14.1566 41.2929 17.1586C38.8672 21.088 35.334 23.7015 30.7859 25.1992C28.1872 26.0548 25.5654 25.8146 22.9311 25.4944C22.2087 25.406 21.4971 25.2509 20.6855 25.1108C20.8157 24.7922 20.9085 24.5154 21.0369 24.2519C22.6867 20.8595 25.33 18.2427 28.4726 16.0395C29.7978 15.1106 31.1765 14.2416 32.5926 13.4411C33.2971 13.0425 34.1318 12.829 34.9238 12.5805C40.5777 10.8076 46.31 9.28319 52.1048 7.96728C52.1619 7.95561 52.2243 7.95727 52.3224 7.94727Z" fill="white"/>
<path d="M26.7692 15.752C25.8221 16.6659 24.9017 17.5083 24.0365 18.3956C22.0889 20.3917 20.3175 22.5143 19.018 24.9432C18.7954 25.3594 18.4536 25.436 18.0442 25.4926C14.3679 25.9887 10.7059 25.8339 7.06533 25.2129C5.73726 24.9865 4.43411 24.6336 3.12206 24.3306C2.9209 24.284 2.73041 24.1974 2.43311 24.0942C3.33925 23.5931 4.19378 23.1869 4.96819 22.6775C6.05592 21.9616 7.07423 21.1558 8.14238 20.4167C8.4201 20.2236 8.76369 20.0671 9.10016 20.0038C10.7415 19.6958 12.399 19.4511 14.0368 19.1298C14.7026 19 15.3399 18.7386 15.9862 18.5238C18.3272 17.743 20.6647 16.9556 23.0627 16.288C20.6077 17.6148 18.2364 19.0033 16.3582 21.0293C19.5663 18.8468 22.8669 16.8357 26.7692 15.752Z" fill="white"/>
<path d="M70.43 28.909C68.3978 28.7695 66.5006 28.6382 64.4902 28.4987C66.2032 21.4532 69.1366 15.1035 75.1676 10.1768C75.1037 10.3524 75.0508 10.5313 74.976 10.7036C73.4236 14.3109 72.8526 18.0675 73.0533 21.9029C73.1445 23.654 74.0055 25.2279 75.173 26.6376C75.516 27.0496 75.89 27.4435 76.2694 27.8275C76.7711 28.3346 76.793 28.9566 76.3023 29.7033C75.9465 30.2433 75.5343 30.3647 74.7042 30.1415C72.5188 29.5507 71.2473 28.1721 70.6526 26.2503C69.9666 24.0397 70.2038 21.8093 70.5668 19.5823C70.6526 19.0571 70.7748 18.5385 70.835 18.0068C69.9612 19.7185 69.4631 21.5106 69.2825 23.3914C69.1019 25.2886 69.319 27.1037 70.43 28.909Z" fill="white"/>
<path d="M85.7239 22.5585C85.7357 22.5223 85.771 22.4751 85.7553 22.4516C85.5967 22.2252 85.4302 22.0019 85.2265 21.7236C84.9347 21.8636 84.6664 21.9925 84.3511 22.145C84.2474 22.0318 84.1279 21.9029 83.9595 21.7205C84.6155 21.6544 85.4106 21.7975 85.5281 21.1576C85.6045 20.741 85.3617 20.285 85.2814 19.9313C85.7083 19.9061 86.1842 19.9234 86.6326 19.8401C87.1849 19.7379 87.3024 19.2411 86.8128 18.999C86.3702 18.7788 85.8297 18.6845 85.2226 18.5021C85.4948 18.3654 85.7337 18.2443 85.9707 18.1248C86.1176 18.0509 86.2645 17.977 86.4094 17.9031C86.2977 17.7978 86.1881 17.6909 86.0725 17.5871C85.9609 17.4865 85.8454 17.389 85.6456 17.2145C85.9022 17.1909 86.0197 17.1516 86.1117 17.1752C86.4877 17.2711 86.8833 17.4802 87.1614 17.0746C87.5021 16.5762 87.3533 15.9237 86.8383 15.6313C86.3702 15.364 85.8885 15.3027 85.4263 15.658C85.2579 15.7885 85.0973 15.9441 84.8936 16.0196C84.7507 16.073 84.4921 16.0589 84.3746 15.985C84.2806 15.9253 84.2552 15.7114 84.3061 15.5982C84.4745 15.2335 84.6449 14.8577 84.9054 14.5323C85.203 14.1612 85.5908 14.0087 85.8747 14.5842C86.5602 13.9505 86.9088 13.9568 87.6608 14.5181C87.7548 14.5873 88.2071 14.4977 88.2091 14.4741C88.2208 14.2005 88.2267 13.9128 88.1229 13.6581C88.0838 13.5622 87.7567 13.5418 87.5589 13.4867C87.9898 12.622 87.9741 12.5969 86.8676 12.3123C86.2292 12.1488 86.1274 11.9255 86.3957 11.4271C86.4544 11.3186 86.3212 11.1457 86.2782 11.0011C86.1058 11.0718 85.8219 11.1143 85.7827 11.2164C85.6339 11.6079 85.5653 12.0183 85.438 12.5387C85.2246 12.5387 84.8779 12.5937 84.592 12.5088C84.4961 12.4805 84.5137 12.0937 84.5626 11.8831C84.6704 11.4114 84.8603 10.9728 85.5124 10.7809C85.5732 10.7636 85.5673 10.4759 85.5046 10.3407C85.44 10.2024 85.2657 10.097 85.1404 9.97754C85.1893 9.93823 85.2363 9.89735 85.2853 9.85805C86.0804 10.248 86.8735 10.6363 87.8116 11.097C87.7959 10.8643 87.8938 10.5561 87.743 10.3942C87.1751 9.78572 87.1457 9.80302 87.6 9.0625C88.3501 9.51216 88.6086 10.1615 88.7026 10.8391C88.9964 12.9773 88.779 15.0825 87.9388 17.1359C87.2534 18.8134 87.1986 20.524 87.5061 22.2566C87.5883 22.722 87.6764 23.1921 87.6686 23.6606C87.6647 23.8414 87.4473 24.082 87.2417 24.1842C86.8343 24.3854 86.3663 24.5096 85.9041 24.6731C85.8062 24.5756 85.6456 24.4389 85.5183 24.2832C85.4224 24.1653 85.3147 24.0238 85.3225 23.8949C85.3264 23.8336 85.6123 23.7141 85.7181 23.7424C85.8512 23.7785 85.9511 23.9326 86.0295 24.0505C86.0921 24.1433 86.1 24.2612 86.1039 24.2706C86.4818 24.17 86.8265 24.0898 87.1594 23.9829C87.2691 23.9468 87.4297 23.821 87.414 23.7659C87.3709 23.6134 87.2848 23.4358 87.1418 23.3414C86.9401 23.2078 86.6698 23.1402 86.4642 22.939C86.6111 22.9295 86.756 22.9201 86.7638 22.9185C86.8128 22.266 86.8598 21.6356 86.9087 21.0051C86.6737 21.3494 86.0118 21.5114 86.2664 22.0727C86.3075 22.1654 85.9061 22.3871 85.7102 22.5475C85.7024 22.5475 85.7239 22.5585 85.7239 22.5585Z" fill="white"/>
<path d="M1.35324 23.5569C0.656027 20.0976 2.61872 18.4239 7.30033 19.348C5.70482 21.1868 3.56509 22.3462 1.35324 23.5569Z" fill="white"/>
<path d="M86.0404 23.6246C86.145 23.6978 86.2496 23.7711 86.3931 23.8711C85.4446 23.8086 85.178 23.9318 85.0801 24.4275C85.0261 24.7044 84.9012 24.733 84.3324 24.5821C84.6717 24.2927 84.432 24.081 83.9595 23.9202C84.1822 23.6478 84.5637 23.5406 85.0801 23.5782C85.1172 23.6184 85.1763 23.6809 85.2708 23.7827C85.3754 23.6728 85.4412 23.6032 85.4834 23.5576C85.6876 23.5835 85.875 23.6076 86.0589 23.6309L86.0404 23.6246Z" fill="white"/>
<path d="M84.5161 10.1768C84.7564 10.2446 84.9966 10.3136 85.1763 10.3648C85.1763 10.653 85.1763 10.9068 85.1763 11.2918C84.7459 11.1449 84.3009 11.0748 84.1422 10.9212C83.8894 10.6764 83.8058 10.3726 84.5161 10.1768Z" fill="white"/>
<path d="M79.0923 17.8457C79.3816 17.206 79.671 16.5683 80.0412 15.752C80.1625 16.2706 80.2459 16.6298 80.3091 16.9006C79.8921 17.3059 79.5434 17.644 79.1959 17.982C79.1605 17.9359 79.1264 17.8898 79.0923 17.8457Z" fill="white"/>
<path d="M85.1763 12.4072C85.105 12.8974 84.4678 13.5614 84.192 13.5205C84.0969 13.5057 83.9448 13.3057 83.9606 13.2139C84.0002 12.9794 84.0605 12.64 84.2174 12.5581C84.4821 12.422 84.8276 12.4515 85.1763 12.4072Z" fill="white"/>
<path d="M82.7422 9.47814C82.4128 9.80203 82.23 10.0752 81.9857 10.1747C81.8916 10.2137 81.5079 9.83911 81.526 9.69082C81.555 9.45472 81.7758 9.14448 81.9803 9.07034C82.1341 9.01375 82.3893 9.27521 82.7422 9.47814Z" fill="white"/>
<path d="M82.7422 11.0945C83.1412 10.7916 83.4813 10.5347 83.951 10.1768C83.9378 10.498 84.0011 10.8155 83.9024 10.9568C83.6006 11.3881 83.2089 11.368 82.7422 11.0945Z" fill="white"/>
<path d="M84.2335 16.8672C84.5058 17.443 84.6606 17.7625 84.8053 18.086C84.9346 18.3729 85.0537 18.6659 85.1763 18.9548C85.1082 19.0016 85.0384 19.0505 84.9704 19.0973C84.761 18.7961 84.5517 18.495 84.3169 18.1552C84.2709 18.1816 84.1654 18.2406 83.9595 18.3587C84.0565 17.8357 84.1365 17.4023 84.2335 16.8672Z" fill="white"/>
<path d="M80.3091 12.0121C80.4858 11.7425 80.6184 11.5376 80.7794 11.292C81.3128 11.5394 81.8052 11.7721 82.3039 11.9992C82.4397 12.0601 82.5943 12.1081 82.7427 12.1617C82.5628 12.2485 82.3418 12.4257 82.2124 12.4054C81.5811 12.3057 80.9751 12.1543 80.3091 12.0121Z" fill="white"/>
<path d="M86.3931 7.94708C86.2172 7.91593 86.0017 7.93929 85.7973 7.83026C85.593 7.72124 85.3997 7.48372 85.1763 7.27735C85.8195 6.49471 86.1776 6.75949 86.3931 7.94708Z" fill="white"/>
<path d="M83.9595 26.711C84.3852 26.3882 84.811 26.0653 85.1763 25.7871C85.1696 25.9103 85.1561 26.1418 85.1315 26.539C84.8782 26.6218 84.4435 26.762 84.0088 26.9022C83.9931 26.8384 83.9774 26.7747 83.9595 26.711Z" fill="white"/>
</svg>
