<svg width="680" height="361" viewBox="0 0 680 361" fill="none" xmlns="http://www.w3.org/2000/svg">
<path d="M525.522 345.888C520.653 352.217 514.908 356.91 516.174 359.053C516.174 359.053 518.764 361 525.911 361C538.18 361 550.254 360.065 548.268 358.819C545.522 357.086 537.576 356.462 529.981 353.833C528.034 353.191 534.09 349.549 532.455 348.965C530.043 348.183 527.719 347.151 525.522 345.888Z" fill="#002E4F"/>
<path d="M651.989 358.683C651.989 358.683 653.605 360.942 659.779 360.942C670.392 360.942 681.454 359.501 679.74 358.41C677.364 356.93 658.766 353.054 658.766 353.054L654.599 347.874L647.529 351.769L651.989 358.683Z" fill="#002E4F"/>
<path d="M618.454 202.243C613.781 202.262 609.125 201.706 604.588 200.588C602.737 200.021 601.179 198.757 600.243 197.063C599.307 195.368 599.067 193.376 599.573 191.508C600.078 189.639 601.29 188.041 602.953 187.05C604.616 186.058 606.599 185.752 608.483 186.196C608.736 186.196 625.504 190.559 635.28 182.165C641.823 176.556 644.316 165.962 642.68 150.714L642.154 145.845L657.228 137.296C658.081 136.763 659.034 136.409 660.029 136.254C661.023 136.099 662.038 136.147 663.014 136.395C663.989 136.643 664.904 137.086 665.704 137.696C666.503 138.307 667.171 139.074 667.667 139.949C668.163 140.825 668.476 141.792 668.588 142.792C668.7 143.792 668.609 144.805 668.32 145.769C668.03 146.732 667.549 147.628 666.904 148.401C666.26 149.173 665.466 149.808 664.57 150.266L657.909 154.044C658.961 172.019 654.599 185.301 644.9 193.558C636.682 200.53 626.477 202.243 618.454 202.243Z" fill="#8A8778"/>
<path d="M644.161 160.88C643.888 171.727 641.006 179.575 635.533 184.249C624.803 193.461 606.419 188.767 606.107 188.689C605.07 188.408 603.988 188.334 602.922 188.471C601.856 188.608 600.828 188.953 599.896 189.488C598.013 190.567 596.636 192.35 596.068 194.444C595.5 196.539 595.787 198.773 596.866 200.656C597.946 202.538 599.728 203.915 601.823 204.483C606.617 206.567 611.806 207.59 617.032 207.482C648.737 206.353 667.881 179.011 668.231 163.061L644.161 160.88Z" fill="#E1F3F6"/>
<path d="M600.557 122.963C597.714 121.677 594.929 120.295 592.183 118.853C565.893 133.81 532.318 152.992 531.656 153.654C531.656 153.654 548.346 180.218 549.417 181.289C550.099 181.971 591.482 152.291 621.239 130.791C614.365 128.123 607.296 125.962 600.557 122.963Z" fill="#D70411" fill-opacity="0.53"/>
<path d="M600.927 122.184C607.821 125.222 615.046 127.422 622.037 130.168C638.416 118.328 651.094 109.116 651.094 109.116L623.089 101.326L593.137 118.347C595.669 119.71 598.298 120.996 600.927 122.184Z" fill="#D70411" fill-opacity="0.53"/>
<path d="M552.708 87.3045L569.203 131.96L601.433 143.781L560.595 69.1931L552.708 87.3045Z" fill="#D70411" fill-opacity="0.53"/>
<path d="M603.186 154.745H579.31L600.557 191.883L632.963 205.554L603.186 154.745Z" fill="#006091"/>
<path d="M632.963 205.554L613.956 173.11L532.61 220.803L516.622 193.538L526.67 31.3152L563.224 9.89319L629.009 122.125L651.152 109.155L669.555 140.568L647.432 153.538L666.44 185.982L632.963 205.554ZM559.174 79.6706L557.109 80.878L551.52 167.52L595.552 141.717L559.174 79.6706Z" fill="#D70411"/>
<path d="M489.571 186.099L516.621 193.519L532.61 220.803L504.041 213.578L489.571 186.099Z" fill="#D70411" fill-opacity="0.53"/>
<path d="M489.571 186.099L516.621 193.519L526.67 31.2957L501.86 25.356L489.571 186.099Z" fill="#D70411" fill-opacity="0.53"/>
<path d="M501.86 25.356L526.67 31.2958L563.224 9.85423L538.083 2.55127L501.86 25.356Z" fill="#D70411" fill-opacity="0.53"/>
<path d="M556.252 250.735C556.252 250.735 560.147 293.579 560.147 308.633C560.147 308.633 528.988 332.957 521.198 345.635C524.469 348.128 530.935 351.477 535.219 351.321C548.707 338.644 563.329 327.229 578.901 317.221C578.901 317.221 588.775 288.633 591.832 264.406L556.252 250.735Z" fill="#D70411" fill-opacity="0.53"/>
<path d="M578.512 252.76C585.529 253.002 592.493 251.475 598.766 248.32C596.818 239.751 601.064 214.493 606.555 200.997C606.555 200.997 610.84 191.61 607.841 188.709C596.74 178.037 587.295 178.971 584.354 178.796C574.15 187.404 555.142 212.779 555.941 246.353C561.102 251.806 571.715 252.721 578.512 252.76Z" fill="#E1F3F6"/>
<path d="M647.354 352.957C651.447 352.056 655.13 349.832 657.832 346.628C645.777 327.153 601.57 255.273 599.174 249.644C599.174 249.508 599.057 249.333 598.999 249.177C592.264 252.543 584.761 254.074 577.246 253.617C570.722 253.364 561.238 252.449 555.824 247.6C555.824 247.95 555.824 248.301 555.824 248.651C556.739 267.386 618.921 329.88 643.459 353.814C644.775 353.612 646.076 353.326 647.354 352.957Z" fill="#D70411"/>
<path d="M519.017 233.325C517.324 233.334 515.641 233.071 514.032 232.546C511.63 231.716 509.478 230.291 507.775 228.404C506.072 226.518 504.875 224.231 504.294 221.757C503.983 220.809 503.865 219.809 503.948 218.815C504.03 217.821 504.311 216.854 504.774 215.97C505.236 215.087 505.872 214.305 506.642 213.671C507.412 213.037 508.301 212.565 509.258 212.281C510.214 211.997 511.217 211.907 512.208 212.018C513.199 212.129 514.158 212.437 515.028 212.925C515.898 213.412 516.662 214.069 517.273 214.857C517.885 215.645 518.332 216.548 518.589 217.512C518.673 217.835 518.79 218.148 518.939 218.446C519.738 218.446 522.678 218.213 529.865 213.987C536.291 210.228 543.886 204.6 551.287 199.167C563.692 189.994 575.416 181.328 585.094 178.251C586.961 177.719 588.961 177.936 590.67 178.856C592.379 179.775 593.663 181.324 594.248 183.174C594.834 185.024 594.675 187.03 593.806 188.765C592.937 190.5 591.426 191.828 589.593 192.467C582.271 194.785 571.034 203.1 560.148 211.143C544.217 222.945 530.176 233.325 519.017 233.325Z" fill="#8A8778"/>
<path d="M532.961 227.755C532.045 223.373 531.013 218.524 528.306 214.921C522.289 218.252 519.737 218.466 518.997 218.446C518.848 218.148 518.731 217.835 518.647 217.512C518.39 216.548 517.943 215.645 517.331 214.857C516.72 214.069 515.957 213.412 515.087 212.924C514.217 212.437 513.258 212.129 512.266 212.018C511.275 211.907 510.272 211.997 509.316 212.281C508.36 212.565 507.47 213.037 506.7 213.671C505.93 214.305 505.295 215.087 504.832 215.97C504.369 216.854 504.088 217.821 504.006 218.815C503.924 219.809 504.041 220.809 504.353 221.757C504.933 224.231 506.13 226.518 507.833 228.404C509.536 230.291 511.688 231.716 514.09 232.546C515.699 233.071 517.383 233.334 519.075 233.325C524.073 233.054 528.939 231.628 533.292 229.157C533.136 228.69 533.058 228.223 532.961 227.755Z" fill="#8A8778"/>
<path d="M594.442 183.12C593.846 181.236 592.527 179.664 590.775 178.752C589.022 177.839 586.979 177.659 585.094 178.251C575.356 181.328 563.672 189.936 551.286 199.167C543.944 204.6 536.349 210.228 529.864 213.987L529.026 214.474C531.811 218.155 536.621 236.324 536.719 236.733C544.626 232.605 582.523 203.743 590.741 195.038C593.624 192.039 595.688 187.034 594.442 183.12Z" fill="#E1F3F6"/>
<path d="M508.462 227.307C508.008 227.304 507.566 227.161 507.196 226.898C501.354 222.711 498.296 214.668 498.179 214.337C497.975 213.795 497.995 213.194 498.234 212.666C498.474 212.138 498.913 211.727 499.455 211.523C499.997 211.319 500.599 211.339 501.126 211.578C501.654 211.817 502.065 212.256 502.269 212.799C502.269 212.799 504.996 219.946 509.747 223.334C510.218 223.674 510.535 224.186 510.63 224.759C510.725 225.332 510.59 225.919 510.254 226.392C510.052 226.678 509.783 226.911 509.471 227.071C509.159 227.23 508.813 227.311 508.462 227.307Z" fill="#8A8778"/>
<path d="M508.481 221.972C508.129 221.974 507.781 221.889 507.469 221.727C507.157 221.564 506.889 221.327 506.689 221.037C503.885 217.142 501.645 207.658 501.392 206.606C501.263 206.038 501.362 205.443 501.668 204.947C501.974 204.452 502.463 204.096 503.028 203.958C503.309 203.892 503.601 203.882 503.886 203.93C504.172 203.977 504.444 204.081 504.689 204.235C504.934 204.389 505.145 204.59 505.311 204.827C505.478 205.064 505.595 205.331 505.657 205.613C506.28 208.262 508.306 215.74 510.253 218.505C510.421 218.74 510.541 219.006 510.605 219.287C510.67 219.568 510.678 219.859 510.629 220.144C510.58 220.428 510.475 220.7 510.32 220.944C510.165 221.187 509.964 221.398 509.727 221.563C509.365 221.827 508.929 221.97 508.481 221.972Z" fill="#8A8778"/>
<path d="M511.5 220.647C511.077 220.638 510.666 220.503 510.319 220.26C509.973 220.018 509.706 219.678 509.552 219.284C507.605 214.357 506.748 204.035 506.709 203.704C506.67 203.137 506.85 202.576 507.212 202.138C507.575 201.699 508.092 201.416 508.656 201.348C509.226 201.299 509.792 201.476 510.233 201.84C510.674 202.204 510.954 202.727 511.013 203.295C511.316 208.158 512.158 212.972 513.525 217.648C513.743 218.188 513.739 218.792 513.513 219.329C513.286 219.866 512.857 220.291 512.318 220.511C512.058 220.614 511.779 220.661 511.5 220.647Z" fill="#8A8778"/>
<path d="M514.791 219.673C514.305 219.676 513.833 219.516 513.449 219.22C513.064 218.924 512.789 218.507 512.668 218.037C511.87 214.394 511.87 210.62 512.668 206.976C512.807 206.411 513.163 205.924 513.659 205.622C514.155 205.319 514.751 205.224 515.317 205.36C515.597 205.424 515.861 205.543 516.095 205.71C516.328 205.878 516.526 206.09 516.677 206.335C516.827 206.58 516.927 206.852 516.971 207.136C517.015 207.42 517.002 207.71 516.933 207.989C516.304 210.935 516.304 213.981 516.933 216.927C517.006 217.206 517.023 217.497 516.983 217.782C516.943 218.068 516.847 218.342 516.701 218.59C516.554 218.838 516.36 219.055 516.129 219.228C515.898 219.4 515.635 219.525 515.356 219.595C515.172 219.649 514.982 219.675 514.791 219.673Z" fill="#8A8778"/>
<path d="M602.874 195.038C601.837 195.03 600.814 194.798 599.875 194.356C599.043 193.964 598.296 193.411 597.678 192.729C597.06 192.047 596.583 191.25 596.273 190.383C595.964 189.517 595.829 188.598 595.875 187.679C595.922 186.76 596.149 185.859 596.545 185.028C597.986 182.248 599.73 179.635 601.745 177.238C602.946 175.815 604.662 174.927 606.518 174.77C608.373 174.613 610.215 175.2 611.638 176.401C613.061 177.601 613.948 179.318 614.105 181.174C614.262 183.029 613.676 184.871 612.475 186.294C611.227 187.766 610.137 189.365 609.223 191.065C608.645 192.257 607.743 193.262 606.62 193.964C605.497 194.667 604.199 195.039 602.874 195.038Z" fill="#8A8778"/>
<path d="M603.926 191.435C604.747 192.353 605.618 193.224 606.536 194.045C607.72 193.326 608.668 192.277 609.262 191.026C610.176 189.326 611.267 187.727 612.514 186.255C613.715 184.832 614.302 182.99 614.145 181.135C613.988 179.279 613.1 177.563 611.677 176.362C610.254 175.161 608.412 174.574 606.557 174.731C604.702 174.888 602.985 175.776 601.784 177.199C601.648 177.374 601.083 178.056 600.323 179.049C600.401 183.45 600.927 188.046 603.926 191.435Z" fill="#4F4E4C"/>
<path d="M626.964 183.645C625.62 186.893 623.042 189.475 619.797 190.825C616.552 192.176 612.904 192.185 609.652 190.851C608.04 190.189 606.575 189.216 605.341 187.987C604.106 186.758 603.126 185.298 602.457 183.69C601.787 182.081 601.442 180.357 601.44 178.615C601.438 176.873 601.78 175.148 602.446 173.538L605.951 165.028C606.613 163.416 607.586 161.951 608.815 160.717C610.044 159.482 611.505 158.502 613.113 157.833C614.721 157.163 616.446 156.818 618.188 156.816C619.929 156.814 621.655 157.156 623.264 157.822C626.515 159.163 629.101 161.74 630.452 164.986C631.803 168.233 631.81 171.884 630.47 175.135L626.964 183.645Z" fill="#8A8778"/>
<path d="M603.926 172.584C602.835 177.141 596.292 175.68 593.838 173.304C590.449 170.013 588.424 160.743 595.941 161.25C590.527 153.09 608.872 144.229 610.781 153.674C612.222 151.24 613.682 149.039 616.876 148.844C619.174 148.689 623.186 150.48 622.855 153.285C624.55 152.016 626.621 151.351 628.738 151.393C630.854 151.435 632.896 152.183 634.54 153.518C635.63 154.395 637.578 156.342 636.604 157.744C636.059 158.523 633.293 158.776 632.378 159.049C633.975 158.328 640.499 159.789 639.214 162.496C638.629 163.762 635.416 162.632 634.481 162.36V162.652C637.987 164.599 639.408 166.547 638.999 170.851C638.805 172.798 637.87 176.693 635.494 176.907C634.267 177.044 632.865 176.265 632.884 174.96C635.806 177.861 631.677 185.651 627.996 181.815C627.395 181.015 627.125 180.016 627.241 179.022C627.357 178.029 627.85 177.118 628.619 176.479C626.438 175.232 621.706 168.689 625.075 166.839C623.498 166.839 616.214 164.405 618.532 162.321C619.155 164.736 616.136 167.89 613.76 166.644C615.24 169.877 610.859 172.292 608.171 172.486C609.827 174.551 604.763 177.005 603.205 174.005L603.926 172.584Z" fill="#00396A"/>
<path d="M354.749 146.118C354.749 146.118 350.504 129.817 371.614 125.942L369.998 145.533L354.749 146.118Z" fill="#8A8778"/>
<path d="M270.151 187.248C265.698 187.288 261.293 186.33 257.259 184.444C238.077 175.388 235.954 148.143 235.837 146.994C235.711 145.03 236.366 143.096 237.66 141.612C238.954 140.129 240.782 139.218 242.745 139.077C244.708 138.935 246.648 139.576 248.141 140.858C249.634 142.14 250.559 143.961 250.716 145.923C251.125 151.415 254.26 166.586 263.647 170.987C271.437 174.629 283.394 170.987 298.37 160.276C299.983 159.177 301.963 158.754 303.884 159.098C305.805 159.442 307.515 160.525 308.647 162.116C309.778 163.706 310.241 165.677 309.937 167.605C309.632 169.533 308.584 171.264 307.017 172.428C293.229 182.301 280.784 187.248 270.151 187.248Z" fill="#CDE5E8"/>
<path d="M309.802 201.172C311.866 195.719 313.794 190.208 316.033 184.814C314.498 184.696 312.97 184.495 311.457 184.21C304.634 183.035 298.274 179.98 293.092 175.388C287.919 170.677 283.917 164.821 281.408 158.289C278.552 150.752 276.947 142.799 276.656 134.744C275.981 115.97 279.549 97.2844 287.094 80.0793C290.351 72.757 294.77 66.0095 300.181 60.0984C304.881 54.9113 310.74 50.9077 317.28 48.4136C323.167 46.3822 329.453 45.7749 335.62 46.6415C341.788 47.5081 347.663 49.8239 352.763 53.3991C354.866 49.1926 357.144 45.0446 359.306 40.916C361.857 36.0473 364.233 31.0618 366.492 26.0568C367.466 23.9146 368.303 21.6945 369.199 19.5134C361.531 15.2045 353.199 12.2032 344.544 10.633C332.473 8.13151 319.974 8.60605 308.127 12.0157C296.759 15.4112 286.267 21.2391 277.376 29.0949C267.879 37.6439 260.048 47.8785 254.28 59.2805C241.306 84.8955 235.818 113.65 238.447 142.242C239.658 154.946 243.217 167.314 248.944 178.718C254.299 189.324 261.909 198.63 271.242 205.982C280.268 212.982 290.771 217.831 301.953 220.16C304.68 213.87 307.367 207.618 309.802 201.172Z" fill="#D70411" fill-opacity="0.53"/>
<path d="M410.738 89.1936C409.549 76.4919 406.023 64.1192 400.339 52.6982C394.979 42.0952 387.369 32.7903 378.04 25.4338C375.523 23.4528 372.875 21.644 370.114 20.0199C369.238 22.2205 368.4 24.4212 367.427 26.5634C365.109 31.5683 362.792 36.5538 360.221 41.4419C358.04 45.59 355.742 49.7576 353.619 54.003C354.379 54.5873 355.119 55.1715 355.839 55.8142C360.98 60.5693 364.976 66.429 367.524 72.9518C370.468 80.4093 372.134 88.3099 372.451 96.3213C373.136 115.097 369.568 133.784 362.013 150.986C358.769 158.392 354.284 165.189 348.751 171.084C343.96 176.205 338.066 180.168 331.516 182.672C326.859 184.383 321.901 185.119 316.949 184.833C314.475 190.676 312.391 196.771 310.132 202.73C307.873 208.69 305.381 214.415 302.791 220.141L304.543 220.511C316.617 222.998 329.114 222.517 340.961 219.108C352.326 215.719 362.819 209.898 371.711 202.049C381.229 193.548 389.092 183.36 394.905 171.999C407.899 146.398 413.394 117.646 410.758 89.0573L410.738 89.1936Z" fill="#D70411" fill-opacity="0.53"/>
<path d="M327.29 228.437C315.146 226.308 303.703 221.255 293.949 213.714C284.62 206.358 277.01 197.053 271.651 186.45C265.933 175.035 262.374 162.662 261.154 149.954C258.517 121.365 264.012 92.6135 277.006 67.012C282.819 55.6514 290.683 45.4637 300.2 36.9627C309.095 29.1069 319.595 23.2851 330.97 19.903C342.842 16.6712 355.295 16.1912 367.38 18.4996C379.465 20.8079 390.864 25.8438 400.709 33.2236C410.036 40.5819 417.646 49.8863 423.007 60.488C428.732 71.8942 432.297 84.2609 433.523 96.9639C436.16 125.553 430.665 154.305 417.671 179.906C411.853 191.247 403.997 201.42 394.496 209.916C385.609 217.772 375.115 223.594 363.746 226.976C351.893 230.418 339.38 230.919 327.29 228.437ZM334.242 192.097C340.925 193.464 347.857 192.945 354.262 190.598C360.835 188.081 366.739 184.082 371.516 178.913C377.026 173.018 381.503 166.237 384.759 158.854C388.566 150.327 391.344 141.377 393.036 132.193C394.888 122.981 395.614 113.577 395.197 104.189C394.86 96.1782 393.188 88.2799 390.251 80.8195C387.709 74.2988 383.713 68.4442 378.566 63.7014C373.467 59.1627 367.213 56.1229 360.494 54.9183C353.714 53.5066 346.675 54.0055 340.162 56.3594C333.625 58.86 327.768 62.8626 323.064 68.0442C317.644 73.9487 313.224 80.6976 309.977 88.0251C306.131 96.5948 303.339 105.599 301.661 114.842C299.85 124.001 299.137 133.343 299.538 142.671C299.818 150.692 301.41 158.612 304.251 166.118C306.747 172.663 310.75 178.528 315.936 183.236C321.11 187.801 327.446 190.847 334.242 192.039V192.097Z" fill="#D70411"/>
<path d="M458.763 118.931L459.328 146.332C459.328 146.332 451.538 153.343 444.507 146.332L447.078 115.484L458.763 118.931Z" fill="#00396A"/>
<path d="M426.493 337.494C426.045 337.144 422.988 335.722 422.598 335.371C421.222 337.485 419.623 339.444 417.827 341.214C419.199 342.311 420.255 343.753 420.888 345.391C421.521 347.03 421.708 348.808 421.43 350.542C419.933 351.854 418.345 353.058 416.678 354.145C412.413 356.248 404.545 359.169 404.545 359.169L424.351 360.727L439.035 345.674C434.639 343.292 430.445 340.556 426.493 337.494Z" fill="#002E4F"/>
<path d="M348.926 338.565C345.771 338.02 341.779 340.513 339.188 338.565C338.838 341.395 338.675 344.244 338.702 347.095L309.49 359.169H346.9C347.231 355.177 346.511 351.38 347.056 347.66C347.29 345.771 348.575 340.396 348.926 338.565Z" fill="#002E4F"/>
<path d="M383.026 205.613L349.919 268.516C349.919 268.516 363.337 279.869 376.541 283.647L401.351 209.527L383.026 205.613Z" fill="#CDE5E8"/>
<path d="M419.268 342.791C421.236 340.659 422.996 338.344 424.526 335.878C415.957 328.536 411.77 320.98 400.144 307.971C395.334 302.576 408.07 271.748 411.166 266.568C416.736 257.279 417.593 250.54 421.936 234.63L389.628 246.704C381.838 274.26 372.957 301.836 381.955 314.982C391.439 328.887 408.304 340.085 416.425 345.674C416.736 345.888 418.995 342.597 419.268 342.791Z" fill="#D70411" fill-opacity="0.53"/>
<path d="M364.836 142.866C364.375 142.874 363.923 142.731 363.551 142.457C363.318 142.289 363.12 142.076 362.969 141.831C362.817 141.586 362.716 141.314 362.671 141.029C362.626 140.745 362.637 140.455 362.705 140.175C362.772 139.895 362.894 139.632 363.064 139.399C364.555 137.42 365.634 135.162 366.239 132.758C366.374 132.219 366.709 131.752 367.176 131.449C367.642 131.147 368.206 131.032 368.753 131.129C369.301 131.225 369.792 131.525 370.127 131.968C370.463 132.411 370.618 132.965 370.562 133.518C369.853 136.571 368.527 139.447 366.667 141.97C366.458 142.257 366.182 142.489 365.863 142.645C365.544 142.801 365.191 142.877 364.836 142.866Z" fill="#8A8778"/>
<path d="M419.658 241.29C429.278 214.863 437.496 173.402 440.573 156.868C439.021 156.235 437.435 155.689 435.822 155.232C432.959 154.453 429.551 153.518 426.61 154.434C425.164 154.934 423.789 155.621 422.521 156.479C421.792 158.641 421.226 160.854 420.826 163.1C420.826 163.1 400.144 202.614 386.707 229.547C398.153 232.016 409.23 235.963 419.658 241.29Z" fill="#F6EE9E"/>
<path d="M386.297 230.384L382.928 237.201C380.28 241.894 377.417 246.237 374.652 250.404C348.069 290.522 338.02 322.46 336.248 337.611C338.779 339.559 348.38 340.708 351.594 341.253C356.501 316.189 369.257 300.181 392.14 281.272C399.793 274.942 405.519 266.899 410.563 260.22C414.295 254.615 417.261 248.537 419.385 242.147C408.921 236.788 397.796 232.833 386.297 230.384Z" fill="#D70411"/>
<path d="M360.494 241.387C358.738 241.378 357.042 240.75 355.704 239.614C354.365 238.477 353.471 236.905 353.177 235.174C352.884 233.443 353.211 231.664 354.101 230.15C354.99 228.636 356.385 227.485 358.04 226.898C367.076 223.763 380.962 211.318 390.31 198.134C400.496 183.413 411.463 169.248 423.163 155.699C423.805 154.93 424.595 154.298 425.487 153.841C426.378 153.384 427.352 153.111 428.351 153.039C429.351 152.967 430.354 153.096 431.302 153.42C432.25 153.744 433.123 154.256 433.869 154.925C434.614 155.593 435.218 156.405 435.643 157.312C436.068 158.219 436.307 159.203 436.343 160.204C436.38 161.205 436.215 162.203 435.858 163.139C435.501 164.075 434.958 164.929 434.264 165.651C422.958 178.775 412.349 192.485 402.481 206.722C393.25 219.809 376.931 236.129 362.928 240.978C362.144 241.243 361.322 241.381 360.494 241.387Z" fill="#8A8778"/>
<path d="M435.393 159.341H434.867C433.013 159.197 431.292 158.326 430.077 156.918C428.863 155.51 428.253 153.679 428.382 151.824C428.727 148.701 429.413 145.625 430.427 142.651C431.031 140.893 432.31 139.446 433.98 138.63C435.651 137.814 437.578 137.694 439.337 138.299C441.095 138.903 442.542 140.181 443.358 141.852C444.174 143.523 444.294 145.45 443.689 147.208C443.058 149.04 442.62 150.933 442.384 152.856C442.243 154.616 441.446 156.259 440.152 157.46C438.857 158.661 437.159 159.332 435.393 159.341Z" fill="#8A8778"/>
<path d="M437.341 151.941C438.575 153.348 439.924 154.65 441.372 155.836C441.893 154.93 442.206 153.918 442.287 152.876C442.523 150.953 442.96 149.06 443.592 147.228C444.136 145.629 444.084 143.888 443.446 142.324C442.809 140.76 441.628 139.479 440.121 138.716C438.614 137.953 436.883 137.76 435.245 138.172C433.607 138.584 432.173 139.573 431.206 140.957C431.888 144.872 435.12 149.331 437.341 151.941Z" fill="#6B695F"/>
<path d="M455.452 136.75C455.414 138.498 455.031 140.221 454.324 141.819C453.617 143.418 452.601 144.861 451.333 146.065C450.066 147.269 448.573 148.21 446.94 148.834C445.307 149.458 443.567 149.753 441.82 149.701C440.072 149.663 438.349 149.28 436.751 148.573C435.152 147.866 433.709 146.849 432.505 145.582C431.301 144.315 430.36 142.822 429.736 141.189C429.112 139.556 428.817 137.816 428.869 136.069L429.064 126.877C429.104 125.129 429.489 123.406 430.197 121.808C430.904 120.209 431.92 118.766 433.187 117.561C434.453 116.356 435.945 115.413 437.577 114.786C439.209 114.159 440.949 113.86 442.696 113.907C444.444 113.947 446.166 114.332 447.765 115.04C449.363 115.747 450.807 116.763 452.012 118.03C453.216 119.296 454.16 120.788 454.787 122.42C455.414 124.052 455.713 125.791 455.666 127.539L455.452 136.75Z" fill="#8A8778"/>
<path d="M349.958 239.342C346.337 239.21 342.778 238.37 339.481 236.869C338.982 236.619 338.598 236.189 338.404 235.667C338.211 235.144 338.222 234.567 338.438 234.053C338.653 233.539 339.055 233.126 339.563 232.896C340.071 232.667 340.647 232.639 341.175 232.818C347.017 235.253 351.555 235.603 354.476 233.831C354.972 233.531 355.566 233.441 356.129 233.58C356.691 233.719 357.175 234.075 357.475 234.571C357.775 235.067 357.865 235.661 357.726 236.224C357.587 236.786 357.231 237.271 356.735 237.57C354.684 238.778 352.338 239.392 349.958 239.342Z" fill="#8A8778"/>
<path d="M352.588 242.517C349.385 242.433 346.205 241.949 343.123 241.076L342.13 240.842C341.609 240.668 341.172 240.305 340.905 239.825C340.638 239.345 340.56 238.782 340.687 238.247C340.814 237.713 341.136 237.245 341.591 236.936C342.045 236.627 342.599 236.499 343.142 236.577L344.155 236.811C349.545 238.531 355.33 238.578 360.747 236.948C361.026 236.872 361.317 236.853 361.604 236.891C361.89 236.93 362.166 237.026 362.415 237.173C362.663 237.32 362.88 237.515 363.052 237.747C363.224 237.98 363.347 238.244 363.415 238.525C363.558 239.088 363.472 239.684 363.176 240.184C362.881 240.684 362.4 241.046 361.838 241.193C358.823 242.022 355.714 242.467 352.588 242.517Z" fill="#8A8778"/>
<path d="M349.802 235.019C345.463 234.954 341.282 233.377 337.981 230.559C337.768 230.366 337.595 230.132 337.472 229.871C337.35 229.61 337.28 229.327 337.267 229.04C337.255 228.752 337.299 228.464 337.398 228.193C337.498 227.923 337.649 227.674 337.845 227.463C338.241 227.041 338.787 226.79 339.366 226.765C339.944 226.739 340.509 226.941 340.941 227.327C342.586 228.71 344.529 229.692 346.617 230.195C348.706 230.699 350.883 230.71 352.977 230.228C353.256 230.152 353.547 230.133 353.833 230.172C354.12 230.211 354.395 230.306 354.644 230.453C354.893 230.601 355.109 230.796 355.281 231.028C355.453 231.26 355.577 231.525 355.645 231.806C355.787 232.369 355.701 232.965 355.405 233.465C355.11 233.964 354.629 234.327 354.067 234.474C352.673 234.828 351.241 235.012 349.802 235.019Z" fill="#8A8778"/>
<path d="M354.398 232.663H354.145C351.999 232.461 349.927 231.773 348.085 230.653C346.243 229.533 344.679 228.01 343.512 226.197C343.228 225.681 343.161 225.073 343.325 224.506C343.49 223.94 343.872 223.463 344.389 223.179C344.905 222.895 345.513 222.827 346.079 222.992C346.645 223.156 347.123 223.538 347.407 224.055C348.225 225.269 349.307 226.283 350.571 227.022C351.836 227.76 353.25 228.204 354.71 228.32C355.289 228.354 355.83 228.615 356.215 229.048C356.601 229.481 356.798 230.049 356.765 230.628C356.731 231.206 356.469 231.748 356.036 232.133C355.604 232.518 355.035 232.716 354.457 232.682L354.398 232.663Z" fill="#8A8778"/>
<path d="M380.592 146.04H380.241C376.619 145.436 366.609 143.878 364.389 143.878C364.084 143.907 363.776 143.872 363.485 143.775C363.195 143.678 362.928 143.521 362.701 143.315C362.474 143.108 362.293 142.857 362.169 142.577C362.045 142.297 361.981 141.994 361.981 141.687C361.981 141.381 362.045 141.078 362.169 140.797C362.293 140.517 362.474 140.266 362.701 140.06C362.928 139.853 363.195 139.697 363.485 139.6C363.776 139.503 364.084 139.468 364.389 139.496C367.466 139.496 379.579 141.444 380.962 141.716C381.497 141.818 381.975 142.114 382.304 142.548C382.634 142.982 382.79 143.522 382.744 144.064C382.698 144.607 382.453 145.113 382.055 145.485C381.658 145.857 381.136 146.069 380.592 146.079V146.04Z" fill="#8A8778"/>
<path d="M379.19 150.636C379.002 150.664 378.812 150.664 378.625 150.636C373.576 149.233 368.435 148.185 363.24 147.501C362.661 147.461 362.121 147.196 361.736 146.763C361.35 146.33 361.149 145.763 361.176 145.183C361.191 144.895 361.263 144.612 361.387 144.352C361.512 144.092 361.688 143.859 361.903 143.667C362.119 143.475 362.37 143.328 362.643 143.234C362.916 143.139 363.205 143.101 363.493 143.119C368.993 143.819 374.434 144.919 379.774 146.41C380.303 146.533 380.767 146.849 381.076 147.296C381.384 147.744 381.515 148.29 381.442 148.828C381.369 149.367 381.097 149.858 380.681 150.207C380.264 150.556 379.733 150.737 379.19 150.714V150.636Z" fill="#8A8778"/>
<path d="M378.138 155.465C377.912 155.465 377.688 155.426 377.476 155.348C367.602 152.174 365.168 151.979 363.844 151.862C363.226 151.837 362.612 151.746 362.013 151.59C361.719 151.53 361.44 151.411 361.193 151.24C360.947 151.069 360.738 150.849 360.579 150.594C360.421 150.339 360.317 150.054 360.272 149.757C360.228 149.46 360.245 149.157 360.322 148.867C360.399 148.577 360.535 148.306 360.721 148.07C360.907 147.834 361.139 147.639 361.404 147.496C361.668 147.354 361.958 147.267 362.257 147.241C362.556 147.214 362.858 147.25 363.143 147.344C363.486 147.435 363.839 147.487 364.194 147.5C365.772 147.637 368.44 147.851 378.8 151.181C379.292 151.348 379.709 151.683 379.977 152.128C380.246 152.572 380.348 153.098 380.266 153.611C380.185 154.123 379.924 154.591 379.531 154.93C379.138 155.27 378.638 155.459 378.119 155.465H378.138Z" fill="#8A8778"/>
<path d="M373.815 158.971H373.639C363.766 158.251 363.357 152.895 363.337 152.272H367.719V152.136C367.719 152.136 368.167 154.278 373.971 154.687C374.517 154.754 375.018 155.024 375.375 155.443C375.733 155.862 375.92 156.399 375.9 156.949C375.881 157.499 375.656 158.022 375.27 158.414C374.884 158.807 374.364 159.04 373.815 159.069V158.971Z" fill="#8A8778"/>
<path d="M365.519 156.381C363.976 155.77 362.328 155.472 360.669 155.504C358.177 155.504 354.827 151.259 354.827 146.877C354.827 146.877 353.6 133.946 367.271 139.788L365.519 156.381Z" fill="#8A8778"/>
<path d="M408.557 194.804L389.394 289.12C389.394 289.12 419.073 296.267 437.263 285.789L441.859 154.745C441.859 154.745 421.508 147.637 408.557 194.804Z" fill="#CDE5E8"/>
<path d="M412.997 246.704L431.343 245.71C431.343 245.71 431.771 273.773 420.826 272.683C420.826 272.683 405.811 275.954 412.997 246.704Z" fill="#E1F3F6"/>
<path d="M436.036 152.486C433.872 150.544 431.025 149.541 428.121 149.698C425.218 149.855 422.496 151.159 420.554 153.323C408.765 167.006 397.713 181.308 387.447 196.167C386.181 197.959 384.818 199.77 383.338 201.562L381.39 203.957L383.513 206.197C385.772 208.592 388.148 210.91 390.446 213.149L394.146 216.83L396.853 219.556L399.326 216.616C401.527 213.987 403.552 211.357 405.363 208.826C415.155 194.703 425.672 181.098 436.873 168.065C437.845 166.989 438.594 165.732 439.078 164.365C439.562 162.998 439.771 161.549 439.693 160.102C439.616 158.654 439.252 157.236 438.625 155.929C437.997 154.622 437.117 153.452 436.036 152.486Z" fill="#E1F3F6"/>
<path d="M385.704 195.492L378.298 203.734L397.579 221.058L404.985 212.816L385.704 195.492Z" fill="#F8FDFF"/>
<path d="M415.626 142.009L432.491 148.61C432.491 148.61 439.658 113.751 434.439 108.512C434.419 108.512 415.626 106.74 415.626 142.009Z" fill="#00396A"/>
<path d="M435.393 114.588C435.997 115.484 449.025 124.209 459.327 121.794C459.327 121.794 457.575 106.37 433.621 108.59L435.393 114.588Z" fill="#00396A"/>
<path d="M445.5 131.064C445.504 132.517 445.077 133.938 444.272 135.148C443.468 136.358 442.323 137.302 440.981 137.861C439.64 138.42 438.163 138.568 436.738 138.287C435.312 138.006 434.002 137.308 432.974 136.282C431.945 135.256 431.244 133.948 430.959 132.523C430.674 131.098 430.818 129.621 431.373 128.279C431.929 126.936 432.87 125.788 434.077 124.98C435.285 124.173 436.705 123.742 438.158 123.742C439.122 123.739 440.076 123.927 440.966 124.293C441.857 124.66 442.667 125.199 443.349 125.88C444.031 126.56 444.572 127.368 444.941 128.257C445.31 129.147 445.5 130.101 445.5 131.064V131.064Z" stroke="#DDDD67" stroke-width="1.69429" stroke-miterlimit="10"/>
<path d="M462.034 132.466C462.034 133.726 461.661 134.957 460.961 136.004C460.261 137.051 459.267 137.868 458.103 138.35C456.939 138.832 455.659 138.958 454.424 138.712C453.188 138.466 452.054 137.86 451.163 136.969C450.272 136.079 449.666 134.944 449.42 133.708C449.174 132.473 449.301 131.193 449.783 130.029C450.265 128.865 451.081 127.871 452.128 127.171C453.175 126.471 454.407 126.098 455.666 126.098C456.503 126.095 457.332 126.258 458.106 126.577C458.88 126.897 459.583 127.366 460.175 127.957C460.767 128.549 461.236 129.252 461.555 130.026C461.874 130.8 462.037 131.629 462.034 132.466Z" stroke="#DDDD67" stroke-width="1.46059" stroke-miterlimit="10"/>
<path d="M445.5 131.064C446.136 130.796 446.832 130.701 447.516 130.79C448.201 130.879 448.849 131.148 449.395 131.57" stroke="#DDDD67" stroke-width="1.69429" stroke-miterlimit="10"/>
<path d="M232.273 143.859H231.747C229.893 143.724 228.169 142.859 226.952 141.453C225.736 140.047 225.128 138.215 225.262 136.361C225.588 133.229 226.274 130.144 227.307 127.169C227.608 126.298 228.077 125.495 228.688 124.806C229.299 124.116 230.039 123.554 230.867 123.15C231.696 122.747 232.595 122.511 233.515 122.455C234.434 122.4 235.356 122.526 236.227 122.826C237.097 123.127 237.9 123.596 238.59 124.207C239.279 124.818 239.842 125.558 240.245 126.386C240.649 127.215 240.885 128.114 240.94 129.034C240.996 129.953 240.87 130.875 240.569 131.746C239.938 133.572 239.494 135.458 239.245 137.374C239.122 139.137 238.333 140.788 237.039 141.992C235.744 143.196 234.041 143.863 232.273 143.859Z" fill="#8A8778"/>
<path d="M228.105 338.526C234.982 341.745 242.428 343.572 250.014 343.901C257.59 330.425 280.414 293.91 259.654 263.958L230.287 248.164C230.287 248.164 259.654 278.817 228.105 338.526Z" fill="#D70411" fill-opacity="0.53"/>
<path d="M243.296 350.464C243.296 350.464 246.003 344.953 248.126 341.272C246.548 341.078 239.42 340.785 236.441 339.656C232.655 346.481 228.331 352.993 223.51 359.131H262.965L243.296 350.464Z" fill="#002E4F"/>
<path d="M292.099 265.711C287.192 256.188 251.553 227.502 248.34 211.027C248.048 209.566 247.795 208.067 247.581 206.547C241.855 209.566 234.435 210.442 228.554 210.696C221.874 211.027 217.882 211.436 211.416 208.3C211.962 218.524 210.306 228.398 216.265 238.739C228.106 259.304 267.425 276.89 271.826 283.686C280.473 297.085 283.511 326.16 286.413 343.902C291.048 343.902 301.993 343.687 306.53 342.09C305.011 332.996 307.484 295.546 292.099 265.711Z" fill="#D70411"/>
<path d="M304.388 348.867C304.388 348.867 303.102 343.687 302.732 341.272C298.214 342.85 295.585 341.272 291.048 341.272C291.749 345.674 291.223 353.892 291.632 358.799H329.042L304.388 348.867Z" fill="#002E4F"/>
<path d="M228.826 216.07C234.513 215.817 246.49 214.22 251.281 209.429C250.307 201.64 246.801 189.02 248.048 178.893C252.215 144.56 235.448 134.277 235.448 134.277C235.448 134.277 227.658 128.883 221.484 135.329C212.039 145.066 202.847 172.506 203.763 213.11C210.267 216.46 221.991 216.382 228.826 216.07Z" fill="#CDE5E8"/>
<path d="M314.787 226.898C314.218 226.897 313.65 226.838 313.093 226.723C286.082 220.452 263.218 204.269 246.879 179.984C239.567 169.155 233.995 157.248 230.365 144.696C229.962 142.809 230.307 140.84 231.325 139.202C232.344 137.564 233.958 136.384 235.828 135.91C237.698 135.436 239.678 135.705 241.354 136.661C243.03 137.617 244.27 139.184 244.815 141.035C248.111 152.123 253.104 162.634 259.616 172.194C273.929 193.402 293.053 206.917 316.462 212.351C318.258 212.747 319.844 213.795 320.913 215.292C321.981 216.789 322.458 218.629 322.25 220.457C322.041 222.285 321.163 223.97 319.785 225.189C318.407 226.407 316.626 227.072 314.787 227.054V226.898Z" fill="#8A8778"/>
<path d="M298.37 204.522C283.036 197.075 270.017 185.597 260.706 171.318C254.295 161.896 249.368 151.544 246.1 140.626C245.821 139.508 245.323 138.456 244.635 137.531C243.948 136.606 243.084 135.827 242.094 135.237C241.104 134.647 240.007 134.258 238.867 134.093C237.726 133.929 236.564 133.991 235.448 134.277C234.332 134.557 233.282 135.054 232.359 135.741C231.435 136.427 230.656 137.288 230.066 138.276C229.477 139.264 229.088 140.359 228.922 141.497C228.756 142.635 228.816 143.795 229.099 144.91V145.086C232.419 158.962 238.076 172.173 245.828 184.152C258.27 203.22 276.223 218.049 297.299 226.665C297.454 226.725 297.619 226.758 297.786 226.762C298.051 226.762 298.309 226.681 298.526 226.528C298.703 226.407 298.849 226.244 298.951 226.054C299.053 225.865 299.107 225.653 299.11 225.438V205.71C299.115 205.462 299.047 205.217 298.916 205.007C298.785 204.796 298.595 204.627 298.37 204.522Z" fill="#E1F3F6"/>
<path d="M320.318 227.443C317.767 227.422 315.223 227.155 312.723 226.645C312.189 226.495 311.731 226.15 311.441 225.677C311.151 225.205 311.05 224.64 311.158 224.096C311.267 223.552 311.576 223.07 312.025 222.744C312.474 222.419 313.029 222.275 313.58 222.341C320.104 223.646 325.557 223.159 329.763 220.92C330.281 220.65 330.883 220.595 331.441 220.766C331.998 220.938 332.466 221.321 332.743 221.835C332.878 222.089 332.962 222.368 332.99 222.654C333.017 222.941 332.987 223.23 332.902 223.506C332.817 223.781 332.678 224.037 332.494 224.258C332.309 224.479 332.083 224.662 331.828 224.795C328.271 226.62 324.315 227.53 320.318 227.443Z" fill="#8A8778"/>
<path d="M320.629 222.594C319.554 222.591 318.48 222.513 317.416 222.361C317.115 222.338 316.821 222.253 316.554 222.112C316.287 221.971 316.052 221.776 315.863 221.54C315.675 221.304 315.537 221.031 315.458 220.74C315.379 220.448 315.362 220.143 315.406 219.844C315.45 219.545 315.555 219.259 315.715 219.002C315.875 218.746 316.086 218.525 316.335 218.354C316.584 218.182 316.865 218.064 317.162 218.006C317.458 217.949 317.764 217.952 318.059 218.018C322.765 218.502 327.509 217.58 331.691 215.369C332.195 215.087 332.791 215.014 333.348 215.167C333.906 215.32 334.381 215.687 334.671 216.187C334.816 216.435 334.911 216.709 334.95 216.993C334.989 217.278 334.971 217.567 334.896 217.845C334.822 218.122 334.693 218.382 334.517 218.609C334.341 218.836 334.122 219.026 333.872 219.167C329.794 221.349 325.254 222.524 320.629 222.594Z" fill="#8A8778"/>
<path d="M318.682 218.213H317.65C317.087 218.149 316.57 217.87 316.207 217.435C315.845 217 315.664 216.441 315.702 215.876C315.717 215.588 315.789 215.307 315.914 215.047C316.04 214.788 316.215 214.556 316.431 214.366C316.647 214.175 316.899 214.03 317.172 213.938C317.444 213.846 317.733 213.81 318.02 213.831C319.47 213.967 320.933 213.781 322.303 213.286C323.673 212.791 324.917 211.999 325.946 210.968C326.327 210.565 326.847 210.32 327.401 210.283C327.954 210.246 328.502 210.42 328.933 210.77C329.364 211.12 329.647 211.62 329.725 212.169C329.803 212.719 329.671 213.278 329.354 213.734C327.998 215.199 326.344 216.357 324.503 217.129C322.662 217.902 320.678 218.271 318.682 218.213Z" fill="#8A8778"/>
<path d="M311.106 214.532C310.561 214.48 310.054 214.227 309.685 213.822C309.317 213.417 309.112 212.889 309.112 212.341C309.112 211.793 309.317 211.265 309.685 210.86C310.054 210.455 310.561 210.201 311.106 210.15C312.47 210.087 313.803 209.724 315.012 209.088C316.22 208.452 317.273 207.558 318.098 206.469C318.428 205.992 318.935 205.665 319.506 205.561C320.078 205.457 320.668 205.584 321.145 205.914C321.623 206.245 321.95 206.752 322.054 207.323C322.158 207.895 322.031 208.484 321.7 208.962C320.468 210.629 318.876 211.996 317.041 212.96C315.207 213.925 313.178 214.462 311.106 214.532Z" fill="#8A8778"/>
<path d="M303.94 165.047C303.593 165.048 303.25 164.965 302.942 164.806C302.633 164.647 302.368 164.416 302.168 164.132C300.306 161.617 298.98 158.747 298.273 155.699C298.197 155.405 298.183 155.098 298.232 154.797C298.28 154.497 298.391 154.21 298.556 153.954C298.722 153.699 298.938 153.481 299.192 153.313C299.447 153.146 299.733 153.033 300.032 152.981C300.332 152.93 300.64 152.941 300.935 153.015C301.23 153.088 301.507 153.222 301.748 153.408C301.989 153.594 302.189 153.828 302.335 154.095C302.481 154.362 302.57 154.656 302.596 154.959C303.211 157.353 304.289 159.602 305.77 161.581C305.94 161.813 306.062 162.077 306.13 162.356C306.197 162.636 306.209 162.927 306.164 163.211C306.118 163.495 306.017 163.768 305.866 164.012C305.715 164.257 305.517 164.47 305.284 164.638C304.891 164.915 304.42 165.059 303.94 165.047Z" fill="#8A8778"/>
<path d="M304.407 166.118H303.979C299.208 165.483 294.4 165.171 289.587 165.183C289.282 165.212 288.974 165.177 288.684 165.08C288.393 164.983 288.126 164.826 287.899 164.62C287.673 164.414 287.491 164.162 287.368 163.882C287.244 163.602 287.18 163.299 287.18 162.992C287.18 162.686 287.244 162.383 287.368 162.103C287.491 161.822 287.673 161.571 287.899 161.365C288.126 161.159 288.393 161.002 288.684 160.905C288.974 160.808 289.282 160.773 289.587 160.801C294.681 160.783 299.77 161.121 304.816 161.814C305.335 161.934 305.793 162.239 306.105 162.671C306.417 163.103 306.561 163.634 306.511 164.164C306.461 164.695 306.22 165.189 305.833 165.556C305.446 165.922 304.94 166.136 304.407 166.157V166.118Z" fill="#8A8778"/>
<path d="M288.379 170.578C287.801 170.614 287.232 170.419 286.797 170.035C286.362 169.652 286.098 169.111 286.062 168.533C286.026 167.954 286.221 167.385 286.604 166.951C286.988 166.516 287.528 166.251 288.107 166.215C289.509 166.04 301.739 164.54 305.79 165.242C306.329 165.377 306.796 165.712 307.099 166.179C307.401 166.645 307.516 167.209 307.419 167.756C307.323 168.304 307.023 168.795 306.58 169.13C306.137 169.466 305.583 169.621 305.03 169.565C302.518 169.117 293.657 169.935 288.652 170.558L288.379 170.578Z" fill="#8A8778"/>
<path d="M291.281 175.544C290.749 175.523 290.242 175.309 289.855 174.943C289.468 174.576 289.228 174.082 289.178 173.551C289.128 173.021 289.272 172.49 289.584 172.058C289.895 171.626 290.353 171.321 290.872 171.201C294.03 170.668 297.142 169.893 300.181 168.883C301.369 168.494 302.869 168.027 305.108 167.364C305.665 167.214 306.258 167.288 306.761 167.571C307.263 167.853 307.635 168.322 307.795 168.875C307.956 169.429 307.893 170.024 307.62 170.531C307.347 171.039 306.886 171.419 306.335 171.59C304.154 172.214 302.752 172.662 301.505 173.07C298.325 174.124 295.07 174.937 291.768 175.505L291.281 175.544Z" fill="#8A8778"/>
<path d="M295.955 179.03C295.41 179.02 294.889 178.808 294.491 178.436C294.094 178.064 293.848 177.558 293.802 177.015C293.756 176.473 293.913 175.932 294.242 175.499C294.572 175.065 295.05 174.769 295.585 174.667C302.674 173.46 304.095 170.772 304.095 170.772C304.307 170.256 304.706 169.84 305.213 169.607C305.719 169.374 306.295 169.342 306.825 169.518C307.354 169.694 307.797 170.063 308.064 170.553C308.331 171.043 308.402 171.615 308.263 172.155C307.99 173.012 306.101 177.316 296.325 178.991L295.955 179.03Z" fill="#8A8778"/>
<path d="M304.407 176.381L302.732 158.523C304.914 158.697 306.943 159.709 308.395 161.346C309.847 162.983 310.609 165.119 310.522 167.306C310.541 170.013 309.743 173.09 304.407 176.381Z" fill="#8A8778"/>
<path d="M255.078 118.191C256.022 121.783 255.502 125.603 253.633 128.812C251.763 132.022 248.697 134.358 245.107 135.309C241.512 136.259 237.687 135.742 234.473 133.872C231.26 132.003 228.92 128.933 227.969 125.338L225.496 115.951C225.023 114.173 224.905 112.318 225.149 110.494C225.393 108.669 225.994 106.911 226.919 105.319C227.843 103.728 229.072 102.334 230.535 101.218C231.999 100.101 233.668 99.2844 235.448 98.8139C237.228 98.3409 239.083 98.2237 240.909 98.469C242.734 98.7144 244.493 99.3174 246.085 100.244C247.677 101.17 249.071 102.401 250.186 103.867C251.301 105.332 252.117 107.004 252.585 108.785L255.078 118.191Z" fill="#8A8778"/>
<path d="M253.754 113.206C252.824 116.214 251.141 118.936 248.866 121.112C245.964 123.515 242.466 125.088 238.742 125.664C235.019 126.24 231.209 125.798 227.716 124.384L227.969 125.338C228.989 128.853 231.342 131.829 234.526 133.633C237.71 135.436 241.472 135.923 245.011 134.991C248.549 134.058 251.583 131.779 253.464 128.64C255.345 125.501 255.924 121.751 255.078 118.191L253.754 113.206Z" fill="#00396A"/>
<path d="M227.93 124.832C222.672 121.443 216.985 108.609 225.301 105.805C230.442 104.052 228.378 119.905 228.378 124.384L227.93 124.832Z" fill="#00396A"/>
<path d="M223.705 106.857C217.356 102.242 225.243 89.2131 240.94 89.2131C250.677 89.2131 250.677 96.6524 243.88 100.664C238.291 103.994 229.664 102.047 225.477 107.733L223.705 106.857Z" fill="#00396A"/>
<path d="M253.754 116.088C250.687 111.575 247.91 106.872 245.438 102.007C244.348 99.5732 242.867 95.4056 247.775 98.3658C251.865 100.839 254.104 109.583 253.715 113.945L253.754 116.088Z" fill="#00396A"/>
<path d="M142.71 147.247C140.168 149.394 137.743 151.676 135.446 154.083L103.8 220.179L127.344 189.76L152.369 138.055C149.117 141.152 145.962 144.229 142.71 147.247Z" fill="#D70411" fill-opacity="0.53"/>
<path d="M123.936 136.4C126.234 133.264 128.435 129.584 131.045 126.332L75.659 99.3008L23.0776 104.559L115.153 147.013C118.211 143.566 121.249 140.081 123.936 136.4Z" fill="#D70411" fill-opacity="0.53"/>
<path d="M131.843 126.721C128.902 130.402 126.507 134.745 123.683 138.172C121.151 141.269 118.6 144.346 115.991 147.384L157.861 166.683L173.051 146.838L131.843 126.721Z" fill="#D70411" fill-opacity="0.53"/>
<path d="M68.8037 203.431L85.0455 169.506L0 128.805L13.6322 100.274L153.693 17.78L191.902 36.0861L135.738 153.42L158.854 164.502L143.274 197.277L120.119 186.196L103.897 220.121L68.8037 203.431ZM131.804 71.822L129.662 70.7898L54.743 114.647L100.761 136.672L131.804 71.822Z" fill="#D70411"/>
<path d="M158.893 164.501L173.051 146.838L161.951 171.473L142.651 198.407L158.893 164.501Z" fill="#D70411" fill-opacity="0.53"/>
<path d="M153.479 137.062L208.709 15.9884L191.961 36.0861L135.796 153.42C137.315 151.921 152.583 137.958 153.479 137.062Z" fill="#D70411" fill-opacity="0.53"/>
<path d="M13.6516 100.275L38.5985 78.541L175.466 0L153.713 17.7803L13.6516 100.275Z" fill="#D70411" fill-opacity="0.53"/>
<path d="M153.713 17.7803L191.922 36.0864L208.709 15.9886L175.466 0L153.713 17.7803Z" fill="#D70411" fill-opacity="0.53"/>
<path d="M106.799 106.214C102.105 102.865 98.8725 104.267 96.6135 104.695C95.1023 104.897 93.5689 104.552 92.2901 103.722C92.0497 103.566 91.781 103.458 91.4992 103.406C91.2174 103.354 90.928 103.358 90.6477 103.418C90.3674 103.477 90.1016 103.592 89.8655 103.754C89.6294 103.917 89.4276 104.124 89.2716 104.364C89.1156 104.605 89.0084 104.873 88.9563 105.155C88.9042 105.437 88.9081 105.726 88.9677 106.007C89.0274 106.287 89.1417 106.553 89.3041 106.789C89.4665 107.025 89.6738 107.227 89.9142 107.383C91.5797 108.37 93.3854 109.099 95.2697 109.544C91.628 112.875 87.9083 116.886 87.6941 117.12C87.4985 117.332 87.3467 117.58 87.2476 117.851C87.1484 118.121 87.1039 118.409 87.1166 118.697C87.1293 118.985 87.1989 119.267 87.3214 119.528C87.444 119.789 87.617 120.023 87.8304 120.217C88.2335 120.587 88.7631 120.789 89.3105 120.781C89.6133 120.78 89.9127 120.717 90.1906 120.596C90.4684 120.476 90.7189 120.3 90.9269 120.08C90.9269 120.08 93.556 117.237 96.4382 114.452C93.7507 117.821 91.2385 121.307 90.7711 121.95C90.5343 122.279 90.393 122.667 90.3628 123.071C90.3327 123.476 90.4148 123.88 90.6001 124.241C90.7855 124.602 91.0668 124.904 91.4132 125.115C91.7595 125.326 92.1573 125.437 92.5628 125.436C92.9094 125.433 93.2506 125.349 93.5585 125.19C93.8665 125.031 94.1325 124.802 94.335 124.52C95.7761 122.573 97.8014 119.808 99.7294 117.373C99.0089 118.795 98.0936 120.411 96.2824 123.352C96.1289 123.596 96.0252 123.868 95.9774 124.152C95.9296 124.436 95.9385 124.727 96.0037 125.007C96.0689 125.288 96.189 125.553 96.3572 125.787C96.5254 126.021 96.7382 126.219 96.9835 126.37C97.4774 126.675 98.0717 126.773 98.6371 126.641C99.2025 126.51 99.6931 126.161 100.002 125.669L101.95 122.592C101.76 123.062 101.739 123.584 101.892 124.067C102.045 124.551 102.361 124.966 102.787 125.241C103.142 125.468 103.554 125.59 103.975 125.592C104.339 125.594 104.698 125.504 105.018 125.33C105.338 125.156 105.609 124.905 105.805 124.598C107.44 122.24 108.623 119.599 109.291 116.808H109.389C110.518 110.732 109.038 107.811 106.799 106.214ZM102.378 121.638C103.099 120.372 103.585 119.399 104.053 118.444C103.578 119.55 103.018 120.618 102.378 121.638Z" fill="#8A8778"/>
<path d="M39.6696 131.064C32.7367 130.675 22.6488 144.248 32.9509 147.949C23.642 147.734 21.2661 160.919 29.8934 164.56C14.9369 161.639 16.6701 181.036 23.7589 188.066C22.5559 187.916 21.3346 188.04 20.1859 188.427C19.0373 188.815 17.9907 189.456 17.1242 190.304C16.2577 191.152 15.5935 192.184 15.1811 193.324C14.7687 194.464 14.6186 195.682 14.7421 196.888C15.4822 201.913 17.4686 208.885 29.9128 212.624C42.3571 216.363 49.9716 209.371 56.1646 202.77C60.0595 210.871 79.7093 199.926 77.5866 190.247C84.9675 192.857 91.5888 184.405 91.7446 177.764C91.9004 171.123 87.3044 166.235 82.9421 161.99C86.0191 159.166 86.6033 153.966 85.7854 149.974C84.4417 143.353 76.1649 142.71 76.1649 137.432C76.1649 135.602 76.5155 129.876 74.9381 127.364C72.4453 123.352 68.1025 119.399 62.6301 121.346C39.6696 110.441 39.6696 131.064 39.6696 131.064Z" fill="#00396A"/>
<path d="M53.0684 343.901C46.7587 342.791 45.7265 343.103 39.4362 341.584L24.9861 359.267H81.0923L48.5114 350.503L53.0684 343.901Z" fill="#002E4F"/>
<path d="M157.569 348.965L154.239 344.603C151.285 346.576 148.1 348.178 144.755 349.374L153.616 359.267H186.489L157.569 348.965Z" fill="#002E4F"/>
<path d="M33.5352 343.96C39.8254 345.498 46.1157 347.095 52.4839 348.166L98.8139 291.164L91.0241 268.515L58.5795 231.104L67.9273 284.114L33.5352 343.96Z" fill="#D70411" fill-opacity="0.53"/>
<path d="M96.5355 215.408C83.8381 212.039 66.5836 216.304 54.2173 220.978C54.2173 220.978 61.8124 251.183 66.7979 260.18C81.287 286.413 144.034 351.886 144.034 351.886C147.481 350.718 154.122 345.868 157.16 343.902L96.5355 215.408Z" fill="#D70411"/>
<path d="M52.5617 232.78C64.8307 228.184 89.5634 220.394 102.105 223.549C102.105 223.549 85.3569 184.249 77.7618 175.583C72.64 169.74 44.655 153.246 44.655 174.784C44.9857 194.361 47.6399 213.829 52.5617 232.78Z" fill="#CDE5E8"/>
<path d="M63.4288 172.954L62.9419 173.11C61.1446 173.592 59.2293 173.343 57.6157 172.415C56.0022 171.488 54.8221 169.959 54.3342 168.163C53.6279 165.096 53.2557 161.962 53.2241 158.815C53.3189 157.017 54.0998 155.324 55.4061 154.085C56.7123 152.846 58.4442 152.155 60.2447 152.155C62.0452 152.155 63.7771 152.846 65.0833 154.085C66.3896 155.324 67.1706 157.017 67.2653 158.815C67.2571 160.78 67.4661 162.739 67.8885 164.658C68.3034 166.347 68.0771 168.131 67.2533 169.663C66.4296 171.195 65.0669 172.368 63.4288 172.954Z" fill="#8A8778"/>
<path d="M68.1612 166.118C68.1311 165.605 68.0528 165.097 67.9275 164.599C67.5052 162.68 67.2962 160.721 67.3044 158.757C67.2096 156.959 66.4286 155.265 65.1224 154.026C63.8162 152.787 62.0843 152.096 60.2838 152.096C58.4833 152.096 56.7514 152.787 55.4451 154.026C54.1389 155.265 53.3579 156.959 53.2632 158.757C53.2632 158.854 53.2632 159.068 53.2632 159.36C56.7297 163.314 62.4357 165.164 68.1612 166.118Z" fill="#4F4E49"/>
<path d="M75.1136 144.989C76.2001 148.333 75.9139 151.972 74.318 155.105C72.7221 158.239 69.9471 160.61 66.6033 161.698C63.2562 162.779 59.617 162.491 56.4819 160.896C53.3468 159.301 50.9711 156.53 49.8746 153.187L47.0313 144.424C46.4938 142.767 46.288 141.02 46.4258 139.283C46.5636 137.546 47.0422 135.854 47.8344 134.302C48.6265 132.75 49.7166 131.37 51.0424 130.24C52.3682 129.109 53.9037 128.251 55.5612 127.715C58.9056 126.634 62.5422 126.922 65.6742 128.517C68.8061 130.113 71.1781 132.884 72.2704 136.225L75.1136 144.989Z" fill="#8A8778"/>
<path d="M153.129 137.939C152.855 137.72 152.535 137.567 152.194 137.491L153.245 136.342C153.442 136.131 153.596 135.884 153.696 135.614C153.797 135.344 153.843 135.057 153.832 134.769C153.822 134.481 153.754 134.198 153.633 133.937C153.512 133.675 153.341 133.44 153.129 133.245L152.778 132.973C153.076 132.541 153.21 132.018 153.156 131.497C153.103 130.976 152.865 130.491 152.486 130.129C152.191 129.855 151.825 129.668 151.429 129.589C151.034 129.51 150.625 129.542 150.246 129.681C151.24 128.669 151.863 127.968 151.941 127.89C152.273 127.447 152.427 126.895 152.37 126.344C152.314 125.793 152.052 125.284 151.636 124.918C151.221 124.551 150.683 124.355 150.129 124.368C149.575 124.381 149.047 124.603 148.649 124.988C145.792 128.157 142.516 130.922 138.912 133.206C137.663 131.27 135.876 129.741 133.771 128.805C133.243 128.654 132.677 128.707 132.186 128.952C131.694 129.197 131.312 129.617 131.114 130.129C130.916 130.642 130.918 131.21 131.117 131.721C131.317 132.233 131.701 132.652 132.193 132.895C133.459 133.508 134.526 134.467 135.27 135.66C135.038 136.291 134.868 136.943 134.764 137.608C102.495 181.27 59.7285 165.768 57.7811 165.028C55.9617 164.425 53.9802 164.546 52.2475 165.365C50.5147 166.184 49.1638 167.639 48.475 169.427C47.7861 171.216 47.8122 173.201 48.5478 174.971C49.2833 176.74 50.6719 178.159 52.4256 178.933C60.7632 181.799 69.5303 183.215 78.3462 183.12C81.522 183.123 84.6953 182.941 87.8498 182.574C103.955 180.627 127.773 171.435 146.819 146.897C147.277 146.631 147.719 146.338 148.143 146.021C148.554 145.756 148.951 145.47 149.331 145.164C150.808 143.891 152.176 142.497 153.421 140.996C153.776 140.547 153.943 139.978 153.889 139.409C153.834 138.839 153.562 138.312 153.129 137.939Z" fill="#8A8778"/>
<path d="M93.7309 165.222L91.9198 165.612C87.4395 166.573 82.8698 167.056 78.2876 167.053C71.489 167.137 64.7257 166.063 58.2872 163.879C56.1176 163.046 53.7066 163.108 51.5822 164.05C49.4579 164.991 47.7933 166.737 46.953 168.903C46.4868 169.963 46.2592 171.112 46.2861 172.27C46.313 173.428 46.5939 174.565 47.1088 175.602C51.3932 183.197 63.1558 186.274 78.2681 186.274C81.5221 186.275 84.7734 186.087 88.0054 185.71C90.0398 185.482 92.0613 185.15 94.062 184.716L95.3278 184.385C94.1952 180.756 93.4574 177.014 93.1272 173.226C93.1664 170.549 93.368 167.876 93.7309 165.222Z" fill="#E1F3F6"/>
<path d="M46.6417 151.473C51.2572 148.533 52.8346 143.06 52.3283 137.568C56.379 140.295 59.5728 138.639 62.0656 133.966C69.7191 144.696 81.3649 128.746 65.4736 122.962C52.7567 118.347 40.293 130.928 43.5647 143.567L46.6417 151.473Z" fill="#00396A"/>
</svg>
