<svg width="75" height="61" viewBox="0 0 75 61" fill="none" xmlns="http://www.w3.org/2000/svg">
<path d="M10.1137 60.3098C6.40066 60.1793 3.45695 58.6092 1.61694 55.3611C-0.175081 52.1984 -0.239564 48.9068 1.54496 45.6647C2.07132 44.7094 2.83012 43.9536 3.71488 43.3208C11.9732 37.4169 20.0935 31.3255 28.2843 25.3301C35.1075 20.3349 41.9172 15.3218 48.7314 10.3146C52.4894 7.55234 56.2923 4.84707 59.9874 2.00383C62.5217 0.0528503 65.116 -0.0476238 67.8962 1.23903C71.9482 3.11503 74.8304 7.7338 74.6504 12.1336C74.5695 14.1191 73.8122 15.8121 72.1611 17.0193C65.3964 21.9665 58.6302 26.9122 51.8625 31.8549C39.8972 40.5915 27.9064 49.2952 15.9876 58.0948C14.1791 59.431 12.3706 60.3427 10.1137 60.3098Z" fill="#020202"/>
<path d="M51.4217 13.9692C51.4817 13.9257 51.5716 13.8957 51.5971 13.8387C52.4384 11.9567 54.07 10.8665 55.6715 9.73883C57.2041 8.66062 58.7172 7.55541 60.2393 6.46071C60.4822 6.36173 60.6562 6.16528 60.8616 6.01382L60.8586 6.01232C61.4765 6.13829 61.541 5.47997 61.9174 5.26402C63.1365 3.96387 64.0933 3.73143 65.9258 4.37926C66.5451 4.5982 67.166 4.88613 67.6143 5.41848C67.7643 5.7394 68.0087 5.94634 68.3551 6.02732C69.8307 7.46094 70.804 9.17198 71.0229 11.2294C71.1444 12.3586 70.864 13.4293 69.8772 14.1552C65.9078 17.0779 61.9309 19.9916 57.9539 22.9053C57.8969 22.9473 57.8145 22.9518 57.744 22.9743C56.9387 23.4992 56.0449 23.907 55.4661 24.7258C52.4714 26.9107 49.4767 29.0942 46.485 31.2821C46.344 31.3855 46.2226 31.516 46.0321 31.5205C46.0216 31.501 46.0351 31.522 46.0351 31.519C45.4368 32.1998 44.654 32.6527 43.9387 33.1821C40.701 35.5799 37.4379 37.9448 34.1808 40.3187C34.1433 40.3457 34.0863 40.3442 34.0383 40.3562C33.9438 40.4311 33.8419 40.4476 33.7294 40.4011C33.437 39.6513 33.5045 39.4924 34.2753 39.203C33.5884 38.999 33.5419 38.5926 33.8704 38.0708C33.9003 38.0078 33.9378 37.9508 33.9813 37.8968C34.5407 37.357 35.0445 36.7721 35.394 36.0688C36.0028 34.9156 36.916 33.9829 37.6928 32.9526C40.0307 29.8575 42.4061 26.7893 44.666 23.6356C44.8594 23.3642 44.9944 23.0073 45.3963 22.9488C45.6992 23.2157 45.9286 23.1273 46.0966 22.7958C46.1941 22.6009 46.2151 22.3655 46.44 22.205C46.1986 22.337 46.1941 22.5769 46.0816 22.7509C45.9241 22.9953 45.7427 23.1902 45.4263 22.9683C45.3198 22.8633 45.3243 22.7374 45.4023 22.6309C46.626 20.9333 47.6877 19.1203 49.0253 17.5023C49.2308 17.3823 49.3897 17.2188 49.4977 17.0059C49.5337 16.9504 49.5742 16.8979 49.6192 16.8499C49.8351 16.577 50.1095 16.3356 50.1155 15.9457C50.33 15.1404 50.9388 14.5975 51.4217 13.9692Z" fill="#774D25"/>
<path d="M25.6363 31.8113C28.4195 29.6324 31.3213 27.6124 34.1675 25.5175C36.9748 23.451 39.7775 21.3816 42.5848 19.3166C42.6612 19.2596 42.7662 19.2416 42.8592 19.2057C43.2761 19.1007 43.5445 18.8113 43.7784 18.4769C44.5342 17.9265 45.29 17.3776 46.0458 16.8273C46.1028 16.7733 46.1748 16.7373 46.2453 16.7643C46.6397 16.9248 46.8016 17.2187 46.7297 17.6401C47.0116 17.5351 47.3235 17.2532 47.5004 17.7705C47.5574 18.1304 47.343 18.3869 47.1615 18.6538C44.3363 22.8002 41.4481 26.9016 38.3709 30.8665C36.5669 33.1924 34.7643 35.5228 32.8374 37.7497C32.6409 37.9761 32.4505 38.2101 32.152 38.3076C32.0306 38.3121 31.9361 38.2431 31.8386 38.1846C31.8281 38.3465 32.0156 38.432 31.9976 38.5985C31.5177 39.5612 30.6854 40.248 30.0316 41.0743C29.6852 41.5122 29.4078 42.0371 28.8514 42.2755C28.475 42.3385 28.3836 42.6309 28.3161 42.9428C28.1661 43.4077 27.6952 43.5921 27.4298 43.955C26.575 44.6134 26.0067 45.5281 25.2929 46.3139C25.0769 46.5508 24.834 46.7638 24.6031 46.9887C24.4921 46.9632 24.4486 47.0067 24.4741 47.1177C23.7648 48.1824 22.6431 48.7628 21.6548 49.4961C21.3774 49.7015 21.3429 49.4166 21.274 49.2366C20.929 48.3309 20.5826 47.4266 20.2362 46.5224C20.0143 46.05 19.7489 45.5881 20.0503 45.0423C20.1058 44.9418 19.9993 44.8788 19.8793 44.8983C19.5959 44.7123 19.3425 44.4784 19.0021 44.3989C18.9106 44.3539 18.8116 44.3224 18.7261 44.2625C17.6614 43.2052 16.6087 42.136 15.2965 41.3727C15.2261 41.2423 15.1316 41.1433 14.9756 41.1208C14.8572 41.1178 14.7462 41.0968 14.6787 40.9828C14.7567 40.5135 15.1391 40.1116 14.9801 39.5912C17.8174 37.4978 20.6531 35.4028 23.4919 33.3109C23.5878 33.2404 23.7123 33.2074 23.8233 33.1564C24.4021 32.6706 25.2089 32.4981 25.6363 31.8113Z" fill="#774D25"/>
<path d="M14.0877 43.9536C15.3233 44.8953 16.4615 45.921 17.0764 47.4011C16.9969 47.4851 16.9084 47.4866 16.8109 47.4356C16.8109 47.4881 16.8574 47.5061 16.8874 47.5301C17.4243 47.9515 17.2323 48.3849 16.9144 48.8228C16.8199 48.9667 16.6565 48.9517 16.5185 48.9967C16.4151 49.0402 16.3281 49.1002 16.2861 49.2112C16.2606 49.4751 16.4915 49.601 16.592 49.7945C16.751 50.1274 16.9804 50.4303 17.0209 50.8142C16.8499 51.1531 16.541 51.2056 16.2051 51.1996C16.1526 51.1576 16.1181 51.1051 16.0971 51.0422C16.1136 50.6838 15.9127 50.4558 15.6338 50.2744C14.9589 49.2936 14.4896 48.1779 13.5928 47.2257C14.2136 48.5453 14.9379 49.724 15.1464 51.1051C15.1374 51.2446 15.0969 51.3721 15.0129 51.4845C14.9335 51.585 14.848 51.6825 14.782 51.7935C14.716 51.9014 14.653 52.0124 14.5406 52.0799C14.3246 52.1414 14.3456 51.801 14.1387 51.8459C14.0442 51.8534 13.9572 51.8354 13.8717 51.795C13.7668 51.735 13.6768 51.6555 13.5778 51.591C13.5253 51.5565 13.4608 51.4815 13.4069 51.5355C13.3589 51.5835 13.4189 51.6675 13.4264 51.738C13.4264 51.804 13.4084 51.8639 13.3799 51.9224C13.3169 51.9944 13.2389 52.0499 13.1624 52.1054C13.1174 52.1474 13.0709 52.1894 13.029 52.2358C12.804 52.6062 13.1579 52.8432 13.2419 53.1416C13.4848 53.8314 13.4054 54.5407 13.3859 55.247C13.3784 55.5305 13.2599 55.7644 13.0245 55.9339L13.032 55.9279C12.2537 56.3822 11.9417 56.2758 11.7903 55.451C11.6103 54.4687 11.2684 53.548 10.8066 52.6707C10.7391 52.5148 10.7856 52.2913 10.5516 52.2358C10.6746 53.0666 11.072 53.8119 11.2114 54.6367C11.5054 56.3747 11.2834 56.6552 9.5184 56.5937C8.26623 56.5502 7.23601 55.9908 6.30775 55.2021C5.61044 54.4628 4.78566 53.8104 4.59521 52.7217C4.61171 52.6557 4.6477 52.6017 4.70018 52.5598C4.76017 52.5073 4.88313 52.5223 4.89513 52.4293C4.90263 52.3678 4.78866 52.3873 4.75267 52.3408C4.65219 52.1474 4.6417 52.5073 4.54572 52.3798C4.29379 52.2163 4.2608 51.9629 4.2548 51.6975C4.32528 51.0722 4.46175 50.4453 4.23681 49.823C4.12734 49.4061 4.22331 49.0372 4.49024 48.7058C4.70318 48.5828 4.80066 48.2964 5.08558 48.2724C5.378 48.6233 5.72591 48.8722 6.20878 48.8647C7.13403 48.9802 8.03229 49.1767 8.79259 49.7615C8.85407 49.7855 8.89306 49.9055 8.95005 49.865C9.02503 49.8095 8.97104 49.91 8.90506 49.8275C8.20625 49.1962 7.49094 48.6023 6.59718 48.2724C6.36174 48.1734 6.10981 48.1734 5.87437 48.2109C5.32702 48.3009 5.03759 48.085 4.97011 47.5451C5.04809 46.5419 5.40349 46.3319 6.24777 46.7893C6.5192 46.9288 6.78163 47.1147 7.11454 46.9827C7.60041 46.9663 8.02629 47.1117 8.3862 47.4416C8.50467 47.803 8.81958 47.755 9.09851 47.7805C9.78982 48.0295 10.4227 48.3654 10.874 48.9727C10.904 49.2157 10.88 49.4796 11.144 49.6265C11.2984 49.754 11.4934 49.6985 11.6658 49.7405C12.0107 49.8785 12.0797 50.2849 12.4306 50.5188C11.5444 48.4314 10.1842 46.8898 8.15826 45.9735C8.04429 45.9225 7.92882 45.876 7.82235 45.8116C7.59591 45.6736 7.251 45.5986 7.28999 45.2642C7.32148 44.9898 7.52843 44.7798 7.83435 44.7259C7.96331 44.6569 8.12227 44.6149 8.21674 44.5129C8.85257 43.8246 9.5019 43.8276 10.1797 44.4409C10.1722 44.8293 9.70735 44.4529 9.65186 44.7573C9.68185 44.7873 9.66236 44.8623 9.73884 44.8458C9.69535 44.7798 9.70435 44.7184 9.75383 44.6599C10.1632 44.5039 10.5171 44.8218 10.91 44.7933C11.4184 44.8773 11.5788 45.5536 12.1502 45.5221C12.3691 45.3032 12.1082 45.2447 12.0182 45.1322C11.5848 44.9073 11.4259 44.4319 11.0885 44.1185L11.1065 44.066C10.937 43.8786 10.8485 43.6026 10.5486 43.5592C10.2502 43.3462 9.84381 43.1408 10.4976 42.8604C11.0615 42.9488 11.4799 43.2263 11.6943 43.7706C11.9492 43.7901 12.1382 43.8846 12.1502 44.1755C12.3856 44.4994 12.8025 44.7213 12.735 45.0468C12.7635 44.8098 12.5221 44.4904 12.4036 44.1305C12.5401 43.8996 12.774 43.8231 13.0095 43.7481C13.1444 43.7121 13.2929 43.9026 13.4204 43.7226C13.6738 43.7151 13.8822 43.8291 14.0877 43.9536Z" fill="#EC2127"/>
<path d="M28.8045 42.1632C29.9247 41.031 30.8994 39.7728 31.9117 38.5477C31.8682 38.3857 31.9447 38.3062 32.0946 38.2762C34.7174 35.3805 37.0673 32.2629 39.4367 29.1617C42.1255 25.6421 44.6568 22.0086 47.1461 18.3451C47.2421 18.2041 47.3066 18.0421 47.3845 17.8907C47.5195 17.5818 47.686 17.2878 47.8524 16.9954C47.9019 16.91 47.9619 16.829 48.0204 16.748C48.0939 16.6385 48.1598 16.5246 48.2288 16.4121C48.4748 15.9742 48.8197 15.6023 49.0641 15.1629C49.2515 14.9125 49.4045 14.6351 49.6279 14.4176C49.7029 14.3636 49.6729 14.4866 49.6654 14.3891C49.6609 14.3366 49.6144 14.3396 49.583 14.3966C49.3925 14.5181 49.2366 14.6725 49.0746 14.821C48.8407 14.995 48.6382 15.2139 48.3698 15.3429C48.1059 15.4763 47.8944 15.6833 47.647 15.8392C47.545 15.9172 47.4475 16.0012 47.3486 16.0837C47.2976 16.1257 47.2436 16.1601 47.1866 16.1916C47.0081 16.2651 46.8342 16.3821 46.6347 16.2486C46.6422 16.1047 46.6857 15.9502 46.6497 15.8167C46.5268 15.3609 46.6887 15.1749 47.1521 15.2064C47.617 15.2379 47.8854 15.0145 47.9604 14.5511C48.0024 14.2871 48.1523 14.0832 48.4103 14.0067C48.7972 13.8913 48.6217 14.3801 48.9186 14.4761C48.9636 13.8883 49.1976 13.4534 49.8229 13.3409C50.0028 13.3079 50.1768 13.2029 50.2083 13.4789C50.3148 14.3876 50.9146 14.0547 51.4185 13.9707C51.183 14.7655 50.4332 15.2619 50.2023 16.0597C50.0328 16.3791 49.8754 16.706 49.6085 16.9609L49.6129 16.9594C49.454 17.1559 49.4135 17.4423 49.1556 17.5638C47.9109 19.3633 46.6662 21.1643 45.4201 22.9638V22.9623C43.682 25.2942 41.956 27.6336 40.2045 29.955C38.7963 31.8205 37.3582 33.662 35.9366 35.517C35.7851 35.7134 35.6562 35.9264 35.5167 36.1318C35.0488 36.7631 34.608 37.417 34.0246 37.9538L34.0261 37.9523C33.8627 38.4307 33.4788 38.7621 33.2178 39.176C33.0829 39.365 32.9104 39.5224 32.7709 39.7084C32.3391 40.2632 31.8892 40.8016 31.4258 41.3309C31.0209 41.7688 30.655 42.2397 30.2816 42.7031C30.2471 42.76 30.2066 42.8125 30.1646 42.8635C29.9487 43.1065 29.7073 43.3254 29.4718 43.5488C29.3399 43.6838 29.2109 43.8218 29.0774 43.9552C28.9485 44.0662 28.833 44.2132 28.6306 44.1037C28.2437 43.9327 27.8538 43.7678 27.4219 43.9507C27.4999 43.4739 27.9992 43.3029 28.1792 42.901C28.3786 42.6446 28.4656 42.2982 28.8045 42.1632Z" fill="#070607"/>
<path d="M16.9448 50.8442C16.8683 50.4678 16.5249 50.2023 16.5084 49.8019C16.3945 49.5545 16.0121 49.421 16.1845 49.0506C16.2805 49.0161 16.3765 48.9832 16.4724 48.9487C16.8293 49.1466 17.0603 49.481 17.3497 49.7539C17.6016 50.0749 17.7411 50.4588 17.9435 50.8082C18.0215 50.9581 18.0935 51.1096 18.17 51.261C18.2195 51.342 18.2555 51.4575 18.3559 51.4695C18.4969 51.4845 18.4909 51.357 18.4879 51.264C18.4774 50.9791 18.3439 50.6852 18.5659 50.4228C19.0937 50.8816 19.0413 51.5055 19.0158 52.1053C19.0038 52.3737 18.7368 52.3737 18.5494 52.3423C17.972 52.2418 17.7876 52.5477 17.8011 53.0441C17.8221 53.8583 17.2252 53.5704 16.9973 53.3815C16.7424 53.1715 16.4844 53.182 16.2265 53.0816C16.5684 54.1133 16.5654 54.1193 15.6012 54.6516C15.2368 54.8526 14.7224 54.9306 15.0373 55.5904C15.1348 55.7958 14.8559 55.9518 14.5934 55.9473C14.0716 55.9383 13.5497 55.9383 13.0294 55.9338C13.3683 54.9366 13.2168 53.9408 13.0204 52.9451C12.9109 52.6467 12.7939 52.3482 13.0818 52.0768L13.0668 52.0918C13.4477 51.9449 13.5962 52.2223 13.7612 52.4712C13.9726 52.9496 14.199 53.425 14.2875 53.9468C14.37 54.4357 14.5829 54.4312 14.9503 54.1823C15.3987 53.8778 15.5832 53.5329 15.4212 52.9811C15.2398 52.3647 15.0403 51.7439 15.0178 51.0901C14.6429 49.592 13.8946 48.2499 13.2768 46.8342C14.472 47.7085 15.0568 49.0206 15.7571 50.2473C16.0435 50.4333 16.1245 50.7257 16.174 51.0361C16.1605 51.0826 16.174 51.1186 16.2145 51.1456C16.4304 51.3645 16.5624 51.6284 16.6494 51.9194C16.6884 52.0378 16.7259 52.1563 16.7634 52.2748C16.8008 52.3812 16.8293 52.4907 16.8998 52.5792C16.9718 52.6287 17.0438 52.6182 17.1143 52.5702C17.4382 52.1218 17.0678 51.7394 17.0003 51.3315C16.9133 51.1756 17.0543 50.9971 16.9448 50.8442Z" fill="#110A09"/>
<path d="M6.30244 46.9664C5.48216 46.4776 5.31421 46.5525 5.05178 47.5288C5.07277 47.6263 5.05028 47.7177 5.01129 47.8062C4.94231 47.9487 4.90482 48.1136 4.73386 48.1796C4.70387 48.1676 4.67388 48.1571 4.64389 48.1451C4.46394 47.6532 4.67538 47.1674 4.67388 46.677C4.67238 46.3576 5.51815 46.2061 6.03102 46.4116C6.76582 46.7055 7.13622 46.5061 7.01475 45.7113C6.91728 45.0769 7.54111 44.7185 7.40615 44.1202C7.37766 43.9957 7.65658 44.0092 7.78405 44.0092C7.946 44.0092 7.92951 44.1652 7.91601 44.2941C7.90102 44.4396 7.5861 44.5326 7.83953 44.7245C7.2277 45.3154 7.2202 45.3304 8.02248 45.6858C10.1534 46.629 11.6335 48.2006 12.5528 50.321C12.6248 50.4875 12.8362 50.7169 12.6158 50.8564C12.3143 51.0483 12.2888 50.6719 12.1524 50.5325C11.9304 50.3045 11.8255 49.9746 11.527 49.8097C11.3861 49.7317 11.2436 49.6582 11.1312 49.5382C10.9827 49.4063 10.8657 49.2488 10.7847 49.0674C10.2419 48.583 9.69454 48.1061 8.97623 47.8902C8.80827 47.7357 8.53835 47.7582 8.39588 47.5573C7.9655 47.3458 7.55911 47.0639 7.04325 47.1134C6.76132 47.2514 6.55438 46.9949 6.30244 46.9664Z" fill="#110A09"/>
<path d="M6.30375 55.0296C7.53042 55.9459 8.85757 56.5382 10.4426 56.4287C10.912 56.3957 11.0965 56.2773 11.0965 55.7839C11.0995 54.5617 10.7471 53.4355 10.2777 52.3318C10.2087 52.1714 10.0962 51.9884 10.2762 51.8669C10.4516 51.7485 10.4951 52.0124 10.6226 52.0634C10.8025 52.1654 10.8445 52.3603 10.9285 52.5253C11.4534 53.5195 11.8988 54.5347 12.0427 55.6699C12.1477 56.4962 12.728 55.7314 13.034 55.9249C13.0594 56.9686 13.0609 57.0241 12.0787 57.0556C11.7683 57.0661 11.143 57.4679 11.0485 56.6897C10.6496 56.9851 10.1502 56.7571 9.72733 56.9491C8.93555 57.3075 8.10927 57.0241 7.29948 57.0646C7.04155 57.0781 7.02356 56.8951 7.05205 56.7151C7.14952 56.0838 6.8721 55.8544 6.26326 55.9384C6.15529 55.9533 6.03832 55.9009 5.92285 55.8799C5.95434 55.589 6.35174 55.6354 6.29925 55.346C6.20778 55.2395 6.21827 55.1346 6.30375 55.0296Z" fill="#140A09"/>
<path d="M31.333 41.2499C31.7859 40.7026 32.2373 40.1537 32.6902 39.6064C32.8296 39.5119 32.9556 39.3919 33.1341 39.3679C33.203 39.3769 33.2645 39.4054 33.317 39.4519C33.4205 39.7683 33.4925 40.0997 33.7324 40.3547C33.8359 40.3562 33.9378 40.3577 34.0413 40.3592C33.0921 41.1779 32.0648 41.8917 31.0331 42.5981C30.8967 42.4316 30.9521 42.2621 31.0841 42.1527C31.2371 42.0252 31.2086 41.9277 31.1096 41.8018C31.0541 41.5648 31.2416 41.4269 31.333 41.2499Z" fill="#764E26"/>
<path d="M6.30333 55.0295C6.30183 55.1345 6.30033 55.2395 6.29883 55.3444C5.87745 54.974 5.49655 54.5286 4.83373 54.6546C4.66577 54.6861 4.64478 54.5346 4.65227 54.4042C4.69126 53.6754 4.53531 53.0875 3.76451 52.7591C3.38811 52.5987 3.50658 51.504 3.91747 51.183C4.05843 51.0721 4.20389 51.0031 4.22189 50.8066C4.60429 51.0481 4.35385 51.4185 4.41084 51.7259C4.46032 51.9568 4.43183 52.2118 4.62078 52.3992C4.74075 52.4577 4.73775 52.5432 4.67777 52.6436C4.96719 53.6109 5.64651 54.3127 6.30333 55.0295Z" fill="#120908"/>
<path d="M47.9964 16.9803C47.8989 17.3552 47.7084 17.6671 47.386 17.8905C47.1641 17.1647 46.9496 17.8396 46.6902 17.9355C46.5477 17.5096 46.6722 16.9263 46.0469 16.8243C46.2433 16.6324 46.4398 16.4404 46.6377 16.2485C46.8297 16.1825 47.0216 16.1165 47.2136 16.0505C47.6275 16.2305 48.0938 16.367 47.9964 16.9803Z" fill="#754C27"/>
<path d="M17.8342 50.8608C17.6287 50.5219 17.4248 50.1815 17.2193 49.8426C17.1698 49.4857 16.7575 49.2907 16.7949 48.8948C16.9089 48.4194 17.3393 47.9276 16.7095 47.4882C16.645 47.4432 16.678 47.3952 17.0784 47.3997C17.1833 47.5512 17.4443 47.5857 17.4098 47.8421C17.3378 48.13 17.6152 48.3025 17.6467 48.5559C17.6437 48.8408 17.6392 49.1168 17.7112 49.4062C17.8177 49.8396 17.9496 49.7271 18.1446 49.4932C18.314 49.5996 18.2765 49.7781 18.296 49.9355C18.374 50.0255 18.401 50.1305 18.3875 50.246C18.308 50.5444 18.2196 50.8368 17.8342 50.8608Z" fill="#E42327"/>
<path d="M4.59163 48.727C4.44617 49.0704 4.3337 49.4198 4.36519 49.8007C4.41918 49.9941 4.51665 50.1996 4.21973 50.2866C4.20624 50.2386 4.20774 50.1621 4.17924 50.1486C3.64389 49.9162 3.48343 49.6102 3.99479 49.2188C3.87033 48.9174 3.37696 49.5607 3.45944 48.9489C3.51042 48.571 3.6109 48.1571 4.09227 48.1196C4.26472 48.1061 4.44917 48.2831 4.64262 48.1406L4.67261 48.1646C4.81208 48.3791 4.83307 48.571 4.59163 48.727Z" fill="#120908"/>
<path d="M13.0442 43.8023C12.8928 43.9987 12.6828 44.0782 12.4444 44.1022C12.3079 44.1907 12.23 44.4546 11.996 44.2507C12.056 43.9882 11.936 43.9088 11.6946 43.9523C11.5012 43.6253 11.4802 43.1875 11.0243 43.0285C10.8443 42.9655 10.8173 42.7631 10.9373 42.5846C11.1652 42.1917 11.4787 42.2802 11.7576 42.4841C12.17 42.7871 12.6259 42.9955 13.0877 43.201C13.1207 43.2654 13.1252 43.3329 13.1087 43.4034C12.6184 43.6943 12.3424 43.2819 12.041 43.087C12.1355 43.3854 12.3199 43.5998 12.7203 43.5474C12.8538 43.5294 13.0982 43.5159 13.0442 43.8023Z" fill="#E8242C"/>
<path d="M14.9781 39.5854C15.1296 39.7309 15.6679 39.7144 15.1281 40.1313C14.9331 40.2828 15.1491 40.8466 14.6767 40.9771C14.3783 40.8796 13.9539 40.8181 13.8834 40.5362C13.7949 40.1853 14.2958 40.1373 14.4953 39.9064C14.6167 39.7654 14.8147 39.6904 14.9781 39.5854Z" fill="#744C22"/>
<path d="M12.3247 45.7518C11.5959 45.8568 11.3979 45.113 10.8955 44.855C10.8596 44.813 10.8596 44.771 10.8925 44.7276C11.1325 44.5806 11.2435 44.3901 11.092 44.1157C11.5644 44.2642 11.7023 44.7785 12.0847 45.023C12.3517 45.2044 12.4401 45.4444 12.3247 45.7518Z" fill="#1D0B08"/>
<path d="M18.7246 44.258C18.8296 44.2565 18.9346 44.2535 19.041 44.252C19.3544 44.4304 19.4744 44.9013 19.9408 44.8518C19.9618 44.7168 19.8943 44.5129 20.0907 44.4949C20.2497 44.4799 20.2317 44.6628 20.2377 44.7798C20.2692 45.3587 19.9438 45.9375 20.2347 46.5193C19.7308 45.7635 19.2285 45.0108 18.7246 44.258Z" fill="#744D28"/>
<path d="M55.4697 24.7271C55.6212 24.2233 55.8926 23.8889 56.431 23.6849C56.8838 23.5125 57.1628 22.9561 57.7461 22.9756C57.0638 23.6579 56.2375 24.1543 55.4697 24.7271Z" fill="#704D2C"/>
<path d="M18.1441 49.4934C18.3001 49.8428 17.9102 49.8473 17.7992 49.8983C17.6058 49.9867 17.7422 49.7108 17.6613 49.6268C17.3119 49.2654 17.4048 48.859 17.5413 48.4466C17.4543 48.3222 17.4423 48.2022 17.5668 48.0942C17.6598 48.2127 17.7542 48.3312 17.8472 48.4496C18.0392 48.6236 18.0452 48.877 18.1216 49.1005C18.1306 49.2309 18.1366 49.3629 18.1441 49.4934Z" fill="#E3242A"/>
<path d="M18.2905 50.2489C18.292 50.1454 18.2935 50.0405 18.2965 49.937C18.3385 49.946 18.3805 49.9535 18.4225 49.9595C18.6279 50.0615 18.4885 50.2744 18.5679 50.4169L18.5649 50.4214C18.5919 50.6418 18.6054 50.8638 18.6504 51.0812C18.7119 51.3811 18.8049 51.7395 18.433 51.834C18.0431 51.9345 18.1345 51.4981 18.0176 51.2941C18.208 50.9702 18.25 50.6103 18.2905 50.2489Z" fill="#E3242A"/>
<path d="M25.6354 31.8115C25.6533 32.2179 25.4794 32.4998 25.0655 32.5493C24.5736 32.6078 24.3487 33.1897 23.8193 33.1507C24.3427 32.5928 24.995 32.2089 25.6354 31.8115Z" fill="#724D2B"/>
<path d="M31.1839 41.8525C31.3743 41.869 31.4583 41.9395 31.3008 42.1075C31.1689 42.2484 31.0294 42.3819 31.0339 42.5963C30.9409 42.7763 30.7505 42.8153 30.5945 42.9053C30.3831 43.0072 30.1806 43.0837 30.1191 42.7448L30.1236 42.7463C30.4506 42.4164 30.674 41.965 31.1839 41.8525Z" fill="#75491F"/>
<path d="M61.9191 5.26538C61.8246 5.46633 61.7211 5.66577 61.6356 5.87122C61.4482 6.32409 61.1828 6.3151 60.8604 6.01368C61.1318 5.64928 61.4812 5.39435 61.9191 5.26538Z" fill="#6F4B29"/>
<path d="M10.9379 42.5845C10.9454 42.7989 11.0429 42.9549 11.2363 43.0479C11.6217 43.2308 11.7387 43.5502 11.6937 43.9506C11.3653 43.5172 10.9739 43.1573 10.4911 42.9009C10.4551 42.8664 10.4431 42.8334 10.4566 42.8004C10.4701 42.7674 10.4821 42.7524 10.4955 42.7524C10.68 42.7944 10.7925 42.6445 10.9379 42.5845Z" fill="#E32428"/>
<path d="M30.1178 42.7449C30.2333 42.9233 30.4177 42.8993 30.5932 42.9053C30.3202 43.2607 29.9153 43.4362 29.5524 43.6716C29.3995 43.7076 29.3485 43.6431 29.38 43.4977C29.5869 43.2083 29.8224 42.9458 30.1178 42.7449Z" fill="#6F4927"/>
<path d="M18.5673 50.4154C18.4189 50.2954 18.4564 50.1154 18.4219 49.958C18.7338 49.7495 18.5748 49.3776 18.7008 49.0957C19.0772 49.4481 19.0562 49.6326 18.5673 50.4154Z" fill="#1B0C0A"/>
<path d="M4.2207 50.2864C4.26869 50.1244 4.31818 49.9625 4.36616 49.8005C4.5986 50.4379 4.53712 51.0827 4.40965 51.7275C4.34667 51.4216 4.28369 51.1157 4.2207 50.8083C4.2207 50.6358 4.2207 50.4619 4.2207 50.2864Z" fill="#EC202F"/>
<path d="M10.4959 42.7527C10.4944 42.8022 10.4929 42.8517 10.4914 42.9011C9.97107 43.2206 10.415 43.342 10.6174 43.513C10.6684 43.543 10.6849 43.5745 10.6684 43.606C10.6519 43.6374 10.6354 43.6524 10.6189 43.6524C10.5709 43.6434 10.5184 43.6464 10.4764 43.6255C10.247 43.5055 9.84661 43.4665 9.85261 43.2176C9.8586 42.9521 10.19 42.7902 10.4959 42.7527Z" fill="#1D0B08"/>
<path d="M10.8919 44.7274C10.8994 44.7694 10.9009 44.8129 10.8949 44.8549C10.4675 45.1383 10.1526 44.5595 9.74471 44.7019C9.64424 44.7934 9.54526 44.7829 9.44629 44.7004C9.56026 44.2446 10.0236 44.7649 10.1826 44.4365C10.4195 44.534 10.6565 44.6315 10.8919 44.7274Z" fill="#E22327"/>
<path d="M68.357 6.02729C67.7347 6.28223 67.6507 5.88033 67.6162 5.41846C67.9131 5.56092 68.2071 5.70788 68.357 6.02729Z" fill="#6B4A2B"/>
<path d="M43.7786 18.4739C43.5762 18.8473 43.5372 19.4291 42.8594 19.2042C43.0813 18.8548 43.4547 18.6958 43.7786 18.4739Z" fill="#6D492B"/>
<path d="M14.0883 43.9538C13.8394 43.9028 13.592 43.8533 13.343 43.8023C13.1541 43.7034 13.0656 43.5639 13.1631 43.351C13.376 43.27 13.505 43.402 13.6339 43.5369C13.7854 43.6749 14.0103 43.7334 14.0883 43.9538Z" fill="#E1252F"/>
<path d="M10.6187 43.6537C10.6352 43.6072 10.6352 43.5607 10.6172 43.5142C11.0041 43.4977 11.1016 43.7407 11.1091 44.0646C10.9456 43.9266 10.7821 43.7901 10.6187 43.6537Z" fill="#DF2427"/>
<path d="M24.4713 47.113C24.3394 47.0801 24.1579 47.0876 24.2134 46.8701C24.2284 46.8116 24.2989 46.7411 24.3573 46.7261C24.5748 46.6707 24.5673 46.8506 24.6003 46.9826C24.5568 47.0261 24.5148 47.0696 24.4713 47.113Z" fill="#7A4C20"/>
<path d="M28.6377 44.1038C28.7862 44.0543 28.9346 44.0048 29.0846 43.9553C29.0786 44.1368 29.0276 44.3032 28.8326 44.3407C28.6632 44.3737 28.6587 44.2193 28.6377 44.1038Z" fill="#302518"/>
<path d="M60.8616 6.01367C60.7326 6.2716 60.5647 6.47705 60.2393 6.46055C60.4042 6.25211 60.5677 6.04216 60.8616 6.01367Z" fill="#6F4B29"/>
<path d="M29.3806 43.4978C29.4376 43.5563 29.4945 43.6133 29.553 43.6718C29.4466 43.8502 29.3071 43.9732 29.0822 43.9552C29.0777 43.7347 29.1916 43.5908 29.3806 43.4978Z" fill="#583E24"/>
<path d="M18.1232 49.1003C17.9928 48.8993 17.8428 48.7074 17.8488 48.4495C18.2717 48.5259 18.1082 48.8499 18.1232 49.1003Z" fill="#1B0C0A"/>
<path d="M13.6333 43.5354C13.4878 43.4754 13.3438 43.4154 13.1984 43.3539C13.1174 43.4409 13.0724 43.4244 13.0664 43.3059C13.0694 43.2699 13.0769 43.2339 13.0889 43.1994C13.4173 43.075 13.5718 43.2294 13.6333 43.5354Z" fill="#1F0D09"/>
<path d="M17.5683 48.094C17.5593 48.2109 17.5503 48.3294 17.5428 48.4464C17.3958 48.2664 17.1229 48.115 17.4108 47.842C17.4618 47.926 17.5143 48.01 17.5683 48.094Z" fill="#E02634"/>
<path d="M14.9746 41.1163C15.0886 41.0833 15.201 41.0503 15.315 41.0173C15.309 41.1343 15.303 41.2528 15.2955 41.3697C15.1411 41.3442 15.0541 41.2333 14.9746 41.1163Z" fill="#744C22"/>
<path d="M13.742 42.8168C13.8365 42.7958 13.868 42.8543 13.853 42.9278C13.838 43.0073 13.9205 43.1317 13.769 43.1542C13.7405 43.1587 13.6865 43.1032 13.673 43.0643C13.6415 42.9713 13.649 42.8798 13.742 42.8168Z" fill="#1F0D09"/>
<path d="M12.3979 6.15454C12.5163 6.27451 12.6213 6.47845 12.7548 6.49645C12.9512 6.52494 13.2166 6.43946 12.9272 6.72889C12.6093 7.0468 12.5253 7.32723 12.8792 7.72612C12.5268 7.30474 11.9195 7.97806 11.6855 7.34672C11.9225 6.94933 12.1609 6.55193 12.3979 6.15454Z" fill="#CCCCCC"/>
<path d="M11.3959 8.27205C11.2894 8.29305 11.1725 8.43701 11.084 8.24506C11.141 8.15508 11.1965 8.06361 11.2534 7.97363C11.3704 8.03962 11.3929 8.15058 11.3959 8.27205Z" fill="#CECECD"/>
<path d="M33.7327 40.353C33.3488 40.1701 33.0414 39.9496 33.2828 39.4547C33.2843 39.3738 33.2438 39.3138 33.1853 39.2643C33.1478 39.2283 33.1238 39.1848 33.1104 39.1353C33.2843 38.6375 33.7417 38.36 34.0311 37.9521C33.5887 38.7094 34.1226 38.9944 34.8784 39.3138C34.1181 39.4278 33.5032 39.5237 33.7327 40.353Z" fill="#734D29"/>
<path d="M45.4238 22.9622C46.1826 22.9187 46.0807 22.0684 46.5935 21.7385C46.6865 22.3054 46.3491 22.7118 46.0777 23.0957C45.9097 23.3296 45.5543 23.4346 45.4238 22.9622C45.4238 22.9607 45.4238 22.9622 45.4238 22.9622Z" fill="#774B20"/>
<path d="M34.0293 37.9536C34.4912 37.3163 34.9276 36.6595 35.5214 36.1316C35.1675 36.8559 34.7611 37.5382 34.0293 37.9536Z" fill="#734D29"/>
<path d="M70.6406 12.2805C70.6406 11.8022 70.6406 11.3253 70.6406 10.8469C70.6661 10.8469 70.6901 10.8469 70.7156 10.8469C70.7156 11.3298 70.7156 11.8127 70.7156 12.2955C70.6916 12.2895 70.6661 12.285 70.6406 12.2805Z" fill="#7F4D21"/>
<path d="M49.6123 16.9591C49.7068 16.5902 49.9257 16.3038 50.2061 16.0579C50.1927 16.4792 50.0442 16.8122 49.6123 16.9591Z" fill="#715232"/>
<path d="M46.0386 31.5191C45.8497 31.4861 45.6877 31.4231 45.7792 31.1847C45.7987 31.1352 45.9082 31.0752 45.9562 31.0902C46.2381 31.1772 45.9577 31.3842 46.0357 31.5221L46.0386 31.5191Z" fill="#784C20"/>
<path d="M49.1572 17.5608C49.2967 17.3494 49.3537 17.0765 49.6146 16.958C49.5756 17.2444 49.5336 17.5294 49.1572 17.5608Z" fill="#715232"/>
<path d="M19.9408 44.8518C20.0143 45.0422 19.9858 45.2717 19.7593 45.0962C19.4774 44.8758 19.095 44.6868 19.041 44.252C19.4519 44.2849 19.7548 44.4799 19.9408 44.8518Z" fill="#794D20"/>
<path d="M32.6846 27.1252C32.7805 26.7953 32.9665 26.5553 33.2964 26.4834C33.3204 26.4774 33.4134 26.6018 33.3999 26.6333C33.2694 26.9392 32.956 26.9947 32.6846 27.1252Z" fill="#7B4B1F"/>
<path d="M28.8049 42.163C28.6399 42.4434 28.5005 42.7463 28.1855 42.9008C28.2095 42.5019 28.25 42.1165 28.8049 42.163Z" fill="#6B4A2C"/>
<path d="M32.0951 38.276C32.0336 38.366 31.9736 38.4575 31.9121 38.5475C31.7667 38.399 31.6497 38.2176 31.3213 38.1936C31.7232 37.8607 31.9301 37.9656 32.0951 38.276Z" fill="#79502C"/>
<path d="M7.04505 51.0076C7.55191 51.393 7.9853 51.8489 8.36619 52.3587C8.59263 52.6197 8.85207 52.8761 8.53265 53.2405C8.42018 53.146 8.30771 53.0501 8.19524 52.9556C8.00479 52.8596 7.86983 52.7142 7.79485 52.5147C7.50243 52.1608 7.10053 51.9853 6.60267 51.7799C6.80661 52.5597 7.24299 53.116 7.65388 53.6829C7.83384 53.9303 8.24023 54.1868 8.01379 54.4687C7.74836 54.8016 7.45744 54.3802 7.18601 54.2542C7.09753 54.2122 7.00756 54.1733 6.91758 54.1328C6.69414 54.0518 6.54268 53.8988 6.4602 53.6769C6.39872 53.5854 6.33574 53.4954 6.27425 53.404C5.68641 52.9151 5.55445 52.1803 5.27702 51.5265C5.15405 51.2355 5.20354 50.9401 5.37899 50.6702C6.02082 50.3508 6.53069 50.6867 7.04505 51.0076Z" fill="#330F07"/>
<path d="M15.0143 51.0886C15.3937 51.8204 15.5002 52.6332 15.6921 53.419C15.7716 53.7459 14.7279 54.7866 14.404 54.7446C14.2345 54.7237 14.251 54.5857 14.218 54.4732C14.0246 53.8164 13.8281 53.1596 13.6332 52.5027C13.7036 52.2208 13.2898 52.1698 13.3437 51.8969L13.3452 51.8954C13.5027 51.6735 13.7726 51.9089 13.9436 51.7469C14.0441 51.7469 14.143 51.7469 14.2435 51.7469C14.386 51.8039 14.2165 52.1728 14.5434 52.0469C14.5464 51.9239 14.5719 51.8114 14.6934 51.7469C14.8793 51.7155 14.7729 51.537 14.8448 51.447C14.9828 51.3676 14.9948 51.2266 15.0143 51.0886Z" fill="#E82128"/>
<path d="M8.84158 49.9534C8.0258 49.448 7.14104 49.1376 6.18579 49.0342C6.00884 48.9487 5.80039 48.9517 5.63544 48.8332C5.44349 48.6967 5.44049 48.4973 5.47198 48.3038C5.50797 48.0849 5.69392 48.0669 5.87237 48.0789C6.1633 48.0999 6.46322 48.0114 6.74514 48.1434C7.68989 48.4853 8.42769 49.1256 9.1385 49.8049C9.143 50.0644 9.01104 50.0449 8.84158 49.9534Z" fill="#250C06"/>
<path d="M5.4462 50.7196C5.13878 51.5039 5.70713 52.0873 5.92307 52.7501C5.99805 52.981 6.15401 53.1865 6.27248 53.4039C5.90508 53.6094 5.91107 53.1655 5.75362 53.053C5.21076 52.6661 4.97233 51.3015 5.24825 50.6956C5.32323 50.6327 5.38921 50.6402 5.4462 50.7196Z" fill="#E1242B"/>
<path d="M7.40398 49.7887C6.9676 50.459 6.48323 49.9162 6.02735 49.9117C5.92088 49.9102 5.87139 49.7962 5.89089 49.6898C5.91938 49.5413 6.04234 49.5158 6.16981 49.5038C6.62119 49.4633 7.03208 49.5653 7.40398 49.7887Z" fill="#E5252D"/>
<path d="M13.066 43.3074C13.114 43.3119 13.1575 43.3284 13.198 43.3554C13.246 43.5039 13.2955 43.6538 13.3435 43.8023C13.2445 43.9687 13.144 43.8143 13.045 43.8023C12.9626 43.7573 12.8606 43.6568 12.8006 43.6778C12.2922 43.8473 11.9263 43.8353 11.9188 43.1515C11.9173 43.0555 11.7299 42.9625 11.5859 42.8291C12.2038 42.7631 12.4572 43.5684 13.066 43.3074Z" fill="#E32328"/>
<path d="M6.74599 48.1434C6.64701 48.1374 6.54804 48.1179 6.45056 48.1284C6.13415 48.1599 5.68727 47.908 5.5508 48.3653C5.40984 48.8422 5.9497 48.8272 6.18664 49.0342C5.59429 49.1286 5.30337 48.7777 5.09943 48.2994C4.92847 48.1284 4.90148 47.92 4.94047 47.6935C4.97796 47.638 5.01395 47.5826 5.04994 47.5286C5.23439 47.9305 5.50732 48.1074 5.97969 48.0114C6.22263 47.9619 6.52704 47.902 6.74599 48.1434Z" fill="#E42426"/>
<path d="M16.9448 50.8442C17.0797 50.9492 17.1142 51.0962 17.1127 51.2566C17.1727 51.4726 17.0782 51.6435 16.9508 51.8055C16.8278 51.909 16.7333 52.0634 16.5369 52.0364C16.4274 51.7395 16.3194 51.4426 16.21 51.1457C16.4784 51.0992 16.6463 50.8143 16.9448 50.8442Z" fill="#E1242A"/>
<path d="M11.9951 44.2506C12.1871 44.3316 12.2426 43.9972 12.4435 44.1021C12.9834 44.4665 12.6729 45.1519 12.9864 45.6212C12.6399 45.1699 12.451 44.6105 11.9951 44.2506Z" fill="#E32428"/>
<path d="M13.9438 51.7471C13.9708 51.8565 14.0578 52.0095 14.0143 52.0695C13.9153 52.2075 13.8358 52.044 13.7414 51.999C13.6214 51.9405 13.4774 51.9285 13.344 51.897C13.245 51.7111 13.1445 51.5251 13.0186 51.2897C13.4834 51.2192 13.7549 51.4007 13.9438 51.7471Z" fill="#E72426"/>
<path d="M5.44697 50.7196C5.38099 50.7121 5.31501 50.7046 5.24902 50.6956C5.77538 50.2563 6.55817 50.3912 7.04404 51.0061C6.51918 50.8711 6.04231 50.4722 5.44697 50.7196Z" fill="#E5252D"/>
<path d="M11.0025 45.1682C11.1224 45.6241 11.3819 45.8775 11.9667 46.0365C11.0369 46.0905 10.7835 45.828 11.0025 45.1682Z" fill="#E22327"/>
<path d="M6.2986 47.6982C6.09765 47.5992 5.8982 47.4987 5.69726 47.3997C5.61028 47.2993 5.60878 47.2003 5.70026 47.1013C6.01967 47.2663 6.33159 47.4432 6.71399 47.4057C6.91193 47.3862 7.0259 47.4957 7.0454 47.6967C6.79796 47.8136 6.54753 47.8121 6.2986 47.6982Z" fill="#EB262E"/>
<path d="M16.7946 48.8946C17.0241 49.1705 17.3105 49.4224 17.219 49.8423C16.9266 49.5799 16.6627 49.2935 16.4707 48.9471C16.5487 48.7431 16.6791 48.8691 16.7946 48.8946Z" fill="#DA242E"/>
<path d="M9.89681 52.2043C9.73635 52.6002 10.2912 53.1071 9.58789 53.5359C9.85782 53.0066 9.60289 52.6122 9.59689 52.1968C9.70036 52.1083 9.79933 52.1083 9.89681 52.2043Z" fill="#ED252E"/>
<path d="M8.53169 53.2389C8.63066 52.9165 8.42372 52.6511 8.36523 52.3572C8.62616 52.4592 8.83611 52.6241 8.91709 52.897C9.02806 53.2629 8.8841 53.3769 8.53169 53.2389Z" fill="#E92632"/>
<path d="M4.94166 47.6936C5.05263 47.8811 5.12311 48.0775 5.10061 48.2994C4.90567 48.4104 4.95965 48.8168 4.59375 48.7268C4.62074 48.5409 4.64774 48.3549 4.67323 48.1675C4.7617 48.01 4.85168 47.8511 4.94166 47.6936Z" fill="#DE262E"/>
<path d="M10.7861 49.0659C10.99 49.1574 11.146 49.2999 11.2569 49.4948C11.2524 49.6193 11.2 49.7182 11.095 49.7902C10.8041 49.6298 10.5461 49.4543 10.7861 49.0659Z" fill="#D2252A"/>
<path d="M13.0784 52.0754C13.0574 52.3649 13.0379 52.6543 13.0169 52.9437C12.732 52.6333 12.4425 52.3214 13.0784 52.0754Z" fill="#DA252C"/>
<path d="M8.39872 47.5557C8.63116 47.5992 8.8606 47.6456 8.97907 47.8886C8.89359 47.5887 8.1303 48.4719 8.39872 47.5557Z" fill="#DE2426"/>
<path d="M9.89671 52.2045C9.79774 52.2015 9.69727 52.2 9.59829 52.197C9.59679 52.0965 9.59529 51.996 9.59379 51.8956C9.59079 51.5912 9.74076 51.4397 10.0467 51.4442C9.99569 51.6976 9.9462 51.9511 9.89671 52.2045Z" fill="#DA2827"/>
<path d="M16.1708 51.0363C16.0313 50.7739 15.8934 50.51 15.7539 50.2476C16.1993 50.348 16.3627 50.5985 16.1708 51.0363Z" fill="#E1242A"/>
<path d="M10.0469 51.4442C9.84597 51.5447 9.6975 51.6976 9.59403 51.8956C9.31811 51.5447 9.7035 51.4472 9.85346 51.2957C9.99443 51.1533 10.0289 51.3272 10.0469 51.4442Z" fill="#ED282E"/>
<path d="M13.3439 51.8984C13.4384 52.1009 13.8538 52.1504 13.6333 52.5043C13.4834 52.3108 13.3274 52.1264 13.0635 52.0904C13.089 51.9284 13.2104 51.9044 13.3439 51.8984Z" fill="#DA252C"/>
<path d="M7.79386 52.5149C7.97531 52.6184 8.14476 52.7338 8.19425 52.9558C7.76537 53.0772 7.65739 52.9078 7.79386 52.5149Z" fill="#E12832"/>
<path d="M6.46082 53.6772C6.61378 53.8287 6.76524 53.9817 6.9182 54.1331C6.44132 54.3071 6.28686 54.1571 6.46082 53.6772Z" fill="#DE242E"/>
<path d="M8.47935 48.4735C8.42536 48.583 8.32789 48.5965 8.23041 48.5695C8.13594 48.5425 8.03847 48.481 8.08195 48.3671C8.09695 48.3281 8.21242 48.3086 8.2799 48.3116C8.37738 48.3161 8.48835 48.3296 8.47935 48.4735Z" fill="#DE2527"/>
<path d="M12.3234 45.7515C12.3774 45.465 12.1614 45.2671 12.085 45.0242C12.3924 45.1906 12.7508 45.3421 12.3234 45.7515Z" fill="#D4252F"/>
<path d="M8.84277 49.9536C8.95824 49.9386 9.08271 49.9401 9.13969 49.8066C9.26866 49.8906 9.5071 49.9641 9.27616 50.15C9.06022 50.324 8.94475 50.1156 8.84277 49.9536Z" fill="#7D181B"/>
<path d="M16.1849 49.0493C16.1354 49.3672 16.5747 49.4752 16.5088 49.8006C16.2523 49.6147 15.8639 49.4842 16.1849 49.0493Z" fill="#E1242A"/>
<path d="M14.8438 51.4487C14.8978 51.6212 15.1078 51.8131 14.8873 51.9631C14.7539 52.0546 14.7164 51.8626 14.6924 51.7472C14.6969 51.6242 14.7224 51.5117 14.8438 51.4487Z" fill="#DE2527"/>
<path d="M14.3461 51.3136C14.2142 50.9612 14.2247 50.7498 14.3086 50.4648C14.3971 50.7438 14.5081 50.9477 14.3461 51.3136Z" fill="#ED2532"/>
<path d="M9.44629 44.7019C9.54526 44.7019 9.64424 44.7034 9.74471 44.7034C9.85118 44.7859 9.95765 44.8684 10.0761 44.9598C9.7777 45.0498 9.57376 44.9658 9.44629 44.7019Z" fill="#EC242F"/>
<path d="M11.0967 49.7903C11.1012 49.6658 11.1327 49.5549 11.2586 49.4949C11.3486 49.5998 11.4401 49.7048 11.5301 49.8083C11.3801 49.9043 11.2361 49.8788 11.0967 49.7903Z" fill="#D1242D"/>
<path d="M14.5435 52.047C14.482 52.1115 14.3905 52.2404 14.3635 52.2284C14.1341 52.125 14.2931 51.9075 14.2436 51.7471C14.515 51.6766 14.35 52.041 14.5435 52.047Z" fill="#E72426"/>
<path d="M4.80021 52.3468C4.90518 52.3228 5.00566 52.1038 5.05814 52.2073C5.16611 52.4202 5.08663 52.6227 4.79271 52.6467C4.71024 52.5447 4.71473 52.4457 4.80021 52.3468Z" fill="#D82827"/>
<path d="M6.30176 46.9665C6.58968 46.812 6.79063 47.103 7.04556 47.112C6.73214 47.3984 6.5267 47.13 6.30176 46.9665Z" fill="#EB262E"/>
<path d="M12.1035 52.5103C12.168 52.4773 12.2265 52.4263 12.285 52.4233C12.4154 52.4173 12.4349 52.5223 12.4064 52.6153C12.3914 52.6633 12.315 52.6918 12.267 52.7293C12.2295 52.6783 12.1905 52.6273 12.1035 52.5103Z" fill="#DE2327"/>
<path d="M10.928 52.527C10.769 52.4115 10.6281 52.2826 10.6221 52.0651C10.967 52.0576 10.949 52.2915 10.928 52.527Z" fill="#CA2229"/>
<path d="M5.7023 47.1012C5.7008 47.2002 5.6993 47.3007 5.6993 47.3997C5.57633 47.3847 5.42937 47.3727 5.45637 47.2047C5.47286 47.0877 5.54334 46.9528 5.7023 47.1012Z" fill="#E42426"/>
<path d="M6.29785 47.6983C6.54679 47.6983 6.79722 47.6983 7.04615 47.6968C6.79722 47.9262 6.54828 47.9232 6.29785 47.6983Z" fill="#E42426"/>
<path d="M12.3673 54.8318C12.4633 55.0627 12.4783 55.2157 12.3718 55.3716C12.2578 55.2157 12.2773 55.0627 12.3673 54.8318Z" fill="#DF2727"/>
<path d="M4.80059 52.347C4.79909 52.4474 4.79609 52.5479 4.79459 52.6484C4.7556 52.6469 4.71511 52.6469 4.67612 52.6469C4.65663 52.5659 4.63864 52.4834 4.61914 52.4025C4.64313 52.281 4.66713 52.161 4.69112 52.0396C4.85458 52.0965 4.7751 52.2405 4.80059 52.347Z" fill="#ED2530"/>
<path d="M47.9968 16.9804C47.7929 16.6925 47.7224 16.2426 47.208 16.3326C47.2095 16.2381 47.211 16.1451 47.2125 16.0506L47.2155 16.0581C47.4554 15.8677 47.7869 15.8302 47.9923 15.5858C48.0838 15.4508 48.1782 15.3173 48.2772 15.1869C48.5187 15.0234 48.7586 14.86 49 14.698C49.3884 14.74 49.2595 14.9814 49.192 15.1989C49.015 15.7282 48.6251 16.1151 48.2922 16.541C48.1543 16.586 48.1318 16.697 48.1318 16.8214C48.0838 16.8739 48.0403 16.9264 47.9968 16.9804Z" fill="#754C22"/>
<path d="M31.1833 41.8526C30.8294 42.151 30.477 42.4479 30.123 42.7463C30.405 42.1495 30.8818 41.7116 31.3332 41.2512C31.2822 41.4507 31.2328 41.6516 31.1833 41.8526Z" fill="#6F4927"/>
<path d="M49.1895 15.1973C49.1685 15.0144 49.1985 14.8119 48.999 14.6964C49.1565 14.488 49.3304 14.302 49.6034 14.2466C49.7488 14.2181 49.8223 14.2601 49.7773 14.4205C49.5809 14.6799 49.3844 14.9379 49.1895 15.1973Z" fill="#6A4B25"/>
<path d="M48.2733 15.1853C48.2223 15.3293 48.1728 15.4732 48.1218 15.6172C47.9659 15.8496 47.7694 15.9156 47.5205 15.7656C47.7709 15.5737 48.0229 15.3788 48.2733 15.1853Z" fill="#6B4C2E"/>
<path d="M47.5213 15.7671C47.7402 15.7926 47.9352 15.7221 48.1226 15.6187C47.9847 16.106 47.5108 15.9006 47.2139 16.058C47.2709 15.9126 47.3788 15.8226 47.5213 15.7671Z" fill="#754C27"/>
<path d="M33.1348 39.4534C32.9864 39.5044 32.8379 39.5554 32.6895 39.6064C32.8304 39.4489 32.9699 39.293 33.1093 39.1355L33.1378 39.1595C33.2218 39.2585 33.2218 39.3559 33.1348 39.4534Z" fill="#734D29"/>
<path d="M49.7745 14.422C49.7161 14.3635 49.6591 14.3065 49.6006 14.248C49.6846 14.1311 49.8195 13.9346 49.92 14.0246C50.091 14.1731 49.89 14.308 49.7745 14.422Z" fill="#573F27"/>
<path d="M48.1282 16.82C47.9993 16.7465 47.9738 16.643 48.0652 16.5276C48.1387 16.4331 48.2197 16.4301 48.2902 16.5395C48.2347 16.6325 48.1807 16.727 48.1282 16.82Z" fill="#754C27"/>
<path d="M16.7929 51.7517C16.8994 51.5868 17.0059 51.4218 17.1123 51.2554C17.2233 51.7772 17.9431 52.3051 17.0943 52.815C16.9909 52.7355 16.8589 52.725 16.7449 52.674C16.7119 52.5645 16.6805 52.4551 16.6475 52.3456C16.7404 52.1581 16.6505 51.9272 16.7929 51.7517Z" fill="#DF2428"/>
<path d="M18.2912 50.2488C18.3751 50.6432 18.6526 51.0871 18.0167 51.2925C17.9208 51.1635 17.8173 51.0376 17.8338 50.8606C17.9867 50.6567 18.1382 50.4527 18.2912 50.2488Z" fill="#E82428"/>
<path d="M16.7471 52.6738C16.915 52.5959 17.0935 52.4894 17.0965 52.8148C16.858 53.0652 16.7951 52.8883 16.7471 52.6738Z" fill="#DC2634"/>
</svg>
