<svg width="30" height="30" viewBox="0 0 30 30" fill="none" xmlns="http://www.w3.org/2000/svg">
<circle cx="15.4182" cy="15.4069" r="14.439" fill="url(#paint0_linear_1775_3747)"/>
<path fill-rule="evenodd" clip-rule="evenodd" d="M15.6137 26.7988C9.20968 26.7988 4 21.6852 4 15.3996C4 9.11354 9.20968 4 15.6137 4C22.0177 4 27.2278 9.11354 27.2278 15.3996C27.2278 21.6852 22.0177 26.7988 15.6137 26.7988Z" fill="url(#paint1_linear_1775_3747)"/>
<path fill-rule="evenodd" clip-rule="evenodd" d="M19.4403 19.7815C19.4916 20.5105 18.7559 21.0373 18.0823 20.7539L15.9701 19.8653L13.8496 20.7344C13.1735 21.0116 12.4428 20.4782 12.5006 19.7498L12.685 17.4289L11.1949 15.6377C10.7306 15.0796 11.0129 14.228 11.7187 14.0579L13.9618 13.5171L15.1708 11.5557C15.5558 10.9312 16.4652 10.9353 16.8444 11.5633L18.0357 13.536L20.2739 14.0974C20.9781 14.274 21.2526 15.1282 20.7832 15.682L19.277 17.4593L19.4403 19.7815Z" fill="white"/>
<defs>
<linearGradient id="paint0_linear_1775_3747" x1="12.3519" y1="-2.76256" x2="1.57146" y2="26.5715" gradientUnits="userSpaceOnUse">
<stop stop-color="#6F480D"/>
<stop offset="1" stop-color="#805609"/>
</linearGradient>
<linearGradient id="paint1_linear_1775_3747" x1="14.492" y1="-0.20969" x2="0.918406" y2="17.9424" gradientUnits="userSpaceOnUse">
<stop stop-color="#482A0D"/>
<stop offset="1" stop-color="#4E2E03"/>
</linearGradient>
</defs>
</svg>
