<svg width="101" height="90" viewBox="0 0 101 90" fill="none" xmlns="http://www.w3.org/2000/svg">
<path d="M93.0592 12.5714L50.1908 52.068L36.375 38.1462L30 44.5747L51.2467 66L100.5 19L93.0592 12.5714Z" fill="#008000"/>
<circle cx="51" cy="47" r="36.5" stroke="#008000" stroke-width="11"/>
<path d="M56.417 45.4952C46.0989 34.9732 35.7791 24.4497 25.4627 13.9259C23.9613 12.3935 22.5334 10.7043 20.1676 10.4865C18.9955 10.3775 17.707 10.4052 16.5607 10.7656C15.0188 11.2528 13.8465 10.9895 12.7792 10.0822C11.4042 8.91562 10.0791 7.68641 8.66125 6.57522C8.05362 6.09803 7.29053 5.78239 6.54298 5.52592C6.21404 5.41428 5.6067 5.50574 5.3811 5.74495C5.15715 5.9857 5.0754 6.64134 5.2372 6.91377C5.90702 8.04196 6.62061 9.15664 7.45691 10.1576C8.44178 11.3399 9.69206 12.2999 10.582 13.5466C11.0456 14.1962 11.2959 15.3088 11.0872 16.122C10.2469 19.4006 11.013 21.9824 13.329 24.0125C19.5506 29.4624 25.7825 34.9014 32.0109 40.344C39.173 46.6022 46.335 52.8637 53.5006 59.1182C62.6485 67.1054 71.8 75.0856 80.9497 83.071C81.8571 83.8617 82.7782 84.638 83.6395 85.4776C84.3187 86.1388 85.156 86.2539 85.8548 85.6084C87.2369 84.3336 88.5574 82.9631 89.7541 81.5134C90.4261 80.6988 90.2194 79.8294 89.4932 79.0965C84.3812 73.9467 79.2983 68.7695 74.2102 63.5943C68.2797 57.5629 62.3559 51.5242 56.4288 45.4892C56.4221 45.4897 56.4187 45.4934 56.417 45.4952ZM48.9947 48.6952C48.916 51.528 50.6802 53.3836 51.6742 55.6118C49.4163 53.77 47.257 51.8499 45.0361 49.9985C41.3247 46.9023 38.5378 43.168 37.1999 38.3248C36.8459 37.0459 36.1416 35.8852 35.521 34.7179C35.1922 34.0996 34.6959 33.5801 34.0932 32.7721C35.2342 36.3408 36.2652 39.5559 37.2929 42.7712C37.1467 42.8868 36.9989 43.0007 36.8511 43.1181C35.1635 41.5266 33.5445 39.8558 31.7764 38.3595C27.6103 34.8379 24.4139 30.5873 22.26 25.4812C21.8146 24.4243 21.1055 23.5022 20.5181 22.5168C20.4503 22.5624 20.3858 22.6077 20.318 22.6533C21.0577 25.0492 21.7974 27.4452 22.5371 29.8411C22.4206 29.8955 22.3024 29.9518 22.1842 30.0048C19.3499 27.5474 16.8115 24.8453 15.5453 21.1002C15.4372 21.149 15.3292 21.1978 15.2229 21.2447C15.469 22.3157 15.7151 23.3867 16.0105 24.6719C15.0337 23.7507 14.1081 23.0352 13.3765 22.1501C12.2008 20.7263 11.5972 18.9621 12.2132 17.0264C12.9238 14.793 12.3374 13.1718 10.945 11.7113C10.6715 11.4225 10.5754 10.9587 10.5144 10.8293C9.67395 10.0366 8.99926 9.40035 8.32622 8.7656C9.71344 8.90289 10.0793 10.508 11.4131 10.725C11.3199 10.9521 11.2266 11.1792 11.1299 11.4166C11.8087 11.598 12.4624 11.6974 13.0479 11.9415C14.2654 12.4529 15.4662 12.4623 16.8141 11.9736C18.5749 11.3333 20.2709 11.505 21.7504 12.4586C24.4585 14.2046 25.7519 16.9343 26.541 20.0343C26.91 21.4848 27.2579 22.9839 27.9159 24.2858C29.1755 26.7783 30.1455 29.3674 30.6764 32.1656C30.7217 32.4103 30.8124 32.6431 30.8795 32.881C31.1617 32.4864 31.2041 32.1257 31.1962 31.769C31.1445 29.0119 30.4292 26.4849 29.4149 24.0217C28.7195 22.3319 28.3283 20.4906 27.8002 18.7189C31.1625 21.705 34.2555 24.7727 37.2838 27.9025C40.7691 31.508 43.1483 35.8028 44.1918 40.8957C44.2923 41.3911 44.4483 41.8703 44.5773 42.3584C45.1349 39.5801 44.3998 37.1201 43.7115 34.9952C46.1542 37.2989 48.7563 39.7393 51.3448 42.1976C55.2939 45.946 57.8359 50.5484 58.739 56.1389C58.7657 56.3079 58.8681 56.4558 58.9369 56.6131C59.3316 54.0339 58.8406 51.6603 58.0239 49.0205C61.559 52.6422 64.8517 56.0146 68.0935 59.3356C66.3024 61.2347 64.6412 62.9962 62.8228 64.9243C61.7658 63.0885 60.7491 61.3217 59.7325 59.5548C59.6651 59.5803 59.5943 59.606 59.5269 59.6314C59.8713 60.8876 60.2175 62.1419 60.576 63.4456C55.3413 59.6626 52.1239 54.2931 48.9947 48.6952ZM69.1132 60.2836C69.719 60.8548 70.1101 61.1998 70.4757 61.5719C75.947 67.1497 81.3979 72.7458 86.8863 78.3055C89.3748 80.8236 89.38 81.1503 86.4231 83.7955C86.2391 83.961 86.0274 84.0934 85.8402 84.2558C85.1899 84.817 84.6999 84.7315 84.1081 84.2145C77.9559 78.8095 71.7728 73.4404 65.6018 68.0553C64.959 67.4937 64.3557 66.887 63.5759 66.1516C65.4439 64.1743 67.2401 62.2697 69.1132 60.2836Z" fill="#682A01"/>
<path d="M53.6212 53.0586C57.2129 59.0926 60.8858 64.8917 66.6029 69.1331C66.1571 67.747 65.7268 66.4134 65.2983 65.0779C65.3681 65.0547 65.4414 65.0314 65.5112 65.0082C66.6754 66.9142 67.8395 68.8167 69.05 70.8007C70.8684 68.8725 72.5314 67.1093 74.3207 65.212C70.7284 61.5603 67.0797 57.8522 63.1622 53.8699C64.1591 56.683 64.8 59.1947 64.5192 61.8813C64.4385 61.7128 64.3245 61.5505 64.2859 61.3736C63.0432 55.4629 60.1226 50.5034 55.7618 46.3668C52.9054 43.6557 50.0335 40.9609 47.3352 38.4161C48.1715 40.6807 49.0746 43.2991 48.6305 46.1844C48.4673 45.6676 48.2796 45.155 48.148 44.6302C46.7846 39.2323 44.05 34.6057 40.186 30.6431C36.8306 27.2012 33.4065 23.8213 29.7045 20.5182C30.3518 22.4059 30.8601 24.3575 31.683 26.1643C32.8809 28.8006 33.7648 31.4866 33.9642 34.383C33.9892 34.7558 33.965 35.1336 33.6877 35.5329C33.6027 35.2781 33.4968 35.031 33.4364 34.772C32.7311 31.8094 31.5735 29.0433 30.1153 26.3635C29.3536 24.9638 28.9088 23.3733 28.4443 21.8327C27.4509 18.5402 25.9449 15.6098 22.9973 13.638C21.3869 12.5609 19.5887 12.2928 17.7643 12.8731C16.3675 13.3158 15.1002 13.2436 13.7893 12.6441C13.1606 12.3559 12.464 12.216 11.7385 11.994C11.83 11.7482 11.9148 11.5166 12.0014 11.2833C10.583 10.9865 10.1155 9.2821 8.64313 9.06794C9.38612 9.76865 10.1309 10.4711 11.0587 11.3461C11.1299 11.4885 11.2535 11.9783 11.5587 12.2936C13.1053 13.8994 13.808 15.6304 13.1724 17.9345C12.623 19.9329 13.3495 21.8165 14.6654 23.3692C15.4832 24.3355 16.4968 25.1341 17.5751 26.1509C17.1968 24.7876 16.8816 23.6514 16.5664 22.5153C16.6779 22.4697 16.7893 22.4242 16.899 22.3804C18.4292 26.3744 21.2473 29.3403 24.365 32.0649C24.4851 32.0138 24.6069 31.9609 24.7288 31.9115C23.8241 29.36 22.9195 26.8086 22.0148 24.2571C22.084 24.2127 22.1496 24.1685 22.2188 24.1242C22.8896 25.1883 23.6856 26.1923 24.2103 27.3241C26.7475 32.7916 30.3385 37.4178 34.9182 41.326C36.8628 42.9854 38.6558 44.8236 40.5187 46.5805C40.6669 46.4669 40.817 46.355 40.9669 46.2396C39.7141 42.812 38.4613 39.3844 37.0725 35.5854C37.7502 36.4642 38.2991 37.0331 38.6798 37.7004C39.395 38.957 40.1983 40.211 40.6381 41.5708C42.299 46.7187 45.4364 50.7801 49.5108 54.2221C51.9482 56.2811 54.3276 58.4053 56.8052 60.4543C55.6427 58.0637 53.6852 56.0259 53.6212 53.0586ZM31.26 23.1529C31.3831 23.0841 31.5062 23.0153 31.6275 22.9448C37.1254 28.9653 44.0291 33.8909 46.6763 42.3932C46.3764 42.261 46.2489 42.24 46.1745 42.1664C43.6721 39.6318 41.209 37.0554 38.6637 34.5625C35.6631 31.6231 32.8116 28.6017 31.6334 24.4089C31.5171 23.9876 31.3851 23.5721 31.26 23.1529ZM49.0685 40.8623C54.758 44.7627 62.4701 54.7889 62.3567 58.075C62.2838 58.0543 62.1869 58.0553 62.1397 58.0074C58.0713 53.9855 54.0063 49.9601 49.9499 45.929C49.7848 45.7665 49.6383 45.5188 49.6071 45.2941C49.4155 43.8671 49.2555 42.4357 49.0685 40.8623ZM27.7305 23.1523C26.3803 21.7557 24.9338 20.4359 23.7041 18.9406C21.9792 16.8413 20.0515 15.4 17.1495 15.5872C16.1082 15.6529 15.1302 15.1688 14.7585 14.0307C16.1646 13.7887 17.5316 13.5337 18.9053 13.3261C19.3071 13.2667 19.7329 13.3053 20.1414 13.3551C22.067 13.5824 23.4872 14.6034 24.7024 16.085C26.3944 18.1429 27.5008 20.4224 27.7305 23.1523ZM65.0161 57.2447C67.3048 59.4033 69.6379 61.5693 71.9298 63.7754C73.839 65.6102 73.5513 65.1711 71.7634 66.7001C71.7084 66.7475 71.6133 66.7467 71.3861 66.8133C70.1249 65.6238 68.929 64.2015 67.4558 63.1751C65.2144 61.6125 65.2274 59.3478 65.0161 57.2447Z" fill="white"/>
<path d="M75.4474 66.2574C73.5726 68.2453 71.7781 70.1481 69.9152 72.1234C70.4643 72.6412 70.8845 73.0751 71.3457 73.4656C75.7625 77.1996 80.1934 80.9162 84.5947 84.6665C85.0166 85.0268 85.4183 85.0256 86.0509 84.4477C86.2328 84.2803 86.431 84.1351 86.6106 83.9655C89.4955 81.2524 89.5375 80.9735 87.8083 79.1681C83.9901 75.1871 80.2095 71.1662 76.4129 67.1645C76.1544 66.9002 75.8737 66.6594 75.4474 66.2574ZM75.1197 70.3481C75.1086 70.3205 75.0957 70.2947 75.0846 70.2671C75.5494 69.7741 76.0143 69.2812 76.4792 68.7883C76.5349 68.8546 76.5889 68.9226 76.6446 68.9889C76.1369 69.4414 75.6292 69.8938 75.1197 70.3481ZM73.9455 69.001C73.9029 68.9301 73.8592 68.8581 73.8167 68.7871C74.3206 68.355 74.8244 67.9228 75.3295 67.4918C75.3768 67.5878 75.4253 67.6849 75.4727 67.7809C74.9628 68.1869 74.4541 68.5939 73.9455 69.001Z" fill="white"/>
<path d="M31.2601 23.1529C31.3851 23.5721 31.5154 23.9894 31.6352 24.4106C32.8152 28.6016 35.665 31.6248 38.6656 34.5642C41.2108 37.0571 43.6704 39.6336 46.1764 42.1681C46.2508 42.2417 46.3783 42.2627 46.6782 42.3949C44.0291 33.8909 37.1272 28.967 31.6294 22.9465C31.5044 23.0135 31.3832 23.0841 31.2601 23.1529Z" fill="#682A01"/>
<path d="M49.0685 40.8623C49.2555 42.4322 49.4137 43.8654 49.6088 45.2923C49.6401 45.517 49.7864 45.7611 49.9517 45.9272C54.0081 49.9618 58.073 53.9837 62.1415 58.0056C62.1887 58.0535 62.2856 58.0525 62.3601 58.0714C62.4703 54.7924 54.7564 44.7645 49.0685 40.8623Z" fill="#682A01"/>
<path d="M27.7305 23.1523C27.5026 20.4241 26.3944 18.1429 24.706 16.0884C23.489 14.6051 22.0706 13.5858 20.145 13.3585C19.7365 13.3088 19.3107 13.2701 18.9089 13.3295C17.5353 13.5371 16.1683 13.7921 14.7622 14.0342C15.132 15.1705 16.1119 15.6563 17.1531 15.5906C20.0551 15.4034 21.981 16.8431 23.7077 18.944C24.9338 20.4359 26.3802 21.7521 27.7305 23.1523Z" fill="#682A01"/>
<path d="M65.0161 57.2448C65.2258 59.3497 65.2145 61.6125 67.4559 63.1751C68.9273 64.1999 70.1231 65.6221 71.3862 66.8133C71.6133 66.7468 71.7085 66.7475 71.7635 66.7001C73.5513 65.1711 73.8374 65.6121 71.9298 63.7754C69.6379 61.5694 67.3067 59.405 65.0161 57.2448Z" fill="#682A01"/>
<path d="M76.1743 71.3427C76.7062 70.913 77.2398 70.4816 77.7717 70.0519C77.6807 69.9523 77.5914 69.851 77.5004 69.7515C77.0355 70.2444 76.5706 70.7373 76.1058 71.2302C76.128 71.2683 76.152 71.3046 76.1743 71.3427Z" fill="#682A01"/>
<path d="M74.2698 69.3068C74.8157 68.9349 75.3635 68.5647 75.9094 68.1927C75.8209 68.0579 75.7306 67.9213 75.642 67.7865C75.1094 68.1915 74.5768 68.5965 74.0423 68.9998C74.1175 69.1016 74.1928 69.2034 74.2698 69.3068Z" fill="#682A01"/>
</svg>
