<svg width="86" height="85" viewBox="0 0 86 85" fill="none" xmlns="http://www.w3.org/2000/svg">
<path d="M82.8001 57.2807C82.8001 57.2807 68.5425 78.5156 55.7117 82.5755C46.2635 85.5661 36.8982 85.052 27.7011 81.4949C10.0664 74.6697 -2.16889 56.4726 0.702268 38.5C4.07351 39.4255 8.47851 40.0119 12.083 41C11.7317 54.531 17.4203 64.231 29.6361 70.701C34.8207 50.7382 39.9556 30.9583 45.0884 11.1967C37.5299 9.68302 22.987 11.8063 16.0164 26.5748C12.5704 25.7105 9.32432 24.4338 5.92678 23.5793C10.908 8.57029 29.0234 -3.749 52.2261 1.17163C75.7899 6.16897 87.9758 28.6414 85.0052 47.6583C81.2595 46.7706 74.8221 44.5047 74.8221 44.5047L74.8109 43.4028C74.8109 43.4028 72.7152 28.6261 67.8878 22.5375C64.9101 18.777 61.2111 15.8823 57.0717 14.0542C51.9038 33.973 46.7643 53.7812 41.6313 73.5642C53.9858 75.0504 67.875 65.9317 71.9201 54.7524C70.0843 54.3315 82.8001 57.2807 82.8001 57.2807Z" fill="#C50000"/>
</svg>
