<svg width="33" height="25" viewBox="0 0 33 25" fill="none" xmlns="http://www.w3.org/2000/svg">
<path d="M21.7036 13.4249C21.7036 14.7492 21.1776 16.0192 20.2412 16.9555C19.3048 17.8919 18.0348 18.418 16.7106 18.418C15.3863 18.418 14.1163 17.8919 13.18 16.9555C12.2436 16.0192 11.7175 14.7492 11.7175 13.4249C11.7175 12.1007 12.2436 10.8307 13.18 9.89431C14.1163 8.95794 15.3863 8.43188 16.7106 8.43188C18.0348 8.43188 19.3048 8.95794 20.2412 9.89431C21.1776 10.8307 21.7036 12.1007 21.7036 13.4249V13.4249Z" fill="black"/>
<path d="M4.72735 4.43755C3.66796 4.43755 2.65196 4.85839 1.90285 5.60749C1.15375 6.35659 0.73291 7.3726 0.73291 8.43199L0.73291 20.4153C0.73291 21.4747 1.15375 22.4907 1.90285 23.2398C2.65196 23.9889 3.66796 24.4097 4.72735 24.4097H28.694C29.7533 24.4097 30.7693 23.9889 31.5184 23.2398C32.2675 22.4907 32.6884 21.4747 32.6884 20.4153V8.43199C32.6884 7.3726 32.2675 6.35659 31.5184 5.60749C30.7693 4.85839 29.7533 4.43755 28.694 4.43755H26.3532C25.2939 4.43732 24.2781 4.01633 23.5292 3.26718L21.8755 1.61348C21.1265 0.864331 20.1107 0.443341 19.0514 0.443115H14.3699C13.3106 0.443341 12.2948 0.864331 11.5458 1.61348L9.89215 3.26718C9.14322 4.01633 8.12739 4.43732 7.06808 4.43755H4.72735ZM5.72595 8.43199C5.46111 8.43199 5.20711 8.32677 5.01983 8.1395C4.83256 7.95222 4.72735 7.69822 4.72735 7.43338C4.72735 7.16853 4.83256 6.91453 5.01983 6.72725C5.20711 6.53998 5.46111 6.43477 5.72595 6.43477C5.9908 6.43477 6.2448 6.53998 6.43208 6.72725C6.61935 6.91453 6.72456 7.16853 6.72456 7.43338C6.72456 7.69822 6.61935 7.95222 6.43208 8.1395C6.2448 8.32677 5.9908 8.43199 5.72595 8.43199ZM23.7009 13.425C23.7009 15.279 22.9644 17.057 21.6535 18.3679C20.3426 19.6788 18.5646 20.4153 16.7107 20.4153C14.8567 20.4153 13.0787 19.6788 11.7678 18.3679C10.4569 17.057 9.72039 15.279 9.72039 13.425C9.72039 11.5711 10.4569 9.7931 11.7678 8.48217C13.0787 7.17124 14.8567 6.43477 16.7107 6.43477C18.5646 6.43477 20.3426 7.17124 21.6535 8.48217C22.9644 9.7931 23.7009 11.5711 23.7009 13.425V13.425Z" fill="black"/>
</svg>
