<svg width="37" height="37" viewBox="0 0 37 37" fill="none" xmlns="http://www.w3.org/2000/svg">
<path fill-rule="evenodd" clip-rule="evenodd" d="M18.145 36.29C8.12329 36.29 0 28.1667 0 18.145C0 8.12329 8.12329 0 18.145 0C28.1667 0 36.29 8.12329 36.29 18.145C36.29 28.1667 28.1667 36.29 18.145 36.29ZM27.2107 18.3934L18.7098 4.53625L10.2066 18.3945L18.7098 23.3311L27.2107 18.3934ZM27.2175 19.9776L18.7098 24.912L10.2066 19.9788L18.7098 31.7481L27.2175 19.9776Z" fill="white"/>
<path d="M18.7098 4.53625V14.5954L27.2118 18.3945L18.7098 4.53625ZM18.7098 24.9131V31.7481L27.2175 19.9776L18.7098 24.9131Z" fill="black" fill-opacity="0.298"/>
<path d="M18.7098 23.3311L27.2118 18.3945L18.7098 14.5977V23.3311Z" fill="black" fill-opacity="0.801"/>
<path d="M10.2065 18.3945L18.7097 23.3311V14.5977L10.2065 18.3945Z" fill="black" fill-opacity="0.298"/>
</svg>
