<svg width="100" height="42" viewBox="0 0 100 42" fill="none" xmlns="http://www.w3.org/2000/svg">
<path d="M15.0885 10.3839C14.491 10.4094 14.025 10.428 13.5548 10.4489C13.6392 10.5522 13.742 10.6761 13.9215 10.8936C12.8722 11.4061 11.8562 11.8829 10.8586 12.391C9.58092 13.0402 8.30971 13.6915 7.05477 14.3806C6.61204 14.6226 6.24118 14.7014 5.80787 14.3821C5.2773 13.9875 4.71448 13.6362 4.18177 13.2481C4.06832 13.1675 3.93632 13.0017 3.94034 12.8808C3.98132 11.9848 3.77308 11.0712 4.22722 10.1966C4.48382 9.70262 4.60649 9.13559 4.75078 8.59009C4.80317 8.39889 4.71957 8.17354 4.74929 7.97485C4.80549 7.5764 4.87678 7.17576 4.98263 6.79011C5.10454 6.35585 5.25343 5.9269 5.43364 5.5119C5.61705 5.08717 5.85446 4.68387 6.06595 4.27201C6.16579 4.07851 6.31636 3.89457 6.36655 3.68826C6.59622 2.76473 6.84814 2.56755 7.81131 2.54422C7.97417 2.54051 8.16914 2.42876 8.28209 2.3043C8.60375 1.95041 8.95084 1.85656 9.41071 2.00848C9.73132 2.1144 10.0908 2.22236 10.4153 2.18579C11.0117 2.12036 11.2927 2.357 11.5323 2.88195C12.6676 5.3277 13.8363 7.74854 15.0885 10.3839Z" fill="black"/>
<path d="M44.9021 26.5217C45.4711 26.7097 46.0361 26.91 46.6071 27.0816C47.3192 27.2931 48.0464 27.4586 48.7535 27.6854C50.4394 28.2288 52.1061 28.8303 53.799 29.342C55.5614 29.8767 57.3548 29.8613 59.1676 29.6281C60.886 29.4044 62.625 29.3201 64.3558 29.1651C64.923 29.1147 65.4943 29.0623 66.0512 28.9474C66.4239 28.8702 66.5702 28.9898 66.6652 29.4559C64.0353 29.8063 61.4137 30.1527 58.7911 30.5022C58.7875 30.5451 58.7828 30.5911 58.7823 30.6351C58.9247 30.6923 59.062 30.7649 59.2063 30.8058C61.7746 31.5014 64.344 32.194 66.9164 32.8774C67.2544 32.9687 67.6099 33.0284 67.9617 33.0461C68.5834 33.0749 68.9032 33.3911 69.0202 34.0241C68.6133 33.9712 68.2229 33.9645 67.8585 33.8679C65.8304 33.3201 63.7941 32.7867 61.784 32.1736C60.522 31.7906 59.3123 31.2279 58.0512 30.8419C57.4876 30.6693 56.8454 30.6711 56.2475 30.6977C55.0968 30.7523 54.045 30.3912 52.9931 30.0302C50.493 29.1703 48.001 28.2859 45.5049 27.4035C44.4213 27.0218 44.2551 26.8242 43.9381 25.7142C45.6293 25.159 47.3443 24.6591 48.9978 24.0269C50.0528 23.6248 51.1199 23.3456 52.2398 23.3522C53.0374 23.3576 53.8382 23.5236 54.6402 23.6222C54.6538 23.7082 54.6633 23.7962 54.677 23.8823C54.4951 23.9445 54.3129 24.0609 54.1293 24.0647C53.3737 24.0698 52.6127 23.9746 51.8684 24.0412C51.1555 24.108 50.4334 24.2668 49.7593 24.5026C48.6464 24.8889 47.5682 25.3716 46.4716 25.804C45.9682 26.0011 45.4519 26.1736 44.942 26.3583C44.928 26.4114 44.9129 26.4676 44.9021 26.5217Z" fill="black"/>
<path d="M19.453 17.7371C26.7718 20.4911 34.2963 22.3381 41.4549 25.3351C41.0091 25.7156 40.5966 25.8584 39.9648 25.6329C38.1739 24.9874 36.3538 24.4198 34.5409 23.841C32.4667 23.1793 30.3792 22.5468 28.3069 21.8791C27.6211 21.6592 26.9613 21.3605 26.2844 21.1134C23.9923 20.2789 21.6953 19.4595 19.4082 18.6098C19.1791 18.524 18.9474 18.3197 18.8145 18.1111C18.5711 17.7315 18.402 17.3058 18.1721 16.8433C18.6246 16.8112 19.028 16.7697 19.4359 16.7565C21.0188 16.7045 22.4734 16.1563 23.9758 15.7685C25.827 15.2942 27.6845 15.4641 29.4746 16.2067C29.6337 16.2727 29.7323 16.4902 29.8613 16.637C29.6443 16.683 29.4002 16.8108 29.2122 16.7588C27.5536 16.2815 25.9041 16.4089 24.2686 16.736C23.3486 16.9195 22.4629 17.2623 21.5463 17.4671C20.8986 17.6162 20.217 17.6466 19.453 17.7371Z" fill="black"/>
<path d="M90.3562 35.0828C88.3572 34.3603 86.3167 33.9415 84.1714 34.2473C84.1711 34.1541 84.174 34.0619 84.1737 33.9686C85.2984 33.8777 86.4189 33.7889 87.6316 33.6927C85.6321 32.7422 83.8576 31.4658 81.7583 30.8379C80.7279 30.5285 79.6645 30.298 78.667 29.8995C77.7578 29.537 76.9329 28.9608 76.0401 28.5485C74.1828 27.69 72.3049 26.8729 70.4342 26.0444C69.2778 25.5312 68.1275 25.0097 66.9649 24.5152C66.123 24.1577 65.276 23.8054 64.4095 23.5123C63.7951 23.3024 63.6433 22.8106 63.375 22.1594C64.2313 22.5044 64.9589 22.7793 65.6711 23.0905C68.3867 24.2775 71.1168 25.4417 73.8057 26.6889C75.6256 27.5351 77.3785 28.5214 79.1747 29.4184C79.697 29.6772 80.2544 29.9028 80.8219 30.0247C82.5813 30.4058 84.1769 31.1262 85.712 32.0612C87.0923 32.9003 88.451 33.8046 89.9861 34.3739C90.1864 34.4469 90.2961 34.7627 90.4502 34.9654C90.4192 35.007 90.3861 35.0443 90.3562 35.0828Z" fill="black"/>
<path d="M69.364 33.2503C71.1134 33.5358 72.8588 33.8332 74.609 34.0953C75.1176 34.1711 75.6396 34.1749 76.1356 34.1438C77.9535 34.0252 79.7199 34.4348 81.4749 35.1279C79.4316 34.4897 77.4356 34.4126 75.3948 34.6262C75.4871 34.6988 75.5277 34.7518 75.5802 34.7691C77.6949 35.4809 79.7994 36.2236 81.9268 36.8868C83.7565 37.4571 85.6113 37.9513 87.51 38.0332C88.154 38.0615 88.8049 38.079 89.4469 38.1857C90.1568 38.3043 90.7915 38.6404 91.3607 39.0814C90.3454 38.5721 89.3028 38.4252 88.2226 38.5162C88.6206 38.6266 89.0224 38.7357 89.4195 38.8484C89.8198 38.9622 90.2168 39.1065 90.6218 39.1955C91.2698 39.3358 91.9289 39.4113 92.5707 39.5707C92.7758 39.6226 92.9445 39.8575 93.1298 40.0109C93.1056 40.0635 93.0775 40.1175 93.0533 40.1701C92.1729 40.0083 91.2776 39.9022 90.4146 39.6672C89.4383 39.4026 88.4951 38.9856 87.5196 38.7081C86.8317 38.5125 86.106 38.473 85.4072 38.3001C83.9177 37.9319 82.4151 37.583 80.9525 37.113C78.688 36.3886 76.4627 35.5559 74.206 34.8078C73.5091 34.5775 72.7744 34.4613 72.0539 34.3128C71.3495 34.1671 70.6332 34.0885 69.9415 33.8942C69.6816 33.8216 69.4816 33.5158 69.2525 33.3189C69.2912 33.2948 69.3261 33.2721 69.364 33.2503Z" fill="black"/>
<path d="M19.4083 18.3656C17.2371 17.6483 15.1868 16.951 13.1249 16.2998C12.142 15.9884 11.1899 15.5841 10.112 15.5935C9.38839 15.6004 8.6396 15.4959 7.9721 15.0461C7.64114 14.8238 7.18969 14.7677 6.78895 14.6353C6.78903 14.5689 6.79011 14.4994 6.79348 14.4341C7.18085 14.2431 7.56033 14.0428 7.9503 13.8659C9.90543 12.9766 11.8596 12.0903 13.8239 11.2173C13.982 11.1466 14.2058 11.164 14.3921 11.1956C14.4476 11.204 14.5423 11.4579 14.4985 11.5132C14.3882 11.6596 14.2267 11.7956 14.0544 11.865C13.7065 12.0026 13.1634 11.7168 12.9799 12.261C12.9592 12.3239 12.6667 12.2938 12.4797 12.3084C12.7265 12.6092 12.9896 12.8823 13.19 13.1911C13.518 13.6982 13.2914 14.1084 12.6811 14.1361C12.1411 14.1604 11.596 14.1565 10.8638 14.1671C11.5104 14.5369 12.0071 14.8971 12.5592 15.1227C13.7764 15.6178 15.0078 16.0811 16.258 16.4875C16.9094 16.6993 17.6099 16.7513 18.2851 16.8913C18.4355 16.9211 18.6494 16.9685 18.7111 17.0686C18.9541 17.4579 19.149 17.8712 19.4083 18.3656Z" fill="black"/>
<path d="M55.2912 17.669C54.8046 18.1814 54.4625 18.432 53.8657 18.1317C52.4547 17.4248 50.9416 16.9544 49.4466 16.4605C47.7946 15.9148 46.0959 15.5108 44.4558 14.9395C42.3357 14.1998 40.2375 13.3936 38.1659 12.5176C37.8131 12.3666 37.6427 11.7256 37.3901 11.3129C37.4393 11.2259 37.4885 11.139 37.5408 11.0531C37.7174 11.0967 37.8985 11.127 38.0678 11.1928C40.0349 11.9311 41.9816 12.7413 43.975 13.3998C46.4021 14.2016 48.8672 14.8784 51.3221 15.596C52.7426 16.0162 54.1143 16.5529 55.2912 17.669Z" fill="black"/>
<path d="M16.0038 4.6667C15.997 5.26618 15.997 5.26618 14.8634 5.40644C15.0849 6.01176 14.7093 7.34157 14.1672 7.64246C13.3425 5.95786 12.5199 4.27746 11.6228 2.44725C12.1811 2.56908 12.6159 2.63617 13.0319 2.75971C13.7896 2.98566 14.5236 3.30466 15.2924 3.47519C16.1964 3.67643 17.1244 3.83693 18.0472 3.87396C19.125 3.9135 20.0323 4.3941 20.8499 4.94245C21.5597 5.42042 22.3157 5.57626 23.087 5.78237C23.2306 5.81938 23.3752 5.8428 23.5346 5.87462C22.9648 6.54894 21.9966 6.67082 21.05 6.1807C20.5511 5.92197 20.1013 5.56817 19.591 5.34394C19.0487 5.10915 18.4729 4.9224 17.8924 4.81411C17.2875 4.70471 16.6613 4.71347 16.0038 4.6667Z" fill="black"/>
<path d="M55.0671 18.3487C55.5538 17.8755 55.9256 17.8764 56.4829 18.1894C58.503 19.3166 60.5668 20.3746 62.6348 21.4096C63.1836 21.6849 63.5624 22.0121 63.7165 22.7562C62.1044 21.9938 60.5886 21.277 59.0247 20.5374C60.8228 22.3472 62.6957 23.9935 65.0227 25.0653C64.979 25.1345 64.9363 25.2005 64.8926 25.2697C64.4734 25.0755 64.0469 24.8928 63.6329 24.6828C62.3511 24.0365 61.1642 23.2716 60.077 22.3098C58.6666 21.0636 57.1551 19.9337 55.6821 18.7609C55.498 18.6129 55.2962 18.4975 55.0671 18.3487Z" fill="black"/>
<path d="M37.1673 11.7624C37.0164 11.6988 36.8572 11.6496 36.7157 11.5685C35.7579 11.0425 34.8406 10.4372 33.8456 10.002C32.3559 9.35179 30.8244 8.77371 29.2843 8.25458C27.3028 7.58624 25.2916 7.00772 23.2905 6.38787C23.0796 6.32164 22.8708 6.24921 22.5738 6.15108C23.1561 5.72164 23.634 5.53252 24.3316 5.78363C26.9933 6.74537 29.6846 7.6173 32.3472 8.57595C33.903 9.13458 35.3813 9.87371 36.7269 10.8301C36.9856 11.0118 37.0921 11.394 37.2689 11.6825C37.234 11.7122 37.2001 11.7388 37.1673 11.7624Z" fill="black"/>
<path d="M79.5867 33.6263C78.6305 33.5751 77.6723 33.5087 76.7173 33.4754C76.2305 33.46 75.7397 33.4782 75.2618 33.521C73.427 33.6944 71.6009 33.4053 69.7801 32.9405C68.9019 32.7173 68.9056 32.6952 68.7089 32.3336C68.8789 32.3402 69.0355 32.3338 69.1867 32.3547C70.4588 32.5451 71.7316 32.7969 73.0031 32.9145C74.0523 33.0138 75.0991 32.9291 76.152 32.9745C77.3127 33.0234 78.4745 33.1542 79.5867 33.6263Z" fill="black"/>
<path d="M93.2205 39.3593C93.725 39.3008 94.2445 39.2837 94.3668 38.7613C94.4511 38.4083 94.4254 38.029 94.4504 37.6598C94.4836 37.1676 94.2665 36.7912 93.7736 36.5754C93.0303 36.2471 92.2897 35.8998 91.5235 35.6301C91.0242 35.4552 90.6982 35.2019 90.5622 34.6239C90.776 34.6945 90.941 34.7391 91.1033 34.8026C92.18 35.2312 93.275 35.626 94.3256 36.1121C94.9392 36.3976 95.4262 36.8598 95.3283 37.6022C95.2659 38.0849 95.2294 38.5761 95.167 39.0587C95.1046 39.5414 94.7082 39.7514 94.2931 39.909C93.6812 40.1405 93.5018 40.0415 93.2205 39.3593Z" fill="black"/>
<path d="M60.7435 24.7685C59.9902 24.2851 59.1792 23.8673 58.4915 23.3046C57.516 22.5099 56.6433 21.5928 55.6961 20.7619C55.129 20.2618 54.5051 19.8243 53.9108 19.2175C54.096 19.2135 54.3243 19.1391 54.4587 19.2193C55.1228 19.6244 55.8125 20.0119 56.3905 20.5189C57.2169 21.2382 57.9434 22.0712 58.7384 22.8257C59.2255 23.2897 59.7606 23.6977 60.2772 24.1323C60.4622 24.2879 60.6443 24.4425 60.8293 24.5981C60.801 24.654 60.7718 24.7127 60.7435 24.7685Z" fill="black"/>
<path d="M57.9063 28.1796C58.5217 28.0273 58.9949 27.8672 59.4864 27.8012C61.2093 27.5679 62.9359 27.3553 64.6682 27.1577C65.4568 27.0692 65.5792 27.1585 65.8624 27.7871C64.8697 28.0659 59.2528 28.4548 57.9063 28.1796Z" fill="black"/>
<path d="M38.5504 15.698C36.553 13.5142 34.3878 11.5408 31.7318 10.0149C34.1207 10.4177 37.9981 13.7223 38.5504 15.698Z" fill="black"/>
<path d="M89.6889 37.2686C88.335 37.12 87.0023 37.1364 85.6266 37.4031C84.4207 37.6363 83.1915 37.6015 81.9869 36.892C82.3318 36.8524 82.5574 36.8245 82.7772 36.8032C84.1305 36.6699 85.4817 36.5317 86.8337 36.4022C87.9075 36.296 88.8874 36.496 89.6889 37.2686Z" fill="black"/>
<path d="M44.5782 23.7765C46.5259 22.778 48.4463 21.6791 51.1025 22.4535C48.7459 22.4296 46.7997 23.4345 44.5782 23.7765Z" fill="black"/>
<path d="M86.1258 34.8932C88.5085 34.5492 91.1382 35.3616 91.614 36.7063C89.719 36.0802 87.8863 35.4748 86.1258 34.8932Z" fill="black"/>
<path d="M41.1912 26.1356C41.8655 25.3784 42.8089 25.959 43.5908 26.0627C43.8696 26.0992 44.1401 26.7234 44.3273 27.1717C43.2819 26.8263 42.2366 26.481 41.1912 26.1356Z" fill="black"/>
<path d="M23.9351 17.8261C25.3647 17.188 27.5977 17.2065 29.1546 17.8204C28.3628 17.7921 27.4478 17.7328 26.5507 17.7329C25.6706 17.7337 24.8054 17.7929 23.9351 17.8261Z" fill="black"/>
<path d="M69.3936 27.6276C68.6408 27.8006 67.8892 27.9794 67.1364 28.1523C66.9954 28.1824 66.8555 28.1526 66.7167 28.2327C66.1766 28.5361 65.969 28.2485 66.0079 27.3469C67.2333 27.0563 68.3269 27.2588 69.3936 27.6276Z" fill="black"/>
<path d="M70.6687 29.0337C70.4628 29.0461 70.2565 29.0484 70.0508 29.0709C69.0141 29.1859 67.9732 29.3247 66.9405 29.4058C66.762 29.4223 66.6099 29.2061 66.3248 29.0214C67.6739 28.3862 69.8959 28.3611 70.6687 29.0337Z" fill="black"/>
<path d="M65.3014 32.1195C66.2468 32.215 67.1982 32.2924 68.1336 32.43C68.2918 32.452 68.3898 32.7516 68.5156 32.9192C68.4723 32.9906 68.429 33.062 68.3857 33.1334C67.3495 32.8718 66.3132 32.6101 65.2719 32.3518C65.2802 32.2789 65.29 32.2015 65.3014 32.1195Z" fill="black"/>
<path d="M93.7071 38.267C91.96 37.0066 91.9683 37.1833 91.8545 35.978C92.3948 35.8709 93.2235 36.8651 93.7071 38.267Z" fill="black"/>
<path d="M14.2461 7.66846C14.6668 7.88873 15.0061 7.94494 15.1694 8.19192C15.347 8.46396 15.3848 8.90828 15.4374 9.2965C15.449 9.38671 15.2642 9.66097 15.1759 9.6775C15.0441 9.70002 14.8532 9.61661 14.8065 9.48434C14.6132 8.96327 14.469 8.40762 14.2461 7.66846Z" fill="black"/>
<path d="M54.0806 18.7017C53.4542 19.1524 52.597 18.6784 51.8721 17.4902C52.5854 17.8815 53.2987 18.2727 54.0806 18.7017Z" fill="black"/>
<path d="M43.5633 24.2185C43.8815 24.0652 44.2004 23.9097 44.5186 23.7564C44.5314 23.783 44.5455 23.8125 44.5582 23.8391C44.2421 24.0005 43.9282 24.1626 43.6113 24.3263C43.5972 24.2893 43.5803 24.2539 43.5633 24.2185Z" fill="black"/>
</svg>
