<svg width="116" height="116" viewBox="0 0 116 116" fill="none" xmlns="http://www.w3.org/2000/svg">
<path d="M38.6667 52.0066H35.8633C32.0378 51.8684 28.2246 52.5178 24.6605 53.9146C21.0964 55.3115 17.8573 57.4259 15.1444 60.1266L14.3711 61.0289V87.7089H27.5178V72.5644L29.29 70.5666L30.0955 69.6322C34.2906 65.3225 39.5134 62.1511 45.2722 60.4166C42.389 58.2227 40.115 55.3276 38.6667 52.0066Z" fill="white" fill-opacity="0.41"/>
<path d="M100.985 60.0301C98.2717 57.3293 95.0327 55.2149 91.4686 53.8181C87.9045 52.4212 84.0913 51.7718 80.2657 51.9101C79.0924 51.9134 77.9201 51.9779 76.7535 52.1034C75.278 55.219 73.0662 57.9285 70.3091 59.9979C76.457 61.6987 82.0263 65.0403 86.4202 69.6645L87.2257 70.5667L88.9658 72.5645V87.7412H101.661V60.9323L100.985 60.0301Z" fill="white" fill-opacity="0.41"/>
<path d="M35.7671 45.7233H36.766C36.3018 41.7382 37.0011 37.7039 38.7793 34.1075C40.5575 30.511 43.3387 27.5061 46.7871 25.4555C45.5371 23.5458 43.8125 21.9936 41.7823 20.9507C39.7522 19.9078 37.4859 19.41 35.2056 19.5061C32.9252 19.6022 30.7089 20.2888 28.7736 21.4989C26.8384 22.7089 25.2506 24.4007 24.1656 26.4088C23.0807 28.4168 22.5359 30.6722 22.5845 32.9541C22.6332 35.236 23.2736 37.4661 24.4431 39.4261C25.6126 41.3861 27.271 43.0088 29.2561 44.1352C31.2411 45.2617 33.4847 45.8533 35.7671 45.8522V45.7233Z" fill="white" fill-opacity="0.41"/>
<path d="M78.7189 43.3067C78.7581 44.0473 78.7581 44.7894 78.7189 45.53C79.3373 45.628 79.9618 45.6819 80.5878 45.6911H81.2C83.4724 45.57 85.6747 44.8625 87.5924 43.6375C89.5102 42.4126 91.0781 40.712 92.1435 38.7012C93.2089 36.6905 93.7355 34.4381 93.6721 32.1634C93.6086 29.8887 92.9572 27.6692 91.7814 25.7209C90.6055 23.7727 88.9452 22.1622 86.9621 21.0461C84.979 19.93 82.7407 19.3464 80.4652 19.3521C78.1896 19.3578 75.9543 19.9527 73.9768 21.0787C71.9994 22.2048 70.3472 23.8237 69.1812 25.7778C72.0975 27.6819 74.4956 30.2802 76.1603 33.3396C77.8249 36.399 78.7041 39.8238 78.7189 43.3067Z" fill="white" fill-opacity="0.41"/>
<path d="M57.5806 57.7422C65.5353 57.7422 71.9839 51.2936 71.9839 43.3388C71.9839 35.3841 65.5353 28.9355 57.5806 28.9355C49.6258 28.9355 43.1772 35.3841 43.1772 43.3388C43.1772 51.2936 49.6258 57.7422 57.5806 57.7422Z" fill="white" fill-opacity="0.41"/>
<path d="M58.3547 65.411C54.1466 65.2411 49.9477 65.9243 46.0105 67.4194C42.0733 68.9146 38.4793 71.1907 35.4447 74.111L34.6392 75.0132V95.4099C34.6517 96.0743 34.7951 96.7297 35.061 97.3387C35.3269 97.9476 35.7102 98.4982 36.189 98.959C36.6677 99.4199 37.2326 99.7818 37.8513 100.024C38.47 100.267 39.1303 100.385 39.7947 100.372H76.8181C77.4824 100.385 78.1428 100.267 78.7615 100.024C79.3802 99.7818 79.945 99.4199 80.4238 98.959C80.9026 98.4982 81.2859 97.9476 81.5518 97.3387C81.8177 96.7297 81.961 96.0743 81.9736 95.4099V75.0777L81.2003 74.111C78.1853 71.1818 74.6038 68.8992 70.6754 67.4031C66.747 65.9071 62.5544 65.2292 58.3547 65.411Z" fill="white" fill-opacity="0.41"/>
</svg>
