<svg width="84" height="80" viewBox="0 0 84 80" fill="none" xmlns="http://www.w3.org/2000/svg">
<path d="M43.8849 0.157149C44.0078 0.172792 44.1315 0.180408 44.2554 0.179949H57.3426C57.4435 0.179602 57.5444 0.173894 57.6447 0.162849C59.267 -0.0131858 60.9042 -0.00170992 62.5239 0.197049C64.6944 0.301252 66.8121 0.901848 68.7141 1.95265C72.3051 3.58285 75.4401 6.21055 77.6745 9.64765C79.7322 12.8069 80.8962 16.4643 81.0427 20.2317C81.1892 23.9992 80.3129 27.736 78.5067 31.0454L60.1812 12.4862C59.9156 12.2183 59.5995 12.0058 59.2512 11.861C58.9028 11.7162 58.5292 11.642 58.152 11.6427H50.5653C49.9441 11.6418 49.3396 11.844 48.8439 12.2183L36.6003 21.4922C35.8517 22.0576 34.9873 22.4505 34.069 22.6425C33.1508 22.8346 32.2014 22.8213 31.289 22.6034C30.3765 22.3855 29.5235 21.9684 28.7911 21.3822C28.0588 20.7959 27.4651 20.0549 27.0528 19.2123C26.4216 17.9104 26.2618 16.4299 26.6007 15.0234C26.9396 13.6169 27.7562 12.3716 28.911 11.5001L43.8906 0.157149H43.8849ZM21.102 50.6306L21.0222 50.7048L16.6731 55.0367L16.599 55.1051C15.9504 55.7091 15.0933 56.0386 14.2072 56.0248C13.3211 56.011 12.4746 55.6549 11.8452 55.0311C11.5286 54.7173 11.2773 54.344 11.1058 53.9326C10.9343 53.5212 10.846 53.0799 10.846 52.6342C10.846 52.1885 10.9343 51.7472 11.1058 51.3358C11.2773 50.9244 11.5286 50.5511 11.8452 50.2373L16.2 45.911C16.5166 45.5934 16.8929 45.3414 17.3071 45.1694C17.7213 44.9975 18.1654 44.909 18.6139 44.909C19.0624 44.909 19.5065 44.9975 19.9208 45.1694C20.335 45.3414 20.7112 45.5934 21.0279 45.911C22.3389 47.2106 22.3617 49.3025 21.102 50.6306ZM20.6403 59.1236C19.3863 60.4517 19.4091 62.5436 20.7144 63.8433C21.3561 64.4806 22.2239 64.8383 23.1283 64.8383C24.0328 64.8383 24.9005 64.4806 25.5423 63.8433L29.8971 59.5169C30.2544 59.1627 30.5279 58.7331 30.6977 58.2595C30.8675 57.7859 30.9293 57.2803 30.8785 56.7798C30.8276 56.2793 30.6655 55.7964 30.404 55.3666C30.1425 54.9368 29.7882 54.5709 29.367 54.2958C28.7256 53.8746 27.9616 53.6805 27.197 53.7446C26.4324 53.8087 25.7113 54.1271 25.149 54.6491L25.0692 54.7233L20.7201 59.0495L20.6403 59.1236ZM10.3689 38.8773C10.6855 39.191 10.9368 39.5643 11.1083 39.9757C11.2798 40.3871 11.3681 40.8284 11.3681 41.2741C11.3681 41.7198 11.2798 42.1611 11.1083 42.5725C10.9368 42.9839 10.6855 43.3572 10.3689 43.671L6.01409 47.9972C5.37234 48.6346 4.50459 48.9923 3.60014 48.9923C2.69569 48.9923 1.82794 48.6346 1.18619 47.9972C0.869602 47.6835 0.618303 47.3102 0.446806 46.8988C0.275309 46.4874 0.187012 46.0461 0.187012 45.6004C0.187012 45.1547 0.275309 44.7134 0.446806 44.302C0.618303 43.8906 0.869602 43.5173 1.18619 43.2036L5.54099 38.8716C6.18274 38.2342 7.05049 37.8765 7.95494 37.8765C8.85939 37.8765 9.72714 38.2342 10.3689 38.8716V38.8773ZM38.7663 63.5354C39.0829 63.8492 39.3342 64.2225 39.5057 64.6339C39.6772 65.0453 39.7655 65.4866 39.7655 65.9323C39.7655 66.378 39.6772 66.8193 39.5057 67.2307C39.3342 67.6421 39.0829 68.0154 38.7663 68.3292L34.4115 72.6611C33.769 73.2971 32.9015 73.6538 31.9975 73.6538C31.0935 73.6538 30.2261 73.2971 29.5836 72.6611C29.0413 72.1242 28.697 71.4193 28.607 70.6616C28.5169 69.9038 28.6864 69.1378 29.0877 68.4888L29.1048 68.466C29.2408 68.247 29.4015 68.0442 29.5836 67.8617L33.9384 63.5354C34.5801 62.8981 35.4479 62.5404 36.3523 62.5404C37.2568 62.5404 38.1245 62.8981 38.7663 63.5354ZM9.12629 8.08585C12.2962 4.93891 16.1938 2.62289 20.4733 1.34321C24.7528 0.0635399 29.282 -0.14024 33.6591 0.749949L25.4682 6.95725C24.2127 7.90855 23.1576 9.09863 22.3635 10.4591C21.5695 11.8195 21.0522 13.3235 20.8414 14.8845C20.6306 16.4456 20.7304 18.0329 21.1351 19.5552C21.5398 21.0776 22.2414 22.5049 23.1996 23.7551C25.1378 26.2832 27.9973 27.9419 31.1541 28.369C34.3109 28.7962 37.5084 27.9572 40.0488 26.0352L51.5286 17.3427H56.7099L67.7565 28.3151L67.7793 28.2866L76.9449 37.572C76.9891 37.6171 77.0347 37.6608 77.0817 37.703L82.0122 42.6335C83.0569 43.6905 83.6572 45.1074 83.6897 46.5932C83.7223 48.079 83.1846 49.5208 82.1872 50.6225C81.1898 51.7242 79.8084 52.4022 78.3268 52.5171C76.8451 52.6321 75.3756 52.1753 74.2203 51.2406L73.8042 50.8301C73.7081 50.7336 73.6053 50.6441 73.4964 50.5622L68.6514 45.7173C68.117 45.1821 67.3919 44.8811 66.6356 44.8806C65.8793 44.8801 65.1538 45.18 64.6186 45.7144C64.0835 46.2488 63.7825 46.9739 63.782 47.7302C63.7815 48.4865 64.0814 49.212 64.6158 49.7472L69.7572 54.8886C69.951 55.0824 70.1562 55.2647 70.3557 55.4414L70.5267 55.6125C71.2659 56.3509 71.6815 57.3528 71.6821 58.3977C71.6826 59.4426 71.268 60.445 70.5295 61.1842C69.7911 61.9234 68.7892 62.339 67.7443 62.3396C66.6993 62.3401 65.697 61.9255 64.9578 61.187L64.1997 60.4347C63.7987 60.0349 63.2878 59.7636 62.732 59.6554C62.1763 59.5472 61.6009 59.607 61.0792 59.8271C60.5576 60.0473 60.1133 60.4178 59.8031 60.8915C59.4929 61.3652 59.3309 61.9205 59.3376 62.4866C59.3298 62.8698 59.3994 63.2506 59.5424 63.6062C59.6854 63.9617 59.8988 64.2847 60.1698 64.5557L61.1673 65.5533C61.5015 65.8875 61.7666 66.2842 61.9475 66.7209C62.1284 67.1576 62.2215 67.6256 62.2215 68.0983C62.2215 68.571 62.1284 69.039 61.9475 69.4757C61.7666 69.9124 61.5015 70.3091 61.1673 70.6434C60.8331 70.9776 60.4363 71.2427 59.9996 71.4236C59.5629 71.6044 59.0949 71.6975 58.6222 71.6975C58.1496 71.6975 57.6815 71.6044 57.2449 71.4236C56.8082 71.2427 56.4114 70.9776 56.0772 70.6434L55.5699 70.1304C55.3979 69.927 55.2172 69.7311 55.0284 69.5433L54.0993 68.6142C53.5618 68.095 52.8419 67.8077 52.0946 67.8142C51.3473 67.8207 50.6325 68.1205 50.1041 68.6489C49.5757 69.1773 49.276 69.8921 49.2695 70.6394C49.263 71.3866 49.5502 72.1065 50.0694 72.6441L50.7648 73.3395C50.8533 73.4569 50.9485 73.5691 51.0498 73.6758L51.3291 73.9494C51.8976 74.687 52.1665 75.6121 52.0819 76.5395C51.9973 77.4669 51.5655 78.3282 50.873 78.9508C50.1805 79.5734 49.2783 79.9115 48.3472 79.8973C47.416 79.8831 46.5246 79.5176 45.8514 78.8742L40.9209 74.2286L42.8133 72.3477C43.6602 71.5082 44.3324 70.5094 44.7911 69.4088C45.2499 68.3081 45.4861 67.1275 45.4861 65.9352C45.4861 64.7428 45.2499 63.5622 44.7911 62.4615C44.3324 61.3609 43.6602 60.3621 42.8133 59.5227C41.1609 57.8781 38.9422 56.9277 36.6117 56.8664C36.5479 54.5476 35.5925 52.3426 33.9441 50.7104C32.2935 49.0667 30.0768 48.1164 27.7482 48.0543C27.6829 45.7346 26.7254 43.5295 25.0749 41.8983C24.018 40.8471 22.7206 40.0698 21.2952 39.6337C19.8698 39.1976 18.3595 39.116 16.8954 39.396C16.5298 37.6738 15.6678 36.0965 14.4159 34.8587C12.8098 33.2687 10.6736 32.3273 8.41641 32.2147C6.15925 32.1022 3.93992 32.8265 2.18369 34.2489C0.910921 29.6635 0.884364 24.8217 2.10675 20.2227C3.32914 15.6237 5.75623 11.4341 9.13769 8.08585H9.12629Z" fill="white" fill-opacity="0.2"/>
</svg>
