<svg width="97" height="37" viewBox="0 0 97 37" fill="none" xmlns="http://www.w3.org/2000/svg">
<path d="M0.776274 24.7817C0.909734 24.4944 1.06798 24.2166 1.17094 23.9179C1.84586 21.9847 3.12708 21.0467 5.16712 21.0695C6.70763 21.0866 8.25196 21.2465 9.78866 21.1875C12.4693 21.0847 15.0718 20.5615 17.5694 19.515C20.5875 18.2516 23.7314 17.3858 26.9097 16.6019C28.7743 16.1415 30.5532 15.3366 32.3739 14.6916C43.8859 10.6141 55.6342 7.40798 67.6608 5.26552C72.4368 4.415 77.2605 3.82896 82.0612 3.10403C82.576 3.02601 83.0812 2.85477 83.575 2.67972C85.024 2.16408 86.4673 1.62942 87.9087 1.09285C88.1356 1.00913 88.3472 0.881648 88.5645 0.773193C89.4397 0.773193 90.3148 0.773193 91.1918 0.773193C91.371 0.898773 91.535 1.0567 91.7314 1.14232C94.0269 2.13935 94.8543 3.66533 94.3662 6.13886C94.2137 6.91327 93.9506 7.66675 93.7409 8.41832C95.5788 9.72359 96.2843 10.6198 96.637 12.1229C96.7304 12.5206 96.7857 12.9259 96.8601 13.3273C96.8601 14.155 96.8601 14.9827 96.8601 15.8104C96.8181 16.0083 96.7742 16.2062 96.7342 16.404C96.4368 17.911 96.2747 19.4598 95.8095 20.9135C95.188 22.86 95.066 24.7931 95.4759 26.7548C95.7924 28.277 95.3138 29.5138 94.2213 30.4747C93.4206 31.1787 92.4825 31.759 91.5331 32.2556C90.2347 32.9349 88.8715 33.4905 87.5235 34.0765C87.1479 34.2401 86.7399 34.3334 86.3396 34.4342C85.0946 34.7444 83.9411 34.3619 82.78 33.8805C82.6904 34.1146 82.6141 34.3029 82.5436 34.4913C81.8648 36.297 80.4196 37.0486 78.5817 36.4359C77.718 36.1486 76.923 35.6539 76.0898 35.2695C75.8267 35.1477 75.5426 35.0222 75.2585 35.0012C73.1937 34.8509 71.1251 34.7158 69.0565 34.6131C68.8105 34.6017 68.4864 34.7501 68.311 34.9327C67.6589 35.6139 66.9039 35.9412 65.9583 35.8213C64.7018 35.6634 63.4416 35.5378 62.1871 35.3666C53.2948 34.1507 44.4044 32.9216 35.5103 31.7095C34.5818 31.5839 33.6151 31.3594 32.7114 31.4945C30.046 31.8941 27.3997 31.9169 24.7305 31.5858C23.1766 31.3937 21.6838 30.9332 20.0346 31.2205C14.9421 32.1053 9.8878 31.5402 4.89638 30.3833C3.19381 29.9895 1.69524 29.1941 0.984091 27.4246C0.955492 27.3542 0.844911 27.3161 0.772461 27.2629C0.776274 26.4371 0.776274 25.6094 0.776274 24.7817ZM91.8114 27.084C92.0021 26.888 92.3929 26.6197 92.3529 26.5094C92.105 25.8301 92.7495 25.6341 92.9783 25.2174C92.9325 25.9804 92.8848 26.7434 92.8372 27.5331C92.8314 27.5331 92.6885 27.5445 92.5455 27.5578C92.7457 27.7994 93.0088 27.8832 93.2051 28.0449C93.3443 28.159 93.4282 28.3741 93.4702 28.5586C93.4854 28.6271 93.3291 28.7793 93.2223 28.8212C92.9001 28.9525 92.5626 29.0476 92.1947 29.1694C92.1908 29.158 92.1832 29.0153 92.1222 28.903C92.0459 28.7603 91.9487 28.5738 91.8191 28.5301C91.7161 28.4958 91.4377 28.6404 91.4339 28.7146C91.4282 28.8688 91.5312 29.0419 91.6246 29.1846C91.7485 29.373 91.9049 29.5385 92.0002 29.6565C92.4501 29.4605 92.9039 29.3102 93.3024 29.0647C93.5026 28.9411 93.7142 28.6499 93.718 28.4311C93.7275 27.866 93.6398 27.2971 93.5598 26.732C93.2623 24.6352 93.3138 22.565 93.9811 20.5348C94.799 18.0499 95.0126 15.5022 94.7247 12.9145C94.6332 12.0944 94.3815 11.3105 93.6513 10.7644C93.209 11.6625 93.2376 11.6396 93.7905 12.376C93.9373 12.5701 93.8419 12.9449 93.8572 13.2265C92.9439 12.6709 92.1718 12.199 91.3977 11.7272C91.35 11.7747 91.3043 11.8242 91.2566 11.8718C91.3786 12.0164 91.5483 12.1438 91.6112 12.3113C91.6723 12.4749 91.6799 12.8212 91.6189 12.8441C90.984 13.0762 90.799 13.607 90.6942 14.1779C90.6465 14.4328 90.6294 14.9009 90.7228 14.9351C90.9992 15.0379 91.3386 14.9713 91.5464 14.9713C91.6703 14.3415 91.7371 13.843 91.882 13.3711C91.9201 13.2474 92.1966 13.1942 92.3643 13.1104C92.4082 13.2836 92.5359 13.4948 92.4787 13.6261C92.2175 14.2292 92.3148 14.4994 92.9382 14.6973C94.0154 15.0417 94.0307 15.0721 93.6112 16.1186C93.8038 16.1852 94.1222 16.21 94.1603 16.326C94.2614 16.6343 94.2557 16.9825 94.2442 17.3135C94.2442 17.3421 93.8019 17.4505 93.7104 17.3668C92.9783 16.6875 92.6389 16.6799 91.9716 17.4467C91.6951 16.7484 91.3176 16.933 91.0278 17.3839C90.7743 17.7778 90.6084 18.2307 90.4444 18.674C90.3929 18.811 90.4177 19.0698 90.5112 19.1421C90.6275 19.2315 90.8772 19.2486 91.0164 19.1839C91.2147 19.0926 91.371 18.9042 91.535 18.7463C91.9849 18.3144 92.452 18.3905 92.9096 18.7139C93.4091 19.0678 93.5559 19.8594 93.2242 20.4606C92.9535 20.9515 92.5664 20.6985 92.2023 20.5824C92.1127 20.5539 91.9983 20.5995 91.7485 20.63C91.943 20.8412 92.0555 20.9592 92.1641 21.0809C92.2747 21.2065 92.3834 21.3359 92.4921 21.4634C92.3491 21.5528 92.2061 21.6422 92.065 21.7317C91.8324 21.8763 91.6017 22.0228 91.3367 22.1883C91.9277 22.409 92.4539 22.5232 92.8848 22.7896C93.3615 23.0845 93.2471 23.6858 92.7094 23.8075C92.2728 23.9065 91.8076 23.8874 91.3939 23.9179C91.4721 24.346 91.7066 24.8959 91.6341 25.402C91.5197 26.1764 90.7457 26.0052 90.107 26.0832C90.2709 26.3058 90.3872 26.4599 90.4883 26.5969C90.7952 26.4143 91.0564 26.2582 91.3405 26.087C91.5388 26.4238 91.7028 26.694 91.8553 26.9679C91.8705 26.9965 91.8362 27.0536 91.8286 27.0992C91.6189 27.0479 91.4072 26.9984 91.1765 26.9413C91.1289 27.0383 91.0526 27.1868 90.9363 27.4208C90.8295 27.2039 90.7647 27.0707 90.7209 26.9851C90.1375 26.9052 89.7066 27.1316 89.4549 27.7138C89.9887 28.0563 90.2576 28.5072 89.8763 29.1237C90.5188 29.4453 90.658 29.3844 90.7209 28.7946C90.8315 27.7366 91.1327 27.476 92.2042 27.6092C92.0479 27.3961 91.9296 27.24 91.8114 27.084ZM79.0469 5.28835C76.6637 5.66699 74.2824 6.05895 71.8973 6.41856C64.7018 7.50121 58.0689 10.165 51.7104 13.5785C49.1918 14.9313 47.127 16.7389 45.8134 19.3818C44.0384 22.9532 41.4149 25.8149 38.0403 27.9783C37.4378 28.3645 36.8716 28.8098 36.2881 29.2284C41.1919 28.2998 44.6637 25.206 47.9488 21.509C46.1623 26.2183 42.557 28.5986 38.2309 30.1797C38.6085 30.3053 38.923 30.3681 39.2414 30.41C48.1394 31.5973 57.0374 32.7789 65.9354 33.9738C66.4902 34.048 66.6942 33.8558 66.8296 33.323C67.5503 30.5013 68.1299 27.6263 69.1003 24.8883C72.4254 15.5155 78.3453 8.39549 87.6665 4.42071C88.6103 4.01923 89.7028 3.9222 90.7399 3.80993C91.0393 3.77759 91.575 4.12198 91.6761 4.40929C91.9563 5.20082 91.5254 5.90673 91.1937 6.59552C90.7037 5.1856 89.8153 4.86024 88.5989 5.69553C89.7619 6.27586 90.902 6.84477 92.2004 7.4917C92.351 6.54605 92.5264 5.72027 92.6046 4.88687C92.677 4.10105 92.2785 3.47315 91.5826 3.1554C91.0336 2.90424 90.391 2.66259 89.8153 2.71206C88.82 2.79769 87.8133 3.02031 86.8639 3.34377C82.5703 4.80886 78.7781 7.19868 75.1403 9.84917C71.3882 12.5815 67.8382 15.5326 65.2033 19.4237C65.1918 19.4408 65.1442 19.4332 65.045 19.4446C68.1032 13.1161 73.2776 8.97772 79.0469 5.28835ZM55.9621 9.65129C55.8572 9.6627 55.7924 9.6608 55.7295 9.67602C49.535 11.1754 43.4073 12.9145 37.3635 14.9389C36.5169 15.2225 35.6247 15.466 34.8716 15.9208C33.3577 16.8341 31.8821 17.8254 30.4674 18.8852C27.108 21.3987 24.2824 24.384 22.5189 28.2542C22.3816 28.5529 22.2824 28.8688 22.1433 29.2341C23.0108 29.3939 23.7734 29.5709 24.5436 29.6717C27.3597 30.037 30.1623 30.311 32.9402 29.3349C37.802 27.6244 41.5789 24.6428 44.1718 20.1619C46.1528 16.737 48.8868 14.0028 52.2214 11.8775C53.4302 11.1031 54.6885 10.4048 55.9621 9.65129ZM29.1004 18.2972C24.9211 19.5359 21.3864 21.8344 17.9526 24.327C19.9621 22.0114 22.5036 20.4264 25.1328 18.908C22.5665 19.671 20.0613 20.571 17.5541 21.4634C16.864 21.7088 16.1795 22.0076 15.4664 22.156C13.7105 22.5232 11.9374 22.8029 10.1795 23.1549C9.81916 23.2272 9.45119 23.408 9.15377 23.6268C8.00791 24.4735 6.91735 25.3925 5.75434 26.2107C4.92498 26.7948 4.00983 27.2572 3.03938 27.8299C3.35968 27.9478 3.56178 28.0468 3.77722 28.1001C5.18237 28.4464 6.57798 28.8497 8.00029 29.1085C11.8992 29.8163 15.8192 29.9952 19.7581 29.4282C20.1967 29.3654 20.5627 29.2759 20.801 28.8003C22.1928 26.0242 24.0899 23.5982 26.1757 21.3169C27.1004 20.3046 28.0861 19.3418 29.1004 18.2972ZM74.5226 33.1822C73.3615 31.0892 73.1346 28.9848 73.3253 26.7891C73.514 24.6086 74.0326 22.5308 74.9478 20.5463C74.8868 21.1627 74.7571 21.7659 74.6675 22.3729C74.2881 24.953 74.0402 27.5388 74.7571 30.1036C75.3806 32.3317 76.7075 33.93 78.9916 34.615C79.8591 34.8737 80.29 34.7329 80.6618 34.107C81.1747 33.2412 81.1537 32.5201 80.6275 31.9321C80.229 31.4869 79.8381 31.0303 79.4816 30.5527C78.2595 28.9182 77.3615 27.0935 77.2662 25.0633C77.0564 20.6148 77.6532 16.2594 79.2757 12.0792C79.3539 11.8794 79.4092 11.672 79.4759 11.4684C73.1708 17.1784 70.1051 24.542 68.3167 32.7104C70.4158 32.8683 72.3987 33.0186 74.5226 33.1822ZM2.76865 27.1639C4.6981 25.95 6.56464 24.7874 7.95644 22.9437C3.87255 22.0152 2.15854 23.6953 2.76865 27.1639ZM90.2404 11.1754C89.5922 11.5121 89.6665 12.0297 89.8991 12.4464C90.0459 12.7109 90.4501 12.8307 90.8429 13.08C90.8429 12.4216 90.8429 11.9878 90.8429 11.495C90.6789 11.4094 90.4597 11.2914 90.2404 11.1754ZM84.5264 21.1685C84.5779 21.2141 84.6294 21.2579 84.6827 21.3035C85.2071 20.9687 85.7333 20.6338 86.3624 20.2323C86.2671 19.964 86.1413 19.6082 85.9582 19.0945C85.3996 19.9012 84.963 20.5348 84.5264 21.1685ZM90.3167 13.9857C89.8953 14.0371 89.4816 14.0028 89.1632 14.1607C88.9744 14.2559 88.902 14.6497 88.8543 14.9218C88.8353 15.0265 89.0183 15.2605 89.1327 15.2776C89.4644 15.3252 90.2309 14.5546 90.3167 13.9857ZM88.8486 26.8918C89.1861 26.4409 89.4816 26.047 89.8229 25.5923C89.6894 25.4286 89.5121 25.2117 89.3348 24.9948C89.2738 24.9986 89.2109 25.0005 89.1499 25.0043C89.3805 25.6855 87.9563 25.9367 88.8486 26.8918ZM88.1127 11.0726C87.7409 10.8766 87.4721 10.6217 87.31 10.6769C87.0946 10.7492 86.862 11.0517 86.8315 11.2819C86.8124 11.4265 87.2185 11.7899 87.3157 11.7538C87.5731 11.6529 87.7657 11.3885 88.1127 11.0726ZM88.1413 13.6793C88.7457 13.9629 89.2528 13.9838 89.6456 13.5366C89.7733 13.392 89.6894 13.061 89.7085 12.728C89.0965 13.099 88.658 13.3673 88.1413 13.6793ZM89.6875 19.4941C89.5769 19.9964 89.4892 20.4017 89.3825 20.8907C89.6132 20.7803 89.7314 20.7251 89.7828 20.7004C90.0459 21.0162 90.2805 21.2997 90.515 21.5813C90.5912 21.5376 90.6694 21.4919 90.7457 21.4482C90.6065 21.1761 90.473 20.904 90.33 20.6357C90.1661 20.3294 89.9926 20.0325 89.6875 19.4941ZM86.3872 13.9571C86.7876 14.1037 87.1537 14.2597 87.535 14.3605C87.6151 14.3814 87.7466 14.1988 87.8553 14.1094C87.7676 14.0542 87.6723 14.0066 87.5903 13.9419C87.289 13.7079 86.9916 13.4681 86.6694 13.2132C86.5741 13.4681 86.494 13.6774 86.3872 13.9571ZM92.5645 9.74452C92.3052 9.16419 91.8724 9.03481 91.1003 9.41725C91.3691 9.5181 91.6017 9.63416 91.8477 9.68744C92.0936 9.74071 92.3529 9.7312 92.5645 9.74452ZM90.1451 30.5831C90.1584 30.6402 90.1737 30.6973 90.187 30.7544C90.5569 30.6288 90.9268 30.5013 91.1422 30.429C91.1613 30.0732 91.1746 29.8658 91.1804 29.7554C90.8696 30.0047 90.5073 30.2939 90.1451 30.5831ZM86.147 9.92908C86.0879 9.88532 86.0288 9.84156 85.9697 9.7978C85.8362 9.97855 85.6036 10.1593 85.6017 10.3401C85.5998 10.5037 85.8534 10.6692 85.9945 10.8348C86.046 10.7948 86.0955 10.7568 86.147 10.7168C86.147 10.4542 86.147 10.1917 86.147 9.92908ZM90.8315 16.1833C90.5264 15.9873 90.3853 15.8237 90.269 15.8389C90.0764 15.8637 89.8991 16.0064 89.7161 16.0996C89.861 16.2138 89.9945 16.3926 90.1565 16.425C90.3033 16.4535 90.4787 16.3203 90.8315 16.1833ZM89.0221 21.1646C88.9096 21.1589 88.7971 21.1532 88.6827 21.1494C88.6827 21.5166 88.656 21.8877 88.7018 22.2492C88.7132 22.3367 88.9649 22.3957 89.0221 22.4242C89.0221 21.9657 89.0221 21.5642 89.0221 21.1646ZM85.3825 25.7388C85.3977 25.6341 85.4111 25.5295 85.4263 25.4248C85.1899 25.3754 84.9516 25.324 84.7152 25.2745C84.6904 25.4153 84.6675 25.5542 84.6427 25.695C84.8887 25.7102 85.1365 25.7255 85.3825 25.7388Z" fill="black"/>
<path d="M78.1535 4.70068C72.3795 8.47793 67.2008 12.7149 64.1439 19.1921C64.2431 19.1785 64.2908 19.1863 64.3023 19.1707C66.9413 15.187 70.4923 12.1656 74.2476 9.36818C77.8883 6.65651 81.6836 4.20977 85.9808 2.70784C86.9291 2.37667 87.9366 2.1468 88.9346 2.06109C89.5109 2.01044 90.1539 2.25784 90.7035 2.51498C91.3999 2.8403 91.7987 3.48316 91.7262 4.2877C91.648 5.14289 91.4724 5.98639 91.3217 6.95456C90.0222 6.29223 88.8812 5.70976 87.7172 5.11561C88.9346 4.26042 89.8219 4.59354 90.3142 6.03703C90.6462 5.33184 91.0775 4.60912 90.797 3.79874C90.6958 3.50458 90.1596 3.15394 89.8601 3.18511C88.822 3.30004 87.7286 3.39744 86.7841 3.81043C77.4552 7.88183 71.5323 15.1694 68.2025 24.7655C67.2313 27.5668 66.6512 30.5122 65.9299 33.4011C65.7945 33.9466 65.5903 34.1453 65.035 34.0674C56.1316 32.844 47.2243 31.6323 38.319 30.4187C38.0003 30.3758 37.6836 30.3115 37.3077 30.183C41.6354 28.5642 45.2456 26.1291 47.0335 21.3058C43.7458 25.0908 40.271 28.2583 35.3633 29.209C35.9472 28.7804 36.5139 28.3246 37.1169 27.9291C40.4943 25.7142 43.1199 22.7843 44.8964 19.1279C46.2111 16.424 48.2776 14.5714 50.7983 13.1863C57.162 9.68961 63.8023 6.9643 71.0018 5.85587C73.3851 5.49158 75.7684 5.08834 78.1535 4.70068Z" fill="white"/>
<path d="M55.8631 9.74146C54.6087 10.5003 53.3692 11.2036 52.1786 11.9816C48.8942 14.1221 46.2013 16.8758 44.2501 20.3252C41.6961 24.84 37.976 27.8428 33.1873 29.5636C30.4512 30.5467 27.6907 30.2708 24.917 29.9028C24.1565 29.8013 23.4072 29.6231 22.5527 29.4621C22.6898 29.0961 22.7875 28.778 22.9227 28.4752C24.6597 24.5774 27.4428 21.5708 30.7517 19.0393C32.147 17.972 33.5986 16.9736 35.0897 16.0537C35.8314 15.5957 36.7103 15.3505 37.5441 15.0649C43.4971 13.0279 49.5327 11.2764 55.634 9.76445C55.6941 9.75104 55.7598 9.75295 55.8631 9.74146Z" fill="white"/>
<path d="M28.9583 18.7097C27.9611 19.7599 26.992 20.7277 26.0811 21.7473C24.0305 24.0407 22.1654 26.4796 20.7971 29.2704C20.5628 29.7486 20.2029 29.8365 19.7718 29.9016C15.9011 30.4716 12.0454 30.2937 8.21221 29.5802C6.81389 29.3201 5.44181 28.9146 4.06036 28.5664C3.84855 28.5129 3.64799 28.4134 3.33496 28.2948C4.28904 27.7191 5.18877 27.2523 6.00414 26.667C7.14941 25.8445 8.22158 24.9187 9.34623 24.0694C9.63864 23.8475 10.0004 23.6677 10.3547 23.595C12.0829 23.2412 13.828 22.96 15.5524 22.5908C16.2535 22.4416 16.9245 22.1413 17.6049 21.8945C20.0698 20.9974 22.5309 20.0927 25.0558 19.3256C22.4709 20.8502 19.9742 22.4454 17.9967 24.7733C21.3744 22.2656 24.8496 19.955 28.9583 18.7097Z" fill="white"/>
<path d="M74.9288 33.8268C72.789 33.6665 70.7915 33.5156 68.6748 33.3554C70.4784 25.2602 73.5669 17.9645 79.9169 12.3037C79.8497 12.5055 79.794 12.711 79.7153 12.909C78.0807 17.0537 77.4795 21.37 77.6908 25.7768C77.7868 27.7889 78.6934 29.5972 79.9227 31.217C80.2838 31.6903 80.6776 32.1429 81.0771 32.5841C81.6053 33.1668 81.6283 33.8815 81.1116 34.7394C80.7371 35.3598 80.303 35.4994 79.4291 35.2429C77.128 34.5641 75.7893 32.9801 75.1631 30.772C74.4409 28.232 74.6906 25.6694 75.0728 23.1105C75.1631 22.5071 75.2918 21.9112 75.3552 21.3003C74.4351 23.267 73.9108 25.3262 73.7206 27.4871C73.5305 29.667 73.759 31.7525 74.9288 33.8268Z" fill="white"/>
<path d="M91.0307 26.5294C91.043 26.4878 91.0801 26.4336 91.0637 26.4065C90.8966 26.1464 90.7214 25.8899 90.5069 25.5701C90.1997 25.7309 89.9172 25.879 89.5852 26.0543C89.476 25.9242 89.3502 25.7761 89.1729 25.5665C89.8636 25.4907 90.7008 25.655 90.8245 24.9198C90.9049 24.4411 90.6492 23.9172 90.5647 23.5108C91.0142 23.4819 91.5152 23.5017 91.9874 23.406C92.5689 23.2886 92.6926 22.7177 92.1771 22.4395C91.7111 22.1866 91.142 22.0782 90.5028 21.8687C90.7894 21.7115 91.041 21.5724 91.2905 21.4351C91.4451 21.3502 91.5998 21.2653 91.7523 21.1804C91.6348 21.0594 91.5193 20.9366 91.3977 20.8173C91.2802 20.7017 91.1585 20.5897 90.9482 20.3892C91.2183 20.3621 91.342 20.3169 91.4389 20.344C91.8348 20.4542 92.2513 20.6945 92.5441 20.2284C92.9029 19.6558 92.7462 18.9061 92.2039 18.5701C91.7111 18.263 91.2039 18.1925 90.7172 18.6008C90.5399 18.7507 90.3708 18.9296 90.1564 19.0163C90.0059 19.0777 89.7337 19.0615 89.61 18.9766C89.511 18.9079 89.4842 18.6622 89.5378 18.5322C89.7151 18.1131 89.8945 17.6813 90.1688 17.3074C90.4822 16.8811 90.8904 16.7058 91.1894 17.367C91.9111 16.639 92.2781 16.6462 93.0699 17.2911C93.1689 17.3706 93.6452 17.2676 93.6473 17.2405C93.6596 16.9262 93.6658 16.5956 93.5565 16.303C93.5153 16.1928 93.171 16.1693 92.9627 16.1061C93.4163 15.1125 93.3998 15.0836 92.2348 14.7567C91.5626 14.5688 91.4554 14.3123 91.7379 13.7396C91.7998 13.615 91.6596 13.4163 91.6142 13.2501C91.4327 13.3314 91.1338 13.3801 91.0925 13.4976C90.9358 13.9474 90.8636 14.4189 90.7296 15.0168C90.5049 15.0168 90.1399 15.08 89.8389 14.9825C89.7378 14.95 89.7564 14.5056 89.8079 14.2635C89.9213 13.7216 90.1213 13.2176 90.808 12.9972C90.8719 12.9773 90.8657 12.6467 90.7997 12.4914C90.7317 12.3324 90.5482 12.2114 90.4162 12.0741C90.4678 12.0289 90.5172 11.9819 90.5688 11.9368C91.4059 12.3848 92.241 12.831 93.2287 13.3603C93.2122 13.0929 93.3153 12.7388 93.1565 12.5528C92.5586 11.8537 92.5276 11.8735 93.006 11.0227C93.7957 11.5394 94.0679 12.2854 94.1669 13.064C94.4762 15.5208 94.2473 17.9396 93.3627 20.2989C92.641 22.2264 92.5833 24.1918 92.907 26.1825C92.9936 26.7172 93.0864 27.2574 93.0782 27.7957C93.074 28.0034 92.8452 28.2798 92.6287 28.3972C92.1998 28.6285 91.707 28.7712 91.2204 28.9591C91.1173 28.8471 90.9482 28.6899 90.8142 28.5111C90.7131 28.3756 90.5997 28.213 90.608 28.0649C90.6121 27.9944 90.9131 27.8571 91.0245 27.8896C91.1647 27.9312 91.2698 28.1082 91.3523 28.2437C91.4183 28.3503 91.4266 28.4858 91.4307 28.4966C91.8286 28.381 92.1915 28.2889 92.5421 28.166C92.6575 28.1245 92.8266 27.98 92.8101 27.9167C92.7648 27.7415 92.674 27.5374 92.5235 27.429C92.3111 27.2754 92.0266 27.1978 91.8101 26.9665C91.9647 26.9557 92.1173 26.9449 92.1256 26.943C92.1771 26.1934 92.2266 25.469 92.2781 24.7446C92.0307 25.1402 91.3338 25.3263 91.6018 25.9712C91.6451 26.0777 91.2224 26.3325 91.0162 26.5167C91.008 26.5167 91.0307 26.5294 91.0307 26.5294Z" fill="white"/>
<path d="M2.19789 27.6777C1.46379 23.703 3.5303 21.7799 8.45955 22.8418C6.77965 24.9545 4.52674 26.2866 2.19789 27.6777Z" fill="white"/>
<path d="M91.3638 27.7547C91.474 27.8388 91.5841 27.923 91.7352 28.0379C90.7366 27.9661 90.4558 28.1077 90.3527 28.6773C90.2959 28.9954 90.1644 29.0282 89.5656 28.8548C89.9227 28.5223 89.6704 28.2791 89.1729 28.0944C89.4074 27.7814 89.809 27.6582 90.3527 27.7013C90.3918 27.7475 90.454 27.8194 90.5535 27.9363C90.6637 27.8101 90.733 27.7301 90.7774 27.6777C90.9924 27.7075 91.1897 27.7352 91.3834 27.7619C91.3834 27.7619 91.3638 27.7547 91.3638 27.7547Z" fill="white"/>
<path d="M89.7589 12.3037C90.0119 12.3817 90.2648 12.461 90.454 12.5198C90.454 12.851 90.454 13.1425 90.454 13.5849C90.0009 13.4161 89.5324 13.3355 89.3652 13.1591C89.099 12.8778 89.011 12.5287 89.7589 12.3037Z" fill="white"/>
<path d="M84.0479 21.1154C84.3525 20.3804 84.6572 19.6477 85.047 18.7097C85.1747 19.3056 85.2625 19.7183 85.329 20.0295C84.89 20.4952 84.5228 20.8836 84.1569 21.2721C84.1197 21.2191 84.0838 21.1661 84.0479 21.1154Z" fill="white"/>
<path d="M90.454 14.8662C90.3789 15.4295 89.7081 16.1924 89.4177 16.1453C89.3176 16.1283 89.1574 15.8985 89.1741 15.793C89.2158 15.5237 89.2792 15.1337 89.4444 15.0395C89.7231 14.8832 90.0869 14.9171 90.454 14.8662Z" fill="white"/>
<path d="M87.8915 11.5003C87.5447 11.8724 87.3523 12.1863 87.095 12.3006C86.9959 12.3455 86.5919 11.915 86.611 11.7446C86.6415 11.4734 86.874 11.1169 87.0893 11.0317C87.2513 10.9667 87.5199 11.2671 87.8915 11.5003Z" fill="white"/>
<path d="M87.8916 13.3582C88.3117 13.0102 88.6699 12.7149 89.1644 12.3037C89.1504 12.6728 89.2171 13.0376 89.1132 13.2C88.7954 13.6956 88.383 13.6724 87.8916 13.3582Z" fill="white"/>
<path d="M89.4613 19.9907C89.748 20.6523 89.9111 21.0194 90.0634 21.3911C90.1996 21.7208 90.325 22.0574 90.454 22.3894C90.3823 22.4432 90.3089 22.4993 90.2372 22.5531C90.0168 22.207 89.7964 21.861 89.5491 21.4706C89.5008 21.501 89.3897 21.5688 89.1729 21.7044C89.275 21.1036 89.3592 20.6056 89.4613 19.9907Z" fill="white"/>
<path d="M85.3291 14.4124C85.5152 14.1026 85.6548 13.8671 85.8243 13.585C86.3859 13.8693 86.9044 14.1366 87.4295 14.3975C87.5724 14.4675 87.7352 14.5227 87.8914 14.5842C87.702 14.6839 87.4694 14.8876 87.3331 14.8643C86.6684 14.7497 86.0303 14.5757 85.3291 14.4124Z" fill="white"/>
<path d="M91.7353 9.74137C91.5501 9.70558 91.3232 9.73242 91.108 9.60716C90.8928 9.48189 90.6893 9.20899 90.4541 8.97187C91.1314 8.07263 91.5084 8.37685 91.7353 9.74137Z" fill="white"/>
<path d="M89.1729 31.3018C89.6211 30.9308 90.0694 30.5599 90.454 30.2402C90.4469 30.3818 90.4328 30.6478 90.4068 31.1041C90.1402 31.1993 89.6825 31.3603 89.2248 31.5214C89.2082 31.4482 89.1917 31.375 89.1729 31.3018Z" fill="white"/>
</svg>
