<svg width="7" height="5" viewBox="0 0 7 5" fill="none" xmlns="http://www.w3.org/2000/svg">
<path d="M3.46274 4.59865C3.48881 4.63652 3.52371 4.66749 3.56441 4.68888C3.60511 4.71027 3.65041 4.72145 3.69639 4.72145C3.74237 4.72145 3.78767 4.71027 3.82837 4.68888C3.86907 4.66749 3.90397 4.63652 3.93004 4.59865L6.4883 0.903387C6.51791 0.860765 6.53528 0.810844 6.53851 0.759046C6.54174 0.707248 6.53071 0.655555 6.50663 0.609584C6.48255 0.563612 6.44632 0.52512 6.4019 0.498289C6.35747 0.471459 6.30654 0.457316 6.25465 0.457398H1.13813C1.08636 0.457612 1.03562 0.471936 0.991371 0.498831C0.947125 0.525726 0.911048 0.564173 0.887019 0.610038C0.86299 0.655904 0.851919 0.707452 0.854996 0.759139C0.858072 0.810826 0.875181 0.860696 0.904481 0.903387L3.46274 4.59865Z" fill="white" fill-opacity="0.4"/>
</svg>
