<svg width="7" height="5" viewBox="0 0 7 5" fill="none" xmlns="http://www.w3.org/2000/svg">
<path d="M3.93058 0.770647C3.9045 0.732777 3.86961 0.701813 3.82891 0.680421C3.78822 0.65903 3.74293 0.647853 3.69695 0.647853C3.65097 0.647853 3.60568 0.65903 3.56498 0.680421C3.52428 0.701813 3.48939 0.732777 3.46332 0.770647L0.905304 4.46555C0.875695 4.50817 0.858331 4.55809 0.8551 4.60988C0.851869 4.66167 0.862893 4.71336 0.886975 4.75933C0.911058 4.80529 0.947277 4.84378 0.991698 4.87061C1.03612 4.89744 1.08704 4.91158 1.13894 4.9115L6.25496 4.9115C6.30673 4.91128 6.35747 4.89696 6.40171 4.87007C6.44595 4.84318 6.48202 4.80473 6.50605 4.75887C6.53008 4.71301 6.54115 4.66147 6.53807 4.60979C6.53499 4.5581 6.51789 4.50824 6.48859 4.46555L3.93058 0.770647Z" fill="white" fill-opacity="0.4"/>
</svg>
