<svg width="335" height="154" viewBox="0 0 335 154" fill="none" xmlns="http://www.w3.org/2000/svg">
<g clip-path="url(#clip0_1138_1868)">
<path d="M256.541 23.7036C256.541 23.6538 256.541 23.6041 256.518 23.5544C256.518 23.5212 256.518 23.4881 256.518 23.4549C256.518 23.4715 256.518 23.4715 256.518 23.4881C256.359 19.8577 254.224 16.9733 250.75 14.2712C247.32 11.6024 242.415 9.92808 240.803 6.51322C241.756 4.57371 244.141 3.26413 246.435 1.82193C249.251 0.0150414 250.795 -2.57097 251.704 -5.12383C252.612 -7.69326 252.408 -11.0252 251.658 -13.5947C249.069 -22.4468 234.239 -26.7236 232.286 -35.9902C232.536 -34.8464 232.036 -33.6197 232.286 -32.4593C233.513 -26.7236 239.463 -22.6125 244.663 -18.402C247.298 -16.2636 249.66 -14.0091 251.136 -11.3734C252.657 -8.63815 251.567 -7.24568 248.91 -3.76451C246.775 -0.963005 242.142 0.147659 240.644 3.29729C239.917 4.85552 240.371 6.89449 240.417 8.51904C240.507 11.7681 244.368 13.7739 247.616 15.6803C251.749 18.1171 255.314 21.1341 256.314 24.8308C254.838 30.036 248.751 33.8984 242.483 36.6833C241.688 37.0314 243.233 39.8827 242.483 40.2142C248.206 37.6614 253.498 34.346 255.882 29.8205C256.813 27.9141 256.586 25.6928 256.541 23.7036Z" fill="url(#paint0_linear_1138_1868)"/>
<path d="M4.31008 96.5847C-0.0957155 96.22 -4.97842 95.6398 -7.86263 93.0538C-7.5901 93.2858 -7.88534 94.5291 -7.88534 94.8109C-7.88534 95.1259 -8.15786 96.3029 -7.86263 96.5681C-4.97842 99.1541 -0.0957155 99.7343 4.31008 100.099C4.1511 100.116 4.53718 96.6178 4.31008 96.5847Z" fill="url(#paint1_linear_1138_1868)"/>
<path d="M91.7035 47.3768C91.658 44.4593 89.0464 42.3043 85.0494 41.5417C85.4581 41.6246 84.5724 44.9732 85.0494 45.0726C86.798 45.4208 88.3196 46.001 89.5914 46.9127C89.9775 47.1779 90.2727 47.4929 90.5679 47.8244C89.8412 47.9239 88.9328 47.8907 88.4105 47.841C87.2068 47.725 86.2757 47.1116 85.549 46.4817C85.7988 46.6972 85.5263 47.957 85.5263 48.2389C85.5263 48.5538 85.2537 49.7474 85.549 49.996C86.8889 51.1564 88.5467 51.5874 90.6361 51.2724C91.7716 51.1067 91.658 50.8249 91.6808 50.1286C91.7262 49.2169 91.7262 48.2886 91.7035 47.3768Z" fill="url(#paint2_linear_1138_1868)"/>
<path d="M194.383 49.2156C191.816 48.0884 188.251 48.1381 186.752 46.0328C187.025 46.3975 186.729 47.3922 186.729 47.79C186.729 48.221 186.48 49.1659 186.752 49.5472C187.82 51.0391 190.068 51.5364 192.18 52.0669C193.134 52.2989 194.065 52.5807 194.905 52.9786C196.994 54.0064 196.041 56.7581 196.381 52.0834C196.313 53.1444 196.449 54.6529 196.404 55.4817C196.54 53.4427 197.312 50.5086 194.383 49.2156Z" fill="url(#paint3_linear_1138_1868)"/>
<path d="M80.7753 117.687C80.1849 116.013 78.686 114.521 77.4142 113.079C76.7556 112.349 76.1879 111.587 75.6882 110.791C75.3703 110.294 74.7117 107.525 74.6436 109.714C74.6663 108.901 74.6663 108.106 74.6436 107.293C74.6436 107.194 74.6209 106 74.6209 106.663C74.5754 109.017 74.3483 111.404 75.3476 113.675C76.0516 115.317 77.5732 116.759 78.8223 118.218C79.4581 118.963 80.0032 119.743 80.4574 120.555C80.8435 121.218 81.0025 123.854 81.2068 121.649C81.116 122.71 81.2977 124.218 81.2296 125.047C81.4567 122.644 81.6156 120.058 80.7753 117.687Z" fill="url(#paint4_linear_1138_1868)"/>
<path d="M91.6635 0.943362C91.6635 0.8439 91.6635 0.761015 91.6635 0.661553C91.6635 0.694707 91.6408 0.744437 91.6408 0.777592C91.4818 -0.117566 91.073 -0.946416 90.0737 -1.74211C87.1668 -3.99658 81.8753 -4.06289 80.9215 -7.49432C81.2394 -6.36709 80.6036 -5.10724 80.9215 -3.96342C81.898 -0.382795 88.6203 -0.117566 90.914 2.55133C89.0518 4.77264 84.1918 5.22023 81.3984 6.97739C79.3999 8.23724 80.0812 12.0997 80.9215 13.6745C80.4673 12.8291 81.1259 11.7018 81.0578 10.7404C83.4651 8.00516 91.073 8.3367 91.6408 4.05983C91.6408 4.07641 91.6635 4.09299 91.6635 4.12614C91.6635 4.04326 91.6635 3.9438 91.6635 3.84434C91.6635 3.76145 91.6862 3.67857 91.6862 3.59568C91.6862 2.68395 91.777 1.80537 91.6635 0.943362Z" fill="url(#paint5_linear_1138_1868)"/>
<path d="M313.521 10.5414C313.566 9.62971 313.453 8.7014 313.453 7.88913C313.43 5.46889 310.705 3.77803 308.207 2.31926C305.822 0.926791 300.826 -0.714329 300.054 -3.00195C300.44 -1.89129 299.668 -0.598291 300.054 0.528944C300.712 2.46845 304.619 3.89407 306.731 5.02131C308.865 6.16512 311.341 7.49128 312.635 9.21528C312.499 9.36448 312.363 9.51367 312.181 9.66286C311.727 9.43079 311.25 9.19871 310.705 9.01636C308.661 8.30355 303.369 6.96081 303.188 9.82863C303.097 11.3371 302.711 13.2269 303.528 14.6525C305.209 17.5701 310.569 14.6857 312.181 13.4258C312.249 13.3595 312.317 13.2932 312.385 13.2269C316.269 15.1498 315.588 17.3546 314.77 20.6368C314.497 21.7806 315.043 23.0239 314.77 24.1677C315.769 20.1064 317.609 13.9563 313.521 10.5414ZM304.301 11.9008C305.323 11.42 306.89 11.5361 308.343 11.8345C306.821 12.3483 305.3 12.4809 304.301 11.9008Z" fill="url(#paint6_linear_1138_1868)"/>
<path d="M51.3756 -6.73175C49.7405 -3.28374 45.4936 -2.55435 40.7245 -2.85274C40.838 -2.85274 40.5428 0.661584 40.7245 0.678161C45.4936 0.976546 49.7405 0.230582 51.3756 -3.20085C51.8979 -4.27836 50.876 -5.6874 51.3756 -6.73175Z" fill="url(#paint7_linear_1138_1868)"/>
<path d="M240.098 52.3487C237.169 51.3375 234.126 50.2102 233.512 47.7568C233.785 48.9006 233.217 50.1439 233.512 51.2877C234.126 53.7411 237.169 54.8518 240.098 55.8796C239.962 55.8298 240.121 54.255 240.121 54.1224C240.121 53.9732 240.303 52.415 240.098 52.3487Z" fill="url(#paint8_linear_1138_1868)"/>
<path d="M55.068 145.42C54.2051 143.647 52.5926 142.403 50.7304 141.094C49.9128 140.514 49.1634 139.917 48.5275 139.221C48.1868 138.856 47.9824 138.458 47.778 138.06C47.6191 137.762 47.5737 137.414 47.5737 137.231C47.5737 137.397 47.5282 137.745 47.4601 138.375C47.5964 137.215 47.3011 136.005 47.4601 134.844C47.1649 137.115 46.8696 139.851 47.9824 142.006C49.3905 144.724 53.6373 146.1 55.0453 148.951C54.5457 147.907 55.5904 146.481 55.068 145.42Z" fill="url(#paint9_linear_1138_1868)"/>
<path d="M151.187 22.0127C151.073 25.2452 149.892 29.3231 147.644 32.1744C146.917 33.0861 148.348 34.8101 147.644 35.7053C149.938 32.8043 151.073 28.6932 151.187 25.411C151.232 24.3666 151.164 22.8581 151.187 22.0127Z" fill="url(#paint10_linear_1138_1868)"/>
<path d="M265.095 67.4516C264.755 69.358 262.961 70.3028 260.78 71.2809C258.259 72.4247 256.761 73.7674 256.465 75.9059C256.306 77.0663 256.624 78.2764 256.465 79.4368C256.761 77.2818 258.259 75.9722 260.78 74.8118C262.961 73.8006 264.755 72.9054 265.095 70.9825C265.3 69.8221 264.891 68.612 265.095 67.4516Z" fill="url(#paint11_linear_1138_1868)"/>
<path d="M33.5836 60.6954C34.5147 56.4351 33.4473 52.1583 29.791 48.6771C27.0203 46.0414 23.6819 44.7981 19.5032 43.5382C16.9824 42.7757 13.9165 41.9468 12.463 40.3223C14.1436 38.3165 17.9135 37.0566 20.5479 35.946C24.7266 34.1722 29.632 32.067 29.7683 28.2708C29.8591 25.8837 30.0408 23.4635 29.2459 21.1427C27.7016 16.6006 20.8658 14.3296 14.893 13.5007C15.1883 13.5339 14.5297 16.9819 14.893 17.0316C22.8416 18.1423 34.8327 23.795 26.3617 29.5473C22.2057 32.3653 12.2814 34.0396 11.6228 38.648C11.6228 38.6149 11.6 38.5983 11.6 38.5651V38.8635C11.6 38.9298 11.5773 39.0127 11.5773 39.079C11.5546 40.0405 11.4638 41.0351 11.6 41.98V42.0795C11.6 42.0629 11.6 42.0463 11.6 42.0297C11.6909 42.5933 11.8271 43.1404 12.1224 43.6708C13.6667 46.4226 21.3655 47.5001 24.7266 48.7766C28.7463 50.3016 34.2876 55.2747 33.1294 58.6067C32.1756 61.3751 28.5192 62.7841 24.9764 63.6627C18.4585 65.2707 9.01108 65.6519 7.37594 71.4539C6.49024 74.6367 7.35323 77.6537 10.9869 79.7258C16.3238 82.776 23.2504 84.1353 27.9514 87.7822C28.9734 88.5779 29.6547 89.5062 30.177 90.5008C30.2225 90.5837 30.2452 90.65 30.2679 90.7329C30.0181 91.5949 29.3141 92.4238 28.7236 93.1863C26.7932 95.6894 26.3617 97.4466 26.3844 100.215C26.4071 103.298 27.9514 105.636 25.7258 108.537C23.3185 111.653 18.7538 113.642 16.3692 116.875C15.6879 117.82 17.0505 119.477 16.3692 120.406C18.6175 117.372 22.2285 115.35 25.1354 112.681C27.4972 110.509 27.5427 107.824 27.5427 105.221C27.5427 102.469 26.1346 99.9497 28.1104 97.4632C30.0408 95.0098 30.654 93.1034 30.654 90.4014C30.6313 85.6935 27.1566 83.1075 21.5699 80.6707C17.8 79.0296 9.89678 77.0569 7.85285 73.6918C11.5092 66.1327 31.5851 69.9454 33.5836 60.6954Z" fill="url(#paint12_radial_1138_1868)"/>
<path d="M298.396 50.061C295.829 49.6797 293.422 49.0167 291.31 47.9391C291.514 48.0386 291.287 49.5305 291.287 49.6963C291.287 49.8952 291.06 51.3374 291.31 51.4535C293.445 52.531 295.852 53.1941 298.396 53.5753C298.1 53.5422 298.782 50.1107 298.396 50.061Z" fill="url(#paint13_radial_1138_1868)"/>
<path d="M286.608 8.75111C284.474 7.972 282.657 6.71214 281.544 5.22021C281.589 5.28652 281.521 5.70095 281.521 5.7341C281.521 6.14853 281.521 6.56295 281.521 6.97738C281.521 7.3918 281.521 7.80623 281.521 8.22065C281.521 8.28696 281.476 8.65165 281.544 8.73453C282.68 10.2265 284.474 11.4863 286.608 12.2654C286.449 12.2157 286.631 10.6409 286.631 10.5083C286.631 10.3591 286.813 8.81742 286.608 8.75111Z" fill="url(#paint14_radial_1138_1868)"/>
<path d="M167.13 2.96574C165.563 2.28608 163.86 2.25293 162.066 2.25293C162.02 2.25293 162.02 5.78383 162.066 5.78383C163.86 5.78383 165.563 5.8004 167.13 6.49664C166.948 6.41375 167.153 4.88867 167.153 4.73947C167.153 4.55713 167.357 3.0652 167.13 2.96574Z" fill="url(#paint15_radial_1138_1868)"/>
<path d="M325.362 136.781C325.362 136.367 325.362 135.952 325.362 135.538C325.362 135.123 325.362 134.709 325.362 134.295C325.362 134.278 325.293 133.83 325.339 133.781C324.249 134.891 322.886 135.853 321.796 136.964C321.728 137.03 321.773 137.428 321.773 137.477C321.773 137.892 321.773 138.306 321.773 138.721C321.773 139.135 321.773 139.55 321.773 139.964C321.773 139.981 321.842 140.428 321.796 140.478C322.886 139.367 324.249 138.406 325.339 137.312C325.407 137.229 325.362 136.831 325.362 136.781Z" fill="url(#paint16_radial_1138_1868)"/>
<path d="M233.512 6.31435C226.222 5.46893 229.084 12.0666 226.404 14.7852C225.609 15.5975 227.176 17.5204 226.404 18.3161C229.084 15.5975 226.222 8.99983 233.512 9.84525C233.262 9.8121 233.83 6.34751 233.512 6.31435Z" fill="url(#paint17_radial_1138_1868)"/>
<path d="M315.583 132.877C315.583 132.877 315.583 132.86 315.583 132.844V132.811C315.583 132.811 315.583 132.811 315.583 132.827C315.515 132.148 314.652 131.335 314.129 130.54C314.198 130.142 314.243 129.744 314.288 129.346C314.334 129.545 314.379 129.744 314.425 129.926C314.425 129.114 314.425 128.302 314.425 127.506C314.425 127.307 314.447 127.125 314.447 126.926C314.447 126.843 314.425 126.777 314.425 126.694C314.425 126.611 314.425 126.545 314.425 126.462C314.425 126.511 314.425 126.545 314.425 126.594C314.334 125.6 313.925 124.671 313.221 123.776C312.585 122.981 311.609 122.666 310.836 122.201C312.017 121.157 313.857 120.378 314.97 119.168C315.651 118.422 315.333 117.079 315.31 116.25C315.31 114.891 315.424 114.012 314.47 112.786C313.812 111.94 312.676 111.244 311.836 110.481C311.949 110.432 312.086 110.399 312.245 110.365C313.017 110.05 311.54 107.116 312.245 106.835C311.563 107.116 311.2 107.498 311.018 107.945C311.018 107.912 311.018 107.895 310.995 107.879C310.995 107.912 310.995 107.945 310.995 107.978C310.655 108.84 310.973 109.934 310.973 110.879C310.995 113.3 312.949 114.46 314.334 116.167C313.062 117.361 311.132 118.14 309.883 119.416C309.224 120.08 309.633 121.77 309.633 122.566C309.633 123.113 309.587 123.627 309.656 124.141C309.656 124.191 309.656 124.224 309.656 124.274C309.656 124.257 309.656 124.224 309.656 124.207C309.724 124.638 309.86 125.069 310.178 125.484C310.587 126.031 311.904 126.429 312.562 126.81C313.425 127.307 313.857 128.036 314.107 128.799C314.039 129.247 313.948 129.694 313.88 130.142C313.834 130.026 313.766 129.91 313.743 129.794C313.743 130.291 313.743 130.788 313.743 131.286C313.721 131.534 313.721 131.766 313.721 132.015C313.721 132.131 313.743 132.23 313.743 132.347C313.743 132.645 313.743 132.943 313.743 133.242C313.766 133.076 313.789 132.927 313.812 132.778C313.948 133.407 314.22 133.938 314.538 134.485C313.38 135.645 311.586 136.458 310.201 137.552C309.338 138.231 311.018 140.436 310.201 141.083C312.449 139.325 314.879 138.264 315.469 136.109C315.515 136.192 315.56 136.275 315.583 136.358V135.43C315.583 135.314 315.606 135.181 315.606 135.065C315.606 134.319 315.606 133.59 315.583 132.877Z" fill="url(#paint18_radial_1138_1868)"/>
<path d="M324.645 35.3234C325.258 35.5223 323.964 38.6388 324.645 38.8543C328.12 39.9649 330.482 41.8215 332.344 44.1092C334.343 46.5626 334.706 48.3695 332.957 50.8063C329.414 55.7462 318.673 56.0612 311.882 56.2932C308.476 56.4093 305.024 56.5419 301.617 56.459C297.711 56.3596 293.055 56.0612 290.171 58.2659C289.49 58.7798 288.854 59.7744 288.468 60.8685C288.445 60.8353 288.445 60.7856 288.422 60.7525V60.9845C287.855 62.6091 287.877 64.4326 289.172 65.2614C290.716 66.2394 294.373 65.9079 296.257 65.941C299.619 66.0074 302.934 67.1014 305.819 68.2287C311.905 70.5826 316.084 74.7932 317.378 79.5176C318.264 82.7501 315.084 86.1981 311.496 88.7841C304.479 87.0104 296.712 86.9441 293.237 90.359C291.988 91.5856 292.26 94.785 292.987 96.1277C295.394 100.703 306.659 95.2989 309.27 93.8401C309.997 93.4257 310.679 92.9781 311.314 92.4974C317.151 93.7738 323.601 96.2604 325.145 100.222C324.713 99.1282 325.576 97.802 325.145 96.6914C324.1 94.0059 319.694 91.3536 314.403 89.613C318.264 84.9714 318.809 79.0037 316.651 73.8649C314.766 69.3559 309.588 65.9411 303.706 63.9021C300.754 62.8743 297.779 62.4102 294.532 62.3604C293.237 62.3439 291.148 62.4102 289.785 61.946C293.101 59.0616 301.208 60.0728 305.932 59.9402C313.676 59.7247 322.011 59.9733 328.938 57.1718C340.02 52.7292 334.297 38.4233 324.645 35.3234ZM293.487 93.608C295.849 91.0883 302.594 91.2375 306.613 91.7017C304.002 92.8123 296.008 95.4647 293.487 93.608Z" fill="url(#paint19_radial_1138_1868)"/>
<path d="M223.996 79.3525C222.952 76.0371 220.544 73.0864 217.206 70.633C215.571 69.4395 210.847 67.9973 208.735 66.323C210.211 64.715 212.641 64.0022 215.435 63.2065C217.842 62.5103 218.455 61.4659 218.614 60.0569C218.614 60.09 218.637 60.1232 218.637 60.1564C218.637 60.0072 218.637 59.858 218.637 59.7088C218.659 59.4435 218.659 59.1617 218.659 58.8633C218.659 58.25 218.682 57.6698 218.637 57.1393C218.637 56.9902 218.637 56.841 218.637 56.6918C218.637 56.7581 218.614 56.8244 218.614 56.8741C218.478 55.9458 218.046 55.1169 216.774 54.3047C214.072 52.5807 209.984 52.1828 208.303 49.9947C209.28 48.4033 211.097 47.1434 212.346 45.5354C213.232 44.4082 212.936 42.9163 212.936 41.7062C212.936 40.4132 212.982 39.3357 212.142 38.1421C211.21 36.7994 209.121 35.8379 207.827 34.6278C208.122 34.3957 208.462 34.1802 208.849 33.9481C209.712 33.4177 208.031 30.9145 208.849 30.4172C207.599 31.1798 207.009 32.0086 206.759 32.9038C206.736 32.8209 206.714 32.738 206.714 32.6551C206.714 32.7877 206.714 32.9369 206.714 33.0861C206.509 33.9979 206.6 34.9759 206.691 36.07C206.691 36.0866 206.691 36.0866 206.691 36.1031C206.691 36.1197 206.691 36.1197 206.691 36.1363C206.691 36.1363 206.691 36.1363 206.691 36.1197C206.964 38.5897 210.688 39.8827 212.232 41.988C211.051 43.7617 208.871 45.1708 207.872 47.044C207.213 48.2541 207.599 49.9947 207.599 51.2545C207.599 51.3871 207.622 51.5197 207.622 51.6524C207.622 51.785 207.622 51.9176 207.622 52.0668C207.622 51.9839 207.645 51.901 207.645 51.8181C208.281 55.7137 215.094 55.8795 217.706 58.4987C215.775 60.1564 211.347 60.3553 209.348 62.1622C208.349 63.0573 207.917 63.9691 207.713 64.9139C207.713 64.8476 207.668 64.7979 207.668 64.7316C207.668 64.8642 207.668 64.9968 207.668 65.1295C207.509 66.1406 207.622 67.2016 207.668 68.3454C207.713 69.5223 209.484 70.1688 210.733 70.7159C213.481 71.926 215.957 73.2024 218.205 74.8601C222.906 78.3081 225.291 83.9775 225.041 88.6688C224.996 89.7297 225.109 91.2382 225.064 92.0671C225.291 87.8565 225.336 83.5465 223.996 79.3525Z" fill="url(#paint20_radial_1138_1868)"/>
<path d="M68.8753 56.5678C68.8753 56.4186 68.8753 56.2529 68.8753 56.1037C68.8753 56.1368 68.8526 56.1534 68.8299 56.1866C68.7845 55.6064 68.6709 55.0262 68.4665 54.446C67.7398 52.5065 64.2197 53.1032 62.4029 51.9926C63.3794 50.8653 64.8783 49.9204 66.0592 48.8761C67.6489 47.4836 68.1486 45.8094 68.2394 44.0853V44.1019C68.2394 44.0688 68.2394 44.0356 68.2394 43.9859C68.2394 43.8533 68.2621 43.7207 68.2621 43.5715C68.2848 42.5768 68.3757 41.5491 68.2394 40.5545C67.9442 38.3829 65.8094 37.985 63.2204 37.2556C60.4952 36.4765 57.452 34.9846 55.9759 33.1777C55.7942 32.9125 55.6806 32.6307 55.5898 32.3488C55.7715 30.8072 55.9304 29.2655 56.0667 27.7239C56.5663 22.6679 56.7253 17.5787 56.2938 12.5228C56.3619 13.3516 56.1803 14.8601 56.2938 15.9211C56.8161 22.1374 55.0902 28.2875 55.3854 34.4873C55.499 36.9904 57.4747 38.2337 60.359 39.6261C62.789 40.8031 66.3317 41.1181 67.7171 42.8255C66.8995 44.649 65.2871 45.9917 63.2659 47.6162C62.0622 48.5777 61.5626 49.5226 61.4263 50.6498C61.4263 50.6167 61.4036 50.5835 61.3809 50.5338V50.9482C61.3809 51.0974 61.3582 51.2466 61.3582 51.3958C61.3582 52.1252 61.3355 52.8546 61.3809 53.584V54.0481C61.3809 54.015 61.4036 53.9818 61.4036 53.9487C61.4263 54.2139 61.4718 54.4791 61.5172 54.7278C61.926 56.833 65.6959 56.3026 67.6717 57.5459C67.3537 57.7779 66.9904 57.9934 66.6043 58.2421C65.0146 59.2533 64.4695 60.9607 63.7655 62.32C63.4248 62.95 63.2886 63.5799 63.2204 64.2264C63.2204 64.1932 63.1977 64.1767 63.1977 64.1435C63.1977 64.2098 63.1977 64.2927 63.1977 64.359C63.1523 65.0055 63.175 65.652 63.175 66.3151C63.175 66.4477 63.1977 66.5803 63.1977 66.7129C63.1977 67.0113 63.1977 67.3097 63.1977 67.6081C63.2204 67.5086 63.2432 67.4258 63.2659 67.3263C63.8109 71.1721 67.172 74.6865 68.3075 78.582C68.0577 79.2451 67.6489 79.8585 66.9903 80.505C66.1728 81.3007 67.7625 83.2568 66.9903 84.0359C69.1705 81.8809 68.7618 79.0131 68.6255 76.4768C68.5119 74.2555 67.3764 72.0673 66.3545 69.9786C65.6959 68.6193 64.4241 67.2102 63.7201 65.7846C64.3787 64.1104 65.5823 62.4361 67.2629 61.342C68.353 60.6458 68.7163 60.0656 68.8526 59.303C68.8526 59.3693 68.898 59.4356 68.898 59.5185C68.898 59.3362 68.898 59.1704 68.898 58.9881C68.9207 58.7726 68.9207 58.5405 68.9207 58.2918C68.9207 57.7282 68.9207 57.148 68.8753 56.5678Z" fill="url(#paint21_radial_1138_1868)"/>
<path d="M279.864 33.0198C276.775 32.9867 274.232 32.2076 272.256 30.5499C272.506 30.7654 272.233 32.0418 272.233 32.307C272.233 32.6054 271.961 33.8321 272.256 34.0642C274.232 35.7219 276.775 36.501 279.864 36.5342C279.887 36.5507 279.932 33.0198 279.864 33.0198Z" fill="url(#paint22_radial_1138_1868)"/>
<path d="M194.905 22.1951C192.975 21.1673 191.771 19.8743 190.84 18.316C190.885 18.3989 190.817 18.7636 190.817 18.8299C190.817 19.2443 190.794 19.6588 190.794 20.0732C190.794 20.5374 190.567 21.3994 190.817 21.8304C191.726 23.3886 192.929 24.6816 194.882 25.7094C194.678 25.5933 194.905 24.1346 194.905 23.9522C194.928 23.7533 195.155 22.3277 194.905 22.1951Z" fill="url(#paint23_radial_1138_1868)"/>
<path d="M137.013 -5.09595C135.923 -0.935124 132.335 2.5792 130.495 6.57425C129.564 8.61322 129.86 10.9008 129.905 13.0061C129.928 13.6526 129.928 12.4591 129.928 12.3762C129.928 12.3265 129.928 12.2933 129.928 12.2436C130.677 7.30364 135.719 3.29202 137.013 -1.56504C137.309 -2.70885 136.718 -3.96871 137.013 -5.09595Z" fill="url(#paint24_radial_1138_1868)"/>
<path d="M45.2565 26.4143C42.9174 24.74 41.2595 22.7342 40.6918 20.4134C40.9643 21.5572 40.4192 22.8005 40.6918 23.9443C41.2595 26.2651 42.9174 28.2709 45.2565 29.9452C45.0067 29.7628 45.2792 28.4201 45.2792 28.188C45.2792 27.9228 45.5291 26.6298 45.2565 26.4143Z" fill="url(#paint25_radial_1138_1868)"/>
<path d="M104.29 22.5432C101.724 22.1619 99.3169 21.4988 97.1822 20.4213C97.3866 20.5208 97.1595 22.0127 97.1595 22.1785C97.1595 22.3774 96.9324 23.8196 97.1822 23.9356C99.3169 25.0131 101.724 25.6762 104.29 26.0575C103.995 26.0243 104.677 22.5929 104.29 22.5432Z" fill="url(#paint26_radial_1138_1868)"/>
<path d="M313.614 150.469C310.662 149.126 306.233 147.867 305.507 145.181C305.825 146.308 305.211 147.568 305.507 148.712C306.233 151.397 310.662 152.657 313.614 154C313.433 153.917 313.637 152.392 313.637 152.243C313.637 152.06 313.841 150.585 313.614 150.469Z" fill="url(#paint27_radial_1138_1868)"/>
<path d="M184.299 43.9441C184.299 43.7618 184.072 42.2864 184.276 42.1869C180.189 44.4083 175.488 42.4025 173.126 39.717C173.398 40.0154 173.103 41.126 173.103 41.4741C173.103 41.8554 172.83 42.8998 173.126 43.2313C175.488 45.9168 180.189 47.9226 184.276 45.7013C184.526 45.5687 184.299 44.143 184.299 43.9441Z" fill="url(#paint28_radial_1138_1868)"/>
<path d="M128.227 45.1708C128.25 44.6072 128.25 44.0104 128.227 43.3805V43.3639C128.227 43.165 128.205 42.9661 128.205 42.7671C128.114 40.9768 125.934 39.4186 124.344 38.1422C121.937 36.2027 119.802 34.1637 118.916 31.6937C119.143 30.7488 119.461 29.8205 119.756 28.8756C120.12 27.7484 119.393 26.4554 119.756 25.3447C118.848 28.1462 118.121 31.1301 118.598 34.0145C119.052 36.7663 121.119 39.0042 123.617 41.0763C125.139 42.3361 126.797 43.5131 127.637 44.9719C127.001 46.1488 125.979 47.1932 124.821 48.2541C123.981 49.0167 125.616 51.0556 124.821 51.785C126.956 49.8289 127.796 48.1215 128.091 46.182C128.137 46.3809 128.182 46.5798 128.182 46.7788C128.227 46.2649 128.227 45.7178 128.227 45.1708Z" fill="url(#paint29_radial_1138_1868)"/>
</g>
<defs>
<linearGradient id="paint0_linear_1138_1868" x1="232.196" y1="2.12446" x2="256.599" y2="2.12446" gradientUnits="userSpaceOnUse">
<stop offset="0.0053476" stop-color="#D0C2E1"/>
<stop offset="0.2421" stop-color="#A77BB5"/>
<stop offset="0.4448" stop-color="#8B4393"/>
<stop offset="0.5401" stop-color="#803089"/>
<stop offset="0.5548" stop-color="#7C2E84"/>
<stop offset="0.625" stop-color="#68256E"/>
<stop offset="0.6932" stop-color="#561D5A"/>
<stop offset="0.7579" stop-color="#471549"/>
<stop offset="0.818" stop-color="#3C0D3C"/>
<stop offset="0.8719" stop-color="#340733"/>
<stop offset="0.9144" stop-color="#320530"/>
</linearGradient>
<linearGradient id="paint1_linear_1138_1868" x1="-7.99639" y1="96.5935" x2="4.38797" y2="96.5935" gradientUnits="userSpaceOnUse">
<stop offset="0.0107" stop-color="#D4EDFC"/>
<stop offset="0.3592" stop-color="#00B7ED"/>
<stop offset="0.5401" stop-color="#009FE3"/>
<stop offset="0.6194" stop-color="#0090CF"/>
<stop offset="0.8233" stop-color="#006C9F"/>
<stop offset="0.9198" stop-color="#005E8C"/>
</linearGradient>
<linearGradient id="paint2_linear_1138_1868" x1="84.8947" y1="46.4514" x2="91.7178" y2="46.4514" gradientUnits="userSpaceOnUse">
<stop offset="0.0107" stop-color="#D4EDFC"/>
<stop offset="0.3592" stop-color="#00B7ED"/>
<stop offset="0.5401" stop-color="#009FE3"/>
<stop offset="0.6194" stop-color="#0090CF"/>
<stop offset="0.8233" stop-color="#006C9F"/>
<stop offset="0.9198" stop-color="#005E8C"/>
</linearGradient>
<linearGradient id="paint3_linear_1138_1868" x1="186.624" y1="50.7669" x2="196.595" y2="50.7669" gradientUnits="userSpaceOnUse">
<stop offset="0.0107" stop-color="#D4EDFC"/>
<stop offset="0.3592" stop-color="#00B7ED"/>
<stop offset="0.5401" stop-color="#009FE3"/>
<stop offset="0.6194" stop-color="#0090CF"/>
<stop offset="0.8233" stop-color="#006C9F"/>
<stop offset="0.9198" stop-color="#005E8C"/>
</linearGradient>
<linearGradient id="paint4_linear_1138_1868" x1="74.5648" y1="115.77" x2="81.4121" y2="115.77" gradientUnits="userSpaceOnUse">
<stop offset="0.0107" stop-color="#D4EDFC"/>
<stop offset="0.3592" stop-color="#00B7ED"/>
<stop offset="0.5401" stop-color="#009FE3"/>
<stop offset="0.6194" stop-color="#0090CF"/>
<stop offset="0.8233" stop-color="#006C9F"/>
<stop offset="0.9198" stop-color="#005E8C"/>
</linearGradient>
<linearGradient id="paint5_linear_1138_1868" x1="80.0974" y1="3.10997" x2="91.7239" y2="3.10997" gradientUnits="userSpaceOnUse">
<stop offset="0.0107" stop-color="#D4EDFC"/>
<stop offset="0.3592" stop-color="#00B7ED"/>
<stop offset="0.5401" stop-color="#009FE3"/>
<stop offset="0.6194" stop-color="#0090CF"/>
<stop offset="0.8233" stop-color="#006C9F"/>
<stop offset="0.9198" stop-color="#005E8C"/>
</linearGradient>
<linearGradient id="paint6_linear_1138_1868" x1="299.945" y1="10.5758" x2="316.057" y2="10.5758" gradientUnits="userSpaceOnUse">
<stop offset="0.0107" stop-color="#D4EDFC"/>
<stop offset="0.3592" stop-color="#00B7ED"/>
<stop offset="0.5401" stop-color="#009FE3"/>
<stop offset="0.6194" stop-color="#0090CF"/>
<stop offset="0.8233" stop-color="#006C9F"/>
<stop offset="0.9198" stop-color="#005E8C"/>
</linearGradient>
<linearGradient id="paint7_linear_1138_1868" x1="40.6736" y1="-3.00591" x2="51.533" y2="-3.00591" gradientUnits="userSpaceOnUse">
<stop offset="0.0053476" stop-color="#D0C2E1"/>
<stop offset="0.2421" stop-color="#A77BB5"/>
<stop offset="0.4448" stop-color="#8B4393"/>
<stop offset="0.5401" stop-color="#803089"/>
<stop offset="0.5548" stop-color="#7C2E84"/>
<stop offset="0.625" stop-color="#68256E"/>
<stop offset="0.6932" stop-color="#561D5A"/>
<stop offset="0.7579" stop-color="#471549"/>
<stop offset="0.818" stop-color="#3C0D3C"/>
<stop offset="0.8719" stop-color="#340733"/>
<stop offset="0.9144" stop-color="#320530"/>
</linearGradient>
<linearGradient id="paint8_linear_1138_1868" x1="233.429" y1="51.8243" x2="240.199" y2="51.8243" gradientUnits="userSpaceOnUse">
<stop offset="0.0053476" stop-color="#D0C2E1"/>
<stop offset="0.2421" stop-color="#A77BB5"/>
<stop offset="0.4448" stop-color="#8B4393"/>
<stop offset="0.5401" stop-color="#803089"/>
<stop offset="0.5548" stop-color="#7C2E84"/>
<stop offset="0.625" stop-color="#68256E"/>
<stop offset="0.6932" stop-color="#561D5A"/>
<stop offset="0.7579" stop-color="#471549"/>
<stop offset="0.818" stop-color="#3C0D3C"/>
<stop offset="0.8719" stop-color="#340733"/>
<stop offset="0.9144" stop-color="#320530"/>
</linearGradient>
<linearGradient id="paint9_linear_1138_1868" x1="47.1855" y1="141.89" x2="55.2118" y2="141.89" gradientUnits="userSpaceOnUse">
<stop offset="0.0053476" stop-color="#D0C2E1"/>
<stop offset="0.2421" stop-color="#A77BB5"/>
<stop offset="0.4448" stop-color="#8B4393"/>
<stop offset="0.5401" stop-color="#803089"/>
<stop offset="0.5548" stop-color="#7C2E84"/>
<stop offset="0.625" stop-color="#68256E"/>
<stop offset="0.6932" stop-color="#561D5A"/>
<stop offset="0.7579" stop-color="#471549"/>
<stop offset="0.818" stop-color="#3C0D3C"/>
<stop offset="0.8719" stop-color="#340733"/>
<stop offset="0.9144" stop-color="#320530"/>
</linearGradient>
<linearGradient id="paint10_linear_1138_1868" x1="147.437" y1="28.8683" x2="151.211" y2="28.8683" gradientUnits="userSpaceOnUse">
<stop offset="0.0053476" stop-color="#D0C2E1"/>
<stop offset="0.2421" stop-color="#A77BB5"/>
<stop offset="0.4448" stop-color="#8B4393"/>
<stop offset="0.5401" stop-color="#803089"/>
<stop offset="0.5548" stop-color="#7C2E84"/>
<stop offset="0.625" stop-color="#68256E"/>
<stop offset="0.6932" stop-color="#561D5A"/>
<stop offset="0.7579" stop-color="#471549"/>
<stop offset="0.818" stop-color="#3C0D3C"/>
<stop offset="0.8719" stop-color="#340733"/>
<stop offset="0.9144" stop-color="#320530"/>
</linearGradient>
<linearGradient id="paint11_linear_1138_1868" x1="256.419" y1="73.4482" x2="265.146" y2="73.4482" gradientUnits="userSpaceOnUse">
<stop offset="0.0053476" stop-color="#D0C2E1"/>
<stop offset="0.2421" stop-color="#A77BB5"/>
<stop offset="0.4448" stop-color="#8B4393"/>
<stop offset="0.5401" stop-color="#803089"/>
<stop offset="0.5548" stop-color="#7C2E84"/>
<stop offset="0.625" stop-color="#68256E"/>
<stop offset="0.6932" stop-color="#561D5A"/>
<stop offset="0.7579" stop-color="#471549"/>
<stop offset="0.818" stop-color="#3C0D3C"/>
<stop offset="0.8719" stop-color="#340733"/>
<stop offset="0.9144" stop-color="#320530"/>
</linearGradient>
<radialGradient id="paint12_radial_1138_1868" cx="0" cy="0" r="1" gradientUnits="userSpaceOnUse" gradientTransform="translate(20.5161 66.941) scale(55.1346 38.3612)">
<stop offset="0.00534759" stop-color="#FFFCDF"/>
<stop offset="0.3616" stop-color="#BCD362"/>
<stop offset="0.5401" stop-color="#95C11F"/>
<stop offset="0.7536" stop-color="#64B32F"/>
<stop offset="0.9144" stop-color="#3AAA35"/>
</radialGradient>
<radialGradient id="paint13_radial_1138_1868" cx="0" cy="0" r="1" gradientUnits="userSpaceOnUse" gradientTransform="translate(294.848 50.7664) scale(3.8662 2.68999)">
<stop offset="0.00534759" stop-color="#FFFCDF"/>
<stop offset="0.3616" stop-color="#BCD362"/>
<stop offset="0.5401" stop-color="#95C11F"/>
<stop offset="0.7536" stop-color="#64B32F"/>
<stop offset="0.9144" stop-color="#3AAA35"/>
</radialGradient>
<radialGradient id="paint14_radial_1138_1868" cx="0" cy="0" r="1" gradientUnits="userSpaceOnUse" gradientTransform="translate(284.099 8.74472) scale(4.02925 2.80345)">
<stop offset="0.00534759" stop-color="#FFFCDF"/>
<stop offset="0.3616" stop-color="#BCD362"/>
<stop offset="0.5401" stop-color="#95C11F"/>
<stop offset="0.7536" stop-color="#64B32F"/>
<stop offset="0.9144" stop-color="#3AAA35"/>
</radialGradient>
<radialGradient id="paint15_radial_1138_1868" cx="0" cy="0" r="1" gradientUnits="userSpaceOnUse" gradientTransform="translate(164.637 4.38328) scale(2.83083 1.96962)">
<stop offset="0.00534759" stop-color="#FFFCDF"/>
<stop offset="0.3616" stop-color="#BCD362"/>
<stop offset="0.5401" stop-color="#95C11F"/>
<stop offset="0.7536" stop-color="#64B32F"/>
<stop offset="0.9144" stop-color="#3AAA35"/>
</radialGradient>
<radialGradient id="paint16_radial_1138_1868" cx="0" cy="0" r="1" gradientUnits="userSpaceOnUse" gradientTransform="translate(323.559 137.124) scale(3.63775 2.53103)">
<stop offset="0.00534759" stop-color="#FFFCDF"/>
<stop offset="0.3616" stop-color="#BCD362"/>
<stop offset="0.5401" stop-color="#95C11F"/>
<stop offset="0.7536" stop-color="#64B32F"/>
<stop offset="0.9144" stop-color="#3AAA35"/>
</radialGradient>
<radialGradient id="paint17_radial_1138_1868" cx="0" cy="0" r="1" gradientUnits="userSpaceOnUse" gradientTransform="translate(229.897 12.2722) scale(6.6725 4.64255)">
<stop offset="0.00534759" stop-color="#FFFCDF"/>
<stop offset="0.3616" stop-color="#BCD362"/>
<stop offset="0.5401" stop-color="#95C11F"/>
<stop offset="0.7536" stop-color="#64B32F"/>
<stop offset="0.9144" stop-color="#3AAA35"/>
</radialGradient>
<radialGradient id="paint18_radial_1138_1868" cx="0" cy="0" r="1" gradientUnits="userSpaceOnUse" gradientTransform="translate(312.543 123.956) scale(17.5228 12.1919)">
<stop offset="0.00534759" stop-color="#FFFCDF"/>
<stop offset="0.3616" stop-color="#BCD362"/>
<stop offset="0.5401" stop-color="#95C11F"/>
<stop offset="0.7536" stop-color="#64B32F"/>
<stop offset="0.9144" stop-color="#3AAA35"/>
</radialGradient>
<radialGradient id="paint19_radial_1138_1868" cx="0" cy="0" r="1" gradientUnits="userSpaceOnUse" gradientTransform="translate(311.525 67.7796) scale(36.923 25.69)">
<stop offset="0.00534759" stop-color="#F6B09C"/>
<stop offset="0.2958" stop-color="#EF7B51"/>
<stop offset="0.5401" stop-color="#E94E1B"/>
<stop offset="0.5498" stop-color="#E94D1C"/>
<stop offset="0.9144" stop-color="#E6332A"/>
</radialGradient>
<radialGradient id="paint20_radial_1138_1868" cx="0" cy="0" r="1" gradientUnits="userSpaceOnUse" gradientTransform="translate(215.889 61.2837) scale(32.0224 22.2803)">
<stop offset="0.00534759" stop-color="#F6B09C"/>
<stop offset="0.2958" stop-color="#EF7B51"/>
<stop offset="0.5401" stop-color="#E94E1B"/>
<stop offset="0.5498" stop-color="#E94D1C"/>
<stop offset="0.9144" stop-color="#E6332A"/>
</radialGradient>
<radialGradient id="paint21_radial_1138_1868" cx="0" cy="0" r="1" gradientUnits="userSpaceOnUse" gradientTransform="translate(62.1388 48.2989) scale(36.6721 25.5154)">
<stop offset="0.00534759" stop-color="#F6B09C"/>
<stop offset="0.2958" stop-color="#EF7B51"/>
<stop offset="0.5401" stop-color="#E94E1B"/>
<stop offset="0.5498" stop-color="#E94D1C"/>
<stop offset="0.9144" stop-color="#E6332A"/>
</radialGradient>
<radialGradient id="paint22_radial_1138_1868" cx="0" cy="0" r="1" gradientUnits="userSpaceOnUse" gradientTransform="translate(276.014 33.5493) scale(4.10375 2.85527)">
<stop offset="0.00534759" stop-color="#F6B09C"/>
<stop offset="0.2958" stop-color="#EF7B51"/>
<stop offset="0.5401" stop-color="#E94E1B"/>
<stop offset="0.5498" stop-color="#E94D1C"/>
<stop offset="0.9144" stop-color="#E6332A"/>
</radialGradient>
<radialGradient id="paint23_radial_1138_1868" cx="0" cy="0" r="1" gradientUnits="userSpaceOnUse" gradientTransform="translate(192.865 22.0209) scale(4.05946 2.82446)">
<stop offset="0.00534759" stop-color="#F6B09C"/>
<stop offset="0.2958" stop-color="#EF7B51"/>
<stop offset="0.5401" stop-color="#E94E1B"/>
<stop offset="0.5498" stop-color="#E94D1C"/>
<stop offset="0.9144" stop-color="#E6332A"/>
</radialGradient>
<radialGradient id="paint24_radial_1138_1868" cx="0" cy="0" r="1" gradientUnits="userSpaceOnUse" gradientTransform="translate(133.458 4.04568) scale(9.64824 6.71297)">
<stop offset="0.00534759" stop-color="#F6B09C"/>
<stop offset="0.2958" stop-color="#EF7B51"/>
<stop offset="0.5401" stop-color="#E94E1B"/>
<stop offset="0.5498" stop-color="#E94D1C"/>
<stop offset="0.9144" stop-color="#E6332A"/>
</radialGradient>
<radialGradient id="paint25_radial_1138_1868" cx="0" cy="0" r="1" gradientUnits="userSpaceOnUse" gradientTransform="translate(42.9971 25.1882) scale(5.12594 3.56648)">
<stop offset="0.00534759" stop-color="#F6B09C"/>
<stop offset="0.2958" stop-color="#EF7B51"/>
<stop offset="0.5401" stop-color="#E94E1B"/>
<stop offset="0.5498" stop-color="#E94D1C"/>
<stop offset="0.9144" stop-color="#E6332A"/>
</radialGradient>
<radialGradient id="paint26_radial_1138_1868" cx="0" cy="0" r="1" gradientUnits="userSpaceOnUse" gradientTransform="translate(100.753 23.2493) scale(3.86574 2.68968)">
<stop offset="0.00534759" stop-color="#F6B09C"/>
<stop offset="0.2958" stop-color="#EF7B51"/>
<stop offset="0.5401" stop-color="#E94E1B"/>
<stop offset="0.5498" stop-color="#E94D1C"/>
<stop offset="0.9144" stop-color="#E6332A"/>
</radialGradient>
<radialGradient id="paint27_radial_1138_1868" cx="0" cy="0" r="1" gradientUnits="userSpaceOnUse" gradientTransform="translate(309.565 149.591) scale(5.35803 3.72797)">
<stop offset="0.00534759" stop-color="#F6B09C"/>
<stop offset="0.2958" stop-color="#EF7B51"/>
<stop offset="0.5401" stop-color="#E94E1B"/>
<stop offset="0.5498" stop-color="#E94D1C"/>
<stop offset="0.9144" stop-color="#E6332A"/>
</radialGradient>
<radialGradient id="paint28_radial_1138_1868" cx="0" cy="0" r="1" gradientUnits="userSpaceOnUse" gradientTransform="translate(178.686 43.1819) scale(5.36462 3.73256)">
<stop offset="0.00534759" stop-color="#F6B09C"/>
<stop offset="0.2958" stop-color="#EF7B51"/>
<stop offset="0.5401" stop-color="#E94E1B"/>
<stop offset="0.5498" stop-color="#E94D1C"/>
<stop offset="0.9144" stop-color="#E6332A"/>
</radialGradient>
<radialGradient id="paint29_radial_1138_1868" cx="0" cy="0" r="1" gradientUnits="userSpaceOnUse" gradientTransform="translate(123.36 38.5951) scale(13.8828 9.65926)">
<stop offset="0.00534759" stop-color="#F6B09C"/>
<stop offset="0.2958" stop-color="#EF7B51"/>
<stop offset="0.5401" stop-color="#E94E1B"/>
<stop offset="0.5498" stop-color="#E94D1C"/>
<stop offset="0.9144" stop-color="#E6332A"/>
</radialGradient>
<clipPath id="clip0_1138_1868">
<rect width="335" height="154" fill="white"/>
</clipPath>
</defs>
</svg>
