<svg width="18" height="14" viewBox="0 0 18 14" fill="none" xmlns="http://www.w3.org/2000/svg">
<g clip-path="url(#clip0_2_20)">
<path d="M6.82922 1.32434C6.61588 1.32587 4.86798 1.37581 3.02256 2.76334C3.02256 2.76334 1.05371 6.34741 1.05371 10.7597C1.05371 10.7597 2.20195 12.7519 5.22381 12.8487C5.22381 12.8487 5.72974 12.2402 6.13966 11.7139C4.40396 11.1876 3.74717 10.0944 3.74717 10.0944C3.74717 10.0944 3.88432 10.1912 4.12966 10.3302C4.14338 10.3302 4.15633 10.3448 4.183 10.3579C4.22491 10.3848 4.26529 10.3994 4.30643 10.427C4.64778 10.6206 4.98913 10.7728 5.30458 10.8965C5.86536 11.1323 6.53511 11.339 7.31534 11.4911C8.34091 11.6847 9.54401 11.7539 10.8553 11.5057C11.5353 11.3781 12.2 11.1788 12.8386 10.9111C13.3917 10.7005 13.9188 10.4264 14.4098 10.0944C14.4098 10.0944 13.7271 11.2145 11.9357 11.727C12.3457 12.2387 12.8386 12.8326 12.8386 12.8326C15.8597 12.7357 17.0087 10.7428 17.0087 10.7582C17.0087 6.34357 15.0399 2.76104 15.0399 2.76104C13.0847 1.28285 11.2111 1.32434 11.2111 1.32434L11.0199 1.5456C13.3438 2.25089 14.4242 3.28962 14.4242 3.28962C13.1491 2.5894 11.7522 2.14311 10.3098 1.97508C9.39109 1.87197 8.46343 1.88126 7.54697 2.00274C7.46544 2.00274 7.39686 2.01733 7.31381 2.02963C6.83531 2.08494 5.67336 2.25089 4.21043 2.90164C3.70526 3.1229 3.40354 3.28962 3.40354 3.28962C3.40354 3.28962 4.52664 2.19634 6.98694 1.49105L6.84979 1.32434H6.82846H6.82922ZM6.48101 6.42962C7.25972 6.42962 7.88984 7.10725 7.87536 7.9516C7.87536 8.79672 7.25972 9.47435 6.48101 9.47435C5.71526 9.47435 5.08666 8.79596 5.08666 7.9516C5.08666 7.10725 5.70079 6.42962 6.48101 6.42962ZM11.4717 6.42962C12.2367 6.42962 12.8661 7.10725 12.8661 7.9516C12.8661 8.79672 12.2497 9.47435 11.4717 9.47435C10.7052 9.47435 10.0774 8.79596 10.0774 7.9516C10.0774 7.10725 10.6915 6.42962 11.4717 6.42962Z" fill="white"/>
<path d="M21.642 9.918L17.22 -1.17L12.842 9.918L9.19 -0.400001H6.176L12.468 15.814L17.22 4.924L21.972 15.814L28.264 -0.400001H25.25L21.642 9.918Z" fill="black" fill-opacity="0.01"/>
<path d="M6 17.75H28.44V18.85H6V17.75Z" fill="black" fill-opacity="0.01"/>
<a href="https://discord.gg/e3cGSTzyWp">
<rect fill="black" fill-opacity="0" y="-12.895" width="22.44" height="31.79"/>
</a>
</g>
<defs>
<clipPath id="clip0_2_20">
<rect width="16.7627" height="12.2926" fill="white" transform="translate(0.649414 0.939941)"/>
</clipPath>
</defs>
</svg>
