<svg width="16" height="16" viewBox="0 0 16 16" fill="none" xmlns="http://www.w3.org/2000/svg">
<path d="M5.40625 11.1667C5.43403 11.125 5.42361 11.0799 5.375 11.0312C5.3125 10.9826 5.26389 10.9757 5.22917 11.0104C5.20139 11.0521 5.21181 11.0972 5.26042 11.1458C5.32292 11.1944 5.37153 11.2014 5.40625 11.1667ZM5.11458 10.7396C5.07986 10.691 5.03819 10.6771 4.98958 10.6979C4.94792 10.7257 4.94792 10.7674 4.98958 10.8229C5.03819 10.8785 5.07986 10.8958 5.11458 10.875C5.15625 10.8472 5.15625 10.8021 5.11458 10.7396ZM4.6875 10.3229C4.70139 10.2951 4.68403 10.2674 4.63542 10.2396C4.58681 10.2257 4.55903 10.2326 4.55208 10.2604C4.53125 10.2951 4.54514 10.3229 4.59375 10.3438C4.64931 10.3576 4.68056 10.3507 4.6875 10.3229ZM4.90625 10.5625C4.92014 10.5556 4.92535 10.5399 4.92187 10.5156C4.9184 10.4913 4.90625 10.4722 4.88542 10.4583C4.84375 10.4097 4.80903 10.3993 4.78125 10.4271C4.75347 10.4549 4.75694 10.4931 4.79167 10.5417C4.83333 10.5833 4.87153 10.5903 4.90625 10.5625ZM5.80208 11.3438C5.81597 11.2951 5.78472 11.2569 5.70833 11.2292C5.64583 11.2083 5.60069 11.2222 5.57292 11.2708C5.55903 11.3194 5.59028 11.3576 5.66667 11.3854C5.72917 11.4062 5.77431 11.3924 5.80208 11.3438ZM6.23958 11.375C6.23958 11.3194 6.19792 11.2917 6.11458 11.2917C6.04514 11.2917 6.01042 11.3194 6.01042 11.375C6.01042 11.4306 6.04861 11.4583 6.125 11.4583C6.20139 11.4583 6.23958 11.4306 6.23958 11.375ZM6.64583 11.3021C6.63194 11.2535 6.58681 11.2361 6.51042 11.25C6.43403 11.2639 6.40278 11.2951 6.41667 11.3438C6.43056 11.3993 6.47222 11.4201 6.54167 11.4063C6.61111 11.3924 6.64583 11.3576 6.64583 11.3021ZM13.3333 8C13.3333 6.52778 12.8125 5.27083 11.7708 4.22917C10.7292 3.1875 9.47222 2.66667 8 2.66667C6.52778 2.66667 5.27083 3.1875 4.22917 4.22917C3.1875 5.27083 2.66667 6.52778 2.66667 8C2.66667 9.15972 3.00694 10.2031 3.6875 11.1302C4.36806 12.0573 5.24306 12.7014 6.3125 13.0625C6.4375 13.0833 6.52951 13.066 6.58854 13.0104C6.64757 12.9549 6.67708 12.8854 6.67708 12.8021C6.67708 12.441 6.67361 12.1111 6.66667 11.8125C6.625 11.8194 6.57118 11.8281 6.50521 11.8385C6.43924 11.849 6.31597 11.8559 6.13542 11.8594C5.95486 11.8628 5.78819 11.849 5.63542 11.8177C5.48264 11.7865 5.3316 11.717 5.18229 11.6094C5.03299 11.5017 4.93056 11.3576 4.875 11.1771C4.71528 10.7674 4.51736 10.5104 4.28125 10.4062C4.26736 10.3993 4.25174 10.3872 4.23437 10.3698L4.15104 10.2865L4.07812 10.1875L4.11979 10.1094L4.32292 10.0729C4.36458 10.0729 4.41667 10.0799 4.47917 10.0937C4.54167 10.1076 4.64583 10.1615 4.79167 10.2552C4.9375 10.349 5.05208 10.4722 5.13542 10.625C5.24653 10.8194 5.37674 10.9653 5.52604 11.0625C5.67535 11.1597 5.82639 11.2083 5.97917 11.2083C6.13194 11.2083 6.26389 11.1962 6.375 11.1719C6.48611 11.1476 6.59028 11.1146 6.6875 11.0729C6.73611 10.7465 6.85069 10.5069 7.03125 10.3542C6.69097 10.3125 6.39236 10.2483 6.13542 10.1615C5.87847 10.0747 5.625 9.93924 5.375 9.75521C5.125 9.57118 4.93229 9.30729 4.79687 8.96354C4.66146 8.61979 4.59375 8.20486 4.59375 7.71875C4.59375 7.17014 4.77778 6.69444 5.14583 6.29167C4.97917 5.86111 4.99653 5.38889 5.19792 4.875C5.32986 4.83333 5.5191 4.85937 5.76562 4.95312C6.01215 5.04687 6.22222 5.14931 6.39583 5.26042L6.66667 5.42708C7.06944 5.30903 7.51389 5.25 8 5.25C8.48611 5.25 8.93056 5.30903 9.33333 5.42708C9.40972 5.37847 9.50868 5.31597 9.63021 5.23958C9.75174 5.16319 9.94444 5.07292 10.2083 4.96875C10.4722 4.86458 10.6701 4.83333 10.8021 4.875C11.0035 5.38889 11.0208 5.86111 10.8542 6.29167C11.2222 6.69444 11.4063 7.17014 11.4063 7.71875C11.4063 8.11458 11.3576 8.46354 11.2604 8.76562C11.1632 9.06771 11.0399 9.31076 10.8906 9.49479C10.7413 9.67882 10.5556 9.83333 10.3333 9.95833C10.1111 10.0833 9.8941 10.1736 9.68229 10.2292C9.47049 10.2847 9.23264 10.3264 8.96875 10.3542C9.21181 10.5694 9.33333 10.8993 9.33333 11.3438C9.33333 11.6215 9.3316 11.9306 9.32812 12.2708C9.32465 12.6111 9.32292 12.7882 9.32292 12.8021C9.32292 12.8854 9.35243 12.9549 9.41146 13.0104C9.47049 13.066 9.5625 13.0833 9.6875 13.0625C10.7569 12.7014 11.6319 12.0573 12.3125 11.1302C12.9931 10.2031 13.3333 9.15972 13.3333 8ZM16 3V13C16 13.8264 15.7066 14.533 15.1198 15.1198C14.533 15.7066 13.8264 16 13 16H3C2.17361 16 1.46701 15.7066 0.880208 15.1198C0.293403 14.533 0 13.8264 0 13V3C0 2.17361 0.293403 1.46701 0.880208 0.880208C1.46701 0.293403 2.17361 0 3 0H13C13.8264 0 14.533 0.293403 15.1198 0.880208C15.7066 1.46701 16 2.17361 16 3Z" fill="white"/>
</svg>
