<svg width="18" height="18" viewBox="0 0 18 18" fill="none" xmlns="http://www.w3.org/2000/svg">
<path d="M10.3724 7.62683C9.64433 6.89907 8.65703 6.49023 7.6276 6.49023C6.59817 6.49023 5.61087 6.89907 4.8828 7.62683L2.13712 10.3716C1.40903 11.0997 1 12.0872 1 13.1169C1 14.1465 1.40903 15.134 2.13712 15.8621C2.8652 16.5902 3.85269 16.9992 4.88236 16.9992C5.91202 16.9992 6.89952 16.5902 7.6276 15.8621L9 14.4897" stroke="white" stroke-width="1.33333" stroke-linecap="round" stroke-linejoin="round"/>
<path d="M7.62695 10.3724C8.35502 11.1002 9.34232 11.509 10.3718 11.509C11.4012 11.509 12.3885 11.1002 13.1165 10.3724L15.8622 7.6276C16.5903 6.89952 16.9994 5.91202 16.9994 4.88236C16.9994 3.85269 16.5903 2.8652 15.8622 2.13712C15.1342 1.40903 14.1467 1 13.117 1C12.0873 1 11.0998 1.40903 10.3718 2.13712L8.99935 3.50952" stroke="white" stroke-width="1.33333" stroke-linecap="round" stroke-linejoin="round"/>
</svg>
