<svg width="16" height="16" viewBox="0 0 16 16" fill="none" xmlns="http://www.w3.org/2000/svg">
<path fill-rule="evenodd" clip-rule="evenodd" d="M13.3333 0C14.0406 0 14.7189 0.280952 15.219 0.781049C15.719 1.28115 16 1.95942 16 2.66667V13.3333C16 14.0406 15.719 14.7189 15.219 15.219C14.7189 15.719 14.0406 16 13.3333 16H2.66667C1.95942 16 1.28115 15.719 0.781049 15.219C0.280952 14.7189 0 14.0406 0 13.3333V2.66667C0 1.95942 0.280952 1.28115 0.781049 0.781049C1.28115 0.280952 1.95942 0 2.66667 0H13.3333ZM4.44444 6.22222C4.2087 6.22222 3.9826 6.31587 3.81591 6.48257C3.64921 6.64927 3.55556 6.87536 3.55556 7.11111V11.5556C3.55556 11.7913 3.64921 12.0174 3.81591 12.1841C3.9826 12.3508 4.2087 12.4444 4.44444 12.4444C4.68019 12.4444 4.90628 12.3508 5.07298 12.1841C5.23968 12.0174 5.33333 11.7913 5.33333 11.5556V7.11111C5.33333 6.87536 5.23968 6.64927 5.07298 6.48257C4.90628 6.31587 4.68019 6.22222 4.44444 6.22222V6.22222ZM7.11111 5.33333C6.87536 5.33333 6.64927 5.42698 6.48257 5.59368C6.31587 5.76038 6.22222 5.98647 6.22222 6.22222V11.5556C6.22222 11.7913 6.31587 12.0174 6.48257 12.1841C6.64927 12.3508 6.87536 12.4444 7.11111 12.4444C7.34686 12.4444 7.57295 12.3508 7.73965 12.1841C7.90635 12.0174 8 11.7913 8 11.5556V8.30222C8.34679 7.925 8.76853 7.62436 9.23822 7.41956C9.53422 7.29333 9.97956 7.24178 10.2889 7.33956C10.3915 7.36559 10.4829 7.42423 10.5493 7.50667C10.5956 7.56889 10.6667 7.70756 10.6667 8V11.5556C10.6667 11.7913 10.7603 12.0174 10.927 12.1841C11.0937 12.3508 11.3198 12.4444 11.5556 12.4444C11.7913 12.4444 12.0174 12.3508 12.1841 12.1841C12.3508 12.0174 12.4444 11.7913 12.4444 11.5556V8C12.4444 7.40444 12.2933 6.87467 11.9787 6.44978C11.6891 6.06449 11.2839 5.78198 10.8222 5.64356C10.0204 5.392 9.13244 5.53156 8.53956 5.78578C8.34959 5.86708 8.16467 5.95969 7.98578 6.06311C7.94852 5.8583 7.84055 5.67306 7.68071 5.5397C7.52086 5.40634 7.31928 5.3333 7.11111 5.33333V5.33333ZM4.44444 3.55556C4.2087 3.55556 3.9826 3.64921 3.81591 3.81591C3.64921 3.9826 3.55556 4.2087 3.55556 4.44444C3.55556 4.68019 3.64921 4.90628 3.81591 5.07298C3.9826 5.23968 4.2087 5.33333 4.44444 5.33333C4.68019 5.33333 4.90628 5.23968 5.07298 5.07298C5.23968 4.90628 5.33333 4.68019 5.33333 4.44444C5.33333 4.2087 5.23968 3.9826 5.07298 3.81591C4.90628 3.64921 4.68019 3.55556 4.44444 3.55556V3.55556Z" fill="white"/>
</svg>
