<svg width="16" height="16" viewBox="0 0 16 16" fill="none" xmlns="http://www.w3.org/2000/svg">
<g clip-path="url(#clip0_2346_5460)">
<path d="M15.36 0H0.64C0.286 0 0 0.286 0 0.64V15.36C0 15.714 0.286 16 0.64 16H15.36C15.714 16 16 15.714 16 15.36V0.64C16 0.286 15.714 0 15.36 0ZM13.12 4.114L12.304 4.896C12.232 4.95 12.198 5.038 12.212 5.124V10.878C12.198 10.966 12.232 11.054 12.304 11.106L13.104 11.888V12.062H9.088V11.896L9.914 11.094C9.996 11.012 9.996 10.988 9.996 10.866V6.21L7.696 12.042H7.386L4.71 6.21V10.12C4.686 10.284 4.744 10.45 4.86 10.568L5.936 11.87V12.044H2.88V11.87L3.956 10.568C4.01269 10.5094 4.05488 10.4384 4.07919 10.3606C4.1035 10.2828 4.10926 10.2004 4.096 10.12V5.6C4.11 5.474 4.062 5.352 3.966 5.266L3.01 4.114V3.94H5.98L8.272 8.97L10.29 3.944H13.12V4.114Z" fill="white"/>
</g>
<defs>
<clipPath id="clip0_2346_5460">
<rect width="16" height="16" rx="3" fill="white"/>
</clipPath>
</defs>
</svg>
