<svg width="19" height="14" viewBox="0 0 19 14" fill="none" xmlns="http://www.w3.org/2000/svg">
<g clip-path="url(#clip0_1_764)">
<path d="M0.791016 11.9404C2.70792 12.0577 4.37848 11.6521 5.9172 10.6237C5.13196 10.5416 4.44777 10.363 3.87038 9.96492C3.3084 9.57435 2.87729 9.0874 2.64633 8.42192H4.07054C4.07824 8.39426 4.08594 8.3666 4.09364 8.33224C3.3084 8.1336 2.63864 7.77655 2.13824 7.20746C1.63784 6.64591 1.39245 5.99384 1.3684 5.27975C1.86879 5.40379 2.3461 5.527 2.8311 5.6435C2.84649 5.61584 2.86959 5.58902 2.88499 5.56136C2.19213 5.05345 1.69173 4.44329 1.50793 3.65461C1.31821 2.88538 1.45172 2.0824 1.88419 1.39165C3.8088 3.39395 6.22514 4.50531 9.19577 4.69054C9.10338 4.03847 9.09569 3.43502 9.34973 2.84497C10.2274 0.780646 13.1826 0.121872 15.0215 1.60369C15.2294 1.76797 15.4065 1.79563 15.6297 1.7269C16.2379 1.53497 16.8374 1.32962 17.461 1.12344C17.2223 1.80233 16.7065 2.30354 16.0993 2.79049C16.6911 2.65304 17.2839 2.50888 17.869 2.37143C17.8921 2.39238 17.9152 2.40579 17.9383 2.42674C17.4918 2.83827 17.0607 3.27074 16.5766 3.6412C16.3149 3.83984 16.2302 4.02506 16.2148 4.32679C16.0762 7.68771 14.5288 10.4033 11.2349 12.1122C7.87934 13.8472 4.42467 13.7441 1.02293 12.0913C0.961343 12.0577 0.907454 12.0158 0.791978 11.9404H0.791016Z" fill="white"/>
</g>
<defs>
<clipPath id="clip0_1_764">
<rect width="17.3214" height="13.4101" fill="white" transform="translate(0.707031 0.381348)"/>
</clipPath>
</defs>
</svg>
