<svg width="22" height="22" viewBox="0 0 22 22" fill="none" xmlns="http://www.w3.org/2000/svg">
<path d="M5 20H17C16 20 14 19.4 14 17V15H2V17C2 19.4 4 20 5 20Z" fill="white"/>
<path d="M4 12V4C4 3.46957 4.21071 2.96086 4.58579 2.58579C4.96086 2.21071 5.46957 2 6 2H18C18.5304 2 19.0391 2.21071 19.4142 2.58579C19.7893 2.96086 20 3.46957 20 4V17C20 18 19.4 20 17 20M17 20H5C4 20 2 19.4 2 17V15H14V17C14 19.4 16 20 17 20ZM8 6H12H16M8 10H12" stroke="white" stroke-width="3.12083" stroke-linecap="round" stroke-linejoin="round"/>
</svg>
