<svg width="337" height="213" viewBox="0 0 337 213" fill="none" xmlns="http://www.w3.org/2000/svg">
<path d="M112.814 104.5C118.939 93.8143 125.45 82.3555 132.062 70.9466C134.464 66.7944 136.332 62.0563 141.075 59.8992C143.08 58.989 145.445 58.3406 147.599 58.4528C154.061 58.7895 161.12 65.2608 162.539 71.5326C163.486 75.6972 162.29 79.3256 159.539 82.3056C152.816 89.6124 145.918 96.7445 139.083 103.951C134.178 109.126 129.273 114.288 124.193 119.637C132.435 125.897 136.095 134.687 135.062 146.046C136.668 144.999 137.627 144.363 138.598 143.739C140.017 142.817 141.362 141.732 142.893 141.021C149.218 138.066 155.592 137.231 161.245 142.293C166.66 147.143 166.05 153.34 163.921 159.438C161.02 167.729 154.783 173.315 147.811 178.116C145.433 179.749 144.163 181.333 143.902 184.425C143.179 192.879 137.315 197.979 130.667 201.944C119.835 208.403 107.946 211.283 95.3088 211.27C90.1295 211.27 84.913 212.405 79.7711 212.056C67.1218 211.208 54.4475 210.236 41.8978 208.477C32.3984 207.143 25.8123 200.597 19.9234 193.428C18.7655 192.019 17.2466 190.647 15.6032 189.936C11.034 187.954 7.299 184.886 5.68048 180.348C3.63867 174.6 1.94546 168.565 1.23581 162.53C0.227347 153.802 1.39765 145.173 4.53508 136.794C8.15806 127.106 14.7442 120.884 24.4926 117.705C26.1734 117.156 27.879 115.859 28.9497 114.425C33.9671 107.767 39.7191 101.981 46.9775 97.7545C57.9211 91.4079 69.313 89.5001 81.4767 93.7395C91.5987 97.2682 101.758 100.71 112.814 104.5ZM73.6082 118.091C74.542 118.453 74.9902 118.49 75.1645 118.715C81.9498 128.066 91.4866 127.879 101.347 126.158C105.132 125.498 108.892 121.483 109.216 118.415C109.564 115.136 107.199 111.345 103.538 109.4C102.58 108.889 101.596 108.365 100.575 108.016C93.0304 105.448 85.3985 103.079 77.916 100.336C69.9106 97.3929 62.0172 98.0413 54.572 101.458C36.0463 109.974 25.3641 124.313 23.758 144.986C24.5548 145.173 25.2521 145.348 25.6505 145.448C23.7207 149.35 22.0399 153.091 20.0728 156.682C14.2711 167.293 19.3756 187.106 29.9831 194.35C37.7644 199.674 46.0935 203.228 55.4311 204.138C59.8509 204.575 64.3454 204.101 68.7776 204.462C84.0663 205.684 99.2804 205.647 114.283 201.956C122.425 199.949 129.845 196.532 135.435 189.999C138.585 186.308 139.021 181.657 136.78 178.602C134.726 175.797 132.398 175.61 126.957 177.642C119.823 180.298 112.851 183.926 105.481 185.186C99.3053 186.246 94.9851 188.103 92.3706 193.802C91.885 194.849 90.6151 195.547 89.7062 196.395C89.4572 196.171 89.2082 195.959 88.9468 195.734C95.2963 183.565 99.8157 170.921 99.1808 156.47C99.6539 163.041 104.285 162.094 107.921 161.981C117.594 161.682 126.272 156.296 127.891 145.959C128.986 138.951 127.243 132.555 122.699 127.306C121.018 125.373 117.507 123.428 115.378 123.914C113.025 124.45 111.17 127.655 109.377 129.936C108.73 130.772 108.643 132.293 108.767 133.44C109.303 138.478 110.037 143.49 110.647 148.527C110.71 149.014 110.448 149.55 110.336 150.061C110.037 150.236 109.738 150.41 109.452 150.585C109.016 149.6 108.568 148.615 107.784 146.857C106.862 150.298 106.265 152.505 105.667 154.724C105.244 154.662 104.833 154.612 104.41 154.55C104.572 151.308 104.734 148.054 104.883 144.849C93.4288 140.585 81.6884 138.652 69.425 140.809C69.3877 140.51 69.3503 140.211 69.313 139.911C71.7034 138.902 74.1063 137.904 77.3059 136.557C71.1556 130.959 65.3165 125.647 59.4898 120.348C59.4898 120.086 59.4774 119.824 59.4774 119.562C64.3454 120.809 69.2134 122.056 74.5794 123.428C74.2058 121.358 73.9568 120.011 73.6082 118.091ZM98.7948 182.268C101.272 181.869 103.513 181.906 105.393 181.121C110.822 178.827 116.125 176.208 121.454 173.689C127.779 170.697 134.066 169.787 140.54 173.428C141.524 173.976 143.291 173.752 144.412 173.253C146.267 172.418 148.047 171.258 149.554 169.887C154.26 165.61 158.481 160.909 159.427 154.263C160.186 148.926 157.036 145.323 151.745 145.921C148.707 146.271 145.458 147.131 142.881 148.702C136.17 152.792 129.908 157.592 123.222 161.719C119.91 163.764 116.175 165.473 112.403 166.32C108.979 167.093 105.256 166.483 101.571 166.483C100.65 171.657 99.7784 176.62 98.7948 182.268ZM25.3517 123.191C17.7446 125.535 13.8602 130.784 11.1461 136.981C5.90458 148.939 5.43149 161.345 8.64361 173.889C9.78902 178.34 12.0674 182.231 16.4872 184.425C16.6988 184.051 16.8233 183.926 16.7984 183.852C16.6864 183.378 16.5743 182.916 16.4125 182.455C12.2915 170.086 12.4284 158.415 21.8283 148.153C22.4383 147.493 22.7371 146.171 22.5877 145.261C21.6291 139.413 21.7287 133.715 24.0319 128.141C24.5797 126.757 24.8163 125.236 25.3517 123.191ZM131.115 86.5824C126.21 93.54 120.968 100.36 125.164 110.36C128.239 107.306 131.165 104.513 133.941 101.557C134.402 101.071 134.427 99.9116 134.253 99.1635C133.294 95.0113 132.198 90.8842 131.115 86.5824ZM135.398 78.8643C132.261 82.8543 132.983 92.2557 137.527 98.2782C140.59 94.8991 143.59 91.6074 146.255 88.6772C142.482 85.2732 139.021 82.156 135.398 78.8643ZM121.006 102.979C114.308 111.969 110.971 115.859 113.772 121.009C116.574 118.166 119.25 115.498 121.84 112.767C122.201 112.393 122.363 111.62 122.288 111.071C121.952 108.49 121.491 105.909 121.006 102.979ZM81.9872 131.882C81.9249 132.006 81.8627 132.143 81.8129 132.268C88.4986 133.677 95.1843 135.086 102.107 136.545C102.107 135.049 102.107 133.926 102.107 133.602C95.1843 133.016 88.5857 132.443 81.9872 131.882ZM148.359 85.747C144.997 82.767 141.138 79.3256 137.614 76.1959C139.669 81.5076 144.96 85.9465 148.359 85.747Z" fill="#E2CCAC"/>
<path d="M306.625 168.066C304.819 171.171 303.176 173.976 301.582 176.807C301.246 177.405 300.835 178.228 300.997 178.777C303.039 185.323 299.914 190.448 296.216 195.136C288.821 204.55 278.811 209.537 267.12 211.383C263.97 211.881 262.252 210.049 260.572 207.779C257.683 203.889 257.621 203.964 254.21 206.969C249.192 211.383 243.465 212.555 237.327 209.936C230.218 206.906 226.57 201.295 225.985 193.54C225.873 191.981 224.827 190.435 223.993 189.001C222.063 185.709 219.648 182.667 218.129 179.201C217.195 177.069 216.598 175.236 214.407 173.889C210.584 171.557 208.032 168.054 206.7 163.665C206.364 162.555 205.455 161.034 204.509 160.759C189.594 156.47 186.481 135.61 192.47 124.6C194.412 121.034 197.089 117.867 199.591 114.288C199.641 114.45 199.653 114.138 199.504 114.026C193.179 109.051 192.918 106.707 198.794 101.071C202.716 97.3056 206.937 93.8143 211.307 90.5849C213.286 89.1136 215.938 88.54 218.64 87.4178C216.909 82.4179 216.162 76.6199 218.652 70.8717C221.105 65.2234 224.491 60.5351 230.99 59.0638C237.576 57.5675 242.843 60.4852 244.835 66.9316C245.756 69.9241 246.491 72.979 247.412 76.3705C252.006 74.9989 254.496 77.3805 256.488 80.9715C256.936 81.7695 258.405 82.368 259.439 82.4178C263.547 82.6173 267.668 82.5301 271.789 82.6049C278.998 82.7296 284.949 85.4228 289.331 91.2956C290.103 92.343 291.012 93.2906 292.058 94.5001C297.075 89.5999 302.703 87.368 309.426 89.0887C314.867 90.4852 318.776 94.1136 322.1 98.3779C331.413 110.298 336.903 123.665 336.368 139.014C336.069 147.567 333.367 155.522 327.976 162.243C322.399 169.188 315.003 170.66 306.625 168.066ZM292.519 149.276C293.054 147.617 293.266 146.944 293.49 146.283C300.126 127.393 296.577 110.261 284.438 94.6872C281.226 90.5725 276.782 88.4278 271.665 87.7545C267.344 87.1809 263.012 86.7071 258.679 86.3705C257.758 86.2957 256.787 87.0562 255.791 87.4428C252.628 79.363 252.106 78.752 249.317 79.9989C250.325 82.3555 251.334 84.7246 252.33 87.0936C252.043 87.2183 251.757 87.343 251.471 87.4802C250.661 85.7969 250.288 83.5026 248.956 82.5301C244.337 79.1635 243.204 74.0264 241.299 69.2259C238.784 62.8543 232.771 61.5825 227.703 66.3082C222.424 71.2458 220.769 78.5151 223.371 85.3231C228.326 98.2782 246.117 105.136 258.542 98.8767C259.663 98.3156 260.821 97.7919 261.954 97.2557C262.103 97.4926 262.252 97.742 262.402 97.9789C259.825 100.011 257.26 102.044 254.683 104.089C254.72 104.363 254.745 104.637 254.782 104.912C258.605 104.912 262.427 104.912 266.373 104.912C261.63 108.054 256.749 108.054 250.96 105.323C260.559 122.493 268.278 139.55 279.683 154.488C281.089 156.32 282.222 156.757 284.115 155.398C285.061 154.724 286.244 154.375 287.314 153.889C287.451 154.151 287.588 154.413 287.725 154.675C286.231 156.021 284.725 157.368 282.92 159.001C287.215 164.375 291.448 169.675 295.917 175.261C303.699 164.625 305.492 153.702 302.678 141.732C303.836 143.889 304.981 146.034 306.6 149.064C306.886 146.121 307.21 144.201 307.222 142.281C307.235 140.373 306.923 138.465 306.762 136.557C307.546 137.268 307.845 138.041 308.056 138.839C309.75 145.547 308.467 152.106 306.836 158.602C306.114 161.47 307.011 162.842 309.799 163.59C314.991 164.986 321.166 163.278 323.88 158.602C326.346 154.363 328.885 149.762 329.695 145.036C332.77 127.081 326.433 111.894 314.319 98.9141C312.526 96.9814 309.774 95.6098 307.21 94.8118C302.753 93.4403 299.316 95.8218 296.291 98.939C293.602 101.707 295.893 104.076 296.752 106.57C298.993 113.153 301.234 119.749 303.699 127.019C302.84 125.772 302.367 125.099 301.433 123.764C300.885 133.291 301.122 142.38 292.519 149.276ZM257.11 182.904C259.053 185.572 261.356 187.692 262.29 190.298C263.286 193.078 263.634 196.433 263.087 199.325C262.427 202.829 264.792 206.507 268.415 205.847C279.01 203.914 287.576 198.652 293.751 189.724C294.635 188.453 295.108 186.906 295.793 185.497C296.889 183.241 296.328 181.345 294.76 179.5C278.201 160.011 264.493 138.69 253.45 115.585C248.644 105.547 248.184 105.46 238.149 110.311C232.534 113.016 227.392 116.732 221.329 120.423C227.056 121.358 231.613 121.483 235.759 122.892C247.76 126.969 249.242 139.675 255.741 148.303C255.865 148.478 255.753 148.814 255.865 149.014C256.949 150.921 257.696 153.203 259.227 154.625C265.465 160.398 266.859 167.954 262.489 175.323C260.908 178.016 258.891 180.435 257.11 182.904ZM203.961 116.333C199.205 121.919 195.57 127.455 195.009 134.413C194.399 141.907 195.993 148.802 202.405 153.478C208.754 158.103 214.568 155.473 220.52 151.844C224.79 149.251 229.683 147.655 234.327 145.697C235.995 144.999 237.265 145.423 238.983 146.495C240.876 147.68 244.274 143.951 244.71 140.697C245.345 135.909 242.83 130.946 238.41 128.515C232.995 125.535 227.143 125.061 221.13 125.759C213.859 126.607 208.007 130.211 202.99 135.448C202.753 135.248 202.517 135.049 202.28 134.837C203.886 132.281 205.492 129.737 207.235 126.956C205.841 127.081 204.608 127.193 203.376 127.306C203.326 127.131 203.276 126.944 203.226 126.769C204.932 126.096 206.638 125.423 208.58 124.65C207.074 121.907 205.667 119.4 203.961 116.333ZM209.999 160.298C211.369 164.911 213.946 167.904 217.619 169.824C227.977 175.211 244.947 169.924 250.475 159.675C253.488 154.101 252.379 145.984 247.823 142.069C245.893 146.931 242.357 149.637 237.116 148.802C232.098 148.004 228.189 149.699 224.504 152.867C220.383 156.408 216.125 159.849 209.999 160.298ZM256.376 157.53C249.566 171.582 242.22 175.535 222.225 176.096C222.947 182.991 227.741 187.58 234.825 187.33C245.059 186.969 253.126 182.181 258.654 173.59C261.966 168.428 260.833 161.744 256.376 157.53ZM234.402 191.557C230.704 191.171 229.484 192.48 230.393 195.709C232.297 202.505 239.581 207.318 246.578 206.37C247.287 206.27 248.408 206.196 248.582 205.784C250.238 201.919 254.11 201.881 257.247 200.697C260.385 199.512 261.58 197.455 260.123 194.512C258.866 191.969 257.247 189.5 255.305 187.455C254.508 186.62 252.305 186.532 250.973 186.931C247.773 187.879 244.673 189.251 241.585 190.56C239.294 191.545 237.078 192.704 234.812 193.777C234.626 193.864 234.389 193.839 233.966 193.901C234.115 193.103 234.252 192.343 234.402 191.557ZM241.162 104.288C237.165 103.39 234.128 99.6123 229.509 102.53C228.575 103.116 226.172 101.869 224.728 100.984C223.321 100.124 222.362 98.5525 221.055 97.4926C220.42 96.9814 219.212 96.4577 218.615 96.732C213.199 99.1261 208.306 102.268 205.978 108.054C205.443 109.375 205.281 111.333 205.866 112.542C207.746 116.42 210.062 120.086 211.805 123.128C221.615 116.844 231.14 110.722 241.162 104.288ZM199.317 107.48C199.554 107.717 199.79 107.954 200.027 108.203C205.816 103.353 211.593 98.5026 218.129 93.0163C216.585 93.0163 215.515 92.6797 215.066 93.0662C209.663 97.7046 203.339 101.445 199.317 107.48Z" fill="#E2CCAC"/>
<path d="M203.652 85.1237C201.71 84.7496 200.004 84.4254 198.299 84.1012C198.299 86.4578 198.299 88.8144 198.299 92.181C194.302 89.7994 190.256 87.8044 186.67 85.1735C173.299 75.3356 170.361 59.7746 179.623 46.5202C181.815 43.3781 185.35 41.0464 188.587 38.8145C191.663 36.6948 195.248 35.3607 198.435 33.3906C202.818 30.6849 202.656 25.3482 198.025 22.9791C195.709 21.7946 192.982 21.3831 190.405 20.7348C182.848 18.8021 179.885 8.87693 185.213 3.02906C186.023 2.14378 187.23 1.63255 189.023 0.435547C188.475 2.44302 188.114 3.44052 187.94 4.46296C187.268 8.50286 189.745 11.059 193.792 10.5353C209.553 8.50286 219.19 16.8445 221.667 32.9417C223.51 44.8993 217.895 52.8419 210.363 60.5352C208.01 62.9417 205.93 65.6973 204.163 68.5526C201.411 73.004 200.801 77.8419 202.88 82.8294C203.229 83.6399 203.44 84.4753 203.652 85.1237ZM200.191 82.3805C200.427 78.0912 200.652 74.0763 200.888 70.0738C200.925 69.3755 201.349 68.3032 201.05 68.0414C198.099 65.4354 200.427 62.9791 201.523 60.8968C202.855 58.3781 205.034 56.3082 206.79 54.014C208.445 51.8444 210.039 49.6125 211.658 47.418C211.346 47.1811 211.035 46.9442 210.724 46.7073C205.856 50.2235 200.988 53.7521 196.12 57.2683C195.983 55.8594 196.369 54.8993 197.054 54.2259C199.892 51.4205 202.731 48.615 205.731 45.9841C211.272 41.1337 213.027 34.5253 210.126 28.7397C208.794 38.8519 202.781 46.2085 193.58 48.6649C194.016 47.5177 194.364 46.5701 194.837 45.3357C181.142 52.1437 180.906 64.0638 183.296 75.9965C184.578 82.393 190.903 85.9965 196.755 89.6748C195.547 83.166 196.145 82.2558 200.191 82.3805Z" fill="#E5080B"/>
<path d="M73.6114 118.091C73.96 119.999 74.209 121.358 74.5825 123.44C69.229 122.068 64.361 120.822 59.4806 119.575C59.4806 119.837 59.493 120.098 59.493 120.36C65.3197 125.659 71.1463 130.971 77.3091 136.57C74.1094 137.916 71.7066 138.926 69.3162 139.924C69.3535 140.223 69.3908 140.522 69.4282 140.822C81.6916 138.664 93.432 140.597 104.886 144.861C104.724 148.066 104.575 151.32 104.413 154.562C104.836 154.624 105.247 154.674 105.67 154.737C106.268 152.517 106.866 150.31 107.787 146.869C108.571 148.627 109.007 149.612 109.455 150.597C109.754 150.422 110.053 150.248 110.339 150.073C110.451 149.562 110.713 149.038 110.65 148.54C110.04 143.515 109.306 138.49 108.771 133.452C108.646 132.293 108.733 130.772 109.381 129.949C111.161 127.679 113.028 124.475 115.382 123.926C117.511 123.44 121.021 125.385 122.702 127.318C127.259 132.567 129.002 138.964 127.894 145.971C126.275 156.308 117.598 161.694 107.924 161.994C104.289 162.106 99.6571 163.041 99.184 156.482C99.8065 170.934 95.2995 183.59 88.95 195.747C89.199 195.971 89.448 196.183 89.7094 196.407C90.6183 195.547 91.8882 194.861 92.3737 193.814C94.9758 188.116 99.3085 186.258 105.484 185.198C112.854 183.926 119.839 180.31 126.96 177.654C132.413 175.622 134.729 175.809 136.783 178.614C139.024 181.669 138.601 186.32 135.439 190.011C129.861 196.545 122.428 199.974 114.286 201.969C99.2835 205.659 84.0695 205.697 68.7808 204.475C64.3486 204.126 59.8541 204.587 55.4343 204.151C46.0967 203.24 37.7676 199.687 29.9863 194.363C19.3912 187.118 14.2742 167.305 20.076 156.694C22.0431 153.103 23.7239 149.363 25.6537 145.46C25.2553 145.36 24.558 145.198 23.7612 144.999C25.3673 124.325 36.0495 109.986 54.5752 101.47C62.0204 98.0535 69.9138 97.4051 77.9192 100.348C85.4017 103.103 93.0336 105.46 100.578 108.029C101.599 108.378 102.583 108.901 103.541 109.413C107.202 111.358 109.567 115.148 109.219 118.428C108.883 121.495 105.135 125.51 101.35 126.171C91.4898 127.891 81.953 128.078 75.1677 118.727C74.9934 118.49 74.5576 118.465 73.6114 118.091ZM50.031 186.158C55.4592 168.677 68.0213 157.505 83.9201 148.228C70.9347 146.844 47.6654 173.39 50.031 186.158Z" fill="white"/>
<path d="M98.7932 182.269C99.7892 176.62 100.661 171.658 101.57 166.471C105.267 166.471 108.99 167.082 112.401 166.309C116.174 165.461 119.909 163.752 123.22 161.708C129.906 157.593 136.181 152.78 142.879 148.69C145.456 147.119 148.706 146.246 151.744 145.91C157.035 145.311 160.185 148.915 159.425 154.251C158.467 160.897 154.258 165.598 149.552 169.875C148.046 171.246 146.253 172.406 144.41 173.241C143.29 173.752 141.522 173.964 140.538 173.416C134.064 169.787 127.777 170.698 121.452 173.678C116.111 176.196 110.82 178.815 105.392 181.109C103.499 181.907 101.271 181.857 98.7932 182.269Z" fill="white"/>
<path d="M25.3543 123.191C24.8189 125.223 24.5948 126.757 24.0221 128.141C21.7188 133.715 21.6192 139.413 22.5779 145.261C22.7273 146.171 22.4285 147.493 21.8184 148.153C12.4186 158.415 12.2817 170.086 16.4026 182.455C16.552 182.916 16.6765 183.378 16.7886 183.852C16.8135 183.939 16.689 184.064 16.4773 184.425C12.0575 182.218 9.77919 178.34 8.63378 173.889C5.42166 161.345 5.89475 148.939 11.1362 136.981C13.8628 130.797 17.7473 125.548 25.3543 123.191Z" fill="white"/>
<path d="M131.118 86.5825C132.201 90.8718 133.296 95.0114 134.255 99.176C134.429 99.9241 134.392 101.084 133.944 101.57C131.167 104.513 128.242 107.318 125.166 110.373C120.958 100.361 126.212 93.5401 131.118 86.5825Z" fill="url(#paint0_linear_1236_902)"/>
<path d="M135.4 78.8643C139.036 82.1436 142.485 85.2732 146.257 88.6772C143.593 91.6198 140.592 94.9116 137.529 98.2782C132.973 92.2557 132.251 82.8543 135.4 78.8643Z" fill="url(#paint1_linear_1236_902)"/>
<path d="M121.006 102.979C121.479 105.909 121.952 108.478 122.301 111.071C122.375 111.62 122.213 112.38 121.852 112.767C119.25 115.51 116.574 118.178 113.785 121.009C110.971 115.859 114.308 111.969 121.006 102.979Z" fill="url(#paint2_linear_1236_902)"/>
<path d="M81.9868 131.881C88.5854 132.442 95.1839 133.016 102.106 133.602C102.106 133.926 102.106 135.048 102.106 136.545C95.1839 135.086 88.4982 133.677 81.8125 132.268C81.8623 132.143 81.9246 132.019 81.9868 131.881Z" fill="white"/>
<path d="M148.36 85.7474C144.973 85.9469 139.67 81.5205 137.615 76.1963C141.126 79.3135 144.998 82.7549 148.36 85.7474Z" fill="url(#paint3_linear_1236_902)"/>
<path d="M292.515 149.276C301.118 142.393 300.881 133.291 301.441 123.752C302.375 125.086 302.836 125.76 303.707 127.007C301.242 119.737 299.001 113.141 296.76 106.558C295.914 104.064 293.61 101.695 296.3 98.9268C299.325 95.8221 302.761 93.4281 307.218 94.7996C309.783 95.5852 312.522 96.9692 314.327 98.9019C326.429 111.882 332.778 127.069 329.703 145.024C328.894 149.75 326.342 154.351 323.889 158.59C321.175 163.266 315 164.974 309.808 163.578C307.019 162.829 306.135 161.458 306.845 158.59C308.476 152.094 309.758 145.535 308.065 138.827C307.866 138.029 307.554 137.256 306.77 136.545C306.932 138.453 307.243 140.361 307.231 142.268C307.218 144.189 306.895 146.096 306.608 149.051C304.99 146.021 303.832 143.864 302.686 141.72C305.5 153.69 303.695 164.612 295.926 175.248C291.456 169.65 287.223 164.351 282.928 158.989C284.746 157.356 286.24 156.009 287.734 154.662C287.597 154.401 287.46 154.139 287.323 153.877C286.252 154.376 285.07 154.712 284.123 155.386C282.219 156.757 281.086 156.321 279.691 154.475C268.287 139.538 260.568 122.48 250.969 105.311C256.771 108.029 261.651 108.041 266.382 104.899C262.423 104.899 258.601 104.899 254.791 104.899C254.754 104.625 254.729 104.351 254.691 104.076C257.269 102.044 259.833 100.012 262.41 97.9667C262.261 97.7298 262.112 97.4804 261.962 97.2435C260.829 97.7797 259.671 98.3034 258.551 98.8645C246.126 105.124 228.322 98.266 223.379 85.3109C220.777 78.5029 222.433 71.2336 227.712 66.296C232.767 61.5703 238.78 62.8421 241.307 69.2136C243.2 74.0141 244.345 79.1637 248.964 82.5179C250.296 83.4904 250.67 85.7847 251.479 87.468C251.766 87.3433 252.052 87.2186 252.338 87.0814C251.33 84.7124 250.321 82.3558 249.325 79.9867C252.102 78.7523 252.625 79.3508 255.799 87.4306C256.783 87.044 257.767 86.2834 258.688 86.3582C263.033 86.6824 267.366 87.1687 271.673 87.7423C276.79 88.4156 281.235 90.5602 284.447 94.6749C296.586 110.248 300.134 127.381 293.498 146.271C293.249 146.944 293.05 147.617 292.515 149.276Z" fill="white"/>
<path d="M257.114 182.904C258.882 180.435 260.911 178.003 262.505 175.323C266.887 167.954 265.48 160.397 259.243 154.624C257.711 153.203 256.964 150.909 255.881 149.013C255.769 148.814 255.881 148.477 255.757 148.303C249.258 139.674 247.776 126.969 235.774 122.891C231.641 121.482 227.072 121.358 221.344 120.422C227.408 116.732 232.55 113.016 238.165 110.31C248.199 105.46 248.672 105.547 253.466 115.585C264.509 138.689 278.217 159.998 294.775 179.5C296.344 181.345 296.904 183.24 295.809 185.497C295.124 186.906 294.638 188.452 293.767 189.724C287.591 198.652 279.026 203.914 268.431 205.846C264.808 206.507 262.442 202.829 263.102 199.325C263.65 196.445 263.301 193.078 262.305 190.298C261.359 187.692 259.056 185.572 257.114 182.904Z" fill="white"/>
<path d="M203.962 116.333C205.668 119.4 207.062 121.906 208.606 124.662C206.664 125.435 204.958 126.108 203.252 126.782C203.302 126.956 203.352 127.143 203.402 127.318C204.634 127.206 205.867 127.093 207.261 126.969C205.518 129.737 203.912 132.293 202.306 134.849C202.543 135.048 202.779 135.248 203.016 135.46C208.033 130.235 213.885 126.62 221.156 125.772C227.169 125.073 233.021 125.547 238.436 128.527C242.856 130.959 245.359 135.921 244.736 140.709C244.313 143.964 240.901 147.692 239.009 146.507C237.291 145.435 236.009 145.011 234.353 145.709C229.709 147.667 224.816 149.25 220.546 151.856C214.594 155.485 208.78 158.116 202.431 153.49C196.019 148.814 194.438 141.931 195.035 134.425C195.583 127.455 199.219 121.919 203.962 116.333Z" fill="white"/>
<path d="M209.999 160.298C216.124 159.849 220.382 156.408 224.516 152.854C228.201 149.687 232.11 147.991 237.128 148.789C242.369 149.625 245.892 146.919 247.835 142.056C252.391 145.971 253.487 154.089 250.487 159.662C244.959 169.911 227.989 175.211 217.631 169.812C213.945 167.904 211.368 164.911 209.999 160.298Z" fill="white"/>
<path d="M256.376 157.53C260.834 161.744 261.967 168.428 258.655 173.59C253.127 182.181 245.072 186.969 234.825 187.33C227.729 187.58 222.948 182.991 222.226 176.096C242.208 175.535 249.554 171.582 256.376 157.53Z" fill="white"/>
<path d="M234.396 191.557C234.247 192.33 234.11 193.091 233.961 193.913C234.384 193.851 234.633 193.876 234.807 193.789C237.061 192.716 239.277 191.557 241.58 190.572C244.668 189.25 247.755 187.891 250.968 186.943C252.287 186.557 254.503 186.632 255.3 187.467C257.242 189.512 258.861 191.981 260.118 194.524C261.575 197.467 260.38 199.524 257.242 200.709C254.105 201.894 250.233 201.931 248.577 205.796C248.403 206.208 247.27 206.283 246.573 206.382C239.576 207.33 232.292 202.517 230.388 195.721C229.479 192.492 230.699 191.17 234.396 191.557Z" fill="white"/>
<path d="M241.161 104.288C231.138 110.722 221.614 116.844 211.803 123.141C210.06 120.098 207.744 116.432 205.865 112.555C205.279 111.345 205.441 109.388 205.977 108.066C208.305 102.268 213.198 99.1257 218.613 96.7442C219.211 96.4823 220.419 96.9936 221.054 97.5048C222.361 98.5646 223.32 100.136 224.726 100.996C226.171 101.881 228.574 103.128 229.507 102.542C234.126 99.612 237.164 103.39 241.161 104.288ZM229.159 107.542C229.159 107.018 229.159 106.482 229.159 105.959C227.814 105.098 226.37 103.44 225.137 103.59C223.83 103.752 222.722 105.61 221.527 106.732C222.635 107.904 223.693 109.974 224.863 110.023C226.245 110.086 227.727 108.44 229.159 107.542ZM214.318 120.136C215.974 117.829 217.754 116.432 217.63 115.235C217.493 113.951 215.327 111.757 214.48 111.944C213.023 112.268 211.243 113.951 210.857 115.398C210.608 116.345 212.588 117.879 214.318 120.136ZM218.613 105.585C218.638 105.086 218.663 104.575 218.688 104.076C217.381 103.191 215.986 101.507 214.791 101.644C213.496 101.794 212.388 103.627 211.193 104.737C212.301 105.921 213.335 107.916 214.555 108.053C215.8 108.178 217.256 106.482 218.613 105.585Z" fill="white"/>
<path d="M199.316 107.48C203.338 101.445 209.662 97.7045 215.066 93.0661C215.514 92.6796 216.584 93.0162 218.128 93.0162C211.592 98.5025 205.803 103.353 200.026 108.203C199.789 107.966 199.553 107.717 199.316 107.48Z" fill="white"/>
<path d="M200.186 82.3806C196.153 82.2434 195.555 83.1661 196.738 89.6499C190.886 85.9716 184.562 82.3681 183.279 75.9716C180.889 64.0514 181.125 52.1188 194.82 45.3108C194.36 46.5452 193.999 47.4929 193.563 48.64C202.764 46.1961 208.789 38.827 210.109 28.7148C213.01 34.5004 211.255 41.1088 205.714 45.9592C202.714 48.5901 199.875 51.3956 197.037 54.2011C196.352 54.8744 195.966 55.8345 196.103 57.2435C200.971 53.7273 205.839 50.1986 210.707 46.6824C211.018 46.9193 211.329 47.1562 211.641 47.3931C210.022 49.6001 208.428 51.8195 206.773 53.9891C205.017 56.2958 202.826 58.3532 201.506 60.8719C200.411 62.9417 198.095 65.3981 201.033 68.0165C201.344 68.2908 200.909 69.3507 200.871 70.0489C200.647 74.0888 200.423 78.0913 200.186 82.3806Z" fill="white"/>
<path d="M50.0299 186.158C47.6644 173.378 70.9461 146.844 83.9191 148.228C68.0203 157.505 55.4581 168.689 50.0299 186.158Z" fill="url(#paint4_linear_1236_902)"/>
<path d="M229.159 107.543C227.728 108.44 226.246 110.099 224.864 110.024C223.694 109.962 222.635 107.904 221.527 106.732C222.723 105.61 223.831 103.752 225.138 103.59C226.358 103.44 227.815 105.099 229.159 105.959C229.159 106.483 229.159 107.006 229.159 107.543Z" fill="url(#paint5_linear_1236_902)"/>
<path d="M214.319 120.136C212.588 117.879 210.621 116.346 210.87 115.398C211.244 113.952 213.024 112.268 214.493 111.944C215.34 111.757 217.506 113.964 217.643 115.236C217.755 116.433 215.975 117.829 214.319 120.136Z" fill="url(#paint6_linear_1236_902)"/>
<path d="M218.616 105.585C217.259 106.482 215.815 108.191 214.558 108.054C213.337 107.916 212.304 105.921 211.196 104.737C212.391 103.64 213.487 101.794 214.794 101.645C215.989 101.507 217.384 103.191 218.691 104.076C218.666 104.575 218.641 105.086 218.616 105.585Z" fill="url(#paint7_linear_1236_902)"/>
<defs>
<linearGradient id="paint0_linear_1236_902" x1="26649.4" y1="55514.6" x2="26649.4" y2="54648.4" gradientUnits="userSpaceOnUse">
<stop stop-color="#9E6100"/>
<stop offset="0.49" stop-color="#642701"/>
<stop offset="0.65" stop-color="#682A01"/>
<stop offset="0.81" stop-color="#753401"/>
<stop offset="0.98" stop-color="#8A4401"/>
<stop offset="1" stop-color="#8C4601"/>
</linearGradient>
<linearGradient id="paint1_linear_1236_902" x1="31754.4" y1="45310.2" x2="31754.4" y2="44603.3" gradientUnits="userSpaceOnUse">
<stop stop-color="#9E6100"/>
<stop offset="0.49" stop-color="#642701"/>
<stop offset="0.65" stop-color="#682A01"/>
<stop offset="0.81" stop-color="#753401"/>
<stop offset="0.98" stop-color="#8A4401"/>
<stop offset="1" stop-color="#8C4601"/>
</linearGradient>
<linearGradient id="paint2_linear_1236_902" x1="23704.3" y1="42109.7" x2="23704.3" y2="41453.3" gradientUnits="userSpaceOnUse">
<stop stop-color="#9E6100"/>
<stop offset="0.49" stop-color="#642701"/>
<stop offset="0.65" stop-color="#682A01"/>
<stop offset="0.81" stop-color="#753401"/>
<stop offset="0.98" stop-color="#8A4401"/>
<stop offset="1" stop-color="#8C4601"/>
</linearGradient>
<linearGradient id="paint3_linear_1236_902" x1="26720.3" y1="22343.9" x2="26720.3" y2="21995.9" gradientUnits="userSpaceOnUse">
<stop stop-color="#9E6100"/>
<stop offset="0.49" stop-color="#642701"/>
<stop offset="0.65" stop-color="#682A01"/>
<stop offset="0.81" stop-color="#753401"/>
<stop offset="0.98" stop-color="#8A4401"/>
<stop offset="1" stop-color="#8C4601"/>
</linearGradient>
<linearGradient id="paint4_linear_1236_902" x1="84308.7" y1="88640.7" x2="84308.7" y2="87257.7" gradientUnits="userSpaceOnUse">
<stop stop-color="#9E6100"/>
<stop offset="0.49" stop-color="#642701"/>
<stop offset="0.65" stop-color="#682A01"/>
<stop offset="0.81" stop-color="#753401"/>
<stop offset="0.98" stop-color="#8A4401"/>
<stop offset="1" stop-color="#8C4601"/>
</linearGradient>
<linearGradient id="paint5_linear_1236_902" x1="19103.6" y1="15121.3" x2="19103.6" y2="14886.6" gradientUnits="userSpaceOnUse">
<stop stop-color="#9E6100"/>
<stop offset="0.49" stop-color="#642701"/>
<stop offset="0.65" stop-color="#682A01"/>
<stop offset="0.81" stop-color="#753401"/>
<stop offset="0.98" stop-color="#8A4401"/>
<stop offset="1" stop-color="#8C4601"/>
</linearGradient>
<linearGradient id="paint6_linear_1236_902" x1="17033" y1="19224" x2="17033" y2="18925.3" gradientUnits="userSpaceOnUse">
<stop stop-color="#9E6100"/>
<stop offset="0.49" stop-color="#642701"/>
<stop offset="0.65" stop-color="#682A01"/>
<stop offset="0.81" stop-color="#753401"/>
<stop offset="0.98" stop-color="#8A4401"/>
<stop offset="1" stop-color="#8C4601"/>
</linearGradient>
<linearGradient id="paint7_linear_1236_902" x1="18754.5" y1="15070" x2="18754.5" y2="14836.1" gradientUnits="userSpaceOnUse">
<stop stop-color="#9E6100"/>
<stop offset="0.49" stop-color="#642701"/>
<stop offset="0.65" stop-color="#682A01"/>
<stop offset="0.81" stop-color="#753401"/>
<stop offset="0.98" stop-color="#8A4401"/>
<stop offset="1" stop-color="#8C4601"/>
</linearGradient>
</defs>
</svg>
