<svg width="18" height="17" viewBox="0 0 18 17" fill="none" xmlns="http://www.w3.org/2000/svg">
<path d="M16.1869 2.03764L12.0798 2.03766V1.01538C12.0798 0.73198 11.8503 0.502441 11.5669 0.502441C11.2835 0.502441 11.0539 0.73198 11.0539 1.01538V2.0374H6.95046V1.01538C6.95046 0.73198 6.72092 0.502441 6.43753 0.502441C6.15413 0.502441 5.92459 0.73198 5.92459 1.01538V2.0374H1.8247C1.25816 2.0374 0.798828 2.49673 0.798828 3.06327V15.8867C0.798828 16.4532 1.25816 16.9125 1.8247 16.9125H16.1869C16.7534 16.9125 17.2128 16.4532 17.2128 15.8867V3.06327C17.2128 2.49697 16.7534 2.03764 16.1869 2.03764ZM16.1869 15.8867H1.8247V3.06327H5.92459V3.58005C5.92459 3.86344 6.15413 4.09299 6.43753 4.09299C6.72092 4.09299 6.95046 3.86344 6.95046 3.58005V3.06353H11.0539V3.58031C11.0539 3.86371 11.2835 4.09325 11.5669 4.09325C11.8503 4.09325 12.0798 3.86371 12.0798 3.58031V3.06353H16.1869V15.8867ZM12.5963 8.7058H13.6222C13.9054 8.7058 14.1351 8.47601 14.1351 8.19287V7.167C14.1351 6.88386 13.9054 6.65406 13.6222 6.65406H12.5963C12.3132 6.65406 12.0834 6.88386 12.0834 7.167V8.19287C12.0834 8.47601 12.3132 8.7058 12.5963 8.7058ZM12.5963 12.809H13.6222C13.9054 12.809 14.1351 12.5795 14.1351 12.2961V11.2702C14.1351 10.9871 13.9054 10.7573 13.6222 10.7573H12.5963C12.3132 10.7573 12.0834 10.9871 12.0834 11.2702V12.2961C12.0834 12.5797 12.3132 12.809 12.5963 12.809ZM9.51873 10.7573H8.49286C8.20972 10.7573 7.97992 10.9871 7.97992 11.2702V12.2961C7.97992 12.5795 8.20972 12.809 8.49286 12.809H9.51873C9.80187 12.809 10.0317 12.5795 10.0317 12.2961V11.2702C10.0317 10.9873 9.80187 10.7573 9.51873 10.7573ZM9.51873 6.65406H8.49286C8.20972 6.65406 7.97992 6.88386 7.97992 7.167V8.19287C7.97992 8.47601 8.20972 8.7058 8.49286 8.7058H9.51873C9.80187 8.7058 10.0317 8.47601 10.0317 8.19287V7.167C10.0317 6.8836 9.80187 6.65406 9.51873 6.65406ZM5.41525 6.65406H4.38938C4.10624 6.65406 3.87644 6.88386 3.87644 7.167V8.19287C3.87644 8.47601 4.10624 8.7058 4.38938 8.7058H5.41525C5.69839 8.7058 5.92818 8.47601 5.92818 8.19287V7.167C5.92818 6.8836 5.69839 6.65406 5.41525 6.65406ZM5.41525 10.7573H4.38938C4.10624 10.7573 3.87644 10.9871 3.87644 11.2702V12.2961C3.87644 12.5795 4.10624 12.809 4.38938 12.809H5.41525C5.69839 12.809 5.92818 12.5795 5.92818 12.2961V11.2702C5.92818 10.9873 5.69839 10.7573 5.41525 10.7573Z" fill="#828282"/>
</svg>
