<svg width="1440" height="132" viewBox="0 0 1440 132" fill="none" xmlns="http://www.w3.org/2000/svg">
<path d="M2637.23 116.923C2635.76 101.748 2599.93 105.984 2591.51 106.174C2570.18 110.6 2546.21 102.001 2525.5 108.83C2510.25 114.268 2496.73 121.16 2480.81 120.527C2467.48 107.881 2453.03 123.057 2440.25 118.441C2431.4 116.038 2422.98 105.036 2413.94 109.652C2411.61 109.456 2409.33 108.79 2407.24 107.691C2405.46 108.197 2404.6 109.525 2402.33 102.759C2396.18 108.64 2382.23 102.38 2376.08 102.759C2372.07 101.657 2367.86 101.577 2363.81 102.524C2359.76 103.472 2356 105.419 2352.85 108.197C2345.23 112.94 2341.85 122.424 2332.26 113.635C2326.11 119.958 2301.53 119.452 2295.38 112.244C2291.88 102.317 2293.91 105.921 2292.31 102.507C2290.71 99.0921 2286.16 93.6542 2281.68 94.0968C2274.6 89.8234 2266.61 87.4039 2258.41 87.0511C2250.21 86.6982 2242.06 88.4229 2234.66 92.0734C2216.22 85.7503 2194.28 80.4389 2176.39 90.9985C2170.24 90.9985 2169.94 94.5394 2163.48 105.036C2158.63 116.986 2152.79 104.277 2147.63 106.364C2136.79 105.782 2125.92 106.269 2115.17 107.818C2107.37 115.216 2106.94 113.256 2097.47 117.176C2077.44 120.907 2057.03 115.975 2037.98 119.958C2025.69 123.562 2010.2 116.923 1997.29 120.717C1980.88 142.026 1956.91 109.083 1944.49 127.925C1940.07 134.249 1937.49 144.302 1931.1 138.232C1927.35 136.778 1923.66 142.342 1919.97 144.176C1905.83 145.82 1897.91 131.846 1884.45 138.485C1877.99 125.839 1871.42 135.323 1864.96 138.485C1856.36 141.267 1844.8 139.244 1836.51 139.054C1830.36 146.136 1826.49 142.342 1819.3 148.475C1813.7 152.143 1807.99 145.377 1802.27 149.234C1786.04 150.436 1769.27 135.703 1752.73 145.44C1739.96 152.71 1725.53 156.334 1710.94 155.937C1712.91 137.473 1660.85 158.909 1649.84 145.567C1632.94 136.462 1616.47 153.787 1599.88 153.66C1585.74 170.543 1572.1 149.93 1557.47 156.379C1553.11 158.264 1548.34 158.924 1543.66 158.29C1538.97 157.657 1534.53 155.754 1530.79 152.775C1525.51 147.527 1528.4 148.665 1522.43 149.171C1520.77 132.415 1517.64 147.148 1515.73 149.171C1506.7 141.141 1496.25 153.344 1487.46 148.855C1481.01 154.103 1475.97 150.309 1470.5 158.15C1460.54 155.241 1450.34 267.979 1438.6 270.065C1422.07 269.686 1405.66 265.45 1390.04 272.974C1377.01 279.297 1362.63 267.283 1349.97 266.651C1343.03 259.822 1341.43 263.679 1335.59 261.529C1332.33 262.604 1329.44 251.981 1326.06 259.253C1321.96 261.463 1317.39 262.618 1312.76 262.618C1308.12 262.618 1303.56 261.463 1299.45 259.253C1290.97 248.44 1281.93 264.122 1273.51 259.632C1263.8 278.602 1255.81 253.309 1246.35 251.918C1229.01 255.902 1210.27 258.747 1192.81 251.918C1185.74 254.068 1177.2 251.096 1170.38 251.159C1163.56 251.223 1162.14 243.445 1156.49 238.956C1144.81 228.017 1124.16 247.113 1111.07 237.754C1104.43 242.37 1100.68 228.206 1093.49 234.087C1081.2 229.598 1082.3 232.253 1073.08 224.729C1062.82 212.588 1042.35 222.2 1031.97 225.93C1023.67 237.438 1019.67 231.305 1016.05 234.783C1012.24 236.3 1011.93 243.192 1004.68 250.401C998.531 251.728 993.552 266.398 985.378 263.047C975.974 269.876 969.951 259.506 962.883 259.632C951.758 246.607 934.733 257.609 922.932 259.316C906.645 262.92 890.296 257.04 873.763 259.316C862.269 251.602 850.715 258.81 839.16 259.316C833.013 258.368 820.721 262.667 821.09 252.677C809.228 247.365 795.583 250.211 783.536 251.539C782.553 244.014 784.581 236.743 783.045 234.783C771.797 240.473 761.041 222.136 749.364 226.815C741.128 224.982 732.769 236.49 724.779 226.815C705.971 223.78 687.102 232.506 668.295 226.815C662.045 226.092 655.873 224.779 649.856 222.895C640.145 218.785 634.061 207.846 622.69 216.066C612.303 213.474 602.039 219.734 591.959 217.9C579.667 217.9 583.785 212.588 575.118 212.209C568.972 203.61 556.68 216.572 549.858 212.209C538.426 224.855 526.809 204.621 515.377 212.209C505.543 216.066 504.867 215.307 497.43 222.895C489.932 217.647 478.992 226.626 470.264 230.23C460.307 237.185 452.44 227.764 442.545 234.593C435.907 232.38 433.325 244.014 426.81 235.035C422.078 235.794 420.295 232.253 416.239 225.424C411.937 211.324 410.093 218.722 404.807 222.958C398.231 219.797 391.716 226.499 385.139 222.958C377.825 230.293 370.45 212.841 363.074 222.958C356.006 217.647 344.636 223.527 338.489 223.338C332.343 226.626 328.471 224.602 322.017 214.801C314.458 210.628 311.016 203.041 302.903 214.801C288.36 222.4 273.229 228.745 257.667 233.771C244.698 229.471 231.73 240.094 218.761 233.771C207.514 230.546 198.847 246.733 188.03 237.438C179.057 238.513 169.96 235.288 160.925 237.438C152.259 235.857 143.593 229.534 134.988 237.438C129.211 237.438 119.869 233.455 114.89 240.789C100.631 255.649 91.9648 257.04 76.4149 259.379C68.6707 260.265 60.8035 267.346 53.1822 260.201C47.036 253.183 40.8898 263.047 34.7436 266.524C19.7468 271.899 1.73843 268.674 -7.23503 255.712C-18.8514 239.967 -34.5857 240.789 -53.0243 241.422C-61.8134 247.745 -68.8815 237.565 -77.3018 237.754C-79.2072 244.394 -82.5876 241.106 -84.37 238.071C-87.7504 237.501 -87.1358 236.806 -89.7172 232.886C-103.362 222.389 -117.437 220.239 -129.483 237.818C-129.483 237.438 -133.786 111.549 -138.149 97.1951C-142.513 79.4904 -146.877 61.2167 -146.877 59.2565C-136.428 66.2119 -126.041 79.8698 -114.978 81.1977C-108.832 78.542 -94.7571 87.5208 -88.6109 81.1977C-78.8384 79.2375 -72.6307 68.0456 -63.6572 75.823C-54.1921 70.6381 -44.604 67.2236 -35.3847 76.2656C-25.3664 80.5654 -18.5441 104.277 -7.60381 91.8205C8.56073 92.1999 18.5176 93.9704 31.3017 105.478C44.0858 116.986 65.0444 104.973 80.0412 97.5113C93.6857 95.7408 108.191 86.3826 122.512 95.8041C136.894 92.0102 151.091 93.2748 164.183 90.3662C179.425 76.3289 194.422 70.0058 211.816 74.5584C227.735 77.7832 241.748 84.9916 258.097 73.7364C265.657 84.1696 271.373 74.2423 278.933 70.4484C295.007 67.7443 310.897 63.9849 326.504 59.1933C339.165 55.2097 346.234 36.7463 358.28 38.4535C367.254 21.0018 377.456 46.0412 386.614 38.4535C396.079 43.4488 403.27 36.4934 413.166 30.5497C421.525 39.9711 430.621 26.9454 439.041 30.929C455.513 29.6644 479.729 25.7441 494.357 35.2287C499.028 30.4232 501.794 31.0555 507.08 44.7134C513.656 44.7134 522.015 36.3036 528.776 45.156C537.258 45.156 540.7 57.8022 548.751 52.554C552.562 58.8771 556.127 53.1231 559.999 53.0599C561.781 53.0599 565.162 47.4956 567.927 60.5844C574.688 60.9638 584.092 54.2613 591.344 65.8326C597.491 70.3852 602.961 79.0478 609.23 69.3102C616.79 61.5328 618.757 50.7836 627.669 56.0317C630.464 56.8342 633.066 58.2269 635.31 60.1212C637.553 62.0155 639.388 64.3697 640.699 67.0339C649.611 81.1977 662.702 68.425 673.396 70.322C694.662 75.3172 716.051 81.83 737.317 70.322C742.726 72.4718 746.967 69.8161 752.129 71.713C759.935 81.0712 759.505 76.1392 768.232 81.4506C782.86 80.5654 798.164 68.8044 813.1 77.4038C821.274 90.05 828.219 78.4788 836.64 81.1345C837.657 79.9259 838.933 78.9773 840.368 78.3635C841.802 77.7498 843.356 77.4878 844.906 77.5982C846.456 77.7086 847.96 78.1884 849.299 78.9996C850.638 79.8109 851.775 80.9314 852.62 82.2726C858.397 88.2163 855.877 92.3896 859.135 98.523C864.667 105.162 884.211 106.68 894.353 102.57C903.449 89.228 912.791 94.9188 921.642 102.57C934.918 108.197 944.752 104.593 955.876 94.6659C962.453 74.6217 965.464 89.3545 972.471 84.5489C979.047 88.5325 983.288 74.179 989.127 76.4554C999.207 67.8559 1012.05 77.0244 1025.45 65.6428C1038.85 62.1019 1052.74 57.1699 1064.85 66.7178C1079.97 63.6827 1095.58 68.9941 1109.84 70.2587C1117.15 80.5021 1116.78 77.72 1124.71 73.6732C1130.9 74.771 1136.82 77.0669 1142.17 80.4389C1152.86 67.7927 1166.45 71.4601 1177.69 81.0712C1188.51 76.7715 1199.51 80.5654 1210.27 81.0712C1224.83 86.1297 1240.57 75.6333 1256.24 74.0526C1271.98 82.3358 1287.59 86.6988 1301.85 80.8183C1306.27 88.5325 1309.22 83.9166 1313.16 90.872C1314.02 84.5489 1320.22 97.1951 1320.72 98.2068C1329.57 106.047 1338.05 95.235 1346.28 95.5511C1357.35 92.0102 1366.32 102.38 1376.28 88.0266C1385.17 83.7979 1393.25 77.9498 1400.12 70.7646C1409.69 69.4072 1419.43 70.8765 1428.21 75.001C1432.04 75.9112 1436.03 75.7457 1439.77 74.5219C1443.51 73.2981 1446.87 71.0612 1449.48 68.0456C1453.84 58.8771 1453.9 55.3994 1460.17 64.2518C1466.69 58.3081 1473.33 84.296 1479.78 77.8464C1488.63 83.5372 1499.32 78.2258 1508.97 80.3125C1522.07 76.898 1535.59 62.1652 1549.23 76.898C1562.88 80.5654 1576.52 72.4718 1589.92 77.5303C1595.33 67.3501 1606.88 86.6988 1611.37 77.5303C1615.86 81.7668 1615.61 81.7668 1620.28 92.0102C1624.95 108.83 1634.48 108.64 1640.26 95.3615C1647.65 95.7899 1655.05 94.4929 1661.89 91.5676C1671.91 77.72 1682.17 90.7456 1692.19 91.1882C1701.45 89.9166 1710.82 92.4122 1718.31 98.1436C1732.57 104.467 1740.69 94.7291 1751.5 86.8885C1757.65 77.2141 1758.82 82.3991 1766.19 79.1111C1771.05 71.0175 1775.17 78.7316 1780.14 70.6381C1788.69 73.9893 1799.81 61.027 1808.79 70.069C1817.64 66.7178 1822.98 72.535 1830.85 73.9261C1836.44 71.966 1839.46 81.7667 1843.76 69.247C1850.76 56.6008 1850.83 78.6052 1859.25 62.9239C1869.82 74.8746 1880.94 62.9239 1891.58 62.9239C1896.92 56.0949 1903.07 65.5796 1908.35 62.9239C1916.84 61.596 1912.84 65.2002 1919.42 69.247C1927.35 78.289 1935.03 86.5091 1945.29 73.61C1952.85 81.4506 1960.41 76.5818 1967.91 73.61C1974.06 71.8395 1980.2 74.432 1985.86 72.9776C1991.27 77.6567 1996.55 68.5515 2002.45 65.3267C2008.23 56.5376 2014.44 66.9707 2020.22 61.5329C2030.54 65.137 2038.22 49.9615 2048.49 45.5986C2058.75 29.285 2070.12 44.9663 2080.63 44.3972C2088.93 36.9992 2094.95 46.1677 2103.31 34.8493C2108.48 52.3011 2113.58 30.9922 2118.49 32.5098C2121.69 33.3318 2125.13 17.7769 2128.76 26.6293C2131.89 21.3811 2135.64 36.4934 2138.9 27.1984C2149.04 28.5263 2152.3 27.5146 2159.98 16.133C2176.27 5.95276 2195.32 -7.57867 2215.3 5.51016C2225.81 3.10739 2236.25 6.33215 2246.76 5.51016C2261.09 -0.812927 2275.34 7.5968 2289.79 5.51016C2304.11 -0.117401 2318.37 5.51016 2332.81 5.51016C2341.29 8.10263 2347.07 11.8332 2354.75 9.17752C2360.9 12.0229 2367.05 3.36026 2373.19 9.17752C2384.01 5.51013 2399.13 2.41183 2408.29 19.421C2412.28 25.7441 2413.33 32.8892 2416.83 27.8307C2419.04 23.9104 2421.26 27.8307 2423.47 34.5332C2427.16 43.5752 2428.75 49.0763 2428.32 45.5986C2439.88 57.486 2472.15 46.5471 2489.79 53.2496C2502.75 55.5259 2515.54 59.5726 2529.43 55.7156C2537.23 50.2145 2541.17 60.7741 2548.3 62.5445C2558.32 64.6944 2570.67 57.5493 2580.93 63.1768C2595.13 66.1487 2609.02 55.2729 2622.97 61.4064C2636.93 61.9122 2650.88 64.9473 2665.08 59.5726C2665.08 62.671 2637.23 114.394 2637.23 116.923Z" fill="var(--main-background-color)"/>
</svg>
